# m1.obj - tools/build_raid_meshes.py. Game units, Y negative up.
v 1362.5 -150.0 0.0
v 1357.8 -150.0 329.5
v 1343.7 -150.0 433.3
v 1320.0 -150.0 506.7
v 1286.3 -150.0 563.8
v 1242.0 -150.0 610.0
v 1186.1 -150.0 647.7
v 1117.1 -150.0 678.2
v 1032.5 -150.0 702.4
v 927.8 -150.0 720.8
v 793.4 -150.0 733.8
v 603.4 -150.0 741.4
v 0.0 -150.0 744.0
v -603.4 -150.0 741.4
v -793.4 -150.0 733.8
v -927.8 -150.0 720.8
v -1032.5 -150.0 702.4
v -1117.1 -150.0 678.2
v -1186.1 -150.0 647.7
v -1242.0 -150.0 610.0
v -1286.3 -150.0 563.8
v -1320.0 -150.0 506.7
v -1343.7 -150.0 433.3
v -1357.8 -150.0 329.5
v -1362.5 -150.0 0.0
v -1357.8 -150.0 -329.5
v -1343.7 -150.0 -433.3
v -1320.0 -150.0 -506.7
v -1286.3 -150.0 -563.8
v -1242.0 -150.0 -610.0
v -1186.1 -150.0 -647.7
v -1117.1 -150.0 -678.2
v -1032.5 -150.0 -702.4
v -927.8 -150.0 -720.8
v -793.4 -150.0 -733.8
v -603.4 -150.0 -741.4
v -0.0 -150.0 -744.0
v 603.4 -150.0 -741.4
v 793.4 -150.0 -733.8
v 927.8 -150.0 -720.8
v 1032.5 -150.0 -702.4
v 1117.1 -150.0 -678.2
v 1186.1 -150.0 -647.7
v 1242.0 -150.0 -610.0
v 1286.3 -150.0 -563.8
v 1320.0 -150.0 -506.7
v 1343.7 -150.0 -433.3
v 1357.8 -150.0 -329.5
v 1450.3 -661.5 0.0
v 1445.4 -661.5 350.8
v 1430.4 -661.5 461.2
v 1405.1 -661.5 539.3
v 1369.3 -661.5 600.2
v 1322.1 -661.5 649.4
v 1262.6 -661.5 689.5
v 1189.2 -661.5 722.0
v 1099.2 -661.5 747.7
v 987.7 -661.5 767.3
v 844.6 -661.5 781.1
v 642.3 -661.5 789.3
v 0.0 -661.5 792.0
v -642.3 -661.5 789.3
v -844.6 -661.5 781.1
v -987.7 -661.5 767.3
v -1099.2 -661.5 747.7
v -1189.2 -661.5 722.0
v -1262.6 -661.5 689.5
v -1322.1 -661.5 649.4
v -1369.3 -661.5 600.2
v -1405.1 -661.5 539.3
v -1430.4 -661.5 461.2
v -1445.4 -661.5 350.8
v -1450.3 -661.5 0.0
v -1445.4 -661.5 -350.8
v -1430.4 -661.5 -461.2
v -1405.1 -661.5 -539.3
v -1369.3 -661.5 -600.2
v -1322.1 -661.5 -649.4
v -1262.6 -661.5 -689.5
v -1189.2 -661.5 -722.0
v -1099.2 -661.5 -747.7
v -987.7 -661.5 -767.3
v -844.6 -661.5 -781.1
v -642.3 -661.5 -789.3
v -0.0 -661.5 -792.0
v 642.3 -661.5 -789.3
v 844.6 -661.5 -781.1
v 987.7 -661.5 -767.3
v 1099.2 -661.5 -747.7
v 1189.2 -661.5 -722.0
v 1262.6 -661.5 -689.5
v 1322.1 -661.5 -649.4
v 1369.3 -661.5 -600.2
v 1405.1 -661.5 -539.3
v 1430.4 -661.5 -461.2
v 1445.4 -661.5 -350.8
v 1465.0 -1010.0 0.0
v 1460.0 -1010.0 354.3
v 1444.8 -1010.0 465.9
v 1419.3 -1010.0 544.8
v 1383.1 -1010.0 606.3
v 1335.4 -1010.0 655.9
v 1275.4 -1010.0 696.4
v 1201.2 -1010.0 729.3
v 1110.3 -1010.0 755.3
v 997.6 -1010.0 775.1
v 853.2 -1010.0 789.0
v 648.8 -1010.0 797.3
v 0.0 -1010.0 800.0
v -648.8 -1010.0 797.3
v -853.2 -1010.0 789.0
v -997.6 -1010.0 775.1
v -1110.3 -1010.0 755.3
v -1201.2 -1010.0 729.3
v -1275.4 -1010.0 696.4
v -1335.4 -1010.0 655.9
v -1383.1 -1010.0 606.3
v -1419.3 -1010.0 544.8
v -1444.8 -1010.0 465.9
v -1460.0 -1010.0 354.3
v -1465.0 -1010.0 0.0
v -1460.0 -1010.0 -354.3
v -1444.8 -1010.0 -465.9
v -1419.3 -1010.0 -544.8
v -1383.1 -1010.0 -606.3
v -1335.4 -1010.0 -655.9
v -1275.4 -1010.0 -696.4
v -1201.2 -1010.0 -729.3
v -1110.3 -1010.0 -755.3
v -997.6 -1010.0 -775.1
v -853.2 -1010.0 -789.0
v -648.8 -1010.0 -797.3
v -0.0 -1010.0 -800.0
v 648.8 -1010.0 -797.3
v 853.2 -1010.0 -789.0
v 997.6 -1010.0 -775.1
v 1110.3 -1010.0 -755.3
v 1201.2 -1010.0 -729.3
v 1275.4 -1010.0 -696.4
v 1335.4 -1010.0 -655.9
v 1383.1 -1010.0 -606.3
v 1419.3 -1010.0 -544.8
v 1444.8 -1010.0 -465.9
v 1460.0 -1010.0 -354.3
v 1490.0 -1050.0 0.0
v 1484.9 -1050.0 365.4
v 1469.5 -1050.0 480.5
v 1443.6 -1050.0 561.8
v 1406.7 -1050.0 625.2
v 1358.2 -1050.0 676.4
v 1297.1 -1050.0 718.2
v 1221.7 -1050.0 752.0
v 1129.2 -1050.0 778.9
v 1014.7 -1050.0 799.3
v 867.7 -1050.0 813.6
v 659.9 -1050.0 822.2
v 0.0 -1050.0 825.0
v -659.9 -1050.0 822.2
v -867.7 -1050.0 813.6
v -1014.7 -1050.0 799.3
v -1129.2 -1050.0 778.9
v -1221.7 -1050.0 752.0
v -1297.1 -1050.0 718.2
v -1358.2 -1050.0 676.4
v -1406.7 -1050.0 625.2
v -1443.6 -1050.0 561.8
v -1469.5 -1050.0 480.5
v -1484.9 -1050.0 365.4
v -1490.0 -1050.0 0.0
v -1484.9 -1050.0 -365.4
v -1469.5 -1050.0 -480.5
v -1443.6 -1050.0 -561.8
v -1406.7 -1050.0 -625.2
v -1358.2 -1050.0 -676.4
v -1297.1 -1050.0 -718.2
v -1221.7 -1050.0 -752.0
v -1129.2 -1050.0 -778.9
v -1014.7 -1050.0 -799.3
v -867.7 -1050.0 -813.6
v -659.9 -1050.0 -822.2
v -0.0 -1050.0 -825.0
v 659.9 -1050.0 -822.2
v 867.7 -1050.0 -813.6
v 1014.7 -1050.0 -799.3
v 1129.2 -1050.0 -778.9
v 1221.7 -1050.0 -752.0
v 1297.1 -1050.0 -718.2
v 1358.2 -1050.0 -676.4
v 1406.7 -1050.0 -625.2
v 1443.6 -1050.0 -561.8
v 1469.5 -1050.0 -480.5
v 1484.9 -1050.0 -365.4
v 1480.0 -1080.0 0.0
v 1474.9 -1080.0 360.9
v 1459.6 -1080.0 474.6
v 1433.9 -1080.0 555.0
v 1397.2 -1080.0 617.7
v 1349.1 -1080.0 668.2
v 1288.4 -1080.0 709.5
v 1213.5 -1080.0 742.9
v 1121.6 -1080.0 769.4
v 1007.9 -1080.0 789.6
v 861.9 -1080.0 803.8
v 655.5 -1080.0 812.2
v 0.0 -1080.0 815.0
v -655.5 -1080.0 812.2
v -861.9 -1080.0 803.8
v -1007.9 -1080.0 789.6
v -1121.6 -1080.0 769.4
v -1213.5 -1080.0 742.9
v -1288.4 -1080.0 709.5
v -1349.1 -1080.0 668.2
v -1397.2 -1080.0 617.7
v -1433.9 -1080.0 555.0
v -1459.6 -1080.0 474.6
v -1474.9 -1080.0 360.9
v -1480.0 -1080.0 0.0
v -1474.9 -1080.0 -360.9
v -1459.6 -1080.0 -474.6
v -1433.9 -1080.0 -555.0
v -1397.2 -1080.0 -617.7
v -1349.1 -1080.0 -668.2
v -1288.4 -1080.0 -709.5
v -1213.5 -1080.0 -742.9
v -1121.6 -1080.0 -769.4
v -1007.9 -1080.0 -789.6
v -861.9 -1080.0 -803.8
v -655.5 -1080.0 -812.2
v -0.0 -1080.0 -815.0
v 655.5 -1080.0 -812.2
v 861.9 -1080.0 -803.8
v 1007.9 -1080.0 -789.6
v 1121.6 -1080.0 -769.4
v 1213.5 -1080.0 -742.9
v 1288.4 -1080.0 -709.5
v 1349.1 -1080.0 -668.2
v 1397.2 -1080.0 -617.7
v 1433.9 -1080.0 -555.0
v 1459.6 -1080.0 -474.6
v 1474.9 -1080.0 -360.9
v 0.0 -150.0 0.0
v -1100.0 -183.9 -638.8
v -1155.7 -189.4 -614.0
v -1178.8 -183.5 -557.6
v -1155.7 -169.7 -502.6
v -1100.0 -156.1 -481.2
v -1044.3 -150.6 -506.0
v -1021.2 -156.5 -562.4
v -1044.3 -170.3 -617.4
v -1130.0 -10.4 -649.1
v -1171.8 -14.5 -630.5
v -1189.1 -10.1 -588.2
v -1171.8 0.2 -547.0
v -1130.0 10.4 -530.9
v -1088.2 14.5 -549.5
v -1070.9 10.1 -591.8
v -1088.2 -0.2 -633.0
v -1100.0 -183.9 -638.8
v -1155.7 -189.4 -614.0
v -1178.8 -183.5 -557.6
v -1155.7 -169.7 -502.6
v -1100.0 -156.1 -481.2
v -1044.3 -150.6 -506.0
v -1021.2 -156.5 -562.4
v -1044.3 -170.3 -617.4
v -1100.0 -170.0 -560.0
v -1130.0 -10.4 -649.1
v -1171.8 -14.5 -630.5
v -1189.1 -10.1 -588.2
v -1171.8 0.2 -547.0
v -1130.0 10.4 -530.9
v -1088.2 14.5 -549.5
v -1070.9 10.1 -591.8
v -1088.2 -0.2 -633.0
v -1130.0 0.0 -590.0
v -1100.0 -156.1 481.2
v -1155.7 -169.7 502.6
v -1178.8 -183.5 557.6
v -1155.7 -189.4 614.0
v -1100.0 -183.9 638.8
v -1044.3 -170.3 617.4
v -1021.2 -156.5 562.4
v -1044.3 -150.6 506.0
v -1130.0 10.4 530.9
v -1171.8 0.2 547.0
v -1189.1 -10.1 588.2
v -1171.8 -14.5 630.5
v -1130.0 -10.4 649.1
v -1088.2 -0.2 633.0
v -1070.9 10.1 591.8
v -1088.2 14.5 549.5
v -1100.0 -156.1 481.2
v -1155.7 -169.7 502.6
v -1178.8 -183.5 557.6
v -1155.7 -189.4 614.0
v -1100.0 -183.9 638.8
v -1044.3 -170.3 617.4
v -1021.2 -156.5 562.4
v -1044.3 -150.6 506.0
v -1100.0 -170.0 560.0
v -1130.0 10.4 530.9
v -1171.8 0.2 547.0
v -1189.1 -10.1 588.2
v -1171.8 -14.5 630.5
v -1130.0 -10.4 649.1
v -1088.2 -0.2 633.0
v -1070.9 10.1 591.8
v -1088.2 14.5 549.5
v -1130.0 0.0 590.0
v 1100.0 -183.9 -638.8
v 1044.3 -170.3 -617.4
v 1021.2 -156.5 -562.4
v 1044.3 -150.6 -506.0
v 1100.0 -156.1 -481.2
v 1155.7 -169.7 -502.6
v 1178.8 -183.5 -557.6
v 1155.7 -189.4 -614.0
v 1130.0 -10.4 -649.1
v 1088.2 -0.2 -633.0
v 1070.9 10.1 -591.8
v 1088.2 14.5 -549.5
v 1130.0 10.4 -530.9
v 1171.8 0.2 -547.0
v 1189.1 -10.1 -588.2
v 1171.8 -14.5 -630.5
v 1100.0 -183.9 -638.8
v 1044.3 -170.3 -617.4
v 1021.2 -156.5 -562.4
v 1044.3 -150.6 -506.0
v 1100.0 -156.1 -481.2
v 1155.7 -169.7 -502.6
v 1178.8 -183.5 -557.6
v 1155.7 -189.4 -614.0
v 1100.0 -170.0 -560.0
v 1130.0 -10.4 -649.1
v 1088.2 -0.2 -633.0
v 1070.9 10.1 -591.8
v 1088.2 14.5 -549.5
v 1130.0 10.4 -530.9
v 1171.8 0.2 -547.0
v 1189.1 -10.1 -588.2
v 1171.8 -14.5 -630.5
v 1130.0 0.0 -590.0
v 1100.0 -156.1 481.2
v 1044.3 -150.6 506.0
v 1021.2 -156.5 562.4
v 1044.3 -170.3 617.4
v 1100.0 -183.9 638.8
v 1155.7 -189.4 614.0
v 1178.8 -183.5 557.6
v 1155.7 -169.7 502.6
v 1130.0 10.4 530.9
v 1088.2 14.5 549.5
v 1070.9 10.1 591.8
v 1088.2 -0.2 633.0
v 1130.0 -10.4 649.1
v 1171.8 -14.5 630.5
v 1189.1 -10.1 588.2
v 1171.8 0.2 547.0
v 1100.0 -156.1 481.2
v 1044.3 -150.6 506.0
v 1021.2 -156.5 562.4
v 1044.3 -170.3 617.4
v 1100.0 -183.9 638.8
v 1155.7 -189.4 614.0
v 1178.8 -183.5 557.6
v 1155.7 -169.7 502.6
v 1100.0 -170.0 560.0
v 1130.0 10.4 530.9
v 1088.2 14.5 549.5
v 1070.9 10.1 591.8
v 1088.2 -0.2 633.0
v 1130.0 -10.4 649.1
v 1171.8 -14.5 630.5
v 1189.1 -10.1 588.2
v 1171.8 0.2 547.0
v 1130.0 0.0 590.0
f 1 2 50
f 1 50 49
f 2 3 51
f 2 51 50
f 3 4 52
f 3 52 51
f 4 5 53
f 4 53 52
f 5 6 54
f 5 54 53
f 6 7 55
f 6 55 54
f 7 8 56
f 7 56 55
f 8 9 57
f 8 57 56
f 9 10 58
f 9 58 57
f 10 11 59
f 10 59 58
f 11 12 60
f 11 60 59
f 12 13 61
f 12 61 60
f 13 14 62
f 13 62 61
f 14 15 63
f 14 63 62
f 15 16 64
f 15 64 63
f 16 17 65
f 16 65 64
f 17 18 66
f 17 66 65
f 18 19 67
f 18 67 66
f 19 20 68
f 19 68 67
f 20 21 69
f 20 69 68
f 21 22 70
f 21 70 69
f 22 23 71
f 22 71 70
f 23 24 72
f 23 72 71
f 24 25 73
f 24 73 72
f 25 26 74
f 25 74 73
f 26 27 75
f 26 75 74
f 27 28 76
f 27 76 75
f 28 29 77
f 28 77 76
f 29 30 78
f 29 78 77
f 30 31 79
f 30 79 78
f 31 32 80
f 31 80 79
f 32 33 81
f 32 81 80
f 33 34 82
f 33 82 81
f 34 35 83
f 34 83 82
f 35 36 84
f 35 84 83
f 36 37 85
f 36 85 84
f 37 38 86
f 37 86 85
f 38 39 87
f 38 87 86
f 39 40 88
f 39 88 87
f 40 41 89
f 40 89 88
f 41 42 90
f 41 90 89
f 42 43 91
f 42 91 90
f 43 44 92
f 43 92 91
f 44 45 93
f 44 93 92
f 45 46 94
f 45 94 93
f 46 47 95
f 46 95 94
f 47 48 96
f 47 96 95
f 48 1 49
f 48 49 96
f 49 50 98
f 49 98 97
f 50 51 99
f 50 99 98
f 51 52 100
f 51 100 99
f 52 53 101
f 52 101 100
f 53 54 102
f 53 102 101
f 54 55 103
f 54 103 102
f 55 56 104
f 55 104 103
f 56 57 105
f 56 105 104
f 57 58 106
f 57 106 105
f 58 59 107
f 58 107 106
f 59 60 108
f 59 108 107
f 60 61 109
f 60 109 108
f 61 62 110
f 61 110 109
f 62 63 111
f 62 111 110
f 63 64 112
f 63 112 111
f 64 65 113
f 64 113 112
f 65 66 114
f 65 114 113
f 66 67 115
f 66 115 114
f 67 68 116
f 67 116 115
f 68 69 117
f 68 117 116
f 69 70 118
f 69 118 117
f 70 71 119
f 70 119 118
f 71 72 120
f 71 120 119
f 72 73 121
f 72 121 120
f 73 74 122
f 73 122 121
f 74 75 123
f 74 123 122
f 75 76 124
f 75 124 123
f 76 77 125
f 76 125 124
f 77 78 126
f 77 126 125
f 78 79 127
f 78 127 126
f 79 80 128
f 79 128 127
f 80 81 129
f 80 129 128
f 81 82 130
f 81 130 129
f 82 83 131
f 82 131 130
f 83 84 132
f 83 132 131
f 84 85 133
f 84 133 132
f 85 86 134
f 85 134 133
f 86 87 135
f 86 135 134
f 87 88 136
f 87 136 135
f 88 89 137
f 88 137 136
f 89 90 138
f 89 138 137
f 90 91 139
f 90 139 138
f 91 92 140
f 91 140 139
f 92 93 141
f 92 141 140
f 93 94 142
f 93 142 141
f 94 95 143
f 94 143 142
f 95 96 144
f 95 144 143
f 96 49 97
f 96 97 144
f 97 98 146
f 97 146 145
f 98 99 147
f 98 147 146
f 99 100 148
f 99 148 147
f 100 101 149
f 100 149 148
f 101 102 150
f 101 150 149
f 102 103 151
f 102 151 150
f 103 104 152
f 103 152 151
f 104 105 153
f 104 153 152
f 105 106 154
f 105 154 153
f 106 107 155
f 106 155 154
f 107 108 156
f 107 156 155
f 108 109 157
f 108 157 156
f 109 110 158
f 109 158 157
f 110 111 159
f 110 159 158
f 111 112 160
f 111 160 159
f 112 113 161
f 112 161 160
f 113 114 162
f 113 162 161
f 114 115 163
f 114 163 162
f 115 116 164
f 115 164 163
f 116 117 165
f 116 165 164
f 117 118 166
f 117 166 165
f 118 119 167
f 118 167 166
f 119 120 168
f 119 168 167
f 120 121 169
f 120 169 168
f 121 122 170
f 121 170 169
f 122 123 171
f 122 171 170
f 123 124 172
f 123 172 171
f 124 125 173
f 124 173 172
f 125 126 174
f 125 174 173
f 126 127 175
f 126 175 174
f 127 128 176
f 127 176 175
f 128 129 177
f 128 177 176
f 129 130 178
f 129 178 177
f 130 131 179
f 130 179 178
f 131 132 180
f 131 180 179
f 132 133 181
f 132 181 180
f 133 134 182
f 133 182 181
f 134 135 183
f 134 183 182
f 135 136 184
f 135 184 183
f 136 137 185
f 136 185 184
f 137 138 186
f 137 186 185
f 138 139 187
f 138 187 186
f 139 140 188
f 139 188 187
f 140 141 189
f 140 189 188
f 141 142 190
f 141 190 189
f 142 143 191
f 142 191 190
f 143 144 192
f 143 192 191
f 144 97 145
f 144 145 192
f 145 146 194
f 145 194 193
f 146 147 195
f 146 195 194
f 147 148 196
f 147 196 195
f 148 149 197
f 148 197 196
f 149 150 198
f 149 198 197
f 150 151 199
f 150 199 198
f 151 152 200
f 151 200 199
f 152 153 201
f 152 201 200
f 153 154 202
f 153 202 201
f 154 155 203
f 154 203 202
f 155 156 204
f 155 204 203
f 156 157 205
f 156 205 204
f 157 158 206
f 157 206 205
f 158 159 207
f 158 207 206
f 159 160 208
f 159 208 207
f 160 161 209
f 160 209 208
f 161 162 210
f 161 210 209
f 162 163 211
f 162 211 210
f 163 164 212
f 163 212 211
f 164 165 213
f 164 213 212
f 165 166 214
f 165 214 213
f 166 167 215
f 166 215 214
f 167 168 216
f 167 216 215
f 168 169 217
f 168 217 216
f 169 170 218
f 169 218 217
f 170 171 219
f 170 219 218
f 171 172 220
f 171 220 219
f 172 173 221
f 172 221 220
f 173 174 222
f 173 222 221
f 174 175 223
f 174 223 222
f 175 176 224
f 175 224 223
f 176 177 225
f 176 225 224
f 177 178 226
f 177 226 225
f 178 179 227
f 178 227 226
f 179 180 228
f 179 228 227
f 180 181 229
f 180 229 228
f 181 182 230
f 181 230 229
f 182 183 231
f 182 231 230
f 183 184 232
f 183 232 231
f 184 185 233
f 184 233 232
f 185 186 234
f 185 234 233
f 186 187 235
f 186 235 234
f 187 188 236
f 187 236 235
f 188 189 237
f 188 237 236
f 189 190 238
f 189 238 237
f 190 191 239
f 190 239 238
f 191 192 240
f 191 240 239
f 192 145 193
f 192 193 240
f 241 2 1
f 241 3 2
f 241 4 3
f 241 5 4
f 241 6 5
f 241 7 6
f 241 8 7
f 241 9 8
f 241 10 9
f 241 11 10
f 241 12 11
f 241 13 12
f 241 14 13
f 241 15 14
f 241 16 15
f 241 17 16
f 241 18 17
f 241 19 18
f 241 20 19
f 241 21 20
f 241 22 21
f 241 23 22
f 241 24 23
f 241 25 24
f 241 26 25
f 241 27 26
f 241 28 27
f 241 29 28
f 241 30 29
f 241 31 30
f 241 32 31
f 241 33 32
f 241 34 33
f 241 35 34
f 241 36 35
f 241 37 36
f 241 38 37
f 241 39 38
f 241 40 39
f 241 41 40
f 241 42 41
f 241 43 42
f 241 44 43
f 241 45 44
f 241 46 45
f 241 47 46
f 241 48 47
f 241 1 48
f 242 243 251
f 242 251 250
f 243 244 252
f 243 252 251
f 244 245 253
f 244 253 252
f 245 246 254
f 245 254 253
f 246 247 255
f 246 255 254
f 247 248 256
f 247 256 255
f 248 249 257
f 248 257 256
f 249 242 250
f 249 250 257
f 266 259 258
f 266 260 259
f 266 261 260
f 266 262 261
f 266 263 262
f 266 264 263
f 266 265 264
f 266 258 265
f 275 267 268
f 275 268 269
f 275 269 270
f 275 270 271
f 275 271 272
f 275 272 273
f 275 273 274
f 275 274 267
f 276 277 285
f 276 285 284
f 277 278 286
f 277 286 285
f 278 279 287
f 278 287 286
f 279 280 288
f 279 288 287
f 280 281 289
f 280 289 288
f 281 282 290
f 281 290 289
f 282 283 291
f 282 291 290
f 283 276 284
f 283 284 291
f 300 293 292
f 300 294 293
f 300 295 294
f 300 296 295
f 300 297 296
f 300 298 297
f 300 299 298
f 300 292 299
f 309 301 302
f 309 302 303
f 309 303 304
f 309 304 305
f 309 305 306
f 309 306 307
f 309 307 308
f 309 308 301
f 310 311 319
f 310 319 318
f 311 312 320
f 311 320 319
f 312 313 321
f 312 321 320
f 313 314 322
f 313 322 321
f 314 315 323
f 314 323 322
f 315 316 324
f 315 324 323
f 316 317 325
f 316 325 324
f 317 310 318
f 317 318 325
f 334 327 326
f 334 328 327
f 334 329 328
f 334 330 329
f 334 331 330
f 334 332 331
f 334 333 332
f 334 326 333
f 343 335 336
f 343 336 337
f 343 337 338
f 343 338 339
f 343 339 340
f 343 340 341
f 343 341 342
f 343 342 335
f 344 345 353
f 344 353 352
f 345 346 354
f 345 354 353
f 346 347 355
f 346 355 354
f 347 348 356
f 347 356 355
f 348 349 357
f 348 357 356
f 349 350 358
f 349 358 357
f 350 351 359
f 350 359 358
f 351 344 352
f 351 352 359
f 368 361 360
f 368 362 361
f 368 363 362
f 368 364 363
f 368 365 364
f 368 366 365
f 368 367 366
f 368 360 367
f 377 369 370
f 377 370 371
f 377 371 372
f 377 372 373
f 377 373 374
f 377 374 375
f 377 375 376
f 377 376 369
