# m10.obj - tools/build_raid_meshes.py. Game units, Y negative up.
v -75.0 -1250.0 -180.0
v -92.6 -1250.0 -185.7
v -103.5 -1250.0 -200.7
v -103.5 -1250.0 -219.3
v -92.6 -1250.0 -234.3
v -75.0 -1250.0 -240.0
v -57.4 -1250.0 -234.3
v -46.5 -1250.0 -219.3
v -46.5 -1250.0 -200.7
v -57.4 -1250.0 -185.7
v -75.0 -1420.0 -184.0
v -90.3 -1420.0 -189.0
v -99.7 -1420.0 -202.0
v -99.7 -1420.0 -218.0
v -90.3 -1420.0 -231.0
v -75.0 -1420.0 -236.0
v -59.7 -1420.0 -231.0
v -50.3 -1420.0 -218.0
v -50.3 -1420.0 -202.0
v -59.7 -1420.0 -189.0
v -75.0 -1250.0 -180.0
v -92.6 -1250.0 -185.7
v -103.5 -1250.0 -200.7
v -103.5 -1250.0 -219.3
v -92.6 -1250.0 -234.3
v -75.0 -1250.0 -240.0
v -57.4 -1250.0 -234.3
v -46.5 -1250.0 -219.3
v -46.5 -1250.0 -200.7
v -57.4 -1250.0 -185.7
v -75.0 -1250.0 -210.0
v -75.0 -1420.0 -184.0
v -90.3 -1420.0 -189.0
v -99.7 -1420.0 -202.0
v -99.7 -1420.0 -218.0
v -90.3 -1420.0 -231.0
v -75.0 -1420.0 -236.0
v -59.7 -1420.0 -231.0
v -50.3 -1420.0 -218.0
v -50.3 -1420.0 -202.0
v -59.7 -1420.0 -189.0
v -75.0 -1420.0 -210.0
v -75.0 -1400.0 -230.0
v -75.0 -1414.1 -224.1
v -75.0 -1420.0 -210.0
v -75.0 -1414.1 -195.9
v -75.0 -1400.0 -190.0
v -75.0 -1385.9 -195.9
v -75.0 -1380.0 -210.0
v -75.0 -1385.9 -224.1
v -190.0 -1400.0 -228.0
v -190.0 -1412.7 -222.7
v -190.0 -1418.0 -210.0
v -190.0 -1412.7 -197.3
v -190.0 -1400.0 -192.0
v -190.0 -1387.3 -197.3
v -190.0 -1382.0 -210.0
v -190.0 -1387.3 -222.7
v -75.0 -1400.0 -230.0
v -75.0 -1414.1 -224.1
v -75.0 -1420.0 -210.0
v -75.0 -1414.1 -195.9
v -75.0 -1400.0 -190.0
v -75.0 -1385.9 -195.9
v -75.0 -1380.0 -210.0
v -75.0 -1385.9 -224.1
v -75.0 -1400.0 -210.0
v -190.0 -1400.0 -228.0
v -190.0 -1412.7 -222.7
v -190.0 -1418.0 -210.0
v -190.0 -1412.7 -197.3
v -190.0 -1400.0 -192.0
v -190.0 -1387.3 -197.3
v -190.0 -1382.0 -210.0
v -190.0 -1387.3 -222.7
v -190.0 -1400.0 -210.0
v -190.0 -1400.0 -228.0
v -201.9 -1404.5 -222.7
v -206.9 -1406.3 -210.0
v -201.9 -1404.5 -197.3
v -190.0 -1400.0 -192.0
v -178.1 -1395.5 -197.3
v -173.1 -1393.7 -210.0
v -178.1 -1395.5 -222.7
v -205.0 -1360.0 -226.0
v -215.6 -1364.0 -221.3
v -220.0 -1365.6 -210.0
v -215.6 -1364.0 -198.7
v -205.0 -1360.0 -194.0
v -194.4 -1356.0 -198.7
v -190.0 -1354.4 -210.0
v -194.4 -1356.0 -221.3
v -190.0 -1400.0 -228.0
v -201.9 -1404.5 -222.7
v -206.9 -1406.3 -210.0
v -201.9 -1404.5 -197.3
v -190.0 -1400.0 -192.0
v -178.1 -1395.5 -197.3
v -173.1 -1393.7 -210.0
v -178.1 -1395.5 -222.7
v -190.0 -1400.0 -210.0
v -205.0 -1360.0 -226.0
v -215.6 -1364.0 -221.3
v -220.0 -1365.6 -210.0
v -215.6 -1364.0 -198.7
v -205.0 -1360.0 -194.0
v -194.4 -1356.0 -198.7
v -190.0 -1354.4 -210.0
v -194.4 -1356.0 -221.3
v -205.0 -1360.0 -210.0
v -75.0 -1420.0 -196.0
v -87.1 -1420.0 -203.0
v -87.1 -1420.0 -217.0
v -75.0 -1420.0 -224.0
v -62.9 -1420.0 -217.0
v -62.9 -1420.0 -203.0
v -75.0 -1460.0 -196.0
v -87.1 -1460.0 -203.0
v -87.1 -1460.0 -217.0
v -75.0 -1460.0 -224.0
v -62.9 -1460.0 -217.0
v -62.9 -1460.0 -203.0
v -75.0 -1420.0 -196.0
v -87.1 -1420.0 -203.0
v -87.1 -1420.0 -217.0
v -75.0 -1420.0 -224.0
v -62.9 -1420.0 -217.0
v -62.9 -1420.0 -203.0
v -75.0 -1420.0 -210.0
v -75.0 -1460.0 -196.0
v -87.1 -1460.0 -203.0
v -87.1 -1460.0 -217.0
v -75.0 -1460.0 -224.0
v -62.9 -1460.0 -217.0
v -62.9 -1460.0 -203.0
v -75.0 -1460.0 -210.0
v -130.0 -1480.0 -221.0
v -130.0 -1480.0 -199.0
v -20.0 -1480.0 -221.0
v -20.0 -1480.0 -199.0
v -130.0 -1460.0 -221.0
v -130.0 -1460.0 -199.0
v -20.0 -1460.0 -221.0
v -20.0 -1460.0 -199.0
v -130.0 -1480.0 -221.0
v -130.0 -1480.0 -199.0
v -130.0 -1460.0 -221.0
v -130.0 -1460.0 -199.0
v -20.0 -1480.0 -221.0
v -20.0 -1480.0 -199.0
v -20.0 -1460.0 -221.0
v -20.0 -1460.0 -199.0
v -130.0 -1480.0 -221.0
v -130.0 -1460.0 -221.0
v -20.0 -1480.0 -221.0
v -20.0 -1460.0 -221.0
v -130.0 -1480.0 -199.0
v -130.0 -1460.0 -199.0
v -20.0 -1480.0 -199.0
v -20.0 -1460.0 -199.0
v -86.0 -1480.0 -265.0
v -86.0 -1480.0 -155.0
v -64.0 -1480.0 -265.0
v -64.0 -1480.0 -155.0
v -86.0 -1460.0 -265.0
v -86.0 -1460.0 -155.0
v -64.0 -1460.0 -265.0
v -64.0 -1460.0 -155.0
v -86.0 -1480.0 -265.0
v -86.0 -1480.0 -155.0
v -86.0 -1460.0 -265.0
v -86.0 -1460.0 -155.0
v -64.0 -1480.0 -265.0
v -64.0 -1480.0 -155.0
v -64.0 -1460.0 -265.0
v -64.0 -1460.0 -155.0
v -86.0 -1480.0 -265.0
v -86.0 -1460.0 -265.0
v -64.0 -1480.0 -265.0
v -64.0 -1460.0 -265.0
v -86.0 -1480.0 -155.0
v -86.0 -1460.0 -155.0
v -64.0 -1480.0 -155.0
v -64.0 -1460.0 -155.0
v -75.0 -1250.0 240.0
v -92.6 -1250.0 234.3
v -103.5 -1250.0 219.3
v -103.5 -1250.0 200.7
v -92.6 -1250.0 185.7
v -75.0 -1250.0 180.0
v -57.4 -1250.0 185.7
v -46.5 -1250.0 200.7
v -46.5 -1250.0 219.3
v -57.4 -1250.0 234.3
v -75.0 -1420.0 236.0
v -90.3 -1420.0 231.0
v -99.7 -1420.0 218.0
v -99.7 -1420.0 202.0
v -90.3 -1420.0 189.0
v -75.0 -1420.0 184.0
v -59.7 -1420.0 189.0
v -50.3 -1420.0 202.0
v -50.3 -1420.0 218.0
v -59.7 -1420.0 231.0
v -75.0 -1250.0 240.0
v -92.6 -1250.0 234.3
v -103.5 -1250.0 219.3
v -103.5 -1250.0 200.7
v -92.6 -1250.0 185.7
v -75.0 -1250.0 180.0
v -57.4 -1250.0 185.7
v -46.5 -1250.0 200.7
v -46.5 -1250.0 219.3
v -57.4 -1250.0 234.3
v -75.0 -1250.0 210.0
v -75.0 -1420.0 236.0
v -90.3 -1420.0 231.0
v -99.7 -1420.0 218.0
v -99.7 -1420.0 202.0
v -90.3 -1420.0 189.0
v -75.0 -1420.0 184.0
v -59.7 -1420.0 189.0
v -50.3 -1420.0 202.0
v -50.3 -1420.0 218.0
v -59.7 -1420.0 231.0
v -75.0 -1420.0 210.0
v -75.0 -1400.0 190.0
v -75.0 -1414.1 195.9
v -75.0 -1420.0 210.0
v -75.0 -1414.1 224.1
v -75.0 -1400.0 230.0
v -75.0 -1385.9 224.1
v -75.0 -1380.0 210.0
v -75.0 -1385.9 195.9
v -190.0 -1400.0 192.0
v -190.0 -1412.7 197.3
v -190.0 -1418.0 210.0
v -190.0 -1412.7 222.7
v -190.0 -1400.0 228.0
v -190.0 -1387.3 222.7
v -190.0 -1382.0 210.0
v -190.0 -1387.3 197.3
v -75.0 -1400.0 190.0
v -75.0 -1414.1 195.9
v -75.0 -1420.0 210.0
v -75.0 -1414.1 224.1
v -75.0 -1400.0 230.0
v -75.0 -1385.9 224.1
v -75.0 -1380.0 210.0
v -75.0 -1385.9 195.9
v -75.0 -1400.0 210.0
v -190.0 -1400.0 192.0
v -190.0 -1412.7 197.3
v -190.0 -1418.0 210.0
v -190.0 -1412.7 222.7
v -190.0 -1400.0 228.0
v -190.0 -1387.3 222.7
v -190.0 -1382.0 210.0
v -190.0 -1387.3 197.3
v -190.0 -1400.0 210.0
v -190.0 -1400.0 192.0
v -201.9 -1404.5 197.3
v -206.9 -1406.3 210.0
v -201.9 -1404.5 222.7
v -190.0 -1400.0 228.0
v -178.1 -1395.5 222.7
v -173.1 -1393.7 210.0
v -178.1 -1395.5 197.3
v -205.0 -1360.0 194.0
v -215.6 -1364.0 198.7
v -220.0 -1365.6 210.0
v -215.6 -1364.0 221.3
v -205.0 -1360.0 226.0
v -194.4 -1356.0 221.3
v -190.0 -1354.4 210.0
v -194.4 -1356.0 198.7
v -190.0 -1400.0 192.0
v -201.9 -1404.5 197.3
v -206.9 -1406.3 210.0
v -201.9 -1404.5 222.7
v -190.0 -1400.0 228.0
v -178.1 -1395.5 222.7
v -173.1 -1393.7 210.0
v -178.1 -1395.5 197.3
v -190.0 -1400.0 210.0
v -205.0 -1360.0 194.0
v -215.6 -1364.0 198.7
v -220.0 -1365.6 210.0
v -215.6 -1364.0 221.3
v -205.0 -1360.0 226.0
v -194.4 -1356.0 221.3
v -190.0 -1354.4 210.0
v -194.4 -1356.0 198.7
v -205.0 -1360.0 210.0
v -75.0 -1420.0 224.0
v -87.1 -1420.0 217.0
v -87.1 -1420.0 203.0
v -75.0 -1420.0 196.0
v -62.9 -1420.0 203.0
v -62.9 -1420.0 217.0
v -75.0 -1460.0 224.0
v -87.1 -1460.0 217.0
v -87.1 -1460.0 203.0
v -75.0 -1460.0 196.0
v -62.9 -1460.0 203.0
v -62.9 -1460.0 217.0
v -75.0 -1420.0 224.0
v -87.1 -1420.0 217.0
v -87.1 -1420.0 203.0
v -75.0 -1420.0 196.0
v -62.9 -1420.0 203.0
v -62.9 -1420.0 217.0
v -75.0 -1420.0 210.0
v -75.0 -1460.0 224.0
v -87.1 -1460.0 217.0
v -87.1 -1460.0 203.0
v -75.0 -1460.0 196.0
v -62.9 -1460.0 203.0
v -62.9 -1460.0 217.0
v -75.0 -1460.0 210.0
v -130.0 -1480.0 199.0
v -130.0 -1480.0 221.0
v -20.0 -1480.0 199.0
v -20.0 -1480.0 221.0
v -130.0 -1460.0 199.0
v -130.0 -1460.0 221.0
v -20.0 -1460.0 199.0
v -20.0 -1460.0 221.0
v -130.0 -1480.0 199.0
v -130.0 -1480.0 221.0
v -130.0 -1460.0 199.0
v -130.0 -1460.0 221.0
v -20.0 -1480.0 199.0
v -20.0 -1480.0 221.0
v -20.0 -1460.0 199.0
v -20.0 -1460.0 221.0
v -130.0 -1480.0 199.0
v -130.0 -1460.0 199.0
v -20.0 -1480.0 199.0
v -20.0 -1460.0 199.0
v -130.0 -1480.0 221.0
v -130.0 -1460.0 221.0
v -20.0 -1480.0 221.0
v -20.0 -1460.0 221.0
v -86.0 -1480.0 155.0
v -86.0 -1480.0 265.0
v -64.0 -1480.0 155.0
v -64.0 -1480.0 265.0
v -86.0 -1460.0 155.0
v -86.0 -1460.0 265.0
v -64.0 -1460.0 155.0
v -64.0 -1460.0 265.0
v -86.0 -1480.0 155.0
v -86.0 -1480.0 265.0
v -86.0 -1460.0 155.0
v -86.0 -1460.0 265.0
v -64.0 -1480.0 155.0
v -64.0 -1480.0 265.0
v -64.0 -1460.0 155.0
v -64.0 -1460.0 265.0
v -86.0 -1480.0 155.0
v -86.0 -1460.0 155.0
v -64.0 -1480.0 155.0
v -64.0 -1460.0 155.0
v -86.0 -1480.0 265.0
v -86.0 -1460.0 265.0
v -64.0 -1480.0 265.0
v -64.0 -1460.0 265.0
v -458.0 -1010.0 -34.0
v -478.0 -1010.0 -27.5
v -490.3 -1010.0 -10.5
v -490.3 -1010.0 10.5
v -478.0 -1010.0 27.5
v -458.0 -1010.0 34.0
v -438.0 -1010.0 27.5
v -425.7 -1010.0 10.5
v -425.7 -1010.0 -10.5
v -438.0 -1010.0 -27.5
v -458.0 -760.0 -34.0
v -478.0 -760.0 -27.5
v -490.3 -760.0 -10.5
v -490.3 -760.0 10.5
v -478.0 -760.0 27.5
v -458.0 -760.0 34.0
v -438.0 -760.0 27.5
v -425.7 -760.0 10.5
v -425.7 -760.0 -10.5
v -438.0 -760.0 -27.5
v -458.0 -1010.0 -34.0
v -478.0 -1010.0 -27.5
v -490.3 -1010.0 -10.5
v -490.3 -1010.0 10.5
v -478.0 -1010.0 27.5
v -458.0 -1010.0 34.0
v -438.0 -1010.0 27.5
v -425.7 -1010.0 10.5
v -425.7 -1010.0 -10.5
v -438.0 -1010.0 -27.5
v -458.0 -1010.0 0.0
v -458.0 -760.0 -34.0
v -478.0 -760.0 -27.5
v -490.3 -760.0 -10.5
v -490.3 -760.0 10.5
v -478.0 -760.0 27.5
v -458.0 -760.0 34.0
v -438.0 -760.0 27.5
v -425.7 -760.0 10.5
v -425.7 -760.0 -10.5
v -438.0 -760.0 -27.5
v -458.0 -760.0 0.0
v -458.0 -760.0 34.0
v -441.8 -771.7 27.5
v -431.8 -779.0 10.5
v -431.8 -779.0 -10.5
v -441.8 -771.7 -27.5
v -458.0 -760.0 -34.0
v -474.2 -748.3 -27.5
v -484.2 -741.0 -10.5
v -484.2 -741.0 10.5
v -474.2 -748.3 27.5
v -400.0 -680.0 34.0
v -383.8 -691.7 27.5
v -373.8 -699.0 10.5
v -373.8 -699.0 -10.5
v -383.8 -691.7 -27.5
v -400.0 -680.0 -34.0
v -416.2 -668.3 -27.5
v -426.2 -661.0 -10.5
v -426.2 -661.0 10.5
v -416.2 -668.3 27.5
v -458.0 -760.0 34.0
v -441.8 -771.7 27.5
v -431.8 -779.0 10.5
v -431.8 -779.0 -10.5
v -441.8 -771.7 -27.5
v -458.0 -760.0 -34.0
v -474.2 -748.3 -27.5
v -484.2 -741.0 -10.5
v -484.2 -741.0 10.5
v -474.2 -748.3 27.5
v -458.0 -760.0 0.0
v -400.0 -680.0 34.0
v -383.8 -691.7 27.5
v -373.8 -699.0 10.5
v -373.8 -699.0 -10.5
v -383.8 -691.7 -27.5
v -400.0 -680.0 -34.0
v -416.2 -668.3 -27.5
v -426.2 -661.0 -10.5
v -426.2 -661.0 10.5
v -416.2 -668.3 27.5
v -400.0 -680.0 0.0
v -400.0 -680.0 34.0
v -400.0 -700.0 27.5
v -400.0 -712.3 10.5
v -400.0 -712.3 -10.5
v -400.0 -700.0 -27.5
v -400.0 -680.0 -34.0
v -400.0 -660.0 -27.5
v -400.0 -647.7 -10.5
v -400.0 -647.7 10.5
v -400.0 -660.0 27.5
v 0.0 -680.0 34.0
v 0.0 -700.0 27.5
v 0.0 -712.3 10.5
v 0.0 -712.3 -10.5
v 0.0 -700.0 -27.5
v 0.0 -680.0 -34.0
v 0.0 -660.0 -27.5
v 0.0 -647.7 -10.5
v 0.0 -647.7 10.5
v 0.0 -660.0 27.5
v -400.0 -680.0 34.0
v -400.0 -700.0 27.5
v -400.0 -712.3 10.5
v -400.0 -712.3 -10.5
v -400.0 -700.0 -27.5
v -400.0 -680.0 -34.0
v -400.0 -660.0 -27.5
v -400.0 -647.7 -10.5
v -400.0 -647.7 10.5
v -400.0 -660.0 27.5
v -400.0 -680.0 0.0
v 0.0 -680.0 34.0
v 0.0 -700.0 27.5
v 0.0 -712.3 10.5
v 0.0 -712.3 -10.5
v 0.0 -700.0 -27.5
v 0.0 -680.0 -34.0
v 0.0 -660.0 -27.5
v 0.0 -647.7 -10.5
v 0.0 -647.7 10.5
v 0.0 -660.0 27.5
v 0.0 -680.0 0.0
v 0.0 -680.0 -60.0
v 0.0 -715.3 -48.5
v 0.0 -737.1 -18.5
v 0.0 -737.1 18.5
v 0.0 -715.3 48.5
v 0.0 -680.0 60.0
v 0.0 -644.7 48.5
v 0.0 -622.9 18.5
v 0.0 -622.9 -18.5
v 0.0 -644.7 -48.5
v -10.0 -680.0 -60.0
v -10.0 -715.3 -48.5
v -10.0 -737.1 -18.5
v -10.0 -737.1 18.5
v -10.0 -715.3 48.5
v -10.0 -680.0 60.0
v -10.0 -644.7 48.5
v -10.0 -622.9 18.5
v -10.0 -622.9 -18.5
v -10.0 -644.7 -48.5
v 0.0 -680.0 -60.0
v 0.0 -715.3 -48.5
v 0.0 -737.1 -18.5
v 0.0 -737.1 18.5
v 0.0 -715.3 48.5
v 0.0 -680.0 60.0
v 0.0 -644.7 48.5
v 0.0 -622.9 18.5
v 0.0 -622.9 -18.5
v 0.0 -644.7 -48.5
v 0.0 -680.0 0.0
v -10.0 -680.0 -60.0
v -10.0 -715.3 -48.5
v -10.0 -737.1 -18.5
v -10.0 -737.1 18.5
v -10.0 -715.3 48.5
v -10.0 -680.0 60.0
v -10.0 -644.7 48.5
v -10.0 -622.9 18.5
v -10.0 -622.9 -18.5
v -10.0 -644.7 -48.5
v -10.0 -680.0 0.0
f 1 2 12
f 1 12 11
f 2 3 13
f 2 13 12
f 3 4 14
f 3 14 13
f 4 5 15
f 4 15 14
f 5 6 16
f 5 16 15
f 6 7 17
f 6 17 16
f 7 8 18
f 7 18 17
f 8 9 19
f 8 19 18
f 9 10 20
f 9 20 19
f 10 1 11
f 10 11 20
f 31 22 21
f 31 23 22
f 31 24 23
f 31 25 24
f 31 26 25
f 31 27 26
f 31 28 27
f 31 29 28
f 31 30 29
f 31 21 30
f 42 32 33
f 42 33 34
f 42 34 35
f 42 35 36
f 42 36 37
f 42 37 38
f 42 38 39
f 42 39 40
f 42 40 41
f 42 41 32
f 43 44 52
f 43 52 51
f 44 45 53
f 44 53 52
f 45 46 54
f 45 54 53
f 46 47 55
f 46 55 54
f 47 48 56
f 47 56 55
f 48 49 57
f 48 57 56
f 49 50 58
f 49 58 57
f 50 43 51
f 50 51 58
f 67 60 59
f 67 61 60
f 67 62 61
f 67 63 62
f 67 64 63
f 67 65 64
f 67 66 65
f 67 59 66
f 76 68 69
f 76 69 70
f 76 70 71
f 76 71 72
f 76 72 73
f 76 73 74
f 76 74 75
f 76 75 68
f 77 78 86
f 77 86 85
f 78 79 87
f 78 87 86
f 79 80 88
f 79 88 87
f 80 81 89
f 80 89 88
f 81 82 90
f 81 90 89
f 82 83 91
f 82 91 90
f 83 84 92
f 83 92 91
f 84 77 85
f 84 85 92
f 101 94 93
f 101 95 94
f 101 96 95
f 101 97 96
f 101 98 97
f 101 99 98
f 101 100 99
f 101 93 100
f 110 102 103
f 110 103 104
f 110 104 105
f 110 105 106
f 110 106 107
f 110 107 108
f 110 108 109
f 110 109 102
f 111 112 118
f 111 118 117
f 112 113 119
f 112 119 118
f 113 114 120
f 113 120 119
f 114 115 121
f 114 121 120
f 115 116 122
f 115 122 121
f 116 111 117
f 116 117 122
f 129 124 123
f 129 125 124
f 129 126 125
f 129 127 126
f 129 128 127
f 129 123 128
f 136 130 131
f 136 131 132
f 136 132 133
f 136 133 134
f 136 134 135
f 136 135 130
f 137 139 140
f 137 140 138
f 141 144 143
f 141 142 144
f 145 148 147
f 145 146 148
f 149 151 152
f 149 152 150
f 153 156 155
f 153 154 156
f 157 159 160
f 157 160 158
f 161 163 164
f 161 164 162
f 165 168 167
f 165 166 168
f 169 172 171
f 169 170 172
f 173 175 176
f 173 176 174
f 177 180 179
f 177 178 180
f 181 183 184
f 181 184 182
f 185 186 196
f 185 196 195
f 186 187 197
f 186 197 196
f 187 188 198
f 187 198 197
f 188 189 199
f 188 199 198
f 189 190 200
f 189 200 199
f 190 191 201
f 190 201 200
f 191 192 202
f 191 202 201
f 192 193 203
f 192 203 202
f 193 194 204
f 193 204 203
f 194 185 195
f 194 195 204
f 215 206 205
f 215 207 206
f 215 208 207
f 215 209 208
f 215 210 209
f 215 211 210
f 215 212 211
f 215 213 212
f 215 214 213
f 215 205 214
f 226 216 217
f 226 217 218
f 226 218 219
f 226 219 220
f 226 220 221
f 226 221 222
f 226 222 223
f 226 223 224
f 226 224 225
f 226 225 216
f 227 228 236
f 227 236 235
f 228 229 237
f 228 237 236
f 229 230 238
f 229 238 237
f 230 231 239
f 230 239 238
f 231 232 240
f 231 240 239
f 232 233 241
f 232 241 240
f 233 234 242
f 233 242 241
f 234 227 235
f 234 235 242
f 251 244 243
f 251 245 244
f 251 246 245
f 251 247 246
f 251 248 247
f 251 249 248
f 251 250 249
f 251 243 250
f 260 252 253
f 260 253 254
f 260 254 255
f 260 255 256
f 260 256 257
f 260 257 258
f 260 258 259
f 260 259 252
f 261 262 270
f 261 270 269
f 262 263 271
f 262 271 270
f 263 264 272
f 263 272 271
f 264 265 273
f 264 273 272
f 265 266 274
f 265 274 273
f 266 267 275
f 266 275 274
f 267 268 276
f 267 276 275
f 268 261 269
f 268 269 276
f 285 278 277
f 285 279 278
f 285 280 279
f 285 281 280
f 285 282 281
f 285 283 282
f 285 284 283
f 285 277 284
f 294 286 287
f 294 287 288
f 294 288 289
f 294 289 290
f 294 290 291
f 294 291 292
f 294 292 293
f 294 293 286
f 295 296 302
f 295 302 301
f 296 297 303
f 296 303 302
f 297 298 304
f 297 304 303
f 298 299 305
f 298 305 304
f 299 300 306
f 299 306 305
f 300 295 301
f 300 301 306
f 313 308 307
f 313 309 308
f 313 310 309
f 313 311 310
f 313 312 311
f 313 307 312
f 320 314 315
f 320 315 316
f 320 316 317
f 320 317 318
f 320 318 319
f 320 319 314
f 321 323 324
f 321 324 322
f 325 328 327
f 325 326 328
f 329 332 331
f 329 330 332
f 333 335 336
f 333 336 334
f 337 340 339
f 337 338 340
f 341 343 344
f 341 344 342
f 345 347 348
f 345 348 346
f 349 352 351
f 349 350 352
f 353 356 355
f 353 354 356
f 357 359 360
f 357 360 358
f 361 364 363
f 361 362 364
f 365 367 368
f 365 368 366
f 369 370 380
f 369 380 379
f 370 371 381
f 370 381 380
f 371 372 382
f 371 382 381
f 372 373 383
f 372 383 382
f 373 374 384
f 373 384 383
f 374 375 385
f 374 385 384
f 375 376 386
f 375 386 385
f 376 377 387
f 376 387 386
f 377 378 388
f 377 388 387
f 378 369 379
f 378 379 388
f 399 390 389
f 399 391 390
f 399 392 391
f 399 393 392
f 399 394 393
f 399 395 394
f 399 396 395
f 399 397 396
f 399 398 397
f 399 389 398
f 410 400 401
f 410 401 402
f 410 402 403
f 410 403 404
f 410 404 405
f 410 405 406
f 410 406 407
f 410 407 408
f 410 408 409
f 410 409 400
f 411 412 422
f 411 422 421
f 412 413 423
f 412 423 422
f 413 414 424
f 413 424 423
f 414 415 425
f 414 425 424
f 415 416 426
f 415 426 425
f 416 417 427
f 416 427 426
f 417 418 428
f 417 428 427
f 418 419 429
f 418 429 428
f 419 420 430
f 419 430 429
f 420 411 421
f 420 421 430
f 441 432 431
f 441 433 432
f 441 434 433
f 441 435 434
f 441 436 435
f 441 437 436
f 441 438 437
f 441 439 438
f 441 440 439
f 441 431 440
f 452 442 443
f 452 443 444
f 452 444 445
f 452 445 446
f 452 446 447
f 452 447 448
f 452 448 449
f 452 449 450
f 452 450 451
f 452 451 442
f 453 454 464
f 453 464 463
f 454 455 465
f 454 465 464
f 455 456 466
f 455 466 465
f 456 457 467
f 456 467 466
f 457 458 468
f 457 468 467
f 458 459 469
f 458 469 468
f 459 460 470
f 459 470 469
f 460 461 471
f 460 471 470
f 461 462 472
f 461 472 471
f 462 453 463
f 462 463 472
f 483 474 473
f 483 475 474
f 483 476 475
f 483 477 476
f 483 478 477
f 483 479 478
f 483 480 479
f 483 481 480
f 483 482 481
f 483 473 482
f 494 484 485
f 494 485 486
f 494 486 487
f 494 487 488
f 494 488 489
f 494 489 490
f 494 490 491
f 494 491 492
f 494 492 493
f 494 493 484
f 495 496 506
f 495 506 505
f 496 497 507
f 496 507 506
f 497 498 508
f 497 508 507
f 498 499 509
f 498 509 508
f 499 500 510
f 499 510 509
f 500 501 511
f 500 511 510
f 501 502 512
f 501 512 511
f 502 503 513
f 502 513 512
f 503 504 514
f 503 514 513
f 504 495 505
f 504 505 514
f 525 516 515
f 525 517 516
f 525 518 517
f 525 519 518
f 525 520 519
f 525 521 520
f 525 522 521
f 525 523 522
f 525 524 523
f 525 515 524
f 536 526 527
f 536 527 528
f 536 528 529
f 536 529 530
f 536 530 531
f 536 531 532
f 536 532 533
f 536 533 534
f 536 534 535
f 536 535 526
