# m11.obj - tools/build_raid_meshes.py. Game units, Y negative up.
v 1362.5 -150.0 0.0
v 1357.8 -150.0 329.5
v 1343.7 -150.0 433.3
v 1320.0 -150.0 506.7
v 1286.3 -150.0 563.8
v 1242.0 -150.0 610.0
v 1186.1 -150.0 647.7
v 1117.1 -150.0 678.2
v 1032.5 -150.0 702.4
v 927.8 -150.0 720.8
v 793.4 -150.0 733.8
v 603.4 -150.0 741.4
v 0.0 -150.0 744.0
v -603.4 -150.0 741.4
v -793.4 -150.0 733.8
v -927.8 -150.0 720.8
v -1032.5 -150.0 702.4
v -1117.1 -150.0 678.2
v -1186.1 -150.0 647.7
v -1242.0 -150.0 610.0
v -1286.3 -150.0 563.8
v -1320.0 -150.0 506.7
v -1343.7 -150.0 433.3
v -1357.8 -150.0 329.5
v -1362.5 -150.0 0.0
v -1357.8 -150.0 -329.5
v -1343.7 -150.0 -433.3
v -1320.0 -150.0 -506.7
v -1286.3 -150.0 -563.8
v -1242.0 -150.0 -610.0
v -1186.1 -150.0 -647.7
v -1117.1 -150.0 -678.2
v -1032.5 -150.0 -702.4
v -927.8 -150.0 -720.8
v -793.4 -150.0 -733.8
v -603.4 -150.0 -741.4
v -0.0 -150.0 -744.0
v 603.4 -150.0 -741.4
v 793.4 -150.0 -733.8
v 927.8 -150.0 -720.8
v 1032.5 -150.0 -702.4
v 1117.1 -150.0 -678.2
v 1186.1 -150.0 -647.7
v 1242.0 -150.0 -610.0
v 1286.3 -150.0 -563.8
v 1320.0 -150.0 -506.7
v 1343.7 -150.0 -433.3
v 1357.8 -150.0 -329.5
v 1450.3 -661.5 0.0
v 1445.4 -661.5 350.8
v 1430.4 -661.5 461.2
v 1405.1 -661.5 539.3
v 1369.3 -661.5 600.2
v 1322.1 -661.5 649.4
v 1262.6 -661.5 689.5
v 1189.2 -661.5 722.0
v 1099.2 -661.5 747.7
v 987.7 -661.5 767.3
v 844.6 -661.5 781.1
v 642.3 -661.5 789.3
v 0.0 -661.5 792.0
v -642.3 -661.5 789.3
v -844.6 -661.5 781.1
v -987.7 -661.5 767.3
v -1099.2 -661.5 747.7
v -1189.2 -661.5 722.0
v -1262.6 -661.5 689.5
v -1322.1 -661.5 649.4
v -1369.3 -661.5 600.2
v -1405.1 -661.5 539.3
v -1430.4 -661.5 461.2
v -1445.4 -661.5 350.8
v -1450.3 -661.5 0.0
v -1445.4 -661.5 -350.8
v -1430.4 -661.5 -461.2
v -1405.1 -661.5 -539.3
v -1369.3 -661.5 -600.2
v -1322.1 -661.5 -649.4
v -1262.6 -661.5 -689.5
v -1189.2 -661.5 -722.0
v -1099.2 -661.5 -747.7
v -987.7 -661.5 -767.3
v -844.6 -661.5 -781.1
v -642.3 -661.5 -789.3
v -0.0 -661.5 -792.0
v 642.3 -661.5 -789.3
v 844.6 -661.5 -781.1
v 987.7 -661.5 -767.3
v 1099.2 -661.5 -747.7
v 1189.2 -661.5 -722.0
v 1262.6 -661.5 -689.5
v 1322.1 -661.5 -649.4
v 1369.3 -661.5 -600.2
v 1405.1 -661.5 -539.3
v 1430.4 -661.5 -461.2
v 1445.4 -661.5 -350.8
v 1465.0 -1010.0 0.0
v 1460.0 -1010.0 354.3
v 1444.8 -1010.0 465.9
v 1419.3 -1010.0 544.8
v 1383.1 -1010.0 606.3
v 1335.4 -1010.0 655.9
v 1275.4 -1010.0 696.4
v 1201.2 -1010.0 729.3
v 1110.3 -1010.0 755.3
v 997.6 -1010.0 775.1
v 853.2 -1010.0 789.0
v 648.8 -1010.0 797.3
v 0.0 -1010.0 800.0
v -648.8 -1010.0 797.3
v -853.2 -1010.0 789.0
v -997.6 -1010.0 775.1
v -1110.3 -1010.0 755.3
v -1201.2 -1010.0 729.3
v -1275.4 -1010.0 696.4
v -1335.4 -1010.0 655.9
v -1383.1 -1010.0 606.3
v -1419.3 -1010.0 544.8
v -1444.8 -1010.0 465.9
v -1460.0 -1010.0 354.3
v -1465.0 -1010.0 0.0
v -1460.0 -1010.0 -354.3
v -1444.8 -1010.0 -465.9
v -1419.3 -1010.0 -544.8
v -1383.1 -1010.0 -606.3
v -1335.4 -1010.0 -655.9
v -1275.4 -1010.0 -696.4
v -1201.2 -1010.0 -729.3
v -1110.3 -1010.0 -755.3
v -997.6 -1010.0 -775.1
v -853.2 -1010.0 -789.0
v -648.8 -1010.0 -797.3
v -0.0 -1010.0 -800.0
v 648.8 -1010.0 -797.3
v 853.2 -1010.0 -789.0
v 997.6 -1010.0 -775.1
v 1110.3 -1010.0 -755.3
v 1201.2 -1010.0 -729.3
v 1275.4 -1010.0 -696.4
v 1335.4 -1010.0 -655.9
v 1383.1 -1010.0 -606.3
v 1419.3 -1010.0 -544.8
v 1444.8 -1010.0 -465.9
v 1460.0 -1010.0 -354.3
v 1490.0 -1050.0 0.0
v 1484.9 -1050.0 365.4
v 1469.5 -1050.0 480.5
v 1443.6 -1050.0 561.8
v 1406.7 -1050.0 625.2
v 1358.2 -1050.0 676.4
v 1297.1 -1050.0 718.2
v 1221.7 -1050.0 752.0
v 1129.2 -1050.0 778.9
v 1014.7 -1050.0 799.3
v 867.7 -1050.0 813.6
v 659.9 -1050.0 822.2
v 0.0 -1050.0 825.0
v -659.9 -1050.0 822.2
v -867.7 -1050.0 813.6
v -1014.7 -1050.0 799.3
v -1129.2 -1050.0 778.9
v -1221.7 -1050.0 752.0
v -1297.1 -1050.0 718.2
v -1358.2 -1050.0 676.4
v -1406.7 -1050.0 625.2
v -1443.6 -1050.0 561.8
v -1469.5 -1050.0 480.5
v -1484.9 -1050.0 365.4
v -1490.0 -1050.0 0.0
v -1484.9 -1050.0 -365.4
v -1469.5 -1050.0 -480.5
v -1443.6 -1050.0 -561.8
v -1406.7 -1050.0 -625.2
v -1358.2 -1050.0 -676.4
v -1297.1 -1050.0 -718.2
v -1221.7 -1050.0 -752.0
v -1129.2 -1050.0 -778.9
v -1014.7 -1050.0 -799.3
v -867.7 -1050.0 -813.6
v -659.9 -1050.0 -822.2
v -0.0 -1050.0 -825.0
v 659.9 -1050.0 -822.2
v 867.7 -1050.0 -813.6
v 1014.7 -1050.0 -799.3
v 1129.2 -1050.0 -778.9
v 1221.7 -1050.0 -752.0
v 1297.1 -1050.0 -718.2
v 1358.2 -1050.0 -676.4
v 1406.7 -1050.0 -625.2
v 1443.6 -1050.0 -561.8
v 1469.5 -1050.0 -480.5
v 1484.9 -1050.0 -365.4
v 1480.0 -1080.0 0.0
v 1474.9 -1080.0 360.9
v 1459.6 -1080.0 474.6
v 1433.9 -1080.0 555.0
v 1397.2 -1080.0 617.7
v 1349.1 -1080.0 668.2
v 1288.4 -1080.0 709.5
v 1213.5 -1080.0 742.9
v 1121.6 -1080.0 769.4
v 1007.9 -1080.0 789.6
v 861.9 -1080.0 803.8
v 655.5 -1080.0 812.2
v 0.0 -1080.0 815.0
v -655.5 -1080.0 812.2
v -861.9 -1080.0 803.8
v -1007.9 -1080.0 789.6
v -1121.6 -1080.0 769.4
v -1213.5 -1080.0 742.9
v -1288.4 -1080.0 709.5
v -1349.1 -1080.0 668.2
v -1397.2 -1080.0 617.7
v -1433.9 -1080.0 555.0
v -1459.6 -1080.0 474.6
v -1474.9 -1080.0 360.9
v -1480.0 -1080.0 0.0
v -1474.9 -1080.0 -360.9
v -1459.6 -1080.0 -474.6
v -1433.9 -1080.0 -555.0
v -1397.2 -1080.0 -617.7
v -1349.1 -1080.0 -668.2
v -1288.4 -1080.0 -709.5
v -1213.5 -1080.0 -742.9
v -1121.6 -1080.0 -769.4
v -1007.9 -1080.0 -789.6
v -861.9 -1080.0 -803.8
v -655.5 -1080.0 -812.2
v -0.0 -1080.0 -815.0
v 655.5 -1080.0 -812.2
v 861.9 -1080.0 -803.8
v 1007.9 -1080.0 -789.6
v 1121.6 -1080.0 -769.4
v 1213.5 -1080.0 -742.9
v 1288.4 -1080.0 -709.5
v 1349.1 -1080.0 -668.2
v 1397.2 -1080.0 -617.7
v 1433.9 -1080.0 -555.0
v 1459.6 -1080.0 -474.6
v 1474.9 -1080.0 -360.9
v 1426.8 -1092.0 0.0
v 1421.9 -1092.0 337.4
v 1407.1 -1092.0 443.6
v 1382.3 -1092.0 518.7
v 1347.0 -1092.0 577.3
v 1300.6 -1092.0 624.6
v 1242.1 -1092.0 663.1
v 1169.8 -1092.0 694.4
v 1081.3 -1092.0 719.2
v 971.6 -1092.0 738.0
v 830.9 -1092.0 751.3
v 631.9 -1092.0 759.1
v 0.0 -1092.0 761.8
v -631.9 -1092.0 759.1
v -830.9 -1092.0 751.3
v -971.6 -1092.0 738.0
v -1081.3 -1092.0 719.2
v -1169.8 -1092.0 694.4
v -1242.1 -1092.0 663.1
v -1300.6 -1092.0 624.6
v -1347.0 -1092.0 577.3
v -1382.3 -1092.0 518.7
v -1407.1 -1092.0 443.6
v -1421.9 -1092.0 337.4
v -1426.8 -1092.0 0.0
v -1421.9 -1092.0 -337.4
v -1407.1 -1092.0 -443.6
v -1382.3 -1092.0 -518.7
v -1347.0 -1092.0 -577.3
v -1300.6 -1092.0 -624.6
v -1242.1 -1092.0 -663.1
v -1169.8 -1092.0 -694.4
v -1081.3 -1092.0 -719.2
v -971.6 -1092.0 -738.0
v -830.9 -1092.0 -751.3
v -631.9 -1092.0 -759.1
v -0.0 -1092.0 -761.8
v 631.9 -1092.0 -759.1
v 830.9 -1092.0 -751.3
v 971.6 -1092.0 -738.0
v 1081.3 -1092.0 -719.2
v 1169.8 -1092.0 -694.4
v 1242.1 -1092.0 -663.1
v 1300.6 -1092.0 -624.6
v 1347.0 -1092.0 -577.3
v 1382.3 -1092.0 -518.7
v 1407.1 -1092.0 -443.6
v 1421.9 -1092.0 -337.4
v 1380.0 -1080.0 0.0
v 1375.3 -1080.0 316.7
v 1361.0 -1080.0 416.4
v 1337.0 -1080.0 486.9
v 1302.8 -1080.0 541.9
v 1258.0 -1080.0 586.3
v 1201.4 -1080.0 622.4
v 1131.5 -1080.0 651.8
v 1045.8 -1080.0 675.0
v 939.8 -1080.0 692.7
v 803.7 -1080.0 705.2
v 611.2 -1080.0 712.5
v 0.0 -1080.0 715.0
v -611.2 -1080.0 712.5
v -803.7 -1080.0 705.2
v -939.8 -1080.0 692.7
v -1045.8 -1080.0 675.0
v -1131.5 -1080.0 651.8
v -1201.4 -1080.0 622.4
v -1258.0 -1080.0 586.3
v -1302.8 -1080.0 541.9
v -1337.0 -1080.0 486.9
v -1361.0 -1080.0 416.4
v -1375.3 -1080.0 316.7
v -1380.0 -1080.0 0.0
v -1375.3 -1080.0 -316.7
v -1361.0 -1080.0 -416.4
v -1337.0 -1080.0 -486.9
v -1302.8 -1080.0 -541.9
v -1258.0 -1080.0 -586.3
v -1201.4 -1080.0 -622.4
v -1131.5 -1080.0 -651.8
v -1045.8 -1080.0 -675.0
v -939.8 -1080.0 -692.7
v -803.7 -1080.0 -705.2
v -611.2 -1080.0 -712.5
v -0.0 -1080.0 -715.0
v 611.2 -1080.0 -712.5
v 803.7 -1080.0 -705.2
v 939.8 -1080.0 -692.7
v 1045.8 -1080.0 -675.0
v 1131.5 -1080.0 -651.8
v 1201.4 -1080.0 -622.4
v 1258.0 -1080.0 -586.3
v 1302.8 -1080.0 -541.9
v 1337.0 -1080.0 -486.9
v 1361.0 -1080.0 -416.4
v 1375.3 -1080.0 -316.7
v 1379.2 -1018.0 0.0
v 1374.5 -1018.0 316.5
v 1360.2 -1018.0 416.2
v 1336.2 -1018.0 486.6
v 1302.1 -1018.0 541.6
v 1257.3 -1018.0 585.9
v 1200.7 -1018.0 622.1
v 1130.9 -1018.0 651.4
v 1045.3 -1018.0 674.6
v 939.2 -1018.0 692.3
v 803.2 -1018.0 704.8
v 610.8 -1018.0 712.1
v 0.0 -1018.0 714.6
v -610.8 -1018.0 712.1
v -803.2 -1018.0 704.8
v -939.2 -1018.0 692.3
v -1045.3 -1018.0 674.6
v -1130.9 -1018.0 651.4
v -1200.7 -1018.0 622.1
v -1257.3 -1018.0 585.9
v -1302.1 -1018.0 541.6
v -1336.2 -1018.0 486.6
v -1360.2 -1018.0 416.2
v -1374.5 -1018.0 316.5
v -1379.2 -1018.0 0.0
v -1374.5 -1018.0 -316.5
v -1360.2 -1018.0 -416.2
v -1336.2 -1018.0 -486.6
v -1302.1 -1018.0 -541.6
v -1257.3 -1018.0 -585.9
v -1200.7 -1018.0 -622.1
v -1130.9 -1018.0 -651.4
v -1045.3 -1018.0 -674.6
v -939.2 -1018.0 -692.3
v -803.2 -1018.0 -704.8
v -610.8 -1018.0 -712.1
v -0.0 -1018.0 -714.6
v 610.8 -1018.0 -712.1
v 803.2 -1018.0 -704.8
v 939.2 -1018.0 -692.3
v 1045.3 -1018.0 -674.6
v 1130.9 -1018.0 -651.4
v 1200.7 -1018.0 -622.1
v 1257.3 -1018.0 -585.9
v 1302.1 -1018.0 -541.6
v 1336.2 -1018.0 -486.6
v 1360.2 -1018.0 -416.2
v 1374.5 -1018.0 -316.5
v 1370.9 -906.4 0.0
v 1366.2 -906.4 314.6
v 1352.0 -906.4 413.6
v 1328.2 -906.4 483.7
v 1294.2 -906.4 538.3
v 1249.7 -906.4 582.4
v 1193.4 -906.4 618.3
v 1124.0 -906.4 647.5
v 1038.9 -906.4 670.6
v 933.6 -906.4 688.1
v 798.4 -906.4 700.5
v 607.1 -906.4 707.8
v 0.0 -906.4 710.3
v -607.1 -906.4 707.8
v -798.4 -906.4 700.5
v -933.6 -906.4 688.1
v -1038.9 -906.4 670.6
v -1124.0 -906.4 647.5
v -1193.4 -906.4 618.3
v -1249.7 -906.4 582.4
v -1294.2 -906.4 538.3
v -1328.2 -906.4 483.7
v -1352.0 -906.4 413.6
v -1366.2 -906.4 314.6
v -1370.9 -906.4 0.0
v -1366.2 -906.4 -314.6
v -1352.0 -906.4 -413.6
v -1328.2 -906.4 -483.7
v -1294.2 -906.4 -538.3
v -1249.7 -906.4 -582.4
v -1193.4 -906.4 -618.3
v -1124.0 -906.4 -647.5
v -1038.9 -906.4 -670.6
v -933.6 -906.4 -688.1
v -798.4 -906.4 -700.5
v -607.1 -906.4 -707.8
v -0.0 -906.4 -710.3
v 607.1 -906.4 -707.8
v 798.4 -906.4 -700.5
v 933.6 -906.4 -688.1
v 1038.9 -906.4 -670.6
v 1124.0 -906.4 -647.5
v 1193.4 -906.4 -618.3
v 1249.7 -906.4 -582.4
v 1294.2 -906.4 -538.3
v 1328.2 -906.4 -483.7
v 1352.0 -906.4 -413.6
v 1366.2 -906.4 -314.6
v 1339.8 -757.6 0.0
v 1335.2 -757.6 307.4
v 1321.3 -757.6 404.3
v 1298.0 -757.6 472.7
v 1264.9 -757.6 526.1
v 1221.3 -757.6 569.2
v 1166.3 -757.6 604.3
v 1098.5 -757.6 632.8
v 1015.4 -757.6 655.4
v 912.4 -757.6 672.5
v 780.2 -757.6 684.6
v 593.4 -757.6 691.8
v 0.0 -757.6 694.2
v -593.4 -757.6 691.8
v -780.2 -757.6 684.6
v -912.4 -757.6 672.5
v -1015.4 -757.6 655.4
v -1098.5 -757.6 632.8
v -1166.3 -757.6 604.3
v -1221.3 -757.6 569.2
v -1264.9 -757.6 526.1
v -1298.0 -757.6 472.7
v -1321.3 -757.6 404.3
v -1335.2 -757.6 307.4
v -1339.8 -757.6 0.0
v -1335.2 -757.6 -307.4
v -1321.3 -757.6 -404.3
v -1298.0 -757.6 -472.7
v -1264.9 -757.6 -526.1
v -1221.3 -757.6 -569.2
v -1166.3 -757.6 -604.3
v -1098.5 -757.6 -632.8
v -1015.4 -757.6 -655.4
v -912.4 -757.6 -672.5
v -780.2 -757.6 -684.6
v -593.4 -757.6 -691.8
v -0.0 -757.6 -694.2
v 593.4 -757.6 -691.8
v 780.2 -757.6 -684.6
v 912.4 -757.6 -672.5
v 1015.4 -757.6 -655.4
v 1098.5 -757.6 -632.8
v 1166.3 -757.6 -604.3
v 1221.3 -757.6 -569.2
v 1264.9 -757.6 -526.1
v 1298.0 -757.6 -472.7
v 1321.3 -757.6 -404.3
v 1335.2 -757.6 -307.4
v 1280.0 -608.8 0.0
v 1275.6 -608.8 293.7
v 1262.4 -608.8 386.2
v 1240.1 -608.8 451.6
v 1208.4 -608.8 502.6
v 1166.8 -608.8 543.8
v 1114.3 -608.8 577.3
v 1049.5 -608.8 604.5
v 970.1 -608.8 626.1
v 871.7 -608.8 642.5
v 745.4 -608.8 654.1
v 566.9 -608.8 660.9
v 0.0 -608.8 663.2
v -566.9 -608.8 660.9
v -745.4 -608.8 654.1
v -871.7 -608.8 642.5
v -970.1 -608.8 626.1
v -1049.5 -608.8 604.5
v -1114.3 -608.8 577.3
v -1166.8 -608.8 543.8
v -1208.4 -608.8 502.6
v -1240.1 -608.8 451.6
v -1262.4 -608.8 386.2
v -1275.6 -608.8 293.7
v -1280.0 -608.8 0.0
v -1275.6 -608.8 -293.7
v -1262.4 -608.8 -386.2
v -1240.1 -608.8 -451.6
v -1208.4 -608.8 -502.6
v -1166.8 -608.8 -543.8
v -1114.3 -608.8 -577.3
v -1049.5 -608.8 -604.5
v -970.1 -608.8 -626.1
v -871.7 -608.8 -642.5
v -745.4 -608.8 -654.1
v -566.9 -608.8 -660.9
v -0.0 -608.8 -663.2
v 566.9 -608.8 -660.9
v 745.4 -608.8 -654.1
v 871.7 -608.8 -642.5
v 970.1 -608.8 -626.1
v 1049.5 -608.8 -604.5
v 1114.3 -608.8 -577.3
v 1166.8 -608.8 -543.8
v 1208.4 -608.8 -502.6
v 1240.1 -608.8 -451.6
v 1262.4 -608.8 -386.2
v 1275.6 -608.8 -293.7
v 1221.8 -509.6 0.0
v 1217.6 -509.6 280.4
v 1205.0 -509.6 368.7
v 1183.8 -509.6 431.1
v 1153.5 -509.6 479.8
v 1113.8 -509.6 519.1
v 1063.7 -509.6 551.1
v 1001.8 -509.6 577.1
v 926.0 -509.6 597.7
v 832.1 -509.6 613.3
v 711.6 -509.6 624.3
v 541.1 -509.6 630.9
v 0.0 -509.6 633.1
v -541.1 -509.6 630.9
v -711.6 -509.6 624.3
v -832.1 -509.6 613.3
v -926.0 -509.6 597.7
v -1001.8 -509.6 577.1
v -1063.7 -509.6 551.1
v -1113.8 -509.6 519.1
v -1153.5 -509.6 479.8
v -1183.8 -509.6 431.1
v -1205.0 -509.6 368.7
v -1217.6 -509.6 280.4
v -1221.8 -509.6 0.0
v -1217.6 -509.6 -280.4
v -1205.0 -509.6 -368.7
v -1183.8 -509.6 -431.1
v -1153.5 -509.6 -479.8
v -1113.8 -509.6 -519.1
v -1063.7 -509.6 -551.1
v -1001.8 -509.6 -577.1
v -926.0 -509.6 -597.7
v -832.1 -509.6 -613.3
v -711.6 -509.6 -624.3
v -541.1 -509.6 -630.9
v -0.0 -509.6 -633.1
v 541.1 -509.6 -630.9
v 711.6 -509.6 -624.3
v 832.1 -509.6 -613.3
v 926.0 -509.6 -597.7
v 1001.8 -509.6 -577.1
v 1063.7 -509.6 -551.1
v 1113.8 -509.6 -519.1
v 1153.5 -509.6 -479.8
v 1183.8 -509.6 -431.1
v 1205.0 -509.6 -368.7
v 1217.6 -509.6 -280.4
v 1186.8 -460.0 0.0
v 1182.7 -460.0 272.3
v 1170.5 -460.0 358.1
v 1149.8 -460.0 418.7
v 1120.4 -460.0 466.0
v 1081.8 -460.0 504.2
v 1033.2 -460.0 535.3
v 973.1 -460.0 560.5
v 899.4 -460.0 580.5
v 808.2 -460.0 595.7
v 691.2 -460.0 606.4
v 525.6 -460.0 612.8
v 0.0 -460.0 614.9
v -525.6 -460.0 612.8
v -691.2 -460.0 606.4
v -808.2 -460.0 595.7
v -899.4 -460.0 580.5
v -973.1 -460.0 560.5
v -1033.2 -460.0 535.3
v -1081.8 -460.0 504.2
v -1120.4 -460.0 466.0
v -1149.8 -460.0 418.7
v -1170.5 -460.0 358.1
v -1182.7 -460.0 272.3
v -1186.8 -460.0 0.0
v -1182.7 -460.0 -272.3
v -1170.5 -460.0 -358.1
v -1149.8 -460.0 -418.7
v -1120.4 -460.0 -466.0
v -1081.8 -460.0 -504.2
v -1033.2 -460.0 -535.3
v -973.1 -460.0 -560.5
v -899.4 -460.0 -580.5
v -808.2 -460.0 -595.7
v -691.2 -460.0 -606.4
v -525.6 -460.0 -612.8
v -0.0 -460.0 -614.9
v 525.6 -460.0 -612.8
v 691.2 -460.0 -606.4
v 808.2 -460.0 -595.7
v 899.4 -460.0 -580.5
v 973.1 -460.0 -560.5
v 1033.2 -460.0 -535.3
v 1081.8 -460.0 -504.2
v 1120.4 -460.0 -466.0
v 1149.8 -460.0 -418.7
v 1170.5 -460.0 -358.1
v 1182.7 -460.0 -272.3
v 0.0 -460.0 0.0
f 193 194 242
f 193 242 241
f 194 195 243
f 194 243 242
f 195 196 244
f 195 244 243
f 196 197 245
f 196 245 244
f 197 198 246
f 197 246 245
f 198 199 247
f 198 247 246
f 199 200 248
f 199 248 247
f 200 201 249
f 200 249 248
f 201 202 250
f 201 250 249
f 202 203 251
f 202 251 250
f 203 204 252
f 203 252 251
f 204 205 253
f 204 253 252
f 205 206 254
f 205 254 253
f 206 207 255
f 206 255 254
f 207 208 256
f 207 256 255
f 208 209 257
f 208 257 256
f 209 210 258
f 209 258 257
f 210 211 259
f 210 259 258
f 211 212 260
f 211 260 259
f 212 213 261
f 212 261 260
f 213 214 262
f 213 262 261
f 214 215 263
f 214 263 262
f 215 216 264
f 215 264 263
f 216 217 265
f 216 265 264
f 217 218 266
f 217 266 265
f 218 219 267
f 218 267 266
f 219 220 268
f 219 268 267
f 220 221 269
f 220 269 268
f 221 222 270
f 221 270 269
f 222 223 271
f 222 271 270
f 223 224 272
f 223 272 271
f 224 225 273
f 224 273 272
f 225 226 274
f 225 274 273
f 226 227 275
f 226 275 274
f 227 228 276
f 227 276 275
f 228 229 277
f 228 277 276
f 229 230 278
f 229 278 277
f 230 231 279
f 230 279 278
f 231 232 280
f 231 280 279
f 232 233 281
f 232 281 280
f 233 234 282
f 233 282 281
f 234 235 283
f 234 283 282
f 235 236 284
f 235 284 283
f 236 237 285
f 236 285 284
f 237 238 286
f 237 286 285
f 238 239 287
f 238 287 286
f 239 240 288
f 239 288 287
f 240 193 241
f 240 241 288
f 241 242 290
f 241 290 289
f 242 243 291
f 242 291 290
f 243 244 292
f 243 292 291
f 244 245 293
f 244 293 292
f 245 246 294
f 245 294 293
f 246 247 295
f 246 295 294
f 247 248 296
f 247 296 295
f 248 249 297
f 248 297 296
f 249 250 298
f 249 298 297
f 250 251 299
f 250 299 298
f 251 252 300
f 251 300 299
f 252 253 301
f 252 301 300
f 253 254 302
f 253 302 301
f 254 255 303
f 254 303 302
f 255 256 304
f 255 304 303
f 256 257 305
f 256 305 304
f 257 258 306
f 257 306 305
f 258 259 307
f 258 307 306
f 259 260 308
f 259 308 307
f 260 261 309
f 260 309 308
f 261 262 310
f 261 310 309
f 262 263 311
f 262 311 310
f 263 264 312
f 263 312 311
f 264 265 313
f 264 313 312
f 265 266 314
f 265 314 313
f 266 267 315
f 266 315 314
f 267 268 316
f 267 316 315
f 268 269 317
f 268 317 316
f 269 270 318
f 269 318 317
f 270 271 319
f 270 319 318
f 271 272 320
f 271 320 319
f 272 273 321
f 272 321 320
f 273 274 322
f 273 322 321
f 274 275 323
f 274 323 322
f 275 276 324
f 275 324 323
f 276 277 325
f 276 325 324
f 277 278 326
f 277 326 325
f 278 279 327
f 278 327 326
f 279 280 328
f 279 328 327
f 280 281 329
f 280 329 328
f 281 282 330
f 281 330 329
f 282 283 331
f 282 331 330
f 283 284 332
f 283 332 331
f 284 285 333
f 284 333 332
f 285 286 334
f 285 334 333
f 286 287 335
f 286 335 334
f 287 288 336
f 287 336 335
f 288 241 289
f 288 289 336
f 289 290 338
f 289 338 337
f 290 291 339
f 290 339 338
f 291 292 340
f 291 340 339
f 292 293 341
f 292 341 340
f 293 294 342
f 293 342 341
f 294 295 343
f 294 343 342
f 295 296 344
f 295 344 343
f 296 297 345
f 296 345 344
f 297 298 346
f 297 346 345
f 298 299 347
f 298 347 346
f 299 300 348
f 299 348 347
f 300 301 349
f 300 349 348
f 301 302 350
f 301 350 349
f 302 303 351
f 302 351 350
f 303 304 352
f 303 352 351
f 304 305 353
f 304 353 352
f 305 306 354
f 305 354 353
f 306 307 355
f 306 355 354
f 307 308 356
f 307 356 355
f 308 309 357
f 308 357 356
f 309 310 358
f 309 358 357
f 310 311 359
f 310 359 358
f 311 312 360
f 311 360 359
f 312 313 361
f 312 361 360
f 313 314 362
f 313 362 361
f 314 315 363
f 314 363 362
f 315 316 364
f 315 364 363
f 316 317 365
f 316 365 364
f 317 318 366
f 317 366 365
f 318 319 367
f 318 367 366
f 319 320 368
f 319 368 367
f 320 321 369
f 320 369 368
f 321 322 370
f 321 370 369
f 322 323 371
f 322 371 370
f 323 324 372
f 323 372 371
f 324 325 373
f 324 373 372
f 325 326 374
f 325 374 373
f 326 327 375
f 326 375 374
f 327 328 376
f 327 376 375
f 328 329 377
f 328 377 376
f 329 330 378
f 329 378 377
f 330 331 379
f 330 379 378
f 331 332 380
f 331 380 379
f 332 333 381
f 332 381 380
f 333 334 382
f 333 382 381
f 334 335 383
f 334 383 382
f 335 336 384
f 335 384 383
f 336 289 337
f 336 337 384
f 337 338 386
f 337 386 385
f 338 339 387
f 338 387 386
f 339 340 388
f 339 388 387
f 340 341 389
f 340 389 388
f 341 342 390
f 341 390 389
f 342 343 391
f 342 391 390
f 343 344 392
f 343 392 391
f 344 345 393
f 344 393 392
f 345 346 394
f 345 394 393
f 346 347 395
f 346 395 394
f 347 348 396
f 347 396 395
f 348 349 397
f 348 397 396
f 349 350 398
f 349 398 397
f 350 351 399
f 350 399 398
f 351 352 400
f 351 400 399
f 352 353 401
f 352 401 400
f 353 354 402
f 353 402 401
f 354 355 403
f 354 403 402
f 355 356 404
f 355 404 403
f 356 357 405
f 356 405 404
f 357 358 406
f 357 406 405
f 358 359 407
f 358 407 406
f 359 360 408
f 359 408 407
f 360 361 409
f 360 409 408
f 361 362 410
f 361 410 409
f 362 363 411
f 362 411 410
f 363 364 412
f 363 412 411
f 364 365 413
f 364 413 412
f 365 366 414
f 365 414 413
f 366 367 415
f 366 415 414
f 367 368 416
f 367 416 415
f 368 369 417
f 368 417 416
f 369 370 418
f 369 418 417
f 370 371 419
f 370 419 418
f 371 372 420
f 371 420 419
f 372 373 421
f 372 421 420
f 373 374 422
f 373 422 421
f 374 375 423
f 374 423 422
f 375 376 424
f 375 424 423
f 376 377 425
f 376 425 424
f 377 378 426
f 377 426 425
f 378 379 427
f 378 427 426
f 379 380 428
f 379 428 427
f 380 381 429
f 380 429 428
f 381 382 430
f 381 430 429
f 382 383 431
f 382 431 430
f 383 384 432
f 383 432 431
f 384 337 385
f 384 385 432
f 385 386 434
f 385 434 433
f 386 387 435
f 386 435 434
f 387 388 436
f 387 436 435
f 388 389 437
f 388 437 436
f 389 390 438
f 389 438 437
f 390 391 439
f 390 439 438
f 391 392 440
f 391 440 439
f 392 393 441
f 392 441 440
f 393 394 442
f 393 442 441
f 394 395 443
f 394 443 442
f 395 396 444
f 395 444 443
f 396 397 445
f 396 445 444
f 397 398 446
f 397 446 445
f 398 399 447
f 398 447 446
f 399 400 448
f 399 448 447
f 400 401 449
f 400 449 448
f 401 402 450
f 401 450 449
f 402 403 451
f 402 451 450
f 403 404 452
f 403 452 451
f 404 405 453
f 404 453 452
f 405 406 454
f 405 454 453
f 406 407 455
f 406 455 454
f 407 408 456
f 407 456 455
f 408 409 457
f 408 457 456
f 409 410 458
f 409 458 457
f 410 411 459
f 410 459 458
f 411 412 460
f 411 460 459
f 412 413 461
f 412 461 460
f 413 414 462
f 413 462 461
f 414 415 463
f 414 463 462
f 415 416 464
f 415 464 463
f 416 417 465
f 416 465 464
f 417 418 466
f 417 466 465
f 418 419 467
f 418 467 466
f 419 420 468
f 419 468 467
f 420 421 469
f 420 469 468
f 421 422 470
f 421 470 469
f 422 423 471
f 422 471 470
f 423 424 472
f 423 472 471
f 424 425 473
f 424 473 472
f 425 426 474
f 425 474 473
f 426 427 475
f 426 475 474
f 427 428 476
f 427 476 475
f 428 429 477
f 428 477 476
f 429 430 478
f 429 478 477
f 430 431 479
f 430 479 478
f 431 432 480
f 431 480 479
f 432 385 433
f 432 433 480
f 433 434 482
f 433 482 481
f 434 435 483
f 434 483 482
f 435 436 484
f 435 484 483
f 436 437 485
f 436 485 484
f 437 438 486
f 437 486 485
f 438 439 487
f 438 487 486
f 439 440 488
f 439 488 487
f 440 441 489
f 440 489 488
f 441 442 490
f 441 490 489
f 442 443 491
f 442 491 490
f 443 444 492
f 443 492 491
f 444 445 493
f 444 493 492
f 445 446 494
f 445 494 493
f 446 447 495
f 446 495 494
f 447 448 496
f 447 496 495
f 448 449 497
f 448 497 496
f 449 450 498
f 449 498 497
f 450 451 499
f 450 499 498
f 451 452 500
f 451 500 499
f 452 453 501
f 452 501 500
f 453 454 502
f 453 502 501
f 454 455 503
f 454 503 502
f 455 456 504
f 455 504 503
f 456 457 505
f 456 505 504
f 457 458 506
f 457 506 505
f 458 459 507
f 458 507 506
f 459 460 508
f 459 508 507
f 460 461 509
f 460 509 508
f 461 462 510
f 461 510 509
f 462 463 511
f 462 511 510
f 463 464 512
f 463 512 511
f 464 465 513
f 464 513 512
f 465 466 514
f 465 514 513
f 466 467 515
f 466 515 514
f 467 468 516
f 467 516 515
f 468 469 517
f 468 517 516
f 469 470 518
f 469 518 517
f 470 471 519
f 470 519 518
f 471 472 520
f 471 520 519
f 472 473 521
f 472 521 520
f 473 474 522
f 473 522 521
f 474 475 523
f 474 523 522
f 475 476 524
f 475 524 523
f 476 477 525
f 476 525 524
f 477 478 526
f 477 526 525
f 478 479 527
f 478 527 526
f 479 480 528
f 479 528 527
f 480 433 481
f 480 481 528
f 481 482 530
f 481 530 529
f 482 483 531
f 482 531 530
f 483 484 532
f 483 532 531
f 484 485 533
f 484 533 532
f 485 486 534
f 485 534 533
f 486 487 535
f 486 535 534
f 487 488 536
f 487 536 535
f 488 489 537
f 488 537 536
f 489 490 538
f 489 538 537
f 490 491 539
f 490 539 538
f 491 492 540
f 491 540 539
f 492 493 541
f 492 541 540
f 493 494 542
f 493 542 541
f 494 495 543
f 494 543 542
f 495 496 544
f 495 544 543
f 496 497 545
f 496 545 544
f 497 498 546
f 497 546 545
f 498 499 547
f 498 547 546
f 499 500 548
f 499 548 547
f 500 501 549
f 500 549 548
f 501 502 550
f 501 550 549
f 502 503 551
f 502 551 550
f 503 504 552
f 503 552 551
f 504 505 553
f 504 553 552
f 505 506 554
f 505 554 553
f 506 507 555
f 506 555 554
f 507 508 556
f 507 556 555
f 508 509 557
f 508 557 556
f 509 510 558
f 509 558 557
f 510 511 559
f 510 559 558
f 511 512 560
f 511 560 559
f 512 513 561
f 512 561 560
f 513 514 562
f 513 562 561
f 514 515 563
f 514 563 562
f 515 516 564
f 515 564 563
f 516 517 565
f 516 565 564
f 517 518 566
f 517 566 565
f 518 519 567
f 518 567 566
f 519 520 568
f 519 568 567
f 520 521 569
f 520 569 568
f 521 522 570
f 521 570 569
f 522 523 571
f 522 571 570
f 523 524 572
f 523 572 571
f 524 525 573
f 524 573 572
f 525 526 574
f 525 574 573
f 526 527 575
f 526 575 574
f 527 528 576
f 527 576 575
f 528 481 529
f 528 529 576
f 529 530 578
f 529 578 577
f 530 531 579
f 530 579 578
f 531 532 580
f 531 580 579
f 532 533 581
f 532 581 580
f 533 534 582
f 533 582 581
f 534 535 583
f 534 583 582
f 535 536 584
f 535 584 583
f 536 537 585
f 536 585 584
f 537 538 586
f 537 586 585
f 538 539 587
f 538 587 586
f 539 540 588
f 539 588 587
f 540 541 589
f 540 589 588
f 541 542 590
f 541 590 589
f 542 543 591
f 542 591 590
f 543 544 592
f 543 592 591
f 544 545 593
f 544 593 592
f 545 546 594
f 545 594 593
f 546 547 595
f 546 595 594
f 547 548 596
f 547 596 595
f 548 549 597
f 548 597 596
f 549 550 598
f 549 598 597
f 550 551 599
f 550 599 598
f 551 552 600
f 551 600 599
f 552 553 601
f 552 601 600
f 553 554 602
f 553 602 601
f 554 555 603
f 554 603 602
f 555 556 604
f 555 604 603
f 556 557 605
f 556 605 604
f 557 558 606
f 557 606 605
f 558 559 607
f 558 607 606
f 559 560 608
f 559 608 607
f 560 561 609
f 560 609 608
f 561 562 610
f 561 610 609
f 562 563 611
f 562 611 610
f 563 564 612
f 563 612 611
f 564 565 613
f 564 613 612
f 565 566 614
f 565 614 613
f 566 567 615
f 566 615 614
f 567 568 616
f 567 616 615
f 568 569 617
f 568 617 616
f 569 570 618
f 569 618 617
f 570 571 619
f 570 619 618
f 571 572 620
f 571 620 619
f 572 573 621
f 572 621 620
f 573 574 622
f 573 622 621
f 574 575 623
f 574 623 622
f 575 576 624
f 575 624 623
f 576 529 577
f 576 577 624
f 625 577 578
f 625 578 579
f 625 579 580
f 625 580 581
f 625 581 582
f 625 582 583
f 625 583 584
f 625 584 585
f 625 585 586
f 625 586 587
f 625 587 588
f 625 588 589
f 625 589 590
f 625 590 591
f 625 591 592
f 625 592 593
f 625 593 594
f 625 594 595
f 625 595 596
f 625 596 597
f 625 597 598
f 625 598 599
f 625 599 600
f 625 600 601
f 625 601 602
f 625 602 603
f 625 603 604
f 625 604 605
f 625 605 606
f 625 606 607
f 625 607 608
f 625 608 609
f 625 609 610
f 625 610 611
f 625 611 612
f 625 612 613
f 625 613 614
f 625 614 615
f 625 615 616
f 625 616 617
f 625 617 618
f 625 618 619
f 625 619 620
f 625 620 621
f 625 621 622
f 625 622 623
f 625 623 624
f 625 624 577
