# m12.obj - tools/build_raid_meshes.py. Game units, Y negative up.
v 75.0 0.0 0.0
v 67.6 0.0 32.5
v 46.8 0.0 58.6
v 16.7 0.0 73.1
v -16.7 0.0 73.1
v -46.8 0.0 58.6
v -67.6 0.0 32.5
v -75.0 0.0 0.0
v -67.6 0.0 -32.5
v -46.8 0.0 -58.6
v -16.7 0.0 -73.1
v 16.7 0.0 -73.1
v 46.8 0.0 -58.6
v 67.6 0.0 -32.5
v 78.0 -60.0 0.0
v 70.3 -60.0 33.8
v 48.6 -60.0 61.0
v 17.4 -60.0 76.0
v -17.4 -60.0 76.0
v -48.6 -60.0 61.0
v -70.3 -60.0 33.8
v -78.0 -60.0 0.0
v -70.3 -60.0 -33.8
v -48.6 -60.0 -61.0
v -17.4 -60.0 -76.0
v 17.4 -60.0 -76.0
v 48.6 -60.0 -61.0
v 70.3 -60.0 -33.8
v 78.0 -260.0 0.0
v 70.3 -260.0 33.8
v 48.6 -260.0 61.0
v 17.4 -260.0 76.0
v -17.4 -260.0 76.0
v -48.6 -260.0 61.0
v -70.3 -260.0 33.8
v -78.0 -260.0 0.0
v -70.3 -260.0 -33.8
v -48.6 -260.0 -61.0
v -17.4 -260.0 -76.0
v 17.4 -260.0 -76.0
v 48.6 -260.0 -61.0
v 70.3 -260.0 -33.8
v 45.0 -320.0 0.0
v 40.5 -320.0 19.5
v 28.1 -320.0 35.2
v 10.0 -320.0 43.9
v -10.0 -320.0 43.9
v -28.1 -320.0 35.2
v -40.5 -320.0 19.5
v -45.0 -320.0 0.0
v -40.5 -320.0 -19.5
v -28.1 -320.0 -35.2
v -10.0 -320.0 -43.9
v 10.0 -320.0 -43.9
v 28.1 -320.0 -35.2
v 40.5 -320.0 -19.5
v 32.0 -340.0 0.0
v 28.8 -340.0 13.9
v 20.0 -340.0 25.0
v 7.1 -340.0 31.2
v -7.1 -340.0 31.2
v -20.0 -340.0 25.0
v -28.8 -340.0 13.9
v -32.0 -340.0 0.0
v -28.8 -340.0 -13.9
v -20.0 -340.0 -25.0
v -7.1 -340.0 -31.2
v 7.1 -340.0 -31.2
v 20.0 -340.0 -25.0
v 28.8 -340.0 -13.9
v 32.0 -390.0 0.0
v 28.8 -390.0 13.9
v 20.0 -390.0 25.0
v 7.1 -390.0 31.2
v -7.1 -390.0 31.2
v -20.0 -390.0 25.0
v -28.8 -390.0 13.9
v -32.0 -390.0 0.0
v -28.8 -390.0 -13.9
v -20.0 -390.0 -25.0
v -7.1 -390.0 -31.2
v 7.1 -390.0 -31.2
v 20.0 -390.0 -25.0
v 28.8 -390.0 -13.9
v 0.0 0.0 0.0
v 0.0 -390.0 0.0
f 1 2 16
f 1 16 15
f 2 3 17
f 2 17 16
f 3 4 18
f 3 18 17
f 4 5 19
f 4 19 18
f 5 6 20
f 5 20 19
f 6 7 21
f 6 21 20
f 7 8 22
f 7 22 21
f 8 9 23
f 8 23 22
f 9 10 24
f 9 24 23
f 10 11 25
f 10 25 24
f 11 12 26
f 11 26 25
f 12 13 27
f 12 27 26
f 13 14 28
f 13 28 27
f 14 1 15
f 14 15 28
f 15 16 30
f 15 30 29
f 16 17 31
f 16 31 30
f 17 18 32
f 17 32 31
f 18 19 33
f 18 33 32
f 19 20 34
f 19 34 33
f 20 21 35
f 20 35 34
f 21 22 36
f 21 36 35
f 22 23 37
f 22 37 36
f 23 24 38
f 23 38 37
f 24 25 39
f 24 39 38
f 25 26 40
f 25 40 39
f 26 27 41
f 26 41 40
f 27 28 42
f 27 42 41
f 28 15 29
f 28 29 42
f 29 30 44
f 29 44 43
f 30 31 45
f 30 45 44
f 31 32 46
f 31 46 45
f 32 33 47
f 32 47 46
f 33 34 48
f 33 48 47
f 34 35 49
f 34 49 48
f 35 36 50
f 35 50 49
f 36 37 51
f 36 51 50
f 37 38 52
f 37 52 51
f 38 39 53
f 38 53 52
f 39 40 54
f 39 54 53
f 40 41 55
f 40 55 54
f 41 42 56
f 41 56 55
f 42 29 43
f 42 43 56
f 43 44 58
f 43 58 57
f 44 45 59
f 44 59 58
f 45 46 60
f 45 60 59
f 46 47 61
f 46 61 60
f 47 48 62
f 47 62 61
f 48 49 63
f 48 63 62
f 49 50 64
f 49 64 63
f 50 51 65
f 50 65 64
f 51 52 66
f 51 66 65
f 52 53 67
f 52 67 66
f 53 54 68
f 53 68 67
f 54 55 69
f 54 69 68
f 55 56 70
f 55 70 69
f 56 43 57
f 56 57 70
f 57 58 72
f 57 72 71
f 58 59 73
f 58 73 72
f 59 60 74
f 59 74 73
f 60 61 75
f 60 75 74
f 61 62 76
f 61 76 75
f 62 63 77
f 62 77 76
f 63 64 78
f 63 78 77
f 64 65 79
f 64 79 78
f 65 66 80
f 65 80 79
f 66 67 81
f 66 81 80
f 67 68 82
f 67 82 81
f 68 69 83
f 68 83 82
f 69 70 84
f 69 84 83
f 70 57 71
f 70 71 84
f 85 2 1
f 85 3 2
f 85 4 3
f 85 5 4
f 85 6 5
f 85 7 6
f 85 8 7
f 85 9 8
f 85 10 9
f 85 11 10
f 85 12 11
f 85 13 12
f 85 14 13
f 85 1 14
f 86 71 72
f 86 72 73
f 86 73 74
f 86 74 75
f 86 75 76
f 86 76 77
f 86 77 78
f 86 78 79
f 86 79 80
f 86 80 81
f 86 81 82
f 86 82 83
f 86 83 84
f 86 84 71
