# m13.obj - tools/build_raid_meshes.py. Game units, Y negative up.
v 395.5 -1880.0 0.0
v 390.5 -1880.0 75.3
v 375.4 -1880.0 105.1
v 349.7 -1880.0 126.0
v 312.3 -1880.0 141.1
v 260.5 -1880.0 151.5
v 186.6 -1880.0 157.6
v 0.0 -1880.0 159.6
v -186.6 -1880.0 157.6
v -260.5 -1880.0 151.5
v -312.3 -1880.0 141.1
v -349.7 -1880.0 126.0
v -375.4 -1880.0 105.1
v -390.5 -1880.0 75.3
v -395.5 -1880.0 0.0
v -390.5 -1880.0 -75.3
v -375.4 -1880.0 -105.1
v -349.7 -1880.0 -126.0
v -312.3 -1880.0 -141.1
v -260.5 -1880.0 -151.5
v -186.6 -1880.0 -157.6
v -0.0 -1880.0 -159.6
v 186.6 -1880.0 -157.6
v 260.5 -1880.0 -151.5
v 312.3 -1880.0 -141.1
v 349.7 -1880.0 -126.0
v 375.4 -1880.0 -105.1
v 390.5 -1880.0 -75.3
v 508.5 -2028.5 0.0
v 502.1 -2028.5 96.8
v 482.7 -2028.5 135.2
v 449.6 -2028.5 162.0
v 401.5 -2028.5 181.4
v 334.9 -2028.5 194.8
v 239.9 -2028.5 202.6
v 0.0 -2028.5 205.2
v -239.9 -2028.5 202.6
v -334.9 -2028.5 194.8
v -401.5 -2028.5 181.4
v -449.6 -2028.5 162.0
v -482.7 -2028.5 135.2
v -502.1 -2028.5 96.8
v -508.5 -2028.5 0.0
v -502.1 -2028.5 -96.8
v -482.7 -2028.5 -135.2
v -449.6 -2028.5 -162.0
v -401.5 -2028.5 -181.4
v -334.9 -2028.5 -194.8
v -239.9 -2028.5 -202.6
v -0.0 -2028.5 -205.2
v 239.9 -2028.5 -202.6
v 334.9 -2028.5 -194.8
v 401.5 -2028.5 -181.4
v 449.6 -2028.5 -162.0
v 482.7 -2028.5 -135.2
v 502.1 -2028.5 -96.8
v 565.0 -2080.0 0.0
v 557.9 -2080.0 107.6
v 536.3 -2080.0 150.2
v 499.6 -2080.0 180.0
v 446.1 -2080.0 201.6
v 372.2 -2080.0 216.4
v 266.5 -2080.0 225.1
v 0.0 -2080.0 228.0
v -266.5 -2080.0 225.1
v -372.2 -2080.0 216.4
v -446.1 -2080.0 201.6
v -499.6 -2080.0 180.0
v -536.3 -2080.0 150.2
v -557.9 -2080.0 107.6
v -565.0 -2080.0 0.0
v -557.9 -2080.0 -107.6
v -536.3 -2080.0 -150.2
v -499.6 -2080.0 -180.0
v -446.1 -2080.0 -201.6
v -372.2 -2080.0 -216.4
v -266.5 -2080.0 -225.1
v -0.0 -2080.0 -228.0
v 266.5 -2080.0 -225.1
v 372.2 -2080.0 -216.4
v 446.1 -2080.0 -201.6
v 499.6 -2080.0 -180.0
v 536.3 -2080.0 -150.2
v 557.9 -2080.0 -107.6
v 575.0 -2120.0 0.0
v 567.7 -2120.0 112.3
v 545.8 -2120.0 156.8
v 508.4 -2120.0 187.9
v 454.0 -2120.0 210.4
v 378.8 -2120.0 225.9
v 271.2 -2120.0 235.0
v 0.0 -2120.0 238.0
v -271.2 -2120.0 235.0
v -378.8 -2120.0 225.9
v -454.0 -2120.0 210.4
v -508.4 -2120.0 187.9
v -545.8 -2120.0 156.8
v -567.7 -2120.0 112.3
v -575.0 -2120.0 0.0
v -567.7 -2120.0 -112.3
v -545.8 -2120.0 -156.8
v -508.4 -2120.0 -187.9
v -454.0 -2120.0 -210.4
v -378.8 -2120.0 -225.9
v -271.2 -2120.0 -235.0
v -0.0 -2120.0 -238.0
v 271.2 -2120.0 -235.0
v 378.8 -2120.0 -225.9
v 454.0 -2120.0 -210.4
v 508.4 -2120.0 -187.9
v 545.8 -2120.0 -156.8
v 567.7 -2120.0 -112.3
v 571.0 -2150.0 0.0
v 563.8 -2150.0 110.4
v 542.0 -2150.0 154.1
v 504.9 -2150.0 184.8
v 450.9 -2150.0 206.9
v 376.1 -2150.0 222.1
v 269.4 -2150.0 231.0
v 0.0 -2150.0 234.0
v -269.4 -2150.0 231.0
v -376.1 -2150.0 222.1
v -450.9 -2150.0 206.9
v -504.9 -2150.0 184.8
v -542.0 -2150.0 154.1
v -563.8 -2150.0 110.4
v -571.0 -2150.0 0.0
v -563.8 -2150.0 -110.4
v -542.0 -2150.0 -154.1
v -504.9 -2150.0 -184.8
v -450.9 -2150.0 -206.9
v -376.1 -2150.0 -222.1
v -269.4 -2150.0 -231.0
v -0.0 -2150.0 -234.0
v 269.4 -2150.0 -231.0
v 376.1 -2150.0 -222.1
v 450.9 -2150.0 -206.9
v 504.9 -2150.0 -184.8
v 542.0 -2150.0 -154.1
v 563.8 -2150.0 -110.4
v 0.0 -1880.0 0.0
v 551.5 -2162.0 0.0
v 544.5 -2162.0 101.2
v 523.5 -2162.0 141.3
v 487.6 -2162.0 169.4
v 435.5 -2162.0 189.7
v 363.3 -2162.0 203.6
v 260.2 -2162.0 211.8
v 0.0 -2162.0 214.5
v -260.2 -2162.0 211.8
v -363.3 -2162.0 203.6
v -435.5 -2162.0 189.7
v -487.6 -2162.0 169.4
v -523.5 -2162.0 141.3
v -544.5 -2162.0 101.2
v -551.5 -2162.0 0.0
v -544.5 -2162.0 -101.2
v -523.5 -2162.0 -141.3
v -487.6 -2162.0 -169.4
v -435.5 -2162.0 -189.7
v -363.3 -2162.0 -203.6
v -260.2 -2162.0 -211.8
v -0.0 -2162.0 -214.5
v 260.2 -2162.0 -211.8
v 363.3 -2162.0 -203.6
v 435.5 -2162.0 -189.7
v 487.6 -2162.0 -169.4
v 523.5 -2162.0 -141.3
v 544.5 -2162.0 -101.2
v 535.0 -2150.0 0.0
v 528.3 -2150.0 93.4
v 507.8 -2150.0 130.4
v 473.1 -2150.0 156.3
v 422.4 -2150.0 175.1
v 352.4 -2150.0 187.9
v 252.4 -2150.0 195.5
v 0.0 -2150.0 198.0
v -252.4 -2150.0 195.5
v -352.4 -2150.0 187.9
v -422.4 -2150.0 175.1
v -473.1 -2150.0 156.3
v -507.8 -2150.0 130.4
v -528.3 -2150.0 93.4
v -535.0 -2150.0 0.0
v -528.3 -2150.0 -93.4
v -507.8 -2150.0 -130.4
v -473.1 -2150.0 -156.3
v -422.4 -2150.0 -175.1
v -352.4 -2150.0 -187.9
v -252.4 -2150.0 -195.5
v -0.0 -2150.0 -198.0
v 252.4 -2150.0 -195.5
v 352.4 -2150.0 -187.9
v 422.4 -2150.0 -175.1
v 473.1 -2150.0 -156.3
v 507.8 -2150.0 -130.4
v 528.3 -2150.0 -93.4
v 534.6 -2136.0 0.0
v 527.8 -2136.0 93.3
v 507.4 -2136.0 130.3
v 472.7 -2136.0 156.2
v 422.1 -2136.0 174.9
v 352.1 -2136.0 187.8
v 252.2 -2136.0 195.3
v 0.0 -2136.0 197.8
v -252.2 -2136.0 195.3
v -352.1 -2136.0 187.8
v -422.1 -2136.0 174.9
v -472.7 -2136.0 156.2
v -507.4 -2136.0 130.3
v -527.8 -2136.0 93.3
v -534.6 -2136.0 0.0
v -527.8 -2136.0 -93.3
v -507.4 -2136.0 -130.3
v -472.7 -2136.0 -156.2
v -422.1 -2136.0 -174.9
v -352.1 -2136.0 -187.8
v -252.2 -2136.0 -195.3
v -0.0 -2136.0 -197.8
v 252.2 -2136.0 -195.3
v 352.1 -2136.0 -187.8
v 422.1 -2136.0 -174.9
v 472.7 -2136.0 -156.2
v 507.4 -2136.0 -130.3
v 527.8 -2136.0 -93.3
v 530.0 -2110.8 0.0
v 523.3 -2110.8 92.5
v 503.0 -2110.8 129.2
v 468.6 -2110.8 154.9
v 418.5 -2110.8 173.4
v 349.1 -2110.8 186.2
v 250.0 -2110.8 193.7
v 0.0 -2110.8 196.1
v -250.0 -2110.8 193.7
v -349.1 -2110.8 186.2
v -418.5 -2110.8 173.4
v -468.6 -2110.8 154.9
v -503.0 -2110.8 129.2
v -523.3 -2110.8 92.5
v -530.0 -2110.8 0.0
v -523.3 -2110.8 -92.5
v -503.0 -2110.8 -129.2
v -468.6 -2110.8 -154.9
v -418.5 -2110.8 -173.4
v -349.1 -2110.8 -186.2
v -250.0 -2110.8 -193.7
v -0.0 -2110.8 -196.1
v 250.0 -2110.8 -193.7
v 349.1 -2110.8 -186.2
v 418.5 -2110.8 -173.4
v 468.6 -2110.8 -154.9
v 503.0 -2110.8 -129.2
v 523.3 -2110.8 -92.5
v 512.7 -2077.2 0.0
v 506.3 -2077.2 89.5
v 486.7 -2077.2 125.0
v 453.4 -2077.2 149.8
v 404.9 -2077.2 167.8
v 337.7 -2077.2 180.1
v 241.9 -2077.2 187.4
v 0.0 -2077.2 189.8
v -241.9 -2077.2 187.4
v -337.7 -2077.2 180.1
v -404.9 -2077.2 167.8
v -453.4 -2077.2 149.8
v -486.7 -2077.2 125.0
v -506.3 -2077.2 89.5
v -512.7 -2077.2 0.0
v -506.3 -2077.2 -89.5
v -486.7 -2077.2 -125.0
v -453.4 -2077.2 -149.8
v -404.9 -2077.2 -167.8
v -337.7 -2077.2 -180.1
v -241.9 -2077.2 -187.4
v -0.0 -2077.2 -189.8
v 241.9 -2077.2 -187.4
v 337.7 -2077.2 -180.1
v 404.9 -2077.2 -167.8
v 453.4 -2077.2 -149.8
v 486.7 -2077.2 -125.0
v 506.3 -2077.2 -89.5
v 479.6 -2043.6 0.0
v 473.6 -2043.6 83.7
v 455.3 -2043.6 116.9
v 424.1 -2043.6 140.2
v 378.7 -2043.6 157.0
v 315.9 -2043.6 168.5
v 226.2 -2043.6 175.3
v 0.0 -2043.6 177.5
v -226.2 -2043.6 175.3
v -315.9 -2043.6 168.5
v -378.7 -2043.6 157.0
v -424.1 -2043.6 140.2
v -455.3 -2043.6 116.9
v -473.6 -2043.6 83.7
v -479.6 -2043.6 0.0
v -473.6 -2043.6 -83.7
v -455.3 -2043.6 -116.9
v -424.1 -2043.6 -140.2
v -378.7 -2043.6 -157.0
v -315.9 -2043.6 -168.5
v -226.2 -2043.6 -175.3
v -0.0 -2043.6 -177.5
v 226.2 -2043.6 -175.3
v 315.9 -2043.6 -168.5
v 378.7 -2043.6 -157.0
v 424.1 -2043.6 -140.2
v 455.3 -2043.6 -116.9
v 473.6 -2043.6 -83.7
v 447.4 -2021.2 0.0
v 441.8 -2021.2 78.1
v 424.7 -2021.2 109.1
v 395.6 -2021.2 130.7
v 353.3 -2021.2 146.4
v 294.7 -2021.2 157.2
v 211.1 -2021.2 163.5
v 0.0 -2021.2 165.6
v -211.1 -2021.2 163.5
v -294.7 -2021.2 157.2
v -353.3 -2021.2 146.4
v -395.6 -2021.2 130.7
v -424.7 -2021.2 109.1
v -441.8 -2021.2 78.1
v -447.4 -2021.2 0.0
v -441.8 -2021.2 -78.1
v -424.7 -2021.2 -109.1
v -395.6 -2021.2 -130.7
v -353.3 -2021.2 -146.4
v -294.7 -2021.2 -157.2
v -211.1 -2021.2 -163.5
v -0.0 -2021.2 -165.6
v 211.1 -2021.2 -163.5
v 294.7 -2021.2 -157.2
v 353.3 -2021.2 -146.4
v 395.6 -2021.2 -130.7
v 424.7 -2021.2 -109.1
v 441.8 -2021.2 -78.1
v 428.0 -2010.0 0.0
v 422.6 -2010.0 74.7
v 406.3 -2010.0 104.3
v 378.4 -2010.0 125.1
v 338.0 -2010.0 140.1
v 281.9 -2010.0 150.4
v 201.9 -2010.0 156.4
v 0.0 -2010.0 158.4
v -201.9 -2010.0 156.4
v -281.9 -2010.0 150.4
v -338.0 -2010.0 140.1
v -378.4 -2010.0 125.1
v -406.3 -2010.0 104.3
v -422.6 -2010.0 74.7
v -428.0 -2010.0 0.0
v -422.6 -2010.0 -74.7
v -406.3 -2010.0 -104.3
v -378.4 -2010.0 -125.1
v -338.0 -2010.0 -140.1
v -281.9 -2010.0 -150.4
v -201.9 -2010.0 -156.4
v -0.0 -2010.0 -158.4
v 201.9 -2010.0 -156.4
v 281.9 -2010.0 -150.4
v 338.0 -2010.0 -140.1
v 378.4 -2010.0 -125.1
v 406.3 -2010.0 -104.3
v 422.6 -2010.0 -74.7
v 0.0 -2010.0 0.0
f 1 2 30
f 1 30 29
f 2 3 31
f 2 31 30
f 3 4 32
f 3 32 31
f 4 5 33
f 4 33 32
f 5 6 34
f 5 34 33
f 6 7 35
f 6 35 34
f 7 8 36
f 7 36 35
f 8 9 37
f 8 37 36
f 9 10 38
f 9 38 37
f 10 11 39
f 10 39 38
f 11 12 40
f 11 40 39
f 12 13 41
f 12 41 40
f 13 14 42
f 13 42 41
f 14 15 43
f 14 43 42
f 15 16 44
f 15 44 43
f 16 17 45
f 16 45 44
f 17 18 46
f 17 46 45
f 18 19 47
f 18 47 46
f 19 20 48
f 19 48 47
f 20 21 49
f 20 49 48
f 21 22 50
f 21 50 49
f 22 23 51
f 22 51 50
f 23 24 52
f 23 52 51
f 24 25 53
f 24 53 52
f 25 26 54
f 25 54 53
f 26 27 55
f 26 55 54
f 27 28 56
f 27 56 55
f 28 1 29
f 28 29 56
f 29 30 58
f 29 58 57
f 30 31 59
f 30 59 58
f 31 32 60
f 31 60 59
f 32 33 61
f 32 61 60
f 33 34 62
f 33 62 61
f 34 35 63
f 34 63 62
f 35 36 64
f 35 64 63
f 36 37 65
f 36 65 64
f 37 38 66
f 37 66 65
f 38 39 67
f 38 67 66
f 39 40 68
f 39 68 67
f 40 41 69
f 40 69 68
f 41 42 70
f 41 70 69
f 42 43 71
f 42 71 70
f 43 44 72
f 43 72 71
f 44 45 73
f 44 73 72
f 45 46 74
f 45 74 73
f 46 47 75
f 46 75 74
f 47 48 76
f 47 76 75
f 48 49 77
f 48 77 76
f 49 50 78
f 49 78 77
f 50 51 79
f 50 79 78
f 51 52 80
f 51 80 79
f 52 53 81
f 52 81 80
f 53 54 82
f 53 82 81
f 54 55 83
f 54 83 82
f 55 56 84
f 55 84 83
f 56 29 57
f 56 57 84
f 57 58 86
f 57 86 85
f 58 59 87
f 58 87 86
f 59 60 88
f 59 88 87
f 60 61 89
f 60 89 88
f 61 62 90
f 61 90 89
f 62 63 91
f 62 91 90
f 63 64 92
f 63 92 91
f 64 65 93
f 64 93 92
f 65 66 94
f 65 94 93
f 66 67 95
f 66 95 94
f 67 68 96
f 67 96 95
f 68 69 97
f 68 97 96
f 69 70 98
f 69 98 97
f 70 71 99
f 70 99 98
f 71 72 100
f 71 100 99
f 72 73 101
f 72 101 100
f 73 74 102
f 73 102 101
f 74 75 103
f 74 103 102
f 75 76 104
f 75 104 103
f 76 77 105
f 76 105 104
f 77 78 106
f 77 106 105
f 78 79 107
f 78 107 106
f 79 80 108
f 79 108 107
f 80 81 109
f 80 109 108
f 81 82 110
f 81 110 109
f 82 83 111
f 82 111 110
f 83 84 112
f 83 112 111
f 84 57 85
f 84 85 112
f 85 86 114
f 85 114 113
f 86 87 115
f 86 115 114
f 87 88 116
f 87 116 115
f 88 89 117
f 88 117 116
f 89 90 118
f 89 118 117
f 90 91 119
f 90 119 118
f 91 92 120
f 91 120 119
f 92 93 121
f 92 121 120
f 93 94 122
f 93 122 121
f 94 95 123
f 94 123 122
f 95 96 124
f 95 124 123
f 96 97 125
f 96 125 124
f 97 98 126
f 97 126 125
f 98 99 127
f 98 127 126
f 99 100 128
f 99 128 127
f 100 101 129
f 100 129 128
f 101 102 130
f 101 130 129
f 102 103 131
f 102 131 130
f 103 104 132
f 103 132 131
f 104 105 133
f 104 133 132
f 105 106 134
f 105 134 133
f 106 107 135
f 106 135 134
f 107 108 136
f 107 136 135
f 108 109 137
f 108 137 136
f 109 110 138
f 109 138 137
f 110 111 139
f 110 139 138
f 111 112 140
f 111 140 139
f 112 85 113
f 112 113 140
f 141 2 1
f 141 3 2
f 141 4 3
f 141 5 4
f 141 6 5
f 141 7 6
f 141 8 7
f 141 9 8
f 141 10 9
f 141 11 10
f 141 12 11
f 141 13 12
f 141 14 13
f 141 15 14
f 141 16 15
f 141 17 16
f 141 18 17
f 141 19 18
f 141 20 19
f 141 21 20
f 141 22 21
f 141 23 22
f 141 24 23
f 141 25 24
f 141 26 25
f 141 27 26
f 141 28 27
f 141 1 28
f 113 114 143
f 113 143 142
f 114 115 144
f 114 144 143
f 115 116 145
f 115 145 144
f 116 117 146
f 116 146 145
f 117 118 147
f 117 147 146
f 118 119 148
f 118 148 147
f 119 120 149
f 119 149 148
f 120 121 150
f 120 150 149
f 121 122 151
f 121 151 150
f 122 123 152
f 122 152 151
f 123 124 153
f 123 153 152
f 124 125 154
f 124 154 153
f 125 126 155
f 125 155 154
f 126 127 156
f 126 156 155
f 127 128 157
f 127 157 156
f 128 129 158
f 128 158 157
f 129 130 159
f 129 159 158
f 130 131 160
f 130 160 159
f 131 132 161
f 131 161 160
f 132 133 162
f 132 162 161
f 133 134 163
f 133 163 162
f 134 135 164
f 134 164 163
f 135 136 165
f 135 165 164
f 136 137 166
f 136 166 165
f 137 138 167
f 137 167 166
f 138 139 168
f 138 168 167
f 139 140 169
f 139 169 168
f 140 113 142
f 140 142 169
f 142 143 171
f 142 171 170
f 143 144 172
f 143 172 171
f 144 145 173
f 144 173 172
f 145 146 174
f 145 174 173
f 146 147 175
f 146 175 174
f 147 148 176
f 147 176 175
f 148 149 177
f 148 177 176
f 149 150 178
f 149 178 177
f 150 151 179
f 150 179 178
f 151 152 180
f 151 180 179
f 152 153 181
f 152 181 180
f 153 154 182
f 153 182 181
f 154 155 183
f 154 183 182
f 155 156 184
f 155 184 183
f 156 157 185
f 156 185 184
f 157 158 186
f 157 186 185
f 158 159 187
f 158 187 186
f 159 160 188
f 159 188 187
f 160 161 189
f 160 189 188
f 161 162 190
f 161 190 189
f 162 163 191
f 162 191 190
f 163 164 192
f 163 192 191
f 164 165 193
f 164 193 192
f 165 166 194
f 165 194 193
f 166 167 195
f 166 195 194
f 167 168 196
f 167 196 195
f 168 169 197
f 168 197 196
f 169 142 170
f 169 170 197
f 170 171 199
f 170 199 198
f 171 172 200
f 171 200 199
f 172 173 201
f 172 201 200
f 173 174 202
f 173 202 201
f 174 175 203
f 174 203 202
f 175 176 204
f 175 204 203
f 176 177 205
f 176 205 204
f 177 178 206
f 177 206 205
f 178 179 207
f 178 207 206
f 179 180 208
f 179 208 207
f 180 181 209
f 180 209 208
f 181 182 210
f 181 210 209
f 182 183 211
f 182 211 210
f 183 184 212
f 183 212 211
f 184 185 213
f 184 213 212
f 185 186 214
f 185 214 213
f 186 187 215
f 186 215 214
f 187 188 216
f 187 216 215
f 188 189 217
f 188 217 216
f 189 190 218
f 189 218 217
f 190 191 219
f 190 219 218
f 191 192 220
f 191 220 219
f 192 193 221
f 192 221 220
f 193 194 222
f 193 222 221
f 194 195 223
f 194 223 222
f 195 196 224
f 195 224 223
f 196 197 225
f 196 225 224
f 197 170 198
f 197 198 225
f 198 199 227
f 198 227 226
f 199 200 228
f 199 228 227
f 200 201 229
f 200 229 228
f 201 202 230
f 201 230 229
f 202 203 231
f 202 231 230
f 203 204 232
f 203 232 231
f 204 205 233
f 204 233 232
f 205 206 234
f 205 234 233
f 206 207 235
f 206 235 234
f 207 208 236
f 207 236 235
f 208 209 237
f 208 237 236
f 209 210 238
f 209 238 237
f 210 211 239
f 210 239 238
f 211 212 240
f 211 240 239
f 212 213 241
f 212 241 240
f 213 214 242
f 213 242 241
f 214 215 243
f 214 243 242
f 215 216 244
f 215 244 243
f 216 217 245
f 216 245 244
f 217 218 246
f 217 246 245
f 218 219 247
f 218 247 246
f 219 220 248
f 219 248 247
f 220 221 249
f 220 249 248
f 221 222 250
f 221 250 249
f 222 223 251
f 222 251 250
f 223 224 252
f 223 252 251
f 224 225 253
f 224 253 252
f 225 198 226
f 225 226 253
f 226 227 255
f 226 255 254
f 227 228 256
f 227 256 255
f 228 229 257
f 228 257 256
f 229 230 258
f 229 258 257
f 230 231 259
f 230 259 258
f 231 232 260
f 231 260 259
f 232 233 261
f 232 261 260
f 233 234 262
f 233 262 261
f 234 235 263
f 234 263 262
f 235 236 264
f 235 264 263
f 236 237 265
f 236 265 264
f 237 238 266
f 237 266 265
f 238 239 267
f 238 267 266
f 239 240 268
f 239 268 267
f 240 241 269
f 240 269 268
f 241 242 270
f 241 270 269
f 242 243 271
f 242 271 270
f 243 244 272
f 243 272 271
f 244 245 273
f 244 273 272
f 245 246 274
f 245 274 273
f 246 247 275
f 246 275 274
f 247 248 276
f 247 276 275
f 248 249 277
f 248 277 276
f 249 250 278
f 249 278 277
f 250 251 279
f 250 279 278
f 251 252 280
f 251 280 279
f 252 253 281
f 252 281 280
f 253 226 254
f 253 254 281
f 254 255 283
f 254 283 282
f 255 256 284
f 255 284 283
f 256 257 285
f 256 285 284
f 257 258 286
f 257 286 285
f 258 259 287
f 258 287 286
f 259 260 288
f 259 288 287
f 260 261 289
f 260 289 288
f 261 262 290
f 261 290 289
f 262 263 291
f 262 291 290
f 263 264 292
f 263 292 291
f 264 265 293
f 264 293 292
f 265 266 294
f 265 294 293
f 266 267 295
f 266 295 294
f 267 268 296
f 267 296 295
f 268 269 297
f 268 297 296
f 269 270 298
f 269 298 297
f 270 271 299
f 270 299 298
f 271 272 300
f 271 300 299
f 272 273 301
f 272 301 300
f 273 274 302
f 273 302 301
f 274 275 303
f 274 303 302
f 275 276 304
f 275 304 303
f 276 277 305
f 276 305 304
f 277 278 306
f 277 306 305
f 278 279 307
f 278 307 306
f 279 280 308
f 279 308 307
f 280 281 309
f 280 309 308
f 281 254 282
f 281 282 309
f 282 283 311
f 282 311 310
f 283 284 312
f 283 312 311
f 284 285 313
f 284 313 312
f 285 286 314
f 285 314 313
f 286 287 315
f 286 315 314
f 287 288 316
f 287 316 315
f 288 289 317
f 288 317 316
f 289 290 318
f 289 318 317
f 290 291 319
f 290 319 318
f 291 292 320
f 291 320 319
f 292 293 321
f 292 321 320
f 293 294 322
f 293 322 321
f 294 295 323
f 294 323 322
f 295 296 324
f 295 324 323
f 296 297 325
f 296 325 324
f 297 298 326
f 297 326 325
f 298 299 327
f 298 327 326
f 299 300 328
f 299 328 327
f 300 301 329
f 300 329 328
f 301 302 330
f 301 330 329
f 302 303 331
f 302 331 330
f 303 304 332
f 303 332 331
f 304 305 333
f 304 333 332
f 305 306 334
f 305 334 333
f 306 307 335
f 306 335 334
f 307 308 336
f 307 336 335
f 308 309 337
f 308 337 336
f 309 282 310
f 309 310 337
f 310 311 339
f 310 339 338
f 311 312 340
f 311 340 339
f 312 313 341
f 312 341 340
f 313 314 342
f 313 342 341
f 314 315 343
f 314 343 342
f 315 316 344
f 315 344 343
f 316 317 345
f 316 345 344
f 317 318 346
f 317 346 345
f 318 319 347
f 318 347 346
f 319 320 348
f 319 348 347
f 320 321 349
f 320 349 348
f 321 322 350
f 321 350 349
f 322 323 351
f 322 351 350
f 323 324 352
f 323 352 351
f 324 325 353
f 324 353 352
f 325 326 354
f 325 354 353
f 326 327 355
f 326 355 354
f 327 328 356
f 327 356 355
f 328 329 357
f 328 357 356
f 329 330 358
f 329 358 357
f 330 331 359
f 330 359 358
f 331 332 360
f 331 360 359
f 332 333 361
f 332 361 360
f 333 334 362
f 333 362 361
f 334 335 363
f 334 363 362
f 335 336 364
f 335 364 363
f 336 337 365
f 336 365 364
f 337 310 338
f 337 338 365
f 366 338 339
f 366 339 340
f 366 340 341
f 366 341 342
f 366 342 343
f 366 343 344
f 366 344 345
f 366 345 346
f 366 346 347
f 366 347 348
f 366 348 349
f 366 349 350
f 366 350 351
f 366 351 352
f 366 352 353
f 366 353 354
f 366 354 355
f 366 355 356
f 366 356 357
f 366 357 358
f 366 358 359
f 366 359 360
f 366 360 361
f 366 361 362
f 366 362 363
f 366 363 364
f 366 364 365
f 366 365 338
