# m14.obj - tools/build_raid_meshes.py. Game units, Y negative up.
v 85.0 0.0 0.0
v 83.6 0.0 57.5
v 79.2 0.0 71.2
v 71.2 0.0 79.2
v 57.5 0.0 83.6
v 0.0 0.0 85.0
v -57.5 0.0 83.6
v -71.2 0.0 79.2
v -79.2 0.0 71.2
v -83.6 0.0 57.5
v -85.0 0.0 0.0
v -83.6 0.0 -57.5
v -79.2 0.0 -71.2
v -71.2 0.0 -79.2
v -57.5 0.0 -83.6
v -0.0 0.0 -85.0
v 57.5 0.0 -83.6
v 71.2 0.0 -79.2
v 79.2 0.0 -71.2
v 83.6 0.0 -57.5
v 85.0 -140.0 0.0
v 83.6 -140.0 57.5
v 79.2 -140.0 71.2
v 71.2 -140.0 79.2
v 57.5 -140.0 83.6
v 0.0 -140.0 85.0
v -57.5 -140.0 83.6
v -71.2 -140.0 79.2
v -79.2 -140.0 71.2
v -83.6 -140.0 57.5
v -85.0 -140.0 0.0
v -83.6 -140.0 -57.5
v -79.2 -140.0 -71.2
v -71.2 -140.0 -79.2
v -57.5 -140.0 -83.6
v -0.0 -140.0 -85.0
v 57.5 -140.0 -83.6
v 71.2 -140.0 -79.2
v 79.2 -140.0 -71.2
v 83.6 -140.0 -57.5
v 0.0 0.0 0.0
v 78.0 -140.0 0.0
v 76.7 -140.0 52.7
v 72.7 -140.0 65.3
v 65.3 -140.0 72.7
v 52.7 -140.0 76.7
v 0.0 -140.0 78.0
v -52.7 -140.0 76.7
v -65.3 -140.0 72.7
v -72.7 -140.0 65.3
v -76.7 -140.0 52.7
v -78.0 -140.0 0.0
v -76.7 -140.0 -52.7
v -72.7 -140.0 -65.3
v -65.3 -140.0 -72.7
v -52.7 -140.0 -76.7
v -0.0 -140.0 -78.0
v 52.7 -140.0 -76.7
v 65.3 -140.0 -72.7
v 72.7 -140.0 -65.3
v 76.7 -140.0 -52.7
v 78.0 -175.0 0.0
v 76.7 -175.0 52.7
v 72.7 -175.0 65.3
v 65.3 -175.0 72.7
v 52.7 -175.0 76.7
v 0.0 -175.0 78.0
v -52.7 -175.0 76.7
v -65.3 -175.0 72.7
v -72.7 -175.0 65.3
v -76.7 -175.0 52.7
v -78.0 -175.0 0.0
v -76.7 -175.0 -52.7
v -72.7 -175.0 -65.3
v -65.3 -175.0 -72.7
v -52.7 -175.0 -76.7
v -0.0 -175.0 -78.0
v 52.7 -175.0 -76.7
v 65.3 -175.0 -72.7
v 72.7 -175.0 -65.3
v 76.7 -175.0 -52.7
v 0.0 -175.0 0.0
f 1 2 22
f 1 22 21
f 2 3 23
f 2 23 22
f 3 4 24
f 3 24 23
f 4 5 25
f 4 25 24
f 5 6 26
f 5 26 25
f 6 7 27
f 6 27 26
f 7 8 28
f 7 28 27
f 8 9 29
f 8 29 28
f 9 10 30
f 9 30 29
f 10 11 31
f 10 31 30
f 11 12 32
f 11 32 31
f 12 13 33
f 12 33 32
f 13 14 34
f 13 34 33
f 14 15 35
f 14 35 34
f 15 16 36
f 15 36 35
f 16 17 37
f 16 37 36
f 17 18 38
f 17 38 37
f 18 19 39
f 18 39 38
f 19 20 40
f 19 40 39
f 20 1 21
f 20 21 40
f 41 2 1
f 41 3 2
f 41 4 3
f 41 5 4
f 41 6 5
f 41 7 6
f 41 8 7
f 41 9 8
f 41 10 9
f 41 11 10
f 41 12 11
f 41 13 12
f 41 14 13
f 41 15 14
f 41 16 15
f 41 17 16
f 41 18 17
f 41 19 18
f 41 20 19
f 41 1 20
f 42 43 63
f 42 63 62
f 43 44 64
f 43 64 63
f 44 45 65
f 44 65 64
f 45 46 66
f 45 66 65
f 46 47 67
f 46 67 66
f 47 48 68
f 47 68 67
f 48 49 69
f 48 69 68
f 49 50 70
f 49 70 69
f 50 51 71
f 50 71 70
f 51 52 72
f 51 72 71
f 52 53 73
f 52 73 72
f 53 54 74
f 53 74 73
f 54 55 75
f 54 75 74
f 55 56 76
f 55 76 75
f 56 57 77
f 56 77 76
f 57 58 78
f 57 78 77
f 58 59 79
f 58 79 78
f 59 60 80
f 59 80 79
f 60 61 81
f 60 81 80
f 61 42 62
f 61 62 81
f 82 62 63
f 82 63 64
f 82 64 65
f 82 65 66
f 82 66 67
f 82 67 68
f 82 68 69
f 82 69 70
f 82 70 71
f 82 71 72
f 82 72 73
f 82 73 74
f 82 74 75
f 82 75 76
f 82 76 77
f 82 77 78
f 82 78 79
f 82 79 80
f 82 80 81
f 82 81 62
