# m16.obj - tools/build_raid_meshes.py. Game units, Y negative up.
v -570.0 -950.0 160.0
v -570.0 -1060.0 140.0
v -570.0 -1115.0 85.0
v -570.0 -1125.0 20.0
v -570.0 -1095.0 -35.0
v -570.0 -1010.0 -58.0
v -570.0 -760.0 -62.0
v -570.0 -420.0 -66.0
v -570.0 -110.0 -70.0
v -506.7 -950.0 152.4
v -506.7 -1060.0 132.4
v -506.7 -1115.0 77.4
v -506.7 -1125.0 12.4
v -506.7 -1095.0 -54.0
v -506.7 -1010.0 -77.0
v -506.7 -760.0 -81.0
v -506.7 -420.0 -85.0
v -506.7 -110.0 -89.0
v -443.3 -950.0 146.8
v -443.3 -1060.0 126.8
v -443.3 -1115.0 71.8
v -443.3 -1125.0 6.8
v -443.3 -1095.0 -67.9
v -443.3 -1010.0 -90.9
v -443.3 -760.0 -94.9
v -443.3 -420.0 -98.9
v -443.3 -110.0 -102.9
v -380.0 -950.0 144.8
v -380.0 -1060.0 124.8
v -380.0 -1115.0 69.8
v -380.0 -1125.0 4.8
v -380.0 -1095.0 -73.0
v -380.0 -1010.0 -96.0
v -380.0 -760.0 -100.0
v -380.0 -420.0 -104.0
v -380.0 -110.0 -108.0
v -316.7 -950.0 146.8
v -316.7 -1060.0 126.8
v -316.7 -1115.0 71.8
v -316.7 -1125.0 6.8
v -316.7 -1095.0 -67.9
v -316.7 -1010.0 -90.9
v -316.7 -760.0 -94.9
v -316.7 -420.0 -98.9
v -316.7 -110.0 -102.9
v -253.3 -950.0 152.4
v -253.3 -1060.0 132.4
v -253.3 -1115.0 77.4
v -253.3 -1125.0 12.4
v -253.3 -1095.0 -54.0
v -253.3 -1010.0 -77.0
v -253.3 -760.0 -81.0
v -253.3 -420.0 -85.0
v -253.3 -110.0 -89.0
v -190.0 -950.0 160.0
v -190.0 -1060.0 140.0
v -190.0 -1115.0 85.0
v -190.0 -1125.0 20.0
v -190.0 -1095.0 -35.0
v -190.0 -1010.0 -58.0
v -190.0 -760.0 -62.0
v -190.0 -420.0 -66.0
v -190.0 -110.0 -70.0
v -126.7 -950.0 152.4
v -126.7 -1060.0 132.4
v -126.7 -1115.0 77.4
v -126.7 -1125.0 12.4
v -126.7 -1095.0 -54.0
v -126.7 -1010.0 -77.0
v -126.7 -760.0 -81.0
v -126.7 -420.0 -85.0
v -126.7 -110.0 -89.0
v -63.3 -950.0 146.8
v -63.3 -1060.0 126.8
v -63.3 -1115.0 71.8
v -63.3 -1125.0 6.8
v -63.3 -1095.0 -67.9
v -63.3 -1010.0 -90.9
v -63.3 -760.0 -94.9
v -63.3 -420.0 -98.9
v -63.3 -110.0 -102.9
v 0.0 -950.0 144.8
v 0.0 -1060.0 124.8
v 0.0 -1115.0 69.8
v 0.0 -1125.0 4.8
v 0.0 -1095.0 -73.0
v 0.0 -1010.0 -96.0
v 0.0 -760.0 -100.0
v 0.0 -420.0 -104.0
v 0.0 -110.0 -108.0
v 63.3 -950.0 146.8
v 63.3 -1060.0 126.8
v 63.3 -1115.0 71.8
v 63.3 -1125.0 6.8
v 63.3 -1095.0 -67.9
v 63.3 -1010.0 -90.9
v 63.3 -760.0 -94.9
v 63.3 -420.0 -98.9
v 63.3 -110.0 -102.9
v 126.7 -950.0 152.4
v 126.7 -1060.0 132.4
v 126.7 -1115.0 77.4
v 126.7 -1125.0 12.4
v 126.7 -1095.0 -54.0
v 126.7 -1010.0 -77.0
v 126.7 -760.0 -81.0
v 126.7 -420.0 -85.0
v 126.7 -110.0 -89.0
v 190.0 -950.0 160.0
v 190.0 -1060.0 140.0
v 190.0 -1115.0 85.0
v 190.0 -1125.0 20.0
v 190.0 -1095.0 -35.0
v 190.0 -1010.0 -58.0
v 190.0 -760.0 -62.0
v 190.0 -420.0 -66.0
v 190.0 -110.0 -70.0
v 253.3 -950.0 152.4
v 253.3 -1060.0 132.4
v 253.3 -1115.0 77.4
v 253.3 -1125.0 12.4
v 253.3 -1095.0 -54.0
v 253.3 -1010.0 -77.0
v 253.3 -760.0 -81.0
v 253.3 -420.0 -85.0
v 253.3 -110.0 -89.0
v 316.7 -950.0 146.8
v 316.7 -1060.0 126.8
v 316.7 -1115.0 71.8
v 316.7 -1125.0 6.8
v 316.7 -1095.0 -67.9
v 316.7 -1010.0 -90.9
v 316.7 -760.0 -94.9
v 316.7 -420.0 -98.9
v 316.7 -110.0 -102.9
v 380.0 -950.0 144.8
v 380.0 -1060.0 124.8
v 380.0 -1115.0 69.8
v 380.0 -1125.0 4.8
v 380.0 -1095.0 -73.0
v 380.0 -1010.0 -96.0
v 380.0 -760.0 -100.0
v 380.0 -420.0 -104.0
v 380.0 -110.0 -108.0
v 443.3 -950.0 146.8
v 443.3 -1060.0 126.8
v 443.3 -1115.0 71.8
v 443.3 -1125.0 6.8
v 443.3 -1095.0 -67.9
v 443.3 -1010.0 -90.9
v 443.3 -760.0 -94.9
v 443.3 -420.0 -98.9
v 443.3 -110.0 -102.9
v 506.7 -950.0 152.4
v 506.7 -1060.0 132.4
v 506.7 -1115.0 77.4
v 506.7 -1125.0 12.4
v 506.7 -1095.0 -54.0
v 506.7 -1010.0 -77.0
v 506.7 -760.0 -81.0
v 506.7 -420.0 -85.0
v 506.7 -110.0 -89.0
v 570.0 -950.0 160.0
v 570.0 -1060.0 140.0
v 570.0 -1115.0 85.0
v 570.0 -1125.0 20.0
v 570.0 -1095.0 -35.0
v 570.0 -1010.0 -58.0
v 570.0 -760.0 -62.0
v 570.0 -420.0 -66.0
v 570.0 -110.0 -70.0
v -570.0 -938.8 188.0
v -570.0 -1048.8 168.0
v -570.0 -1103.8 113.0
v -570.0 -1113.8 48.0
v -570.0 -1083.8 -7.0
v -570.0 -1010.0 -30.0
v -570.0 -760.0 -34.0
v -570.0 -420.0 -38.0
v -570.0 -110.0 -42.0
v -506.7 -938.8 180.4
v -506.7 -1048.8 160.4
v -506.7 -1103.8 105.4
v -506.7 -1113.8 40.4
v -506.7 -1083.8 -26.0
v -506.7 -1010.0 -49.0
v -506.7 -760.0 -53.0
v -506.7 -420.0 -57.0
v -506.7 -110.0 -61.0
v -443.3 -938.8 174.8
v -443.3 -1048.8 154.8
v -443.3 -1103.8 99.8
v -443.3 -1113.8 34.8
v -443.3 -1083.8 -39.9
v -443.3 -1010.0 -62.9
v -443.3 -760.0 -66.9
v -443.3 -420.0 -70.9
v -443.3 -110.0 -74.9
v -380.0 -938.8 172.8
v -380.0 -1048.8 152.8
v -380.0 -1103.8 97.8
v -380.0 -1113.8 32.8
v -380.0 -1083.8 -45.0
v -380.0 -1010.0 -68.0
v -380.0 -760.0 -72.0
v -380.0 -420.0 -76.0
v -380.0 -110.0 -80.0
v -316.7 -938.8 174.8
v -316.7 -1048.8 154.8
v -316.7 -1103.8 99.8
v -316.7 -1113.8 34.8
v -316.7 -1083.8 -39.9
v -316.7 -1010.0 -62.9
v -316.7 -760.0 -66.9
v -316.7 -420.0 -70.9
v -316.7 -110.0 -74.9
v -253.3 -938.8 180.4
v -253.3 -1048.8 160.4
v -253.3 -1103.8 105.4
v -253.3 -1113.8 40.4
v -253.3 -1083.8 -26.0
v -253.3 -1010.0 -49.0
v -253.3 -760.0 -53.0
v -253.3 -420.0 -57.0
v -253.3 -110.0 -61.0
v -190.0 -938.8 188.0
v -190.0 -1048.8 168.0
v -190.0 -1103.8 113.0
v -190.0 -1113.8 48.0
v -190.0 -1083.8 -7.0
v -190.0 -1010.0 -30.0
v -190.0 -760.0 -34.0
v -190.0 -420.0 -38.0
v -190.0 -110.0 -42.0
v -126.7 -938.8 180.4
v -126.7 -1048.8 160.4
v -126.7 -1103.8 105.4
v -126.7 -1113.8 40.4
v -126.7 -1083.8 -26.0
v -126.7 -1010.0 -49.0
v -126.7 -760.0 -53.0
v -126.7 -420.0 -57.0
v -126.7 -110.0 -61.0
v -63.3 -938.8 174.8
v -63.3 -1048.8 154.8
v -63.3 -1103.8 99.8
v -63.3 -1113.8 34.8
v -63.3 -1083.8 -39.9
v -63.3 -1010.0 -62.9
v -63.3 -760.0 -66.9
v -63.3 -420.0 -70.9
v -63.3 -110.0 -74.9
v 0.0 -938.8 172.8
v 0.0 -1048.8 152.8
v 0.0 -1103.8 97.8
v 0.0 -1113.8 32.8
v 0.0 -1083.8 -45.0
v 0.0 -1010.0 -68.0
v 0.0 -760.0 -72.0
v 0.0 -420.0 -76.0
v 0.0 -110.0 -80.0
v 63.3 -938.8 174.8
v 63.3 -1048.8 154.8
v 63.3 -1103.8 99.8
v 63.3 -1113.8 34.8
v 63.3 -1083.8 -39.9
v 63.3 -1010.0 -62.9
v 63.3 -760.0 -66.9
v 63.3 -420.0 -70.9
v 63.3 -110.0 -74.9
v 126.7 -938.8 180.4
v 126.7 -1048.8 160.4
v 126.7 -1103.8 105.4
v 126.7 -1113.8 40.4
v 126.7 -1083.8 -26.0
v 126.7 -1010.0 -49.0
v 126.7 -760.0 -53.0
v 126.7 -420.0 -57.0
v 126.7 -110.0 -61.0
v 190.0 -938.8 188.0
v 190.0 -1048.8 168.0
v 190.0 -1103.8 113.0
v 190.0 -1113.8 48.0
v 190.0 -1083.8 -7.0
v 190.0 -1010.0 -30.0
v 190.0 -760.0 -34.0
v 190.0 -420.0 -38.0
v 190.0 -110.0 -42.0
v 253.3 -938.8 180.4
v 253.3 -1048.8 160.4
v 253.3 -1103.8 105.4
v 253.3 -1113.8 40.4
v 253.3 -1083.8 -26.0
v 253.3 -1010.0 -49.0
v 253.3 -760.0 -53.0
v 253.3 -420.0 -57.0
v 253.3 -110.0 -61.0
v 316.7 -938.8 174.8
v 316.7 -1048.8 154.8
v 316.7 -1103.8 99.8
v 316.7 -1113.8 34.8
v 316.7 -1083.8 -39.9
v 316.7 -1010.0 -62.9
v 316.7 -760.0 -66.9
v 316.7 -420.0 -70.9
v 316.7 -110.0 -74.9
v 380.0 -938.8 172.8
v 380.0 -1048.8 152.8
v 380.0 -1103.8 97.8
v 380.0 -1113.8 32.8
v 380.0 -1083.8 -45.0
v 380.0 -1010.0 -68.0
v 380.0 -760.0 -72.0
v 380.0 -420.0 -76.0
v 380.0 -110.0 -80.0
v 443.3 -938.8 174.8
v 443.3 -1048.8 154.8
v 443.3 -1103.8 99.8
v 443.3 -1113.8 34.8
v 443.3 -1083.8 -39.9
v 443.3 -1010.0 -62.9
v 443.3 -760.0 -66.9
v 443.3 -420.0 -70.9
v 443.3 -110.0 -74.9
v 506.7 -938.8 180.4
v 506.7 -1048.8 160.4
v 506.7 -1103.8 105.4
v 506.7 -1113.8 40.4
v 506.7 -1083.8 -26.0
v 506.7 -1010.0 -49.0
v 506.7 -760.0 -53.0
v 506.7 -420.0 -57.0
v 506.7 -110.0 -61.0
v 570.0 -938.8 188.0
v 570.0 -1048.8 168.0
v 570.0 -1103.8 113.0
v 570.0 -1113.8 48.0
v 570.0 -1083.8 -7.0
v 570.0 -1010.0 -30.0
v 570.0 -760.0 -34.0
v 570.0 -420.0 -38.0
v 570.0 -110.0 -42.0
f 1 10 11
f 1 11 2
f 172 182 181
f 172 173 182
f 2 11 12
f 2 12 3
f 173 183 182
f 173 174 183
f 3 13 12
f 3 4 13
f 174 183 184
f 174 184 175
f 4 14 13
f 4 5 14
f 175 184 185
f 175 185 176
f 5 15 14
f 5 6 15
f 176 185 186
f 176 186 177
f 6 16 15
f 6 7 16
f 177 186 187
f 177 187 178
f 7 17 16
f 7 8 17
f 178 187 188
f 178 188 179
f 8 18 17
f 8 9 18
f 179 188 189
f 179 189 180
f 10 19 20
f 10 20 11
f 181 191 190
f 181 182 191
f 11 20 21
f 11 21 12
f 182 192 191
f 182 183 192
f 12 22 21
f 12 13 22
f 183 192 193
f 183 193 184
f 13 23 22
f 13 14 23
f 184 193 194
f 184 194 185
f 14 24 23
f 14 15 24
f 185 194 195
f 185 195 186
f 15 25 24
f 15 16 25
f 186 195 196
f 186 196 187
f 16 26 25
f 16 17 26
f 187 196 197
f 187 197 188
f 17 27 26
f 17 18 27
f 188 197 198
f 188 198 189
f 19 28 29
f 19 29 20
f 190 200 199
f 190 191 200
f 20 29 30
f 20 30 21
f 191 201 200
f 191 192 201
f 21 31 30
f 21 22 31
f 192 201 202
f 192 202 193
f 22 32 31
f 22 23 32
f 193 202 203
f 193 203 194
f 23 33 32
f 23 24 33
f 194 203 204
f 194 204 195
f 24 34 33
f 24 25 34
f 195 204 205
f 195 205 196
f 25 35 34
f 25 26 35
f 196 205 206
f 196 206 197
f 26 36 35
f 26 27 36
f 197 206 207
f 197 207 198
f 28 37 38
f 28 38 29
f 199 209 208
f 199 200 209
f 29 38 39
f 29 39 30
f 200 210 209
f 200 201 210
f 30 40 39
f 30 31 40
f 201 210 211
f 201 211 202
f 31 41 40
f 31 32 41
f 202 211 212
f 202 212 203
f 32 42 41
f 32 33 42
f 203 212 213
f 203 213 204
f 33 43 42
f 33 34 43
f 204 213 214
f 204 214 205
f 34 44 43
f 34 35 44
f 205 214 215
f 205 215 206
f 35 45 44
f 35 36 45
f 206 215 216
f 206 216 207
f 37 46 47
f 37 47 38
f 208 218 217
f 208 209 218
f 38 47 48
f 38 48 39
f 209 219 218
f 209 210 219
f 39 49 48
f 39 40 49
f 210 219 220
f 210 220 211
f 40 50 49
f 40 41 50
f 211 220 221
f 211 221 212
f 41 51 50
f 41 42 51
f 212 221 222
f 212 222 213
f 42 52 51
f 42 43 52
f 213 222 223
f 213 223 214
f 43 53 52
f 43 44 53
f 214 223 224
f 214 224 215
f 44 54 53
f 44 45 54
f 215 224 225
f 215 225 216
f 46 55 56
f 46 56 47
f 217 227 226
f 217 218 227
f 47 56 57
f 47 57 48
f 218 228 227
f 218 219 228
f 48 58 57
f 48 49 58
f 219 228 229
f 219 229 220
f 49 59 58
f 49 50 59
f 220 229 230
f 220 230 221
f 50 60 59
f 50 51 60
f 221 230 231
f 221 231 222
f 51 61 60
f 51 52 61
f 222 231 232
f 222 232 223
f 52 62 61
f 52 53 62
f 223 232 233
f 223 233 224
f 53 63 62
f 53 54 63
f 224 233 234
f 224 234 225
f 55 64 65
f 55 65 56
f 226 236 235
f 226 227 236
f 56 65 66
f 56 66 57
f 227 237 236
f 227 228 237
f 57 67 66
f 57 58 67
f 228 237 238
f 228 238 229
f 58 68 67
f 58 59 68
f 229 238 239
f 229 239 230
f 59 69 68
f 59 60 69
f 230 239 240
f 230 240 231
f 60 70 69
f 60 61 70
f 231 240 241
f 231 241 232
f 61 71 70
f 61 62 71
f 232 241 242
f 232 242 233
f 62 72 71
f 62 63 72
f 233 242 243
f 233 243 234
f 64 73 74
f 64 74 65
f 235 245 244
f 235 236 245
f 65 74 75
f 65 75 66
f 236 246 245
f 236 237 246
f 66 76 75
f 66 67 76
f 237 246 247
f 237 247 238
f 67 77 76
f 67 68 77
f 238 247 248
f 238 248 239
f 68 78 77
f 68 69 78
f 239 248 249
f 239 249 240
f 69 79 78
f 69 70 79
f 240 249 250
f 240 250 241
f 70 80 79
f 70 71 80
f 241 250 251
f 241 251 242
f 71 81 80
f 71 72 81
f 242 251 252
f 242 252 243
f 73 82 83
f 73 83 74
f 244 254 253
f 244 245 254
f 74 83 84
f 74 84 75
f 245 255 254
f 245 246 255
f 75 85 84
f 75 76 85
f 246 255 256
f 246 256 247
f 76 86 85
f 76 77 86
f 247 256 257
f 247 257 248
f 77 87 86
f 77 78 87
f 248 257 258
f 248 258 249
f 78 88 87
f 78 79 88
f 249 258 259
f 249 259 250
f 79 89 88
f 79 80 89
f 250 259 260
f 250 260 251
f 80 90 89
f 80 81 90
f 251 260 261
f 251 261 252
f 82 91 92
f 82 92 83
f 253 263 262
f 253 254 263
f 83 92 93
f 83 93 84
f 254 264 263
f 254 255 264
f 84 94 93
f 84 85 94
f 255 264 265
f 255 265 256
f 85 95 94
f 85 86 95
f 256 265 266
f 256 266 257
f 86 96 95
f 86 87 96
f 257 266 267
f 257 267 258
f 87 97 96
f 87 88 97
f 258 267 268
f 258 268 259
f 88 98 97
f 88 89 98
f 259 268 269
f 259 269 260
f 89 99 98
f 89 90 99
f 260 269 270
f 260 270 261
f 91 100 101
f 91 101 92
f 262 272 271
f 262 263 272
f 92 101 102
f 92 102 93
f 263 273 272
f 263 264 273
f 93 103 102
f 93 94 103
f 264 273 274
f 264 274 265
f 94 104 103
f 94 95 104
f 265 274 275
f 265 275 266
f 95 105 104
f 95 96 105
f 266 275 276
f 266 276 267
f 96 106 105
f 96 97 106
f 267 276 277
f 267 277 268
f 97 107 106
f 97 98 107
f 268 277 278
f 268 278 269
f 98 108 107
f 98 99 108
f 269 278 279
f 269 279 270
f 100 109 110
f 100 110 101
f 271 281 280
f 271 272 281
f 101 110 111
f 101 111 102
f 272 282 281
f 272 273 282
f 102 112 111
f 102 103 112
f 273 282 283
f 273 283 274
f 103 113 112
f 103 104 113
f 274 283 284
f 274 284 275
f 104 114 113
f 104 105 114
f 275 284 285
f 275 285 276
f 105 115 114
f 105 106 115
f 276 285 286
f 276 286 277
f 106 116 115
f 106 107 116
f 277 286 287
f 277 287 278
f 107 117 116
f 107 108 117
f 278 287 288
f 278 288 279
f 109 118 119
f 109 119 110
f 280 290 289
f 280 281 290
f 110 119 120
f 110 120 111
f 281 291 290
f 281 282 291
f 111 121 120
f 111 112 121
f 282 291 292
f 282 292 283
f 112 122 121
f 112 113 122
f 283 292 293
f 283 293 284
f 113 123 122
f 113 114 123
f 284 293 294
f 284 294 285
f 114 124 123
f 114 115 124
f 285 294 295
f 285 295 286
f 115 125 124
f 115 116 125
f 286 295 296
f 286 296 287
f 116 126 125
f 116 117 126
f 287 296 297
f 287 297 288
f 118 127 128
f 118 128 119
f 289 299 298
f 289 290 299
f 119 128 129
f 119 129 120
f 290 300 299
f 290 291 300
f 120 130 129
f 120 121 130
f 291 300 301
f 291 301 292
f 121 131 130
f 121 122 131
f 292 301 302
f 292 302 293
f 122 132 131
f 122 123 132
f 293 302 303
f 293 303 294
f 123 133 132
f 123 124 133
f 294 303 304
f 294 304 295
f 124 134 133
f 124 125 134
f 295 304 305
f 295 305 296
f 125 135 134
f 125 126 135
f 296 305 306
f 296 306 297
f 127 136 137
f 127 137 128
f 298 308 307
f 298 299 308
f 128 137 138
f 128 138 129
f 299 309 308
f 299 300 309
f 129 139 138
f 129 130 139
f 300 309 310
f 300 310 301
f 130 140 139
f 130 131 140
f 301 310 311
f 301 311 302
f 131 141 140
f 131 132 141
f 302 311 312
f 302 312 303
f 132 142 141
f 132 133 142
f 303 312 313
f 303 313 304
f 133 143 142
f 133 134 143
f 304 313 314
f 304 314 305
f 134 144 143
f 134 135 144
f 305 314 315
f 305 315 306
f 136 145 146
f 136 146 137
f 307 317 316
f 307 308 317
f 137 146 147
f 137 147 138
f 308 318 317
f 308 309 318
f 138 148 147
f 138 139 148
f 309 318 319
f 309 319 310
f 139 149 148
f 139 140 149
f 310 319 320
f 310 320 311
f 140 150 149
f 140 141 150
f 311 320 321
f 311 321 312
f 141 151 150
f 141 142 151
f 312 321 322
f 312 322 313
f 142 152 151
f 142 143 152
f 313 322 323
f 313 323 314
f 143 153 152
f 143 144 153
f 314 323 324
f 314 324 315
f 145 154 155
f 145 155 146
f 316 326 325
f 316 317 326
f 146 155 156
f 146 156 147
f 317 327 326
f 317 318 327
f 147 157 156
f 147 148 157
f 318 327 328
f 318 328 319
f 148 158 157
f 148 149 158
f 319 328 329
f 319 329 320
f 149 159 158
f 149 150 159
f 320 329 330
f 320 330 321
f 150 160 159
f 150 151 160
f 321 330 331
f 321 331 322
f 151 161 160
f 151 152 161
f 322 331 332
f 322 332 323
f 152 162 161
f 152 153 162
f 323 332 333
f 323 333 324
f 154 163 164
f 154 164 155
f 325 335 334
f 325 326 335
f 155 164 165
f 155 165 156
f 326 336 335
f 326 327 336
f 156 166 165
f 156 157 166
f 327 336 337
f 327 337 328
f 157 167 166
f 157 158 167
f 328 337 338
f 328 338 329
f 158 168 167
f 158 159 168
f 329 338 339
f 329 339 330
f 159 169 168
f 159 160 169
f 330 339 340
f 330 340 331
f 160 170 169
f 160 161 170
f 331 340 341
f 331 341 332
f 161 171 170
f 161 162 171
f 332 341 342
f 332 342 333
f 1 2 173
f 1 173 172
f 2 3 174
f 2 174 173
f 3 175 4
f 3 174 175
f 4 176 5
f 4 175 176
f 5 177 6
f 5 176 177
f 6 178 7
f 6 177 178
f 7 179 8
f 7 178 179
f 8 180 9
f 8 179 180
f 163 335 164
f 163 334 335
f 164 336 165
f 164 335 336
f 165 166 337
f 165 337 336
f 166 167 338
f 166 338 337
f 167 168 339
f 167 339 338
f 168 169 340
f 168 340 339
f 169 170 341
f 169 341 340
f 170 171 342
f 170 342 341
f 1 10 181
f 1 181 172
f 10 19 190
f 10 190 181
f 19 28 199
f 19 199 190
f 28 37 208
f 28 208 199
f 37 46 217
f 37 217 208
f 46 55 226
f 46 226 217
f 55 64 235
f 55 235 226
f 64 73 244
f 64 244 235
f 73 82 253
f 73 253 244
f 82 91 262
f 82 262 253
f 91 100 271
f 91 271 262
f 100 109 280
f 100 280 271
f 109 118 289
f 109 289 280
f 118 127 298
f 118 298 289
f 127 136 307
f 127 307 298
f 136 145 316
f 136 316 307
f 145 154 325
f 145 325 316
f 154 163 334
f 154 334 325
f 9 189 18
f 9 180 189
f 18 198 27
f 18 189 198
f 27 207 36
f 27 198 207
f 36 216 45
f 36 207 216
f 45 225 54
f 45 216 225
f 54 234 63
f 54 225 234
f 63 243 72
f 63 234 243
f 72 252 81
f 72 243 252
f 81 261 90
f 81 252 261
f 90 270 99
f 90 261 270
f 99 279 108
f 99 270 279
f 108 288 117
f 108 279 288
f 117 297 126
f 117 288 297
f 126 306 135
f 126 297 306
f 135 315 144
f 135 306 315
f 144 324 153
f 144 315 324
f 153 333 162
f 153 324 333
f 162 342 171
f 162 333 342
