# m17.obj - tools/build_raid_meshes.py. Game units, Y negative up.
v 120.0 0.0 0.0
v 110.9 0.0 45.9
v 84.9 0.0 84.9
v 45.9 0.0 110.9
v 0.0 0.0 120.0
v -45.9 0.0 110.9
v -84.9 0.0 84.9
v -110.9 0.0 45.9
v -120.0 0.0 0.0
v -110.9 0.0 -45.9
v -84.9 0.0 -84.9
v -45.9 0.0 -110.9
v -0.0 0.0 -120.0
v 45.9 0.0 -110.9
v 84.9 0.0 -84.9
v 110.9 0.0 -45.9
v 132.0 -50.0 0.0
v 122.0 -50.0 50.5
v 93.3 -50.0 93.3
v 50.5 -50.0 122.0
v 0.0 -50.0 132.0
v -50.5 -50.0 122.0
v -93.3 -50.0 93.3
v -122.0 -50.0 50.5
v -132.0 -50.0 0.0
v -122.0 -50.0 -50.5
v -93.3 -50.0 -93.3
v -50.5 -50.0 -122.0
v -0.0 -50.0 -132.0
v 50.5 -50.0 -122.0
v 93.3 -50.0 -93.3
v 122.0 -50.0 -50.5
v 128.0 -150.0 0.0
v 118.3 -150.0 49.0
v 90.5 -150.0 90.5
v 49.0 -150.0 118.3
v 0.0 -150.0 128.0
v -49.0 -150.0 118.3
v -90.5 -150.0 90.5
v -118.3 -150.0 49.0
v -128.0 -150.0 0.0
v -118.3 -150.0 -49.0
v -90.5 -150.0 -90.5
v -49.0 -150.0 -118.3
v -0.0 -150.0 -128.0
v 49.0 -150.0 -118.3
v 90.5 -150.0 -90.5
v 118.3 -150.0 -49.0
v 100.0 -225.0 0.0
v 92.4 -225.0 38.3
v 70.7 -225.0 70.7
v 38.3 -225.0 92.4
v 0.0 -225.0 100.0
v -38.3 -225.0 92.4
v -70.7 -225.0 70.7
v -92.4 -225.0 38.3
v -100.0 -225.0 0.0
v -92.4 -225.0 -38.3
v -70.7 -225.0 -70.7
v -38.3 -225.0 -92.4
v -0.0 -225.0 -100.0
v 38.3 -225.0 -92.4
v 70.7 -225.0 -70.7
v 92.4 -225.0 -38.3
v 52.0 -265.0 0.0
v 48.0 -265.0 19.9
v 36.8 -265.0 36.8
v 19.9 -265.0 48.0
v 0.0 -265.0 52.0
v -19.9 -265.0 48.0
v -36.8 -265.0 36.8
v -48.0 -265.0 19.9
v -52.0 -265.0 0.0
v -48.0 -265.0 -19.9
v -36.8 -265.0 -36.8
v -19.9 -265.0 -48.0
v -0.0 -265.0 -52.0
v 19.9 -265.0 -48.0
v 36.8 -265.0 -36.8
v 48.0 -265.0 -19.9
v 40.0 -290.0 0.0
v 37.0 -290.0 15.3
v 28.3 -290.0 28.3
v 15.3 -290.0 37.0
v 0.0 -290.0 40.0
v -15.3 -290.0 37.0
v -28.3 -290.0 28.3
v -37.0 -290.0 15.3
v -40.0 -290.0 0.0
v -37.0 -290.0 -15.3
v -28.3 -290.0 -28.3
v -15.3 -290.0 -37.0
v -0.0 -290.0 -40.0
v 15.3 -290.0 -37.0
v 28.3 -290.0 -28.3
v 37.0 -290.0 -15.3
v 50.0 -305.0 0.0
v 46.2 -305.0 19.1
v 35.4 -305.0 35.4
v 19.1 -305.0 46.2
v 0.0 -305.0 50.0
v -19.1 -305.0 46.2
v -35.4 -305.0 35.4
v -46.2 -305.0 19.1
v -50.0 -305.0 0.0
v -46.2 -305.0 -19.1
v -35.4 -305.0 -35.4
v -19.1 -305.0 -46.2
v -0.0 -305.0 -50.0
v 19.1 -305.0 -46.2
v 35.4 -305.0 -35.4
v 46.2 -305.0 -19.1
v 0.0 0.0 0.0
v 0.0 -305.0 0.0
v -16.0 -235.0 105.0
v -8.0 -247.4 111.2
v 8.0 -247.4 111.2
v 16.0 -235.0 105.0
v 8.0 -222.6 98.8
v -8.0 -222.6 98.8
v -16.0 -200.0 175.0
v -8.0 -212.4 181.2
v 8.0 -212.4 181.2
v 16.0 -200.0 175.0
v 8.0 -187.6 168.8
v -8.0 -187.6 168.8
v -16.0 -235.0 105.0
v -8.0 -247.4 111.2
v 8.0 -247.4 111.2
v 16.0 -235.0 105.0
v 8.0 -222.6 98.8
v -8.0 -222.6 98.8
v 0.0 -235.0 105.0
v -16.0 -200.0 175.0
v -8.0 -212.4 181.2
v 8.0 -212.4 181.2
v 16.0 -200.0 175.0
v 8.0 -187.6 168.8
v -8.0 -187.6 168.8
v 0.0 -200.0 175.0
v 0.0 -201.4 159.1
v -13.9 -200.7 167.0
v -13.9 -199.3 183.0
v -0.0 -198.6 190.9
v 13.9 -199.3 183.0
v 13.9 -200.7 167.0
v 0.0 -91.4 149.1
v -13.9 -90.7 157.0
v -13.9 -89.3 173.0
v -0.0 -88.6 180.9
v 13.9 -89.3 173.0
v 13.9 -90.7 157.0
v 0.0 -201.4 159.1
v -13.9 -200.7 167.0
v -13.9 -199.3 183.0
v -0.0 -198.6 190.9
v 13.9 -199.3 183.0
v 13.9 -200.7 167.0
v 0.0 -200.0 175.0
v 0.0 -91.4 149.1
v -13.9 -90.7 157.0
v -13.9 -89.3 173.0
v -0.0 -88.6 180.9
v 13.9 -89.3 173.0
v 13.9 -90.7 157.0
v 0.0 -90.0 165.0
v 16.0 -90.0 165.0
v 8.0 -101.1 156.7
v -8.0 -101.1 156.7
v -16.0 -90.0 165.0
v -8.0 -78.9 173.3
v 8.0 -78.9 173.3
v 16.0 -60.0 125.0
v 8.0 -71.1 116.7
v -8.0 -71.1 116.7
v -16.0 -60.0 125.0
v -8.0 -48.9 133.3
v 8.0 -48.9 133.3
v 16.0 -90.0 165.0
v 8.0 -101.1 156.7
v -8.0 -101.1 156.7
v -16.0 -90.0 165.0
v -8.0 -78.9 173.3
v 8.0 -78.9 173.3
v 0.0 -90.0 165.0
v 16.0 -60.0 125.0
v 8.0 -71.1 116.7
v -8.0 -71.1 116.7
v -16.0 -60.0 125.0
v -8.0 -48.9 133.3
v 8.0 -48.9 133.3
v 0.0 -60.0 125.0
f 1 2 18
f 1 18 17
f 2 3 19
f 2 19 18
f 3 4 20
f 3 20 19
f 4 5 21
f 4 21 20
f 5 6 22
f 5 22 21
f 6 7 23
f 6 23 22
f 7 8 24
f 7 24 23
f 8 9 25
f 8 25 24
f 9 10 26
f 9 26 25
f 10 11 27
f 10 27 26
f 11 12 28
f 11 28 27
f 12 13 29
f 12 29 28
f 13 14 30
f 13 30 29
f 14 15 31
f 14 31 30
f 15 16 32
f 15 32 31
f 16 1 17
f 16 17 32
f 17 18 34
f 17 34 33
f 18 19 35
f 18 35 34
f 19 20 36
f 19 36 35
f 20 21 37
f 20 37 36
f 21 22 38
f 21 38 37
f 22 23 39
f 22 39 38
f 23 24 40
f 23 40 39
f 24 25 41
f 24 41 40
f 25 26 42
f 25 42 41
f 26 27 43
f 26 43 42
f 27 28 44
f 27 44 43
f 28 29 45
f 28 45 44
f 29 30 46
f 29 46 45
f 30 31 47
f 30 47 46
f 31 32 48
f 31 48 47
f 32 17 33
f 32 33 48
f 33 34 50
f 33 50 49
f 34 35 51
f 34 51 50
f 35 36 52
f 35 52 51
f 36 37 53
f 36 53 52
f 37 38 54
f 37 54 53
f 38 39 55
f 38 55 54
f 39 40 56
f 39 56 55
f 40 41 57
f 40 57 56
f 41 42 58
f 41 58 57
f 42 43 59
f 42 59 58
f 43 44 60
f 43 60 59
f 44 45 61
f 44 61 60
f 45 46 62
f 45 62 61
f 46 47 63
f 46 63 62
f 47 48 64
f 47 64 63
f 48 33 49
f 48 49 64
f 49 50 66
f 49 66 65
f 50 51 67
f 50 67 66
f 51 52 68
f 51 68 67
f 52 53 69
f 52 69 68
f 53 54 70
f 53 70 69
f 54 55 71
f 54 71 70
f 55 56 72
f 55 72 71
f 56 57 73
f 56 73 72
f 57 58 74
f 57 74 73
f 58 59 75
f 58 75 74
f 59 60 76
f 59 76 75
f 60 61 77
f 60 77 76
f 61 62 78
f 61 78 77
f 62 63 79
f 62 79 78
f 63 64 80
f 63 80 79
f 64 49 65
f 64 65 80
f 65 66 82
f 65 82 81
f 66 67 83
f 66 83 82
f 67 68 84
f 67 84 83
f 68 69 85
f 68 85 84
f 69 70 86
f 69 86 85
f 70 71 87
f 70 87 86
f 71 72 88
f 71 88 87
f 72 73 89
f 72 89 88
f 73 74 90
f 73 90 89
f 74 75 91
f 74 91 90
f 75 76 92
f 75 92 91
f 76 77 93
f 76 93 92
f 77 78 94
f 77 94 93
f 78 79 95
f 78 95 94
f 79 80 96
f 79 96 95
f 80 65 81
f 80 81 96
f 81 98 82
f 81 97 98
f 82 99 83
f 82 98 99
f 83 100 84
f 83 99 100
f 84 101 85
f 84 100 101
f 85 102 86
f 85 101 102
f 86 103 87
f 86 102 103
f 87 104 88
f 87 103 104
f 88 105 89
f 88 104 105
f 89 106 90
f 89 105 106
f 90 107 91
f 90 106 107
f 91 108 92
f 91 107 108
f 92 109 93
f 92 108 109
f 93 110 94
f 93 109 110
f 94 111 95
f 94 110 111
f 95 112 96
f 95 111 112
f 96 97 81
f 96 112 97
f 113 2 1
f 113 3 2
f 113 4 3
f 113 5 4
f 113 6 5
f 113 7 6
f 113 8 7
f 113 9 8
f 113 10 9
f 113 11 10
f 113 12 11
f 113 13 12
f 113 14 13
f 113 15 14
f 113 16 15
f 113 1 16
f 114 97 98
f 114 98 99
f 114 99 100
f 114 100 101
f 114 101 102
f 114 102 103
f 114 103 104
f 114 104 105
f 114 105 106
f 114 106 107
f 114 107 108
f 114 108 109
f 114 109 110
f 114 110 111
f 114 111 112
f 114 112 97
f 115 116 122
f 115 122 121
f 116 117 123
f 116 123 122
f 117 118 124
f 117 124 123
f 118 119 125
f 118 125 124
f 119 120 126
f 119 126 125
f 120 115 121
f 120 121 126
f 133 128 127
f 133 129 128
f 133 130 129
f 133 131 130
f 133 132 131
f 133 127 132
f 140 134 135
f 140 135 136
f 140 136 137
f 140 137 138
f 140 138 139
f 140 139 134
f 141 142 148
f 141 148 147
f 142 143 149
f 142 149 148
f 143 144 150
f 143 150 149
f 144 145 151
f 144 151 150
f 145 146 152
f 145 152 151
f 146 141 147
f 146 147 152
f 159 154 153
f 159 155 154
f 159 156 155
f 159 157 156
f 159 158 157
f 159 153 158
f 166 160 161
f 166 161 162
f 166 162 163
f 166 163 164
f 166 164 165
f 166 165 160
f 167 168 174
f 167 174 173
f 168 169 175
f 168 175 174
f 169 170 176
f 169 176 175
f 170 171 177
f 170 177 176
f 171 172 178
f 171 178 177
f 172 167 173
f 172 173 178
f 185 180 179
f 185 181 180
f 185 182 181
f 185 183 182
f 185 184 183
f 185 179 184
f 192 186 187
f 192 187 188
f 192 188 189
f 192 189 190
f 192 190 191
f 192 191 186
