# m18.obj - tools/build_raid_meshes.py. Game units, Y negative up.
v 0.0 0.0 16.0
v -11.3 0.0 11.3
v -16.0 0.0 0.0
v -11.3 0.0 -11.3
v -0.0 0.0 -16.0
v 11.3 0.0 -11.3
v 16.0 0.0 -0.0
v 11.3 0.0 11.3
v 0.0 -170.0 16.0
v -11.3 -170.0 11.3
v -16.0 -170.0 0.0
v -11.3 -170.0 -11.3
v -0.0 -170.0 -16.0
v 11.3 -170.0 -11.3
v 16.0 -170.0 -0.0
v 11.3 -170.0 11.3
v 0.0 0.0 16.0
v -11.3 0.0 11.3
v -16.0 0.0 0.0
v -11.3 0.0 -11.3
v -0.0 0.0 -16.0
v 11.3 0.0 -11.3
v 16.0 0.0 -0.0
v 11.3 0.0 11.3
v 0.0 0.0 0.0
v 0.0 -170.0 16.0
v -11.3 -170.0 11.3
v -16.0 -170.0 0.0
v -11.3 -170.0 -11.3
v -0.0 -170.0 -16.0
v 11.3 -170.0 -11.3
v 16.0 -170.0 -0.0
v 11.3 -170.0 11.3
v 0.0 -170.0 0.0
v 0.0 -170.0 22.0
v -15.6 -170.0 15.6
v -22.0 -170.0 0.0
v -15.6 -170.0 -15.6
v -0.0 -170.0 -22.0
v 15.6 -170.0 -15.6
v 22.0 -170.0 -0.0
v 15.6 -170.0 15.6
v 0.0 -190.0 22.0
v -15.6 -190.0 15.6
v -22.0 -190.0 0.0
v -15.6 -190.0 -15.6
v -0.0 -190.0 -22.0
v 15.6 -190.0 -15.6
v 22.0 -190.0 -0.0
v 15.6 -190.0 15.6
v 0.0 -170.0 22.0
v -15.6 -170.0 15.6
v -22.0 -170.0 0.0
v -15.6 -170.0 -15.6
v -0.0 -170.0 -22.0
v 15.6 -170.0 -15.6
v 22.0 -170.0 -0.0
v 15.6 -170.0 15.6
v 0.0 -170.0 0.0
v 0.0 -190.0 22.0
v -15.6 -190.0 15.6
v -22.0 -190.0 0.0
v -15.6 -190.0 -15.6
v -0.0 -190.0 -22.0
v 15.6 -190.0 -15.6
v 22.0 -190.0 -0.0
v 15.6 -190.0 15.6
v 0.0 -190.0 0.0
v -70.0 -215.0 -18.0
v -70.0 -215.0 18.0
v 70.0 -215.0 -18.0
v 70.0 -215.0 18.0
v -70.0 -190.0 -18.0
v -70.0 -190.0 18.0
v 70.0 -190.0 -18.0
v 70.0 -190.0 18.0
v -70.0 -215.0 -18.0
v -70.0 -215.0 18.0
v -70.0 -190.0 -18.0
v -70.0 -190.0 18.0
v 70.0 -215.0 -18.0
v 70.0 -215.0 18.0
v 70.0 -190.0 -18.0
v 70.0 -190.0 18.0
v -70.0 -215.0 -18.0
v -70.0 -190.0 -18.0
v 70.0 -215.0 -18.0
v 70.0 -190.0 -18.0
v -70.0 -215.0 18.0
v -70.0 -190.0 18.0
v 70.0 -215.0 18.0
v 70.0 -190.0 18.0
f 1 2 10
f 1 10 9
f 2 3 11
f 2 11 10
f 3 4 12
f 3 12 11
f 4 5 13
f 4 13 12
f 5 6 14
f 5 14 13
f 6 7 15
f 6 15 14
f 7 8 16
f 7 16 15
f 8 1 9
f 8 9 16
f 25 18 17
f 25 19 18
f 25 20 19
f 25 21 20
f 25 22 21
f 25 23 22
f 25 24 23
f 25 17 24
f 34 26 27
f 34 27 28
f 34 28 29
f 34 29 30
f 34 30 31
f 34 31 32
f 34 32 33
f 34 33 26
f 35 36 44
f 35 44 43
f 36 37 45
f 36 45 44
f 37 38 46
f 37 46 45
f 38 39 47
f 38 47 46
f 39 40 48
f 39 48 47
f 40 41 49
f 40 49 48
f 41 42 50
f 41 50 49
f 42 35 43
f 42 43 50
f 59 52 51
f 59 53 52
f 59 54 53
f 59 55 54
f 59 56 55
f 59 57 56
f 59 58 57
f 59 51 58
f 68 60 61
f 68 61 62
f 68 62 63
f 68 63 64
f 68 64 65
f 68 65 66
f 68 66 67
f 68 67 60
f 69 71 72
f 69 72 70
f 73 76 75
f 73 74 76
f 77 80 79
f 77 78 80
f 81 83 84
f 81 84 82
f 85 88 87
f 85 86 88
f 89 91 92
f 89 92 90
