# m19.obj - tools/build_raid_meshes.py. Game units, Y negative up.
v -110.0 -50.0 -15.0
v -110.0 -50.0 0.0
v 110.0 -50.0 -15.0
v 110.0 -50.0 0.0
v -110.0 50.0 -15.0
v -110.0 50.0 0.0
v 110.0 50.0 -15.0
v 110.0 50.0 0.0
v -110.0 -50.0 -15.0
v -110.0 -50.0 0.0
v -110.0 50.0 -15.0
v -110.0 50.0 0.0
v 110.0 -50.0 -15.0
v 110.0 -50.0 0.0
v 110.0 50.0 -15.0
v 110.0 50.0 0.0
v -110.0 -50.0 -15.0
v -110.0 50.0 -15.0
v 110.0 -50.0 -15.0
v 110.0 50.0 -15.0
v -110.0 -50.0 0.0
v -110.0 50.0 0.0
v 110.0 -50.0 0.0
v 110.0 50.0 0.0
v -110.0 -15.0 -150.0
v -110.0 -15.0 -15.0
v -90.0 -15.0 -150.0
v -90.0 -15.0 -15.0
v -110.0 15.0 -150.0
v -110.0 15.0 -15.0
v -90.0 15.0 -150.0
v -90.0 15.0 -15.0
v -110.0 -15.0 -150.0
v -110.0 -15.0 -15.0
v -110.0 15.0 -150.0
v -110.0 15.0 -15.0
v -90.0 -15.0 -150.0
v -90.0 -15.0 -15.0
v -90.0 15.0 -150.0
v -90.0 15.0 -15.0
v -110.0 -15.0 -150.0
v -110.0 15.0 -150.0
v -90.0 -15.0 -150.0
v -90.0 15.0 -150.0
v -110.0 -15.0 -15.0
v -110.0 15.0 -15.0
v -90.0 -15.0 -15.0
v -90.0 15.0 -15.0
v 90.0 -15.0 -150.0
v 90.0 -15.0 -15.0
v 110.0 -15.0 -150.0
v 110.0 -15.0 -15.0
v 90.0 15.0 -150.0
v 90.0 15.0 -15.0
v 110.0 15.0 -150.0
v 110.0 15.0 -15.0
v 90.0 -15.0 -150.0
v 90.0 -15.0 -15.0
v 90.0 15.0 -150.0
v 90.0 15.0 -15.0
v 110.0 -15.0 -150.0
v 110.0 -15.0 -15.0
v 110.0 15.0 -150.0
v 110.0 15.0 -15.0
v 90.0 -15.0 -150.0
v 90.0 15.0 -150.0
v 110.0 -15.0 -150.0
v 110.0 15.0 -150.0
v 90.0 -15.0 -15.0
v 90.0 15.0 -15.0
v 110.0 -15.0 -15.0
v 110.0 15.0 -15.0
v -100.0 0.0 -125.0
v -100.0 -8.7 -130.0
v -100.0 -8.7 -140.0
v -100.0 -0.0 -145.0
v -100.0 8.7 -140.0
v -100.0 8.7 -130.0
v 100.0 0.0 -125.0
v 100.0 -8.7 -130.0
v 100.0 -8.7 -140.0
v 100.0 -0.0 -145.0
v 100.0 8.7 -140.0
v 100.0 8.7 -130.0
v -100.0 0.0 -125.0
v -100.0 -8.7 -130.0
v -100.0 -8.7 -140.0
v -100.0 -0.0 -145.0
v -100.0 8.7 -140.0
v -100.0 8.7 -130.0
v -100.0 0.0 -135.0
v 100.0 0.0 -125.0
v 100.0 -8.7 -130.0
v 100.0 -8.7 -140.0
v 100.0 -0.0 -145.0
v 100.0 8.7 -140.0
v 100.0 8.7 -130.0
v 100.0 0.0 -135.0
f 1 3 4
f 1 4 2
f 5 8 7
f 5 6 8
f 9 12 11
f 9 10 12
f 13 15 16
f 13 16 14
f 17 20 19
f 17 18 20
f 21 23 24
f 21 24 22
f 25 27 28
f 25 28 26
f 29 32 31
f 29 30 32
f 33 36 35
f 33 34 36
f 37 39 40
f 37 40 38
f 41 44 43
f 41 42 44
f 45 47 48
f 45 48 46
f 49 51 52
f 49 52 50
f 53 56 55
f 53 54 56
f 57 60 59
f 57 58 60
f 61 63 64
f 61 64 62
f 65 68 67
f 65 66 68
f 69 71 72
f 69 72 70
f 73 74 80
f 73 80 79
f 74 75 81
f 74 81 80
f 75 76 82
f 75 82 81
f 76 77 83
f 76 83 82
f 77 78 84
f 77 84 83
f 78 73 79
f 78 79 84
f 91 86 85
f 91 87 86
f 91 88 87
f 91 89 88
f 91 90 89
f 91 85 90
f 98 92 93
f 98 93 94
f 98 94 95
f 98 95 96
f 98 96 97
f 98 97 92
