# m20.obj - tools/build_raid_meshes.py. Game units, Y negative up.
v -80.0 0.0 -67.0
v -80.0 -29.5 -73.7
v -80.0 -53.2 -92.6
v -80.0 -66.3 -119.9
v -80.0 -66.3 -150.1
v -80.0 -53.2 -177.4
v -80.0 -29.5 -196.3
v -80.0 -0.0 -203.0
v -80.0 29.5 -196.3
v -80.0 53.2 -177.4
v -80.0 66.3 -150.1
v -80.0 66.3 -119.9
v -80.0 53.2 -92.6
v -80.0 29.5 -73.7
v 80.0 0.0 -67.0
v 80.0 -29.5 -73.7
v 80.0 -53.2 -92.6
v 80.0 -66.3 -119.9
v 80.0 -66.3 -150.1
v 80.0 -53.2 -177.4
v 80.0 -29.5 -196.3
v 80.0 -0.0 -203.0
v 80.0 29.5 -196.3
v 80.0 53.2 -177.4
v 80.0 66.3 -150.1
v 80.0 66.3 -119.9
v 80.0 53.2 -92.6
v 80.0 29.5 -73.7
v -80.0 0.0 -67.0
v -80.0 -29.5 -73.7
v -80.0 -53.2 -92.6
v -80.0 -66.3 -119.9
v -80.0 -66.3 -150.1
v -80.0 -53.2 -177.4
v -80.0 -29.5 -196.3
v -80.0 -0.0 -203.0
v -80.0 29.5 -196.3
v -80.0 53.2 -177.4
v -80.0 66.3 -150.1
v -80.0 66.3 -119.9
v -80.0 53.2 -92.6
v -80.0 29.5 -73.7
v -80.0 0.0 -135.0
v 80.0 0.0 -67.0
v 80.0 -29.5 -73.7
v 80.0 -53.2 -92.6
v 80.0 -66.3 -119.9
v 80.0 -66.3 -150.1
v 80.0 -53.2 -177.4
v 80.0 -29.5 -196.3
v 80.0 -0.0 -203.0
v 80.0 29.5 -196.3
v 80.0 53.2 -177.4
v 80.0 66.3 -150.1
v 80.0 66.3 -119.9
v 80.0 53.2 -92.6
v 80.0 29.5 -73.7
v 80.0 0.0 -135.0
f 1 2 16
f 1 16 15
f 2 3 17
f 2 17 16
f 3 4 18
f 3 18 17
f 4 5 19
f 4 19 18
f 5 6 20
f 5 20 19
f 6 7 21
f 6 21 20
f 7 8 22
f 7 22 21
f 8 9 23
f 8 23 22
f 9 10 24
f 9 24 23
f 10 11 25
f 10 25 24
f 11 12 26
f 11 26 25
f 12 13 27
f 12 27 26
f 13 14 28
f 13 28 27
f 14 1 15
f 14 15 28
f 43 30 29
f 43 31 30
f 43 32 31
f 43 33 32
f 43 34 33
f 43 35 34
f 43 36 35
f 43 37 36
f 43 38 37
f 43 39 38
f 43 40 39
f 43 41 40
f 43 42 41
f 43 29 42
f 58 44 45
f 58 45 46
f 58 46 47
f 58 47 48
f 58 48 49
f 58 49 50
f 58 50 51
f 58 51 52
f 58 52 53
f 58 53 54
f 58 54 55
f 58 55 56
f 58 56 57
f 58 57 44
