# m24.obj - tools/build_raid_meshes.py. Game units, Y negative up.
v -16.0 0.0 0.0
v -11.3 -11.3 0.0
v -0.0 -16.0 0.0
v 11.3 -11.3 0.0
v 16.0 -0.0 0.0
v 11.3 11.3 0.0
v 0.0 16.0 0.0
v -11.3 11.3 0.0
v -16.0 0.0 70.0
v -11.3 -11.3 70.0
v -0.0 -16.0 70.0
v 11.3 -11.3 70.0
v 16.0 -0.0 70.0
v 11.3 11.3 70.0
v 0.0 16.0 70.0
v -11.3 11.3 70.0
v -16.0 0.0 0.0
v -11.3 -11.3 0.0
v -0.0 -16.0 0.0
v 11.3 -11.3 0.0
v 16.0 -0.0 0.0
v 11.3 11.3 0.0
v 0.0 16.0 0.0
v -11.3 11.3 0.0
v 0.0 0.0 0.0
v -16.0 0.0 70.0
v -11.3 -11.3 70.0
v -0.0 -16.0 70.0
v 11.3 -11.3 70.0
v 16.0 -0.0 70.0
v 11.3 11.3 70.0
v 0.0 16.0 70.0
v -11.3 11.3 70.0
v 0.0 0.0 70.0
v -46.0 0.0 70.0
v -39.8 -23.0 70.0
v -23.0 -39.8 70.0
v -0.0 -46.0 70.0
v 23.0 -39.8 70.0
v 39.8 -23.0 70.0
v 46.0 -0.0 70.0
v 39.8 23.0 70.0
v 23.0 39.8 70.0
v 0.0 46.0 70.0
v -23.0 39.8 70.0
v -39.8 23.0 70.0
v -40.0 0.0 120.0
v -34.6 -20.0 120.0
v -20.0 -34.6 120.0
v -0.0 -40.0 120.0
v 20.0 -34.6 120.0
v 34.6 -20.0 120.0
v 40.0 -0.0 120.0
v 34.6 20.0 120.0
v 20.0 34.6 120.0
v 0.0 40.0 120.0
v -20.0 34.6 120.0
v -34.6 20.0 120.0
v -46.0 0.0 70.0
v -39.8 -23.0 70.0
v -23.0 -39.8 70.0
v -0.0 -46.0 70.0
v 23.0 -39.8 70.0
v 39.8 -23.0 70.0
v 46.0 -0.0 70.0
v 39.8 23.0 70.0
v 23.0 39.8 70.0
v 0.0 46.0 70.0
v -23.0 39.8 70.0
v -39.8 23.0 70.0
v 0.0 0.0 70.0
v -40.0 0.0 120.0
v -34.6 -20.0 120.0
v -20.0 -34.6 120.0
v -0.0 -40.0 120.0
v 20.0 -34.6 120.0
v 34.6 -20.0 120.0
v 40.0 -0.0 120.0
v 34.6 20.0 120.0
v 20.0 34.6 120.0
v 0.0 40.0 120.0
v -20.0 34.6 120.0
v -34.6 20.0 120.0
v 0.0 0.0 120.0
f 1 2 10
f 1 10 9
f 2 3 11
f 2 11 10
f 3 4 12
f 3 12 11
f 4 5 13
f 4 13 12
f 5 6 14
f 5 14 13
f 6 7 15
f 6 15 14
f 7 8 16
f 7 16 15
f 8 1 9
f 8 9 16
f 25 18 17
f 25 19 18
f 25 20 19
f 25 21 20
f 25 22 21
f 25 23 22
f 25 24 23
f 25 17 24
f 34 26 27
f 34 27 28
f 34 28 29
f 34 29 30
f 34 30 31
f 34 31 32
f 34 32 33
f 34 33 26
f 35 36 48
f 35 48 47
f 36 37 49
f 36 49 48
f 37 38 50
f 37 50 49
f 38 39 51
f 38 51 50
f 39 40 52
f 39 52 51
f 40 41 53
f 40 53 52
f 41 42 54
f 41 54 53
f 42 43 55
f 42 55 54
f 43 44 56
f 43 56 55
f 44 45 57
f 44 57 56
f 45 46 58
f 45 58 57
f 46 35 47
f 46 47 58
f 71 60 59
f 71 61 60
f 71 62 61
f 71 63 62
f 71 64 63
f 71 65 64
f 71 66 65
f 71 67 66
f 71 68 67
f 71 69 68
f 71 70 69
f 71 59 70
f 84 72 73
f 84 73 74
f 84 74 75
f 84 75 76
f 84 76 77
f 84 77 78
f 84 78 79
f 84 79 80
f 84 80 81
f 84 81 82
f 84 82 83
f 84 83 72
