# m25.obj - tools/build_raid_meshes.py. Game units, Y negative up.
v 0.0 -1300.0 -34.0
v -20.0 -1300.0 -27.5
v -32.3 -1300.0 -10.5
v -32.3 -1300.0 10.5
v -20.0 -1300.0 27.5
v -0.0 -1300.0 34.0
v 20.0 -1300.0 27.5
v 32.3 -1300.0 10.5
v 32.3 -1300.0 -10.5
v 20.0 -1300.0 -27.5
v 0.0 -1215.0 -30.0
v -17.6 -1215.0 -24.3
v -28.5 -1215.0 -9.3
v -28.5 -1215.0 9.3
v -17.6 -1215.0 24.3
v -0.0 -1215.0 30.0
v 17.6 -1215.0 24.3
v 28.5 -1215.0 9.3
v 28.5 -1215.0 -9.3
v 17.6 -1215.0 -24.3
v 0.0 -1300.0 -34.0
v -20.0 -1300.0 -27.5
v -32.3 -1300.0 -10.5
v -32.3 -1300.0 10.5
v -20.0 -1300.0 27.5
v -0.0 -1300.0 34.0
v 20.0 -1300.0 27.5
v 32.3 -1300.0 10.5
v 32.3 -1300.0 -10.5
v 20.0 -1300.0 -27.5
v 0.0 -1300.0 0.0
v 0.0 -1215.0 -30.0
v -17.6 -1215.0 -24.3
v -28.5 -1215.0 -9.3
v -28.5 -1215.0 9.3
v -17.6 -1215.0 24.3
v -0.0 -1215.0 30.0
v 17.6 -1215.0 24.3
v 28.5 -1215.0 9.3
v 28.5 -1215.0 -9.3
v 17.6 -1215.0 -24.3
v 0.0 -1215.0 0.0
v -14.7 -1215.0 13.5
v -3.7 -1225.1 16.9
v 9.5 -1229.3 10.3
v 17.1 -1225.1 -2.3
v 14.7 -1215.0 -13.5
v 3.7 -1204.9 -16.9
v -9.5 -1200.7 -10.3
v -17.1 -1204.9 2.3
v 3.5 -1188.7 33.3
v 14.5 -1198.8 36.6
v 27.7 -1203.0 30.0
v 35.3 -1198.8 17.4
v 32.9 -1188.7 6.2
v 21.9 -1178.6 2.9
v 8.7 -1174.4 9.5
v 1.1 -1178.6 22.0
v -14.7 -1215.0 13.5
v -3.7 -1225.1 16.9
v 9.5 -1229.3 10.3
v 17.1 -1225.1 -2.3
v 14.7 -1215.0 -13.5
v 3.7 -1204.9 -16.9
v -9.5 -1200.7 -10.3
v -17.1 -1204.9 2.3
v 0.0 -1215.0 0.0
v 3.5 -1188.7 33.3
v 14.5 -1198.8 36.6
v 27.7 -1203.0 30.0
v 35.3 -1198.8 17.4
v 32.9 -1188.7 6.2
v 21.9 -1178.6 2.9
v 8.7 -1174.4 9.5
v 1.1 -1178.6 22.0
v 18.2 -1188.7 19.7
v 14.7 -1188.7 39.4
v 22.2 -1201.3 34.8
v 27.3 -1206.5 21.3
v 27.1 -1201.3 6.9
v 21.6 -1188.7 0.0
v 14.2 -1176.2 4.7
v 9.0 -1171.0 18.1
v 9.3 -1176.2 32.5
v 49.7 -1170.2 45.6
v 57.1 -1182.7 40.9
v 62.3 -1187.9 27.5
v 62.0 -1182.7 13.1
v 56.6 -1170.2 6.2
v 49.1 -1157.6 10.8
v 44.0 -1152.5 24.3
v 44.2 -1157.6 38.7
v 14.7 -1188.7 39.4
v 22.2 -1201.3 34.8
v 27.3 -1206.5 21.3
v 27.1 -1201.3 6.9
v 21.6 -1188.7 0.0
v 14.2 -1176.2 4.7
v 9.0 -1171.0 18.1
v 9.3 -1176.2 32.5
v 18.2 -1188.7 19.7
v 49.7 -1170.2 45.6
v 57.1 -1182.7 40.9
v 62.3 -1187.9 27.5
v 62.0 -1182.7 13.1
v 56.6 -1170.2 6.2
v 49.1 -1157.6 10.8
v 44.0 -1152.5 24.3
v 44.2 -1157.6 38.7
v 53.1 -1170.2 25.9
v 54.8 -1170.2 45.8
v 58.1 -1183.8 39.6
v 58.5 -1189.4 25.4
v 55.8 -1183.8 11.4
v 51.5 -1170.2 5.9
v 48.2 -1156.6 12.1
v 47.8 -1150.9 26.3
v 50.5 -1156.6 40.3
v 104.8 -1156.2 41.7
v 108.1 -1169.8 35.5
v 108.5 -1175.5 21.3
v 105.8 -1169.8 7.3
v 101.5 -1156.2 1.8
v 98.2 -1142.6 8.0
v 97.8 -1136.9 22.2
v 100.5 -1142.6 36.2
v 54.8 -1170.2 45.8
v 58.1 -1183.8 39.6
v 58.5 -1189.4 25.4
v 55.8 -1183.8 11.4
v 51.5 -1170.2 5.9
v 48.2 -1156.6 12.1
v 47.8 -1150.9 26.3
v 50.5 -1156.6 40.3
v 53.1 -1170.2 25.9
v 104.8 -1156.2 41.7
v 108.1 -1169.8 35.5
v 108.5 -1175.5 21.3
v 105.8 -1169.8 7.3
v 101.5 -1156.2 1.8
v 98.2 -1142.6 8.0
v 97.8 -1136.9 22.2
v 100.5 -1142.6 36.2
v 103.1 -1156.2 21.8
v 106.5 -1156.2 41.5
v 108.2 -1170.1 35.2
v 106.9 -1175.8 21.1
v 103.4 -1170.1 7.4
v 99.8 -1156.2 2.0
v 98.1 -1142.3 8.3
v 99.4 -1136.6 22.4
v 102.9 -1142.3 36.1
v 169.9 -1143.7 30.6
v 171.6 -1157.5 24.3
v 170.3 -1163.3 10.2
v 166.8 -1157.5 -3.5
v 163.2 -1143.7 -8.9
v 161.5 -1129.8 -2.6
v 162.8 -1124.0 11.5
v 166.3 -1129.8 25.2
v 106.5 -1156.2 41.5
v 108.2 -1170.1 35.2
v 106.9 -1175.8 21.1
v 103.4 -1170.1 7.4
v 99.8 -1156.2 2.0
v 98.1 -1142.3 8.3
v 99.4 -1136.6 22.4
v 102.9 -1142.3 36.1
v 103.1 -1156.2 21.8
v 169.9 -1143.7 30.6
v 171.6 -1157.5 24.3
v 170.3 -1163.3 10.2
v 166.8 -1157.5 -3.5
v 163.2 -1143.7 -8.9
v 161.5 -1129.8 -2.6
v 162.8 -1124.0 11.5
v 166.3 -1129.8 25.2
v 166.6 -1143.7 10.9
v 170.3 -1143.7 30.5
v 171.7 -1157.6 24.3
v 170.1 -1163.3 10.2
v 166.5 -1157.6 -3.5
v 162.8 -1143.7 -8.8
v 161.4 -1129.8 -2.6
v 163.0 -1124.0 11.5
v 166.7 -1129.8 25.2
v 245.4 -1129.4 16.2
v 246.8 -1143.3 10.0
v 245.2 -1149.1 -4.1
v 241.5 -1143.3 -17.8
v 237.9 -1129.4 -23.1
v 236.5 -1115.5 -16.8
v 238.1 -1109.8 -2.8
v 241.8 -1115.5 10.9
v 170.3 -1143.7 30.5
v 171.7 -1157.6 24.3
v 170.1 -1163.3 10.2
v 166.5 -1157.6 -3.5
v 162.8 -1143.7 -8.8
v 161.4 -1129.8 -2.6
v 163.0 -1124.0 11.5
v 166.7 -1129.8 25.2
v 166.6 -1143.7 10.9
v 245.4 -1129.4 16.2
v 246.8 -1143.3 10.0
v 245.2 -1149.1 -4.1
v 241.5 -1143.3 -17.8
v 237.9 -1129.4 -23.1
v 236.5 -1115.5 -16.8
v 238.1 -1109.8 -2.8
v 241.8 -1115.5 10.9
v 241.6 -1129.4 -3.4
v 245.0 -1129.4 16.3
v 247.0 -1143.3 10.0
v 245.9 -1149.0 -4.1
v 242.3 -1143.3 -17.9
v 238.3 -1129.4 -23.2
v 236.3 -1115.6 -16.9
v 237.4 -1109.9 -2.7
v 241.0 -1115.6 11.0
v 330.0 -1110.4 2.0
v 332.1 -1124.2 -4.3
v 331.0 -1129.9 -18.4
v 327.4 -1124.2 -32.1
v 323.4 -1110.4 -37.4
v 321.4 -1096.6 -31.1
v 322.5 -1090.9 -17.0
v 326.1 -1096.6 -3.2
v 245.0 -1129.4 16.3
v 247.0 -1143.3 10.0
v 245.9 -1149.0 -4.1
v 242.3 -1143.3 -17.9
v 238.3 -1129.4 -23.2
v 236.3 -1115.6 -16.9
v 237.4 -1109.9 -2.7
v 241.0 -1115.6 11.0
v 241.6 -1129.4 -3.4
v 330.0 -1110.4 2.0
v 332.1 -1124.2 -4.3
v 331.0 -1129.9 -18.4
v 327.4 -1124.2 -32.1
v 323.4 -1110.4 -37.4
v 321.4 -1096.6 -31.1
v 322.5 -1090.9 -17.0
v 326.1 -1096.6 -3.2
v 326.7 -1110.4 -17.7
v 329.0 -1110.4 2.2
v 332.2 -1124.0 -4.1
v 332.2 -1129.6 -18.3
v 329.0 -1124.0 -32.2
v 324.4 -1110.4 -37.6
v 321.2 -1096.8 -31.3
v 321.3 -1091.2 -17.1
v 324.5 -1096.8 -3.2
v 422.4 -1083.5 -8.6
v 425.6 -1097.1 -14.9
v 425.6 -1102.7 -29.2
v 422.4 -1097.1 -43.0
v 417.8 -1083.5 -48.4
v 414.6 -1069.9 -42.1
v 414.7 -1064.2 -27.9
v 417.9 -1069.9 -14.0
v 329.0 -1110.4 2.2
v 332.2 -1124.0 -4.1
v 332.2 -1129.6 -18.3
v 329.0 -1124.0 -32.2
v 324.4 -1110.4 -37.6
v 321.2 -1096.8 -31.3
v 321.3 -1091.2 -17.1
v 324.5 -1096.8 -3.2
v 326.7 -1110.4 -17.7
v 422.4 -1083.5 -8.6
v 425.6 -1097.1 -14.9
v 425.6 -1102.7 -29.2
v 422.4 -1097.1 -43.0
v 417.8 -1083.5 -48.4
v 414.6 -1069.9 -42.1
v 414.7 -1064.2 -27.9
v 417.9 -1069.9 -14.0
v 420.1 -1083.5 -28.5
v 420.9 -1083.5 -8.5
v 425.7 -1096.7 -14.6
v 427.2 -1102.2 -28.8
v 424.6 -1096.7 -42.8
v 419.3 -1083.5 -48.5
v 414.5 -1070.2 -42.4
v 413.0 -1064.8 -28.2
v 415.7 -1070.2 -14.2
v 520.9 -1045.4 -12.5
v 525.7 -1058.7 -18.5
v 527.2 -1064.1 -32.8
v 524.6 -1058.7 -46.8
v 519.3 -1045.4 -52.5
v 514.5 -1032.2 -46.4
v 513.0 -1026.7 -32.2
v 515.7 -1032.2 -18.2
v 420.9 -1083.5 -8.5
v 425.7 -1096.7 -14.6
v 427.2 -1102.2 -28.8
v 424.6 -1096.7 -42.8
v 419.3 -1083.5 -48.5
v 414.5 -1070.2 -42.4
v 413.0 -1064.8 -28.2
v 415.7 -1070.2 -14.2
v 420.1 -1083.5 -28.5
v 520.9 -1045.4 -12.5
v 525.7 -1058.7 -18.5
v 527.2 -1064.1 -32.8
v 524.6 -1058.7 -46.8
v 519.3 -1045.4 -52.5
v 514.5 -1032.2 -46.4
v 513.0 -1026.7 -32.2
v 515.7 -1032.2 -18.2
v 520.1 -1045.4 -32.5
v 518.9 -1045.4 -12.5
v 525.6 -1058.1 -18.0
v 529.0 -1063.4 -31.9
v 527.3 -1058.1 -46.2
v 521.3 -1045.4 -52.4
v 514.7 -1032.8 -47.0
v 511.2 -1027.5 -33.0
v 513.0 -1032.8 -18.7
v 623.8 -993.2 -6.2
v 630.5 -1005.9 -11.7
v 633.9 -1011.1 -25.6
v 632.2 -1005.9 -39.9
v 626.2 -993.2 -46.1
v 619.6 -980.6 -40.7
v 616.2 -975.3 -26.7
v 617.9 -980.6 -12.4
v 518.9 -1045.4 -12.5
v 525.6 -1058.1 -18.0
v 529.0 -1063.4 -31.9
v 527.3 -1058.1 -46.2
v 521.3 -1045.4 -52.4
v 514.7 -1032.8 -47.0
v 511.2 -1027.5 -33.0
v 513.0 -1032.8 -18.7
v 520.1 -1045.4 -32.5
v 623.8 -993.2 -6.2
v 630.5 -1005.9 -11.7
v 633.9 -1011.1 -25.6
v 632.2 -1005.9 -39.9
v 626.2 -993.2 -46.1
v 619.6 -980.6 -40.7
v 616.2 -975.3 -26.7
v 617.9 -980.6 -12.4
v 625.0 -993.2 -26.2
v 621.4 -993.2 -6.5
v 629.9 -1005.2 -10.9
v 635.6 -1010.1 -24.2
v 635.0 -1005.2 -38.7
v 628.7 -993.2 -45.8
v 620.2 -981.3 -41.5
v 614.5 -976.3 -28.1
v 615.0 -981.3 -13.6
v 729.5 -923.7 13.5
v 738.0 -935.7 9.1
v 743.7 -940.6 -4.2
v 743.2 -935.7 -18.7
v 736.8 -923.7 -25.9
v 728.3 -911.8 -21.5
v 722.7 -906.8 -8.1
v 723.2 -911.8 6.3
v 621.4 -993.2 -6.5
v 629.9 -1005.2 -10.9
v 635.6 -1010.1 -24.2
v 635.0 -1005.2 -38.7
v 628.7 -993.2 -45.8
v 620.2 -981.3 -41.5
v 614.5 -976.3 -28.1
v 615.0 -981.3 -13.6
v 625.0 -993.2 -26.2
v 729.5 -923.7 13.5
v 738.0 -935.7 9.1
v 743.7 -940.6 -4.2
v 743.2 -935.7 -18.7
v 736.8 -923.7 -25.9
v 728.3 -911.8 -21.5
v 722.7 -906.8 -8.1
v 723.2 -911.8 6.3
v 733.2 -923.7 -6.2
v 726.8 -923.7 12.8
v 736.9 -934.9 10.0
v 744.8 -939.5 -2.3
v 745.9 -934.9 -16.8
v 739.6 -923.7 -25.1
v 729.5 -912.5 -22.4
v 721.6 -907.9 -10.1
v 720.4 -912.5 4.4
v 836.4 -833.8 49.8
v 846.5 -844.9 47.1
v 854.5 -849.5 34.8
v 855.6 -844.9 20.3
v 849.3 -833.8 11.9
v 839.2 -822.6 14.7
v 831.2 -818.0 27.0
v 830.1 -822.6 41.5
v 726.8 -923.7 12.8
v 736.9 -934.9 10.0
v 744.8 -939.5 -2.3
v 745.9 -934.9 -16.8
v 739.6 -923.7 -25.1
v 729.5 -912.5 -22.4
v 721.6 -907.9 -10.1
v 720.4 -912.5 4.4
v 733.2 -923.7 -6.2
v 836.4 -833.8 49.8
v 846.5 -844.9 47.1
v 854.5 -849.5 34.8
v 855.6 -844.9 20.3
v 849.3 -833.8 11.9
v 839.2 -822.6 14.7
v 831.2 -818.0 27.0
v 830.1 -822.6 41.5
v 842.8 -833.8 30.9
v 833.5 -833.8 48.6
v 844.7 -844.2 47.9
v 854.8 -848.5 37.2
v 857.9 -844.2 22.8
v 852.2 -833.8 13.2
v 841.0 -823.3 13.9
v 830.9 -819.0 24.6
v 827.8 -823.3 39.0
v 943.0 -720.2 106.2
v 954.2 -730.6 105.5
v 964.3 -735.0 94.8
v 967.4 -730.6 80.4
v 961.7 -720.2 70.8
v 950.5 -709.8 71.5
v 940.4 -705.5 82.2
v 937.3 -709.8 96.6
v 833.5 -833.8 48.6
v 844.7 -844.2 47.9
v 854.8 -848.5 37.2
v 857.9 -844.2 22.8
v 852.2 -833.8 13.2
v 841.0 -823.3 13.9
v 830.9 -819.0 24.6
v 827.8 -823.3 39.0
v 842.8 -833.8 30.9
v 943.0 -720.2 106.2
v 954.2 -730.6 105.5
v 964.3 -735.0 94.8
v 967.4 -730.6 80.4
v 961.7 -720.2 70.8
v 950.5 -709.8 71.5
v 940.4 -705.5 82.2
v 937.3 -709.8 96.6
v 952.4 -720.2 88.5
v 940.3 -720.2 104.4
v 951.9 -730.0 105.9
v 963.8 -734.1 97.2
v 969.0 -730.0 83.4
v 964.4 -720.2 72.5
v 952.8 -710.4 71.1
v 940.9 -706.4 79.8
v 935.7 -710.4 93.6
v 1047.9 -580.0 185.9
v 1059.6 -589.8 187.4
v 1071.5 -593.9 178.7
v 1076.7 -589.8 164.9
v 1072.1 -580.0 154.1
v 1060.4 -570.2 152.6
v 1048.5 -566.1 161.3
v 1043.3 -570.2 175.1
v 940.3 -720.2 104.4
v 951.9 -730.0 105.9
v 963.8 -734.1 97.2
v 969.0 -730.0 83.4
v 964.4 -720.2 72.5
v 952.8 -710.4 71.1
v 940.9 -706.4 79.8
v 935.7 -710.4 93.6
v 952.4 -720.2 88.5
v 1047.9 -580.0 185.9
v 1059.6 -589.8 187.4
v 1071.5 -593.9 178.7
v 1076.7 -589.8 164.9
v 1072.1 -580.0 154.1
v 1060.4 -570.2 152.6
v 1048.5 -566.1 161.3
v 1043.3 -570.2 175.1
v 1060.0 -580.0 170.0
v 1026.7 -580.0 192.2
v 1040.8 -598.9 199.6
v 1062.3 -610.6 195.7
v 1082.8 -610.6 182.0
v 1094.7 -598.9 163.7
v 1093.3 -580.0 147.8
v 1079.2 -561.1 140.4
v 1057.7 -549.4 144.3
v 1037.2 -549.4 158.0
v 1025.3 -561.1 176.3
v 1076.7 -500.0 288.8
v 1095.1 -524.6 298.5
v 1122.9 -539.8 293.4
v 1149.7 -539.8 275.6
v 1165.1 -524.6 251.8
v 1163.3 -500.0 231.2
v 1144.9 -475.4 221.5
v 1117.1 -460.2 226.6
v 1090.3 -460.2 244.4
v 1074.9 -475.4 268.2
v 1026.7 -580.0 192.2
v 1040.8 -598.9 199.6
v 1062.3 -610.6 195.7
v 1082.8 -610.6 182.0
v 1094.7 -598.9 163.7
v 1093.3 -580.0 147.8
v 1079.2 -561.1 140.4
v 1057.7 -549.4 144.3
v 1037.2 -549.4 158.0
v 1025.3 -561.1 176.3
v 1060.0 -580.0 170.0
v 1076.7 -500.0 288.8
v 1095.1 -524.6 298.5
v 1122.9 -539.8 293.4
v 1149.7 -539.8 275.6
v 1165.1 -524.6 251.8
v 1163.3 -500.0 231.2
v 1144.9 -475.4 221.5
v 1117.1 -460.2 226.6
v 1090.3 -460.2 244.4
v 1074.9 -475.4 268.2
v 1120.0 -500.0 260.0
f 1 2 12
f 1 12 11
f 2 3 13
f 2 13 12
f 3 4 14
f 3 14 13
f 4 5 15
f 4 15 14
f 5 6 16
f 5 16 15
f 6 7 17
f 6 17 16
f 7 8 18
f 7 18 17
f 8 9 19
f 8 19 18
f 9 10 20
f 9 20 19
f 10 1 11
f 10 11 20
f 31 22 21
f 31 23 22
f 31 24 23
f 31 25 24
f 31 26 25
f 31 27 26
f 31 28 27
f 31 29 28
f 31 30 29
f 31 21 30
f 42 32 33
f 42 33 34
f 42 34 35
f 42 35 36
f 42 36 37
f 42 37 38
f 42 38 39
f 42 39 40
f 42 40 41
f 42 41 32
f 43 44 52
f 43 52 51
f 44 45 53
f 44 53 52
f 45 46 54
f 45 54 53
f 46 47 55
f 46 55 54
f 47 48 56
f 47 56 55
f 48 49 57
f 48 57 56
f 49 50 58
f 49 58 57
f 50 43 51
f 50 51 58
f 67 60 59
f 67 61 60
f 67 62 61
f 67 63 62
f 67 64 63
f 67 65 64
f 67 66 65
f 67 59 66
f 76 68 69
f 76 69 70
f 76 70 71
f 76 71 72
f 76 72 73
f 76 73 74
f 76 74 75
f 76 75 68
f 77 78 86
f 77 86 85
f 78 79 87
f 78 87 86
f 79 80 88
f 79 88 87
f 80 81 89
f 80 89 88
f 81 82 90
f 81 90 89
f 82 83 91
f 82 91 90
f 83 84 92
f 83 92 91
f 84 77 85
f 84 85 92
f 101 94 93
f 101 95 94
f 101 96 95
f 101 97 96
f 101 98 97
f 101 99 98
f 101 100 99
f 101 93 100
f 110 102 103
f 110 103 104
f 110 104 105
f 110 105 106
f 110 106 107
f 110 107 108
f 110 108 109
f 110 109 102
f 111 112 120
f 111 120 119
f 112 113 121
f 112 121 120
f 113 114 122
f 113 122 121
f 114 115 123
f 114 123 122
f 115 116 124
f 115 124 123
f 116 117 125
f 116 125 124
f 117 118 126
f 117 126 125
f 118 111 119
f 118 119 126
f 135 128 127
f 135 129 128
f 135 130 129
f 135 131 130
f 135 132 131
f 135 133 132
f 135 134 133
f 135 127 134
f 144 136 137
f 144 137 138
f 144 138 139
f 144 139 140
f 144 140 141
f 144 141 142
f 144 142 143
f 144 143 136
f 145 146 154
f 145 154 153
f 146 147 155
f 146 155 154
f 147 148 156
f 147 156 155
f 148 149 157
f 148 157 156
f 149 150 158
f 149 158 157
f 150 151 159
f 150 159 158
f 151 152 160
f 151 160 159
f 152 145 153
f 152 153 160
f 169 162 161
f 169 163 162
f 169 164 163
f 169 165 164
f 169 166 165
f 169 167 166
f 169 168 167
f 169 161 168
f 178 170 171
f 178 171 172
f 178 172 173
f 178 173 174
f 178 174 175
f 178 175 176
f 178 176 177
f 178 177 170
f 179 180 188
f 179 188 187
f 180 181 189
f 180 189 188
f 181 182 190
f 181 190 189
f 182 183 191
f 182 191 190
f 183 184 192
f 183 192 191
f 184 185 193
f 184 193 192
f 185 186 194
f 185 194 193
f 186 179 187
f 186 187 194
f 203 196 195
f 203 197 196
f 203 198 197
f 203 199 198
f 203 200 199
f 203 201 200
f 203 202 201
f 203 195 202
f 212 204 205
f 212 205 206
f 212 206 207
f 212 207 208
f 212 208 209
f 212 209 210
f 212 210 211
f 212 211 204
f 213 214 222
f 213 222 221
f 214 215 223
f 214 223 222
f 215 216 224
f 215 224 223
f 216 217 225
f 216 225 224
f 217 218 226
f 217 226 225
f 218 219 227
f 218 227 226
f 219 220 228
f 219 228 227
f 220 213 221
f 220 221 228
f 237 230 229
f 237 231 230
f 237 232 231
f 237 233 232
f 237 234 233
f 237 235 234
f 237 236 235
f 237 229 236
f 246 238 239
f 246 239 240
f 246 240 241
f 246 241 242
f 246 242 243
f 246 243 244
f 246 244 245
f 246 245 238
f 247 248 256
f 247 256 255
f 248 249 257
f 248 257 256
f 249 250 258
f 249 258 257
f 250 251 259
f 250 259 258
f 251 252 260
f 251 260 259
f 252 253 261
f 252 261 260
f 253 254 262
f 253 262 261
f 254 247 255
f 254 255 262
f 271 264 263
f 271 265 264
f 271 266 265
f 271 267 266
f 271 268 267
f 271 269 268
f 271 270 269
f 271 263 270
f 280 272 273
f 280 273 274
f 280 274 275
f 280 275 276
f 280 276 277
f 280 277 278
f 280 278 279
f 280 279 272
f 281 282 290
f 281 290 289
f 282 283 291
f 282 291 290
f 283 284 292
f 283 292 291
f 284 285 293
f 284 293 292
f 285 286 294
f 285 294 293
f 286 287 295
f 286 295 294
f 287 288 296
f 287 296 295
f 288 281 289
f 288 289 296
f 305 298 297
f 305 299 298
f 305 300 299
f 305 301 300
f 305 302 301
f 305 303 302
f 305 304 303
f 305 297 304
f 314 306 307
f 314 307 308
f 314 308 309
f 314 309 310
f 314 310 311
f 314 311 312
f 314 312 313
f 314 313 306
f 315 316 324
f 315 324 323
f 316 317 325
f 316 325 324
f 317 318 326
f 317 326 325
f 318 319 327
f 318 327 326
f 319 320 328
f 319 328 327
f 320 321 329
f 320 329 328
f 321 322 330
f 321 330 329
f 322 315 323
f 322 323 330
f 339 332 331
f 339 333 332
f 339 334 333
f 339 335 334
f 339 336 335
f 339 337 336
f 339 338 337
f 339 331 338
f 348 340 341
f 348 341 342
f 348 342 343
f 348 343 344
f 348 344 345
f 348 345 346
f 348 346 347
f 348 347 340
f 349 350 358
f 349 358 357
f 350 351 359
f 350 359 358
f 351 352 360
f 351 360 359
f 352 353 361
f 352 361 360
f 353 354 362
f 353 362 361
f 354 355 363
f 354 363 362
f 355 356 364
f 355 364 363
f 356 349 357
f 356 357 364
f 373 366 365
f 373 367 366
f 373 368 367
f 373 369 368
f 373 370 369
f 373 371 370
f 373 372 371
f 373 365 372
f 382 374 375
f 382 375 376
f 382 376 377
f 382 377 378
f 382 378 379
f 382 379 380
f 382 380 381
f 382 381 374
f 383 384 392
f 383 392 391
f 384 385 393
f 384 393 392
f 385 386 394
f 385 394 393
f 386 387 395
f 386 395 394
f 387 388 396
f 387 396 395
f 388 389 397
f 388 397 396
f 389 390 398
f 389 398 397
f 390 383 391
f 390 391 398
f 407 400 399
f 407 401 400
f 407 402 401
f 407 403 402
f 407 404 403
f 407 405 404
f 407 406 405
f 407 399 406
f 416 408 409
f 416 409 410
f 416 410 411
f 416 411 412
f 416 412 413
f 416 413 414
f 416 414 415
f 416 415 408
f 417 418 426
f 417 426 425
f 418 419 427
f 418 427 426
f 419 420 428
f 419 428 427
f 420 421 429
f 420 429 428
f 421 422 430
f 421 430 429
f 422 423 431
f 422 431 430
f 423 424 432
f 423 432 431
f 424 417 425
f 424 425 432
f 441 434 433
f 441 435 434
f 441 436 435
f 441 437 436
f 441 438 437
f 441 439 438
f 441 440 439
f 441 433 440
f 450 442 443
f 450 443 444
f 450 444 445
f 450 445 446
f 450 446 447
f 450 447 448
f 450 448 449
f 450 449 442
f 451 452 460
f 451 460 459
f 452 453 461
f 452 461 460
f 453 454 462
f 453 462 461
f 454 455 463
f 454 463 462
f 455 456 464
f 455 464 463
f 456 457 465
f 456 465 464
f 457 458 466
f 457 466 465
f 458 451 459
f 458 459 466
f 475 468 467
f 475 469 468
f 475 470 469
f 475 471 470
f 475 472 471
f 475 473 472
f 475 474 473
f 475 467 474
f 484 476 477
f 484 477 478
f 484 478 479
f 484 479 480
f 484 480 481
f 484 481 482
f 484 482 483
f 484 483 476
f 485 486 496
f 485 496 495
f 486 487 497
f 486 497 496
f 487 488 498
f 487 498 497
f 488 489 499
f 488 499 498
f 489 490 500
f 489 500 499
f 490 491 501
f 490 501 500
f 491 492 502
f 491 502 501
f 492 493 503
f 492 503 502
f 493 494 504
f 493 504 503
f 494 485 495
f 494 495 504
f 515 506 505
f 515 507 506
f 515 508 507
f 515 509 508
f 515 510 509
f 515 511 510
f 515 512 511
f 515 513 512
f 515 514 513
f 515 505 514
f 526 516 517
f 526 517 518
f 526 518 519
f 526 519 520
f 526 520 521
f 526 521 522
f 526 522 523
f 526 523 524
f 526 524 525
f 526 525 516
