# m26.obj - tools/build_raid_meshes.py. Game units, Y negative up.
v 10.0 -1283.8 285.3
v -3.7 -1285.1 293.4
v -3.7 -1291.3 308.1
v 10.0 -1296.2 314.7
v 23.7 -1294.9 306.6
v 23.7 -1288.7 291.9
v 40.0 -1093.8 365.3
v 26.3 -1095.1 373.4
v 26.3 -1101.3 388.1
v 40.0 -1106.2 394.7
v 53.7 -1104.9 386.6
v 53.7 -1098.7 371.9
v 10.0 -1283.8 285.3
v -3.7 -1285.1 293.4
v -3.7 -1291.3 308.1
v 10.0 -1296.2 314.7
v 23.7 -1294.9 306.6
v 23.7 -1288.7 291.9
v 10.0 -1290.0 300.0
v 40.0 -1093.8 365.3
v 26.3 -1095.1 373.4
v 26.3 -1101.3 388.1
v 40.0 -1106.2 394.7
v 53.7 -1104.9 386.6
v 53.7 -1098.7 371.9
v 40.0 -1100.0 380.0
v 40.0 -1097.1 364.3
v 26.5 -1095.6 372.7
v 26.5 -1098.5 388.4
v 40.0 -1102.9 395.7
v 53.5 -1104.4 387.3
v 53.5 -1101.5 371.6
v 90.0 -877.1 404.3
v 76.5 -875.6 412.7
v 76.5 -878.5 428.4
v 90.0 -882.9 435.7
v 103.5 -884.4 427.3
v 103.5 -881.5 411.6
v 40.0 -1097.1 364.3
v 26.5 -1095.6 372.7
v 26.5 -1098.5 388.4
v 40.0 -1102.9 395.7
v 53.5 -1104.4 387.3
v 53.5 -1101.5 371.6
v 40.0 -1100.0 380.0
v 90.0 -877.1 404.3
v 76.5 -875.6 412.7
v 76.5 -878.5 428.4
v 90.0 -882.9 435.7
v 103.5 -884.4 427.3
v 103.5 -881.5 411.6
v 90.0 -880.0 420.0
v 95.5 -880.0 435.0
v 103.7 -887.6 423.5
v 98.2 -887.6 408.5
v 84.5 -880.0 405.0
v 76.3 -872.4 416.5
v 81.8 -872.4 431.5
v 205.5 -700.0 395.0
v 213.7 -707.6 383.5
v 208.2 -707.6 368.5
v 194.5 -700.0 365.0
v 186.3 -692.4 376.5
v 191.8 -692.4 391.5
v 95.5 -880.0 435.0
v 103.7 -887.6 423.5
v 98.2 -887.6 408.5
v 84.5 -880.0 405.0
v 76.3 -872.4 416.5
v 81.8 -872.4 431.5
v 90.0 -880.0 420.0
v 205.5 -700.0 395.0
v 213.7 -707.6 383.5
v 208.2 -707.6 368.5
v 194.5 -700.0 365.0
v 186.3 -692.4 376.5
v 191.8 -692.4 391.5
v 200.0 -700.0 380.0
v 208.4 -700.0 393.6
v 212.2 -710.2 381.9
v 203.8 -710.2 368.3
v 191.6 -700.0 366.4
v 187.8 -689.8 378.1
v 196.2 -689.8 391.7
v 338.4 -560.0 313.6
v 342.2 -570.2 301.9
v 333.8 -570.2 288.3
v 321.6 -560.0 286.4
v 317.8 -549.8 298.1
v 326.2 -549.8 311.7
v 208.4 -700.0 393.6
v 212.2 -710.2 381.9
v 203.8 -710.2 368.3
v 191.6 -700.0 366.4
v 187.8 -689.8 378.1
v 196.2 -689.8 391.7
v 200.0 -700.0 380.0
v 338.4 -560.0 313.6
v 342.2 -570.2 301.9
v 333.8 -570.2 288.3
v 321.6 -560.0 286.4
v 317.8 -549.8 298.1
v 326.2 -549.8 311.7
v 330.0 -560.0 300.0
v 337.2 -560.0 314.3
v 338.0 -572.9 304.9
v 330.9 -572.9 290.6
v 322.8 -560.0 285.7
v 322.0 -547.1 295.1
v 329.1 -547.1 309.4
v 477.2 -500.0 244.3
v 478.0 -512.9 234.9
v 470.9 -512.9 220.6
v 462.8 -500.0 215.7
v 462.0 -487.1 225.1
v 469.1 -487.1 239.4
v 337.2 -560.0 314.3
v 338.0 -572.9 304.9
v 330.9 -572.9 290.6
v 322.8 -560.0 285.7
v 322.0 -547.1 295.1
v 329.1 -547.1 309.4
v 330.0 -560.0 300.0
v 477.2 -500.0 244.3
v 478.0 -512.9 234.9
v 470.9 -512.9 220.6
v 462.8 -500.0 215.7
v 462.0 -487.1 225.1
v 469.1 -487.1 239.4
v 470.0 -500.0 230.0
f 1 2 8
f 1 8 7
f 2 3 9
f 2 9 8
f 3 4 10
f 3 10 9
f 4 5 11
f 4 11 10
f 5 6 12
f 5 12 11
f 6 1 7
f 6 7 12
f 19 14 13
f 19 15 14
f 19 16 15
f 19 17 16
f 19 18 17
f 19 13 18
f 26 20 21
f 26 21 22
f 26 22 23
f 26 23 24
f 26 24 25
f 26 25 20
f 27 28 34
f 27 34 33
f 28 29 35
f 28 35 34
f 29 30 36
f 29 36 35
f 30 31 37
f 30 37 36
f 31 32 38
f 31 38 37
f 32 27 33
f 32 33 38
f 45 40 39
f 45 41 40
f 45 42 41
f 45 43 42
f 45 44 43
f 45 39 44
f 52 46 47
f 52 47 48
f 52 48 49
f 52 49 50
f 52 50 51
f 52 51 46
f 53 54 60
f 53 60 59
f 54 55 61
f 54 61 60
f 55 56 62
f 55 62 61
f 56 57 63
f 56 63 62
f 57 58 64
f 57 64 63
f 58 53 59
f 58 59 64
f 71 66 65
f 71 67 66
f 71 68 67
f 71 69 68
f 71 70 69
f 71 65 70
f 78 72 73
f 78 73 74
f 78 74 75
f 78 75 76
f 78 76 77
f 78 77 72
f 79 80 86
f 79 86 85
f 80 81 87
f 80 87 86
f 81 82 88
f 81 88 87
f 82 83 89
f 82 89 88
f 83 84 90
f 83 90 89
f 84 79 85
f 84 85 90
f 97 92 91
f 97 93 92
f 97 94 93
f 97 95 94
f 97 96 95
f 97 91 96
f 104 98 99
f 104 99 100
f 104 100 101
f 104 101 102
f 104 102 103
f 104 103 98
f 105 106 112
f 105 112 111
f 106 107 113
f 106 113 112
f 107 108 114
f 107 114 113
f 108 109 115
f 108 115 114
f 109 110 116
f 109 116 115
f 110 105 111
f 110 111 116
f 123 118 117
f 123 119 118
f 123 120 119
f 123 121 120
f 123 122 121
f 123 117 122
f 130 124 125
f 130 125 126
f 130 126 127
f 130 127 128
f 130 128 129
f 130 129 124
