# m27.obj - tools/build_raid_meshes.py. Game units, Y negative up.
v -50.0 -3200.0 -490.0
v -50.0 -3200.0 -163.3
v -50.0 -3200.0 163.3
v -50.0 -3200.0 490.0
v -33.3 -3200.0 -490.0
v -33.3 -3200.0 -163.3
v -33.3 -3200.0 163.3
v -33.3 -3200.0 490.0
v -16.7 -3200.0 -490.0
v -16.7 -3200.0 -163.3
v -16.7 -3200.0 163.3
v -16.7 -3200.0 490.0
v 0.0 -3200.0 -490.0
v 0.0 -3200.0 -163.3
v 0.0 -3200.0 163.3
v 0.0 -3200.0 490.0
v -50.0 -3130.0 -490.0
v -50.0 -3130.0 -163.3
v -50.0 -3130.0 163.3
v -50.0 -3130.0 490.0
v -33.3 -3130.0 -490.0
v -33.3 -3130.0 -163.3
v -33.3 -3130.0 163.3
v -33.3 -3130.0 490.0
v -16.7 -3130.0 -490.0
v -16.7 -3130.0 -163.3
v -16.7 -3130.0 163.3
v -16.7 -3130.0 490.0
v 0.0 -3130.0 -490.0
v 0.0 -3130.0 -163.3
v 0.0 -3130.0 163.3
v 0.0 -3130.0 490.0
v -50.0 -3200.0 -490.0
v -50.0 -3200.0 -163.3
v -50.0 -3200.0 163.3
v -50.0 -3200.0 490.0
v -50.0 -3176.7 -490.0
v -50.0 -3176.7 -163.3
v -50.0 -3176.7 163.3
v -50.0 -3176.7 490.0
v -50.0 -3153.3 -490.0
v -50.0 -3153.3 -163.3
v -50.0 -3153.3 163.3
v -50.0 -3153.3 490.0
v -50.0 -3130.0 -490.0
v -50.0 -3130.0 -163.3
v -50.0 -3130.0 163.3
v -50.0 -3130.0 490.0
v 0.0 -3200.0 -490.0
v 0.0 -3200.0 -163.3
v 0.0 -3200.0 163.3
v 0.0 -3200.0 490.0
v 0.0 -3176.7 -490.0
v 0.0 -3176.7 -163.3
v 0.0 -3176.7 163.3
v 0.0 -3176.7 490.0
v 0.0 -3153.3 -490.0
v 0.0 -3153.3 -163.3
v 0.0 -3153.3 163.3
v 0.0 -3153.3 490.0
v 0.0 -3130.0 -490.0
v 0.0 -3130.0 -163.3
v 0.0 -3130.0 163.3
v 0.0 -3130.0 490.0
v -50.0 -3200.0 -490.0
v -50.0 -3176.7 -490.0
v -50.0 -3153.3 -490.0
v -50.0 -3130.0 -490.0
v -33.3 -3200.0 -490.0
v -33.3 -3176.7 -490.0
v -33.3 -3153.3 -490.0
v -33.3 -3130.0 -490.0
v -16.7 -3200.0 -490.0
v -16.7 -3176.7 -490.0
v -16.7 -3153.3 -490.0
v -16.7 -3130.0 -490.0
v 0.0 -3200.0 -490.0
v 0.0 -3176.7 -490.0
v 0.0 -3153.3 -490.0
v 0.0 -3130.0 -490.0
v -50.0 -3200.0 490.0
v -50.0 -3176.7 490.0
v -50.0 -3153.3 490.0
v -50.0 -3130.0 490.0
v -33.3 -3200.0 490.0
v -33.3 -3176.7 490.0
v -33.3 -3153.3 490.0
v -33.3 -3130.0 490.0
v -16.7 -3200.0 490.0
v -16.7 -3176.7 490.0
v -16.7 -3153.3 490.0
v -16.7 -3130.0 490.0
v 0.0 -3200.0 490.0
v 0.0 -3176.7 490.0
v 0.0 -3153.3 490.0
v 0.0 -3130.0 490.0
v -50.0 -2080.0 -490.0
v -50.0 -2080.0 -163.3
v -50.0 -2080.0 163.3
v -50.0 -2080.0 490.0
v -33.3 -2080.0 -490.0
v -33.3 -2080.0 -163.3
v -33.3 -2080.0 163.3
v -33.3 -2080.0 490.0
v -16.7 -2080.0 -490.0
v -16.7 -2080.0 -163.3
v -16.7 -2080.0 163.3
v -16.7 -2080.0 490.0
v 0.0 -2080.0 -490.0
v 0.0 -2080.0 -163.3
v 0.0 -2080.0 163.3
v 0.0 -2080.0 490.0
v -50.0 -2010.0 -490.0
v -50.0 -2010.0 -163.3
v -50.0 -2010.0 163.3
v -50.0 -2010.0 490.0
v -33.3 -2010.0 -490.0
v -33.3 -2010.0 -163.3
v -33.3 -2010.0 163.3
v -33.3 -2010.0 490.0
v -16.7 -2010.0 -490.0
v -16.7 -2010.0 -163.3
v -16.7 -2010.0 163.3
v -16.7 -2010.0 490.0
v 0.0 -2010.0 -490.0
v 0.0 -2010.0 -163.3
v 0.0 -2010.0 163.3
v 0.0 -2010.0 490.0
v -50.0 -2080.0 -490.0
v -50.0 -2080.0 -163.3
v -50.0 -2080.0 163.3
v -50.0 -2080.0 490.0
v -50.0 -2056.7 -490.0
v -50.0 -2056.7 -163.3
v -50.0 -2056.7 163.3
v -50.0 -2056.7 490.0
v -50.0 -2033.3 -490.0
v -50.0 -2033.3 -163.3
v -50.0 -2033.3 163.3
v -50.0 -2033.3 490.0
v -50.0 -2010.0 -490.0
v -50.0 -2010.0 -163.3
v -50.0 -2010.0 163.3
v -50.0 -2010.0 490.0
v 0.0 -2080.0 -490.0
v 0.0 -2080.0 -163.3
v 0.0 -2080.0 163.3
v 0.0 -2080.0 490.0
v 0.0 -2056.7 -490.0
v 0.0 -2056.7 -163.3
v 0.0 -2056.7 163.3
v 0.0 -2056.7 490.0
v 0.0 -2033.3 -490.0
v 0.0 -2033.3 -163.3
v 0.0 -2033.3 163.3
v 0.0 -2033.3 490.0
v 0.0 -2010.0 -490.0
v 0.0 -2010.0 -163.3
v 0.0 -2010.0 163.3
v 0.0 -2010.0 490.0
v -50.0 -2080.0 -490.0
v -50.0 -2056.7 -490.0
v -50.0 -2033.3 -490.0
v -50.0 -2010.0 -490.0
v -33.3 -2080.0 -490.0
v -33.3 -2056.7 -490.0
v -33.3 -2033.3 -490.0
v -33.3 -2010.0 -490.0
v -16.7 -2080.0 -490.0
v -16.7 -2056.7 -490.0
v -16.7 -2033.3 -490.0
v -16.7 -2010.0 -490.0
v 0.0 -2080.0 -490.0
v 0.0 -2056.7 -490.0
v 0.0 -2033.3 -490.0
v 0.0 -2010.0 -490.0
v -50.0 -2080.0 490.0
v -50.0 -2056.7 490.0
v -50.0 -2033.3 490.0
v -50.0 -2010.0 490.0
v -33.3 -2080.0 490.0
v -33.3 -2056.7 490.0
v -33.3 -2033.3 490.0
v -33.3 -2010.0 490.0
v -16.7 -2080.0 490.0
v -16.7 -2056.7 490.0
v -16.7 -2033.3 490.0
v -16.7 -2010.0 490.0
v 0.0 -2080.0 490.0
v 0.0 -2056.7 490.0
v 0.0 -2033.3 490.0
v 0.0 -2010.0 490.0
v -50.0 -3130.0 -490.0
v -50.0 -3130.0 -466.7
v -50.0 -3130.0 -443.3
v -50.0 -3130.0 -420.0
v -33.3 -3130.0 -490.0
v -33.3 -3130.0 -466.7
v -33.3 -3130.0 -443.3
v -33.3 -3130.0 -420.0
v -16.7 -3130.0 -490.0
v -16.7 -3130.0 -466.7
v -16.7 -3130.0 -443.3
v -16.7 -3130.0 -420.0
v 0.0 -3130.0 -490.0
v 0.0 -3130.0 -466.7
v 0.0 -3130.0 -443.3
v 0.0 -3130.0 -420.0
v -50.0 -2080.0 -490.0
v -50.0 -2080.0 -466.7
v -50.0 -2080.0 -443.3
v -50.0 -2080.0 -420.0
v -33.3 -2080.0 -490.0
v -33.3 -2080.0 -466.7
v -33.3 -2080.0 -443.3
v -33.3 -2080.0 -420.0
v -16.7 -2080.0 -490.0
v -16.7 -2080.0 -466.7
v -16.7 -2080.0 -443.3
v -16.7 -2080.0 -420.0
v 0.0 -2080.0 -490.0
v 0.0 -2080.0 -466.7
v 0.0 -2080.0 -443.3
v 0.0 -2080.0 -420.0
v -50.0 -3130.0 -490.0
v -50.0 -3130.0 -466.7
v -50.0 -3130.0 -443.3
v -50.0 -3130.0 -420.0
v -50.0 -2780.0 -490.0
v -50.0 -2780.0 -466.7
v -50.0 -2780.0 -443.3
v -50.0 -2780.0 -420.0
v -50.0 -2430.0 -490.0
v -50.0 -2430.0 -466.7
v -50.0 -2430.0 -443.3
v -50.0 -2430.0 -420.0
v -50.0 -2080.0 -490.0
v -50.0 -2080.0 -466.7
v -50.0 -2080.0 -443.3
v -50.0 -2080.0 -420.0
v 0.0 -3130.0 -490.0
v 0.0 -3130.0 -466.7
v 0.0 -3130.0 -443.3
v 0.0 -3130.0 -420.0
v 0.0 -2780.0 -490.0
v 0.0 -2780.0 -466.7
v 0.0 -2780.0 -443.3
v 0.0 -2780.0 -420.0
v 0.0 -2430.0 -490.0
v 0.0 -2430.0 -466.7
v 0.0 -2430.0 -443.3
v 0.0 -2430.0 -420.0
v 0.0 -2080.0 -490.0
v 0.0 -2080.0 -466.7
v 0.0 -2080.0 -443.3
v 0.0 -2080.0 -420.0
v -50.0 -3130.0 -490.0
v -50.0 -2780.0 -490.0
v -50.0 -2430.0 -490.0
v -50.0 -2080.0 -490.0
v -33.3 -3130.0 -490.0
v -33.3 -2780.0 -490.0
v -33.3 -2430.0 -490.0
v -33.3 -2080.0 -490.0
v -16.7 -3130.0 -490.0
v -16.7 -2780.0 -490.0
v -16.7 -2430.0 -490.0
v -16.7 -2080.0 -490.0
v 0.0 -3130.0 -490.0
v 0.0 -2780.0 -490.0
v 0.0 -2430.0 -490.0
v 0.0 -2080.0 -490.0
v -50.0 -3130.0 -420.0
v -50.0 -2780.0 -420.0
v -50.0 -2430.0 -420.0
v -50.0 -2080.0 -420.0
v -33.3 -3130.0 -420.0
v -33.3 -2780.0 -420.0
v -33.3 -2430.0 -420.0
v -33.3 -2080.0 -420.0
v -16.7 -3130.0 -420.0
v -16.7 -2780.0 -420.0
v -16.7 -2430.0 -420.0
v -16.7 -2080.0 -420.0
v 0.0 -3130.0 -420.0
v 0.0 -2780.0 -420.0
v 0.0 -2430.0 -420.0
v 0.0 -2080.0 -420.0
v -50.0 -3130.0 420.0
v -50.0 -3130.0 443.3
v -50.0 -3130.0 466.7
v -50.0 -3130.0 490.0
v -33.3 -3130.0 420.0
v -33.3 -3130.0 443.3
v -33.3 -3130.0 466.7
v -33.3 -3130.0 490.0
v -16.7 -3130.0 420.0
v -16.7 -3130.0 443.3
v -16.7 -3130.0 466.7
v -16.7 -3130.0 490.0
v 0.0 -3130.0 420.0
v 0.0 -3130.0 443.3
v 0.0 -3130.0 466.7
v 0.0 -3130.0 490.0
v -50.0 -2080.0 420.0
v -50.0 -2080.0 443.3
v -50.0 -2080.0 466.7
v -50.0 -2080.0 490.0
v -33.3 -2080.0 420.0
v -33.3 -2080.0 443.3
v -33.3 -2080.0 466.7
v -33.3 -2080.0 490.0
v -16.7 -2080.0 420.0
v -16.7 -2080.0 443.3
v -16.7 -2080.0 466.7
v -16.7 -2080.0 490.0
v 0.0 -2080.0 420.0
v 0.0 -2080.0 443.3
v 0.0 -2080.0 466.7
v 0.0 -2080.0 490.0
v -50.0 -3130.0 420.0
v -50.0 -3130.0 443.3
v -50.0 -3130.0 466.7
v -50.0 -3130.0 490.0
v -50.0 -2780.0 420.0
v -50.0 -2780.0 443.3
v -50.0 -2780.0 466.7
v -50.0 -2780.0 490.0
v -50.0 -2430.0 420.0
v -50.0 -2430.0 443.3
v -50.0 -2430.0 466.7
v -50.0 -2430.0 490.0
v -50.0 -2080.0 420.0
v -50.0 -2080.0 443.3
v -50.0 -2080.0 466.7
v -50.0 -2080.0 490.0
v 0.0 -3130.0 420.0
v 0.0 -3130.0 443.3
v 0.0 -3130.0 466.7
v 0.0 -3130.0 490.0
v 0.0 -2780.0 420.0
v 0.0 -2780.0 443.3
v 0.0 -2780.0 466.7
v 0.0 -2780.0 490.0
v 0.0 -2430.0 420.0
v 0.0 -2430.0 443.3
v 0.0 -2430.0 466.7
v 0.0 -2430.0 490.0
v 0.0 -2080.0 420.0
v 0.0 -2080.0 443.3
v 0.0 -2080.0 466.7
v 0.0 -2080.0 490.0
v -50.0 -3130.0 420.0
v -50.0 -2780.0 420.0
v -50.0 -2430.0 420.0
v -50.0 -2080.0 420.0
v -33.3 -3130.0 420.0
v -33.3 -2780.0 420.0
v -33.3 -2430.0 420.0
v -33.3 -2080.0 420.0
v -16.7 -3130.0 420.0
v -16.7 -2780.0 420.0
v -16.7 -2430.0 420.0
v -16.7 -2080.0 420.0
v 0.0 -3130.0 420.0
v 0.0 -2780.0 420.0
v 0.0 -2430.0 420.0
v 0.0 -2080.0 420.0
v -50.0 -3130.0 490.0
v -50.0 -2780.0 490.0
v -50.0 -2430.0 490.0
v -50.0 -2080.0 490.0
v -33.3 -3130.0 490.0
v -33.3 -2780.0 490.0
v -33.3 -2430.0 490.0
v -33.3 -2080.0 490.0
v -16.7 -3130.0 490.0
v -16.7 -2780.0 490.0
v -16.7 -2430.0 490.0
v -16.7 -2080.0 490.0
v 0.0 -3130.0 490.0
v 0.0 -2780.0 490.0
v 0.0 -2430.0 490.0
v 0.0 -2080.0 490.0
f 1 5 6
f 1 6 2
f 2 6 7
f 2 7 3
f 3 7 8
f 3 8 4
f 5 9 10
f 5 10 6
f 6 10 11
f 6 11 7
f 7 11 12
f 7 12 8
f 9 13 14
f 9 14 10
f 10 14 15
f 10 15 11
f 11 15 16
f 11 16 12
f 17 22 21
f 17 18 22
f 18 23 22
f 18 19 23
f 19 24 23
f 19 20 24
f 21 26 25
f 21 22 26
f 22 27 26
f 22 23 27
f 23 28 27
f 23 24 28
f 25 30 29
f 25 26 30
f 26 31 30
f 26 27 31
f 27 32 31
f 27 28 32
f 33 38 37
f 33 34 38
f 34 39 38
f 34 35 39
f 35 40 39
f 35 36 40
f 37 42 41
f 37 38 42
f 38 43 42
f 38 39 43
f 39 44 43
f 39 40 44
f 41 46 45
f 41 42 46
f 42 47 46
f 42 43 47
f 43 48 47
f 43 44 48
f 49 53 54
f 49 54 50
f 50 54 55
f 50 55 51
f 51 55 56
f 51 56 52
f 53 57 58
f 53 58 54
f 54 58 59
f 54 59 55
f 55 59 60
f 55 60 56
f 57 61 62
f 57 62 58
f 58 62 63
f 58 63 59
f 59 63 64
f 59 64 60
f 65 70 69
f 65 66 70
f 66 71 70
f 66 67 71
f 67 72 71
f 67 68 72
f 69 74 73
f 69 70 74
f 70 75 74
f 70 71 75
f 71 76 75
f 71 72 76
f 73 78 77
f 73 74 78
f 74 79 78
f 74 75 79
f 75 80 79
f 75 76 80
f 81 85 86
f 81 86 82
f 82 86 87
f 82 87 83
f 83 87 88
f 83 88 84
f 85 89 90
f 85 90 86
f 86 90 91
f 86 91 87
f 87 91 92
f 87 92 88
f 89 93 94
f 89 94 90
f 90 94 95
f 90 95 91
f 91 95 96
f 91 96 92
f 97 101 102
f 97 102 98
f 98 102 103
f 98 103 99
f 99 103 104
f 99 104 100
f 101 105 106
f 101 106 102
f 102 106 107
f 102 107 103
f 103 107 108
f 103 108 104
f 105 109 110
f 105 110 106
f 106 110 111
f 106 111 107
f 107 111 112
f 107 112 108
f 113 118 117
f 113 114 118
f 114 119 118
f 114 115 119
f 115 120 119
f 115 116 120
f 117 122 121
f 117 118 122
f 118 123 122
f 118 119 123
f 119 124 123
f 119 120 124
f 121 126 125
f 121 122 126
f 122 127 126
f 122 123 127
f 123 128 127
f 123 124 128
f 129 134 133
f 129 130 134
f 130 135 134
f 130 131 135
f 131 136 135
f 131 132 136
f 133 138 137
f 133 134 138
f 134 139 138
f 134 135 139
f 135 140 139
f 135 136 140
f 137 142 141
f 137 138 142
f 138 143 142
f 138 139 143
f 139 144 143
f 139 140 144
f 145 149 150
f 145 150 146
f 146 150 151
f 146 151 147
f 147 151 152
f 147 152 148
f 149 153 154
f 149 154 150
f 150 154 155
f 150 155 151
f 151 155 156
f 151 156 152
f 153 157 158
f 153 158 154
f 154 158 159
f 154 159 155
f 155 159 160
f 155 160 156
f 161 166 165
f 161 162 166
f 162 167 166
f 162 163 167
f 163 168 167
f 163 164 168
f 165 170 169
f 165 166 170
f 166 171 170
f 166 167 171
f 167 172 171
f 167 168 172
f 169 174 173
f 169 170 174
f 170 175 174
f 170 171 175
f 171 176 175
f 171 172 176
f 177 181 182
f 177 182 178
f 178 182 183
f 178 183 179
f 179 183 184
f 179 184 180
f 181 185 186
f 181 186 182
f 182 186 187
f 182 187 183
f 183 187 188
f 183 188 184
f 185 189 190
f 185 190 186
f 186 190 191
f 186 191 187
f 187 191 192
f 187 192 188
f 193 197 198
f 193 198 194
f 194 198 199
f 194 199 195
f 195 199 200
f 195 200 196
f 197 201 202
f 197 202 198
f 198 202 203
f 198 203 199
f 199 203 204
f 199 204 200
f 201 205 206
f 201 206 202
f 202 206 207
f 202 207 203
f 203 207 208
f 203 208 204
f 209 214 213
f 209 210 214
f 210 215 214
f 210 211 215
f 211 216 215
f 211 212 216
f 213 218 217
f 213 214 218
f 214 219 218
f 214 215 219
f 215 220 219
f 215 216 220
f 217 222 221
f 217 218 222
f 218 223 222
f 218 219 223
f 219 224 223
f 219 220 224
f 225 230 229
f 225 226 230
f 226 231 230
f 226 227 231
f 227 232 231
f 227 228 232
f 229 234 233
f 229 230 234
f 230 235 234
f 230 231 235
f 231 236 235
f 231 232 236
f 233 238 237
f 233 234 238
f 234 239 238
f 234 235 239
f 235 240 239
f 235 236 240
f 241 245 246
f 241 246 242
f 242 246 247
f 242 247 243
f 243 247 248
f 243 248 244
f 245 249 250
f 245 250 246
f 246 250 251
f 246 251 247
f 247 251 252
f 247 252 248
f 249 253 254
f 249 254 250
f 250 254 255
f 250 255 251
f 251 255 256
f 251 256 252
f 257 262 261
f 257 258 262
f 258 263 262
f 258 259 263
f 259 264 263
f 259 260 264
f 261 266 265
f 261 262 266
f 262 267 266
f 262 263 267
f 263 268 267
f 263 264 268
f 265 270 269
f 265 266 270
f 266 271 270
f 266 267 271
f 267 272 271
f 267 268 272
f 273 277 278
f 273 278 274
f 274 278 279
f 274 279 275
f 275 279 280
f 275 280 276
f 277 281 282
f 277 282 278
f 278 282 283
f 278 283 279
f 279 283 284
f 279 284 280
f 281 285 286
f 281 286 282
f 282 286 287
f 282 287 283
f 283 287 288
f 283 288 284
f 289 293 294
f 289 294 290
f 290 294 295
f 290 295 291
f 291 295 296
f 291 296 292
f 293 297 298
f 293 298 294
f 294 298 299
f 294 299 295
f 295 299 300
f 295 300 296
f 297 301 302
f 297 302 298
f 298 302 303
f 298 303 299
f 299 303 304
f 299 304 300
f 305 310 309
f 305 306 310
f 306 311 310
f 306 307 311
f 307 312 311
f 307 308 312
f 309 314 313
f 309 310 314
f 310 315 314
f 310 311 315
f 311 316 315
f 311 312 316
f 313 318 317
f 313 314 318
f 314 319 318
f 314 315 319
f 315 320 319
f 315 316 320
f 321 326 325
f 321 322 326
f 322 327 326
f 322 323 327
f 323 328 327
f 323 324 328
f 325 330 329
f 325 326 330
f 326 331 330
f 326 327 331
f 327 332 331
f 327 328 332
f 329 334 333
f 329 330 334
f 330 335 334
f 330 331 335
f 331 336 335
f 331 332 336
f 337 341 342
f 337 342 338
f 338 342 343
f 338 343 339
f 339 343 344
f 339 344 340
f 341 345 346
f 341 346 342
f 342 346 347
f 342 347 343
f 343 347 348
f 343 348 344
f 345 349 350
f 345 350 346
f 346 350 351
f 346 351 347
f 347 351 352
f 347 352 348
f 353 358 357
f 353 354 358
f 354 359 358
f 354 355 359
f 355 360 359
f 355 356 360
f 357 362 361
f 357 358 362
f 358 363 362
f 358 359 363
f 359 364 363
f 359 360 364
f 361 366 365
f 361 362 366
f 362 367 366
f 362 363 367
f 363 368 367
f 363 364 368
f 369 373 374
f 369 374 370
f 370 374 375
f 370 375 371
f 371 375 376
f 371 376 372
f 373 377 378
f 373 378 374
f 374 378 379
f 374 379 375
f 375 379 380
f 375 380 376
f 377 381 382
f 377 382 378
f 378 382 383
f 378 383 379
f 379 383 384
f 379 384 380
