# m28.obj - tools/build_raid_meshes.py. Game units, Y negative up.
v -200.0 -520.0 498.0
v -200.0 -539.8 489.8
v -200.0 -548.0 470.0
v -200.0 -539.8 450.2
v -200.0 -520.0 442.0
v -200.0 -500.2 450.2
v -200.0 -492.0 470.0
v -200.0 -500.2 489.8
v -100.0 -520.0 498.0
v -100.0 -539.8 489.8
v -100.0 -548.0 470.0
v -100.0 -539.8 450.2
v -100.0 -520.0 442.0
v -100.0 -500.2 450.2
v -100.0 -492.0 470.0
v -100.0 -500.2 489.8
v -200.0 -520.0 498.0
v -200.0 -539.8 489.8
v -200.0 -548.0 470.0
v -200.0 -539.8 450.2
v -200.0 -520.0 442.0
v -200.0 -500.2 450.2
v -200.0 -492.0 470.0
v -200.0 -500.2 489.8
v -200.0 -520.0 470.0
v -100.0 -520.0 498.0
v -100.0 -539.8 489.8
v -100.0 -548.0 470.0
v -100.0 -539.8 450.2
v -100.0 -520.0 442.0
v -100.0 -500.2 450.2
v -100.0 -492.0 470.0
v -100.0 -500.2 489.8
v -100.0 -520.0 470.0
v 100.0 -520.0 498.0
v 100.0 -539.8 489.8
v 100.0 -548.0 470.0
v 100.0 -539.8 450.2
v 100.0 -520.0 442.0
v 100.0 -500.2 450.2
v 100.0 -492.0 470.0
v 100.0 -500.2 489.8
v 200.0 -520.0 498.0
v 200.0 -539.8 489.8
v 200.0 -548.0 470.0
v 200.0 -539.8 450.2
v 200.0 -520.0 442.0
v 200.0 -500.2 450.2
v 200.0 -492.0 470.0
v 200.0 -500.2 489.8
v 100.0 -520.0 498.0
v 100.0 -539.8 489.8
v 100.0 -548.0 470.0
v 100.0 -539.8 450.2
v 100.0 -520.0 442.0
v 100.0 -500.2 450.2
v 100.0 -492.0 470.0
v 100.0 -500.2 489.8
v 100.0 -520.0 470.0
v 200.0 -520.0 498.0
v 200.0 -539.8 489.8
v 200.0 -548.0 470.0
v 200.0 -539.8 450.2
v 200.0 -520.0 442.0
v 200.0 -500.2 450.2
v 200.0 -492.0 470.0
v 200.0 -500.2 489.8
v 200.0 -520.0 470.0
v 416.0 -495.0 -20.0
v 408.7 -495.0 94.5
v 387.1 -495.0 191.3
v 351.7 -495.0 276.5
v 303.6 -495.0 349.2
v 243.8 -495.0 407.8
v 173.7 -495.0 450.9
v 94.2 -495.0 477.2
v 0.0 -495.0 486.0
v -94.2 -495.0 477.2
v -173.7 -495.0 450.9
v -243.8 -495.0 407.8
v -303.6 -495.0 349.2
v -351.7 -495.0 276.5
v -387.1 -495.0 191.3
v -408.7 -495.0 94.5
v -416.0 -495.0 -20.0
v -408.7 -495.0 -134.5
v -387.1 -495.0 -231.3
v -351.7 -495.0 -316.5
v -303.6 -495.0 -389.2
v -243.8 -495.0 -447.8
v -173.7 -495.0 -490.9
v -94.2 -495.0 -517.2
v -0.0 -495.0 -526.0
v 94.2 -495.0 -517.2
v 173.7 -495.0 -490.9
v 243.8 -495.0 -447.8
v 303.6 -495.0 -389.2
v 351.7 -495.0 -316.5
v 387.1 -495.0 -231.3
v 408.7 -495.0 -134.5
v 422.0 -470.0 -20.0
v 414.6 -470.0 95.9
v 392.7 -470.0 193.8
v 356.8 -470.0 280.1
v 308.0 -470.0 353.6
v 247.3 -470.0 412.9
v 176.2 -470.0 456.4
v 95.5 -470.0 483.0
v 0.0 -470.0 492.0
v -95.5 -470.0 483.0
v -176.2 -470.0 456.4
v -247.3 -470.0 412.9
v -308.0 -470.0 353.6
v -356.8 -470.0 280.1
v -392.7 -470.0 193.8
v -414.6 -470.0 95.9
v -422.0 -470.0 -20.0
v -414.6 -470.0 -135.9
v -392.7 -470.0 -233.8
v -356.8 -470.0 -320.1
v -308.0 -470.0 -393.6
v -247.3 -470.0 -452.9
v -176.2 -470.0 -496.4
v -95.5 -470.0 -523.0
v -0.0 -470.0 -532.0
v 95.5 -470.0 -523.0
v 176.2 -470.0 -496.4
v 247.3 -470.0 -452.9
v 308.0 -470.0 -393.6
v 356.8 -470.0 -320.1
v 392.7 -470.0 -233.8
v 414.6 -470.0 -135.9
v 416.0 -445.0 -20.0
v 408.7 -445.0 94.5
v 387.1 -445.0 191.3
v 351.7 -445.0 276.5
v 303.6 -445.0 349.2
v 243.8 -445.0 407.8
v 173.7 -445.0 450.9
v 94.2 -445.0 477.2
v 0.0 -445.0 486.0
v -94.2 -445.0 477.2
v -173.7 -445.0 450.9
v -243.8 -445.0 407.8
v -303.6 -445.0 349.2
v -351.7 -445.0 276.5
v -387.1 -445.0 191.3
v -408.7 -445.0 94.5
v -416.0 -445.0 -20.0
v -408.7 -445.0 -134.5
v -387.1 -445.0 -231.3
v -351.7 -445.0 -316.5
v -303.6 -445.0 -389.2
v -243.8 -445.0 -447.8
v -173.7 -445.0 -490.9
v -94.2 -445.0 -517.2
v -0.0 -445.0 -526.0
v 94.2 -445.0 -517.2
v 173.7 -445.0 -490.9
v 243.8 -445.0 -447.8
v 303.6 -445.0 -389.2
v 351.7 -445.0 -316.5
v 387.1 -445.0 -231.3
v 408.7 -445.0 -134.5
f 1 2 10
f 1 10 9
f 2 3 11
f 2 11 10
f 3 4 12
f 3 12 11
f 4 5 13
f 4 13 12
f 5 6 14
f 5 14 13
f 6 7 15
f 6 15 14
f 7 8 16
f 7 16 15
f 8 1 9
f 8 9 16
f 25 18 17
f 25 19 18
f 25 20 19
f 25 21 20
f 25 22 21
f 25 23 22
f 25 24 23
f 25 17 24
f 34 26 27
f 34 27 28
f 34 28 29
f 34 29 30
f 34 30 31
f 34 31 32
f 34 32 33
f 34 33 26
f 35 36 44
f 35 44 43
f 36 37 45
f 36 45 44
f 37 38 46
f 37 46 45
f 38 39 47
f 38 47 46
f 39 40 48
f 39 48 47
f 40 41 49
f 40 49 48
f 41 42 50
f 41 50 49
f 42 35 43
f 42 43 50
f 59 52 51
f 59 53 52
f 59 54 53
f 59 55 54
f 59 56 55
f 59 57 56
f 59 58 57
f 59 51 58
f 68 60 61
f 68 61 62
f 68 62 63
f 68 63 64
f 68 64 65
f 68 65 66
f 68 66 67
f 68 67 60
f 69 102 70
f 69 101 102
f 70 103 71
f 70 102 103
f 71 104 72
f 71 103 104
f 72 105 73
f 72 104 105
f 73 106 74
f 73 105 106
f 74 107 75
f 74 106 107
f 75 108 76
f 75 107 108
f 76 109 77
f 76 108 109
f 77 110 78
f 77 109 110
f 78 111 79
f 78 110 111
f 79 112 80
f 79 111 112
f 80 113 81
f 80 112 113
f 81 114 82
f 81 113 114
f 82 115 83
f 82 114 115
f 83 116 84
f 83 115 116
f 84 117 85
f 84 116 117
f 85 118 86
f 85 117 118
f 86 119 87
f 86 118 119
f 87 120 88
f 87 119 120
f 88 121 89
f 88 120 121
f 89 122 90
f 89 121 122
f 90 123 91
f 90 122 123
f 91 124 92
f 91 123 124
f 92 125 93
f 92 124 125
f 93 126 94
f 93 125 126
f 94 127 95
f 94 126 127
f 95 128 96
f 95 127 128
f 96 129 97
f 96 128 129
f 97 130 98
f 97 129 130
f 98 131 99
f 98 130 131
f 99 132 100
f 99 131 132
f 100 101 69
f 100 132 101
f 101 134 102
f 101 133 134
f 102 135 103
f 102 134 135
f 103 136 104
f 103 135 136
f 104 137 105
f 104 136 137
f 105 138 106
f 105 137 138
f 106 139 107
f 106 138 139
f 107 140 108
f 107 139 140
f 108 141 109
f 108 140 141
f 109 142 110
f 109 141 142
f 110 143 111
f 110 142 143
f 111 144 112
f 111 143 144
f 112 145 113
f 112 144 145
f 113 146 114
f 113 145 146
f 114 147 115
f 114 146 147
f 115 148 116
f 115 147 148
f 116 149 117
f 116 148 149
f 117 150 118
f 117 149 150
f 118 151 119
f 118 150 151
f 119 152 120
f 119 151 152
f 120 153 121
f 120 152 153
f 121 154 122
f 121 153 154
f 122 155 123
f 122 154 155
f 123 156 124
f 123 155 156
f 124 157 125
f 124 156 157
f 125 158 126
f 125 157 158
f 126 159 127
f 126 158 159
f 127 160 128
f 127 159 160
f 128 161 129
f 128 160 161
f 129 162 130
f 129 161 162
f 130 163 131
f 130 162 163
f 131 164 132
f 131 163 164
f 132 133 101
f 132 164 133
