# m29.obj - tools/build_raid_meshes.py. Game units, Y negative up.
v 40.0 0.0 0.0
v 32.4 -23.5 0.0
v 12.4 -38.0 0.0
v -12.4 -38.0 0.0
v -32.4 -23.5 0.0
v -40.0 -0.0 0.0
v -32.4 23.5 0.0
v -12.4 38.0 0.0
v 12.4 38.0 0.0
v 32.4 23.5 0.0
v 34.0 0.0 -60.0
v 27.5 -20.0 -60.0
v 10.5 -32.3 -60.0
v -10.5 -32.3 -60.0
v -27.5 -20.0 -60.0
v -34.0 -0.0 -60.0
v -27.5 20.0 -60.0
v -10.5 32.3 -60.0
v 10.5 32.3 -60.0
v 27.5 20.0 -60.0
v 40.0 0.0 0.0
v 32.4 -23.5 0.0
v 12.4 -38.0 0.0
v -12.4 -38.0 0.0
v -32.4 -23.5 0.0
v -40.0 -0.0 0.0
v -32.4 23.5 0.0
v -12.4 38.0 0.0
v 12.4 38.0 0.0
v 32.4 23.5 0.0
v 0.0 0.0 0.0
v 34.0 0.0 -60.0
v 27.5 -20.0 -60.0
v 10.5 -32.3 -60.0
v -10.5 -32.3 -60.0
v -27.5 -20.0 -60.0
v -34.0 -0.0 -60.0
v -27.5 20.0 -60.0
v -10.5 32.3 -60.0
v 10.5 32.3 -60.0
v 27.5 20.0 -60.0
v 0.0 0.0 -60.0
v 30.0 0.0 -60.0
v 24.3 -17.6 -60.0
v 9.3 -28.5 -60.0
v -9.3 -28.5 -60.0
v -24.3 -17.6 -60.0
v -30.0 -0.0 -60.0
v -24.3 17.6 -60.0
v -9.3 28.5 -60.0
v 9.3 28.5 -60.0
v 24.3 17.6 -60.0
v 30.0 0.0 -120.0
v 24.3 -17.6 -120.0
v 9.3 -28.5 -120.0
v -9.3 -28.5 -120.0
v -24.3 -17.6 -120.0
v -30.0 -0.0 -120.0
v -24.3 17.6 -120.0
v -9.3 28.5 -120.0
v 9.3 28.5 -120.0
v 24.3 17.6 -120.0
v 30.0 0.0 -60.0
v 24.3 -17.6 -60.0
v 9.3 -28.5 -60.0
v -9.3 -28.5 -60.0
v -24.3 -17.6 -60.0
v -30.0 -0.0 -60.0
v -24.3 17.6 -60.0
v -9.3 28.5 -60.0
v 9.3 28.5 -60.0
v 24.3 17.6 -60.0
v 0.0 0.0 -60.0
v 30.0 0.0 -120.0
v 24.3 -17.6 -120.0
v 9.3 -28.5 -120.0
v -9.3 -28.5 -120.0
v -24.3 -17.6 -120.0
v -30.0 -0.0 -120.0
v -24.3 17.6 -120.0
v -9.3 28.5 -120.0
v 9.3 28.5 -120.0
v 24.3 17.6 -120.0
v 0.0 0.0 -120.0
v 0.0 0.0 -144.0
v -17.0 0.0 -137.0
v -24.0 0.0 -120.0
v -17.0 0.0 -103.0
v -0.0 0.0 -96.0
v 17.0 0.0 -103.0
v 24.0 0.0 -120.0
v 17.0 0.0 -137.0
v 0.0 150.0 -144.0
v -17.0 150.0 -137.0
v -24.0 150.0 -120.0
v -17.0 150.0 -103.0
v -0.0 150.0 -96.0
v 17.0 150.0 -103.0
v 24.0 150.0 -120.0
v 17.0 150.0 -137.0
v 0.0 0.0 -144.0
v -17.0 0.0 -137.0
v -24.0 0.0 -120.0
v -17.0 0.0 -103.0
v -0.0 0.0 -96.0
v 17.0 0.0 -103.0
v 24.0 0.0 -120.0
v 17.0 0.0 -137.0
v 0.0 0.0 -120.0
v 0.0 -10.0 -80.0
v -8.7 -10.0 -85.0
v -8.7 -10.0 -95.0
v -0.0 -10.0 -100.0
v 8.7 -10.0 -95.0
v 8.7 -10.0 -85.0
v 0.0 -70.0 -80.0
v -8.7 -70.0 -85.0
v -8.7 -70.0 -95.0
v -0.0 -70.0 -100.0
v 8.7 -70.0 -95.0
v 8.7 -70.0 -85.0
v 0.0 -10.0 -80.0
v -8.7 -10.0 -85.0
v -8.7 -10.0 -95.0
v -0.0 -10.0 -100.0
v 8.7 -10.0 -95.0
v 8.7 -10.0 -85.0
v 0.0 -10.0 -90.0
v 0.0 -70.0 -80.0
v -8.7 -70.0 -85.0
v -8.7 -70.0 -95.0
v -0.0 -70.0 -100.0
v 8.7 -70.0 -95.0
v 8.7 -70.0 -85.0
v 0.0 -70.0 -90.0
v -40.0 -80.0 -78.0
v -40.0 -90.4 -84.0
v -40.0 -90.4 -96.0
v -40.0 -80.0 -102.0
v -40.0 -69.6 -96.0
v -40.0 -69.6 -84.0
v 40.0 -80.0 -78.0
v 40.0 -90.4 -84.0
v 40.0 -90.4 -96.0
v 40.0 -80.0 -102.0
v 40.0 -69.6 -96.0
v 40.0 -69.6 -84.0
v -40.0 -80.0 -78.0
v -40.0 -90.4 -84.0
v -40.0 -90.4 -96.0
v -40.0 -80.0 -102.0
v -40.0 -69.6 -96.0
v -40.0 -69.6 -84.0
v -40.0 -80.0 -90.0
v 40.0 -80.0 -78.0
v 40.0 -90.4 -84.0
v 40.0 -90.4 -96.0
v 40.0 -80.0 -102.0
v 40.0 -69.6 -96.0
v 40.0 -69.6 -84.0
v 40.0 -80.0 -90.0
v -12.0 -80.0 -130.0
v -6.0 -90.4 -130.0
v 6.0 -90.4 -130.0
v 12.0 -80.0 -130.0
v 6.0 -69.6 -130.0
v -6.0 -69.6 -130.0
v -12.0 -80.0 -50.0
v -6.0 -90.4 -50.0
v 6.0 -90.4 -50.0
v 12.0 -80.0 -50.0
v 6.0 -69.6 -50.0
v -6.0 -69.6 -50.0
v -12.0 -80.0 -130.0
v -6.0 -90.4 -130.0
v 6.0 -90.4 -130.0
v 12.0 -80.0 -130.0
v 6.0 -69.6 -130.0
v -6.0 -69.6 -130.0
v 0.0 -80.0 -130.0
v -12.0 -80.0 -50.0
v -6.0 -90.4 -50.0
v 6.0 -90.4 -50.0
v 12.0 -80.0 -50.0
v 6.0 -69.6 -50.0
v -6.0 -69.6 -50.0
v 0.0 -80.0 -50.0
f 1 2 12
f 1 12 11
f 2 3 13
f 2 13 12
f 3 4 14
f 3 14 13
f 4 5 15
f 4 15 14
f 5 6 16
f 5 16 15
f 6 7 17
f 6 17 16
f 7 8 18
f 7 18 17
f 8 9 19
f 8 19 18
f 9 10 20
f 9 20 19
f 10 1 11
f 10 11 20
f 31 22 21
f 31 23 22
f 31 24 23
f 31 25 24
f 31 26 25
f 31 27 26
f 31 28 27
f 31 29 28
f 31 30 29
f 31 21 30
f 42 32 33
f 42 33 34
f 42 34 35
f 42 35 36
f 42 36 37
f 42 37 38
f 42 38 39
f 42 39 40
f 42 40 41
f 42 41 32
f 43 44 54
f 43 54 53
f 44 45 55
f 44 55 54
f 45 46 56
f 45 56 55
f 46 47 57
f 46 57 56
f 47 48 58
f 47 58 57
f 48 49 59
f 48 59 58
f 49 50 60
f 49 60 59
f 50 51 61
f 50 61 60
f 51 52 62
f 51 62 61
f 52 43 53
f 52 53 62
f 73 64 63
f 73 65 64
f 73 66 65
f 73 67 66
f 73 68 67
f 73 69 68
f 73 70 69
f 73 71 70
f 73 72 71
f 73 63 72
f 84 74 75
f 84 75 76
f 84 76 77
f 84 77 78
f 84 78 79
f 84 79 80
f 84 80 81
f 84 81 82
f 84 82 83
f 84 83 74
f 85 86 94
f 85 94 93
f 86 87 95
f 86 95 94
f 87 88 96
f 87 96 95
f 88 89 97
f 88 97 96
f 89 90 98
f 89 98 97
f 90 91 99
f 90 99 98
f 91 92 100
f 91 100 99
f 92 85 93
f 92 93 100
f 109 102 101
f 109 103 102
f 109 104 103
f 109 105 104
f 109 106 105
f 109 107 106
f 109 108 107
f 109 101 108
f 110 111 117
f 110 117 116
f 111 112 118
f 111 118 117
f 112 113 119
f 112 119 118
f 113 114 120
f 113 120 119
f 114 115 121
f 114 121 120
f 115 110 116
f 115 116 121
f 128 123 122
f 128 124 123
f 128 125 124
f 128 126 125
f 128 127 126
f 128 122 127
f 135 129 130
f 135 130 131
f 135 131 132
f 135 132 133
f 135 133 134
f 135 134 129
f 136 137 143
f 136 143 142
f 137 138 144
f 137 144 143
f 138 139 145
f 138 145 144
f 139 140 146
f 139 146 145
f 140 141 147
f 140 147 146
f 141 136 142
f 141 142 147
f 154 149 148
f 154 150 149
f 154 151 150
f 154 152 151
f 154 153 152
f 154 148 153
f 161 155 156
f 161 156 157
f 161 157 158
f 161 158 159
f 161 159 160
f 161 160 155
f 162 163 169
f 162 169 168
f 163 164 170
f 163 170 169
f 164 165 171
f 164 171 170
f 165 166 172
f 165 172 171
f 166 167 173
f 166 173 172
f 167 162 168
f 167 168 173
f 180 175 174
f 180 176 175
f 180 177 176
f 180 178 177
f 180 179 178
f 180 174 179
f 187 181 182
f 187 182 183
f 187 183 184
f 187 184 185
f 187 185 186
f 187 186 181
