# m3.obj - tools/build_raid_meshes.py. Game units, Y negative up.
v 410.0 -500.0 -20.0
v 400.6 -500.0 107.5
v 372.9 -500.0 214.1
v 327.8 -500.0 305.4
v 266.8 -500.0 379.8
v 191.9 -500.0 434.8
v 104.6 -500.0 468.6
v 0.0 -500.0 480.0
v -104.6 -500.0 468.6
v -191.9 -500.0 434.8
v -266.8 -500.0 379.8
v -327.8 -500.0 305.4
v -372.9 -500.0 214.1
v -400.6 -500.0 107.5
v -410.0 -500.0 -20.0
v -400.6 -500.0 -147.5
v -372.9 -500.0 -254.1
v -327.8 -500.0 -345.4
v -266.8 -500.0 -419.8
v -191.9 -500.0 -474.8
v -104.6 -500.0 -508.6
v -0.0 -500.0 -520.0
v 104.6 -500.0 -508.6
v 191.9 -500.0 -474.8
v 266.8 -500.0 -419.8
v 327.8 -500.0 -345.4
v 372.9 -500.0 -254.1
v 400.6 -500.0 -147.5
v 410.0 -440.0 -20.0
v 400.6 -440.0 107.5
v 372.9 -440.0 214.1
v 327.8 -440.0 305.4
v 266.8 -440.0 379.8
v 191.9 -440.0 434.8
v 104.6 -440.0 468.6
v 0.0 -440.0 480.0
v -104.6 -440.0 468.6
v -191.9 -440.0 434.8
v -266.8 -440.0 379.8
v -327.8 -440.0 305.4
v -372.9 -440.0 214.1
v -400.6 -440.0 107.5
v -410.0 -440.0 -20.0
v -400.6 -440.0 -147.5
v -372.9 -440.0 -254.1
v -327.8 -440.0 -345.4
v -266.8 -440.0 -419.8
v -191.9 -440.0 -474.8
v -104.6 -440.0 -508.6
v -0.0 -440.0 -520.0
v 104.6 -440.0 -508.6
v 191.9 -440.0 -474.8
v 266.8 -440.0 -419.8
v 327.8 -440.0 -345.4
v 372.9 -440.0 -254.1
v 400.6 -440.0 -147.5
v 0.0 -500.0 -20.0
f 29 30 2
f 29 2 1
f 30 31 3
f 30 3 2
f 31 32 4
f 31 4 3
f 32 33 5
f 32 5 4
f 33 34 6
f 33 6 5
f 34 35 7
f 34 7 6
f 35 36 8
f 35 8 7
f 36 37 9
f 36 9 8
f 37 38 10
f 37 10 9
f 38 39 11
f 38 11 10
f 39 40 12
f 39 12 11
f 40 41 13
f 40 13 12
f 41 42 14
f 41 14 13
f 42 43 15
f 42 15 14
f 43 44 16
f 43 16 15
f 44 45 17
f 44 17 16
f 45 46 18
f 45 18 17
f 46 47 19
f 46 19 18
f 47 48 20
f 47 20 19
f 48 49 21
f 48 21 20
f 49 50 22
f 49 22 21
f 50 51 23
f 50 23 22
f 51 52 24
f 51 24 23
f 52 53 25
f 52 25 24
f 53 54 26
f 53 26 25
f 54 55 27
f 54 27 26
f 55 56 28
f 55 28 27
f 56 29 1
f 56 1 28
f 57 1 2
f 57 2 3
f 57 3 4
f 57 4 5
f 57 5 6
f 57 6 7
f 57 7 8
f 57 8 9
f 57 9 10
f 57 10 11
f 57 11 12
f 57 12 13
f 57 13 14
f 57 14 15
f 57 15 16
f 57 16 17
f 57 17 18
f 57 18 19
f 57 19 20
f 57 20 21
f 57 21 22
f 57 22 23
f 57 23 24
f 57 24 25
f 57 25 26
f 57 26 27
f 57 27 28
f 57 28 1
