# m30.obj - tools/build_raid_meshes.py. Game units, Y negative up.
v 0.0 -3195.0 -23.0
v 0.0 -3195.0 23.0
v 1400.0 -3195.0 -23.0
v 1400.0 -3195.0 23.0
v 0.0 0.0 -23.0
v 0.0 0.0 23.0
v 1400.0 0.0 -23.0
v 1400.0 0.0 23.0
v 0.0 -3195.0 -23.0
v 0.0 -3195.0 23.0
v 0.0 0.0 -23.0
v 0.0 0.0 23.0
v 1400.0 -3195.0 -23.0
v 1400.0 -3195.0 23.0
v 1400.0 0.0 -23.0
v 1400.0 0.0 23.0
v 0.0 -3195.0 -23.0
v 0.0 0.0 -23.0
v 1400.0 -3195.0 -23.0
v 1400.0 0.0 -23.0
v 0.0 -3195.0 23.0
v 0.0 0.0 23.0
v 1400.0 -3195.0 23.0
v 1400.0 0.0 23.0
v 154.2 -2992.0 -33.0
v 154.2 -2992.0 -23.0
v 569.5 -2992.0 -33.0
v 569.5 -2992.0 -23.0
v 154.2 -1553.0 -33.0
v 154.2 -1553.0 -23.0
v 569.5 -1553.0 -33.0
v 569.5 -1553.0 -23.0
v 154.2 -2992.0 -33.0
v 154.2 -2992.0 -23.0
v 154.2 -1553.0 -33.0
v 154.2 -1553.0 -23.0
v 569.5 -2992.0 -33.0
v 569.5 -2992.0 -23.0
v 569.5 -1553.0 -33.0
v 569.5 -1553.0 -23.0
v 154.2 -2992.0 -33.0
v 154.2 -1553.0 -33.0
v 569.5 -2992.0 -33.0
v 569.5 -1553.0 -33.0
v 154.2 -2992.0 -23.0
v 154.2 -1553.0 -23.0
v 569.5 -2992.0 -23.0
v 569.5 -1553.0 -23.0
v 154.2 -2992.0 23.0
v 154.2 -2992.0 33.0
v 569.5 -2992.0 23.0
v 569.5 -2992.0 33.0
v 154.2 -1553.0 23.0
v 154.2 -1553.0 33.0
v 569.5 -1553.0 23.0
v 569.5 -1553.0 33.0
v 154.2 -2992.0 23.0
v 154.2 -2992.0 33.0
v 154.2 -1553.0 23.0
v 154.2 -1553.0 33.0
v 569.5 -2992.0 23.0
v 569.5 -2992.0 33.0
v 569.5 -1553.0 23.0
v 569.5 -1553.0 33.0
v 154.2 -2992.0 23.0
v 154.2 -1553.0 23.0
v 569.5 -2992.0 23.0
v 569.5 -1553.0 23.0
v 154.2 -2992.0 33.0
v 154.2 -1553.0 33.0
v 569.5 -2992.0 33.0
v 569.5 -1553.0 33.0
v 154.2 -1203.0 -33.0
v 154.2 -1203.0 -23.0
v 569.5 -1203.0 -33.0
v 569.5 -1203.0 -23.0
v 154.2 -207.0 -33.0
v 154.2 -207.0 -23.0
v 569.5 -207.0 -33.0
v 569.5 -207.0 -23.0
v 154.2 -1203.0 -33.0
v 154.2 -1203.0 -23.0
v 154.2 -207.0 -33.0
v 154.2 -207.0 -23.0
v 569.5 -1203.0 -33.0
v 569.5 -1203.0 -23.0
v 569.5 -207.0 -33.0
v 569.5 -207.0 -23.0
v 154.2 -1203.0 -33.0
v 154.2 -207.0 -33.0
v 569.5 -1203.0 -33.0
v 569.5 -207.0 -33.0
v 154.2 -1203.0 -23.0
v 154.2 -207.0 -23.0
v 569.5 -1203.0 -23.0
v 569.5 -207.0 -23.0
v 154.2 -1203.0 23.0
v 154.2 -1203.0 33.0
v 569.5 -1203.0 23.0
v 569.5 -1203.0 33.0
v 154.2 -207.0 23.0
v 154.2 -207.0 33.0
v 569.5 -207.0 23.0
v 569.5 -207.0 33.0
v 154.2 -1203.0 23.0
v 154.2 -1203.0 33.0
v 154.2 -207.0 23.0
v 154.2 -207.0 33.0
v 569.5 -1203.0 23.0
v 569.5 -1203.0 33.0
v 569.5 -207.0 23.0
v 569.5 -207.0 33.0
v 154.2 -1203.0 23.0
v 154.2 -207.0 23.0
v 569.5 -1203.0 23.0
v 569.5 -207.0 23.0
v 154.2 -1203.0 33.0
v 154.2 -207.0 33.0
v 569.5 -1203.0 33.0
v 569.5 -207.0 33.0
v 634.7 -2992.0 -33.0
v 634.7 -2992.0 -23.0
v 1093.9 -2992.0 -33.0
v 1093.9 -2992.0 -23.0
v 634.7 -1553.0 -33.0
v 634.7 -1553.0 -23.0
v 1093.9 -1553.0 -33.0
v 1093.9 -1553.0 -23.0
v 634.7 -2992.0 -33.0
v 634.7 -2992.0 -23.0
v 634.7 -1553.0 -33.0
v 634.7 -1553.0 -23.0
v 1093.9 -2992.0 -33.0
v 1093.9 -2992.0 -23.0
v 1093.9 -1553.0 -33.0
v 1093.9 -1553.0 -23.0
v 634.7 -2992.0 -33.0
v 634.7 -1553.0 -33.0
v 1093.9 -2992.0 -33.0
v 1093.9 -1553.0 -33.0
v 634.7 -2992.0 -23.0
v 634.7 -1553.0 -23.0
v 1093.9 -2992.0 -23.0
v 1093.9 -1553.0 -23.0
v 634.7 -2992.0 23.0
v 634.7 -2992.0 33.0
v 1093.9 -2992.0 23.0
v 1093.9 -2992.0 33.0
v 634.7 -1553.0 23.0
v 634.7 -1553.0 33.0
v 1093.9 -1553.0 23.0
v 1093.9 -1553.0 33.0
v 634.7 -2992.0 23.0
v 634.7 -2992.0 33.0
v 634.7 -1553.0 23.0
v 634.7 -1553.0 33.0
v 1093.9 -2992.0 23.0
v 1093.9 -2992.0 33.0
v 1093.9 -1553.0 23.0
v 1093.9 -1553.0 33.0
v 634.7 -2992.0 23.0
v 634.7 -1553.0 23.0
v 1093.9 -2992.0 23.0
v 1093.9 -1553.0 23.0
v 634.7 -2992.0 33.0
v 634.7 -1553.0 33.0
v 1093.9 -2992.0 33.0
v 1093.9 -1553.0 33.0
v 634.7 -1203.0 -33.0
v 634.7 -1203.0 -23.0
v 1093.9 -1203.0 -33.0
v 1093.9 -1203.0 -23.0
v 634.7 -207.0 -33.0
v 634.7 -207.0 -23.0
v 1093.9 -207.0 -33.0
v 1093.9 -207.0 -23.0
v 634.7 -1203.0 -33.0
v 634.7 -1203.0 -23.0
v 634.7 -207.0 -33.0
v 634.7 -207.0 -23.0
v 1093.9 -1203.0 -33.0
v 1093.9 -1203.0 -23.0
v 1093.9 -207.0 -33.0
v 1093.9 -207.0 -23.0
v 634.7 -1203.0 -33.0
v 634.7 -207.0 -33.0
v 1093.9 -1203.0 -33.0
v 1093.9 -207.0 -33.0
v 634.7 -1203.0 -23.0
v 634.7 -207.0 -23.0
v 1093.9 -1203.0 -23.0
v 1093.9 -207.0 -23.0
v 634.7 -1203.0 23.0
v 634.7 -1203.0 33.0
v 1093.9 -1203.0 23.0
v 1093.9 -1203.0 33.0
v 634.7 -207.0 23.0
v 634.7 -207.0 33.0
v 1093.9 -207.0 23.0
v 1093.9 -207.0 33.0
v 634.7 -1203.0 23.0
v 634.7 -1203.0 33.0
v 634.7 -207.0 23.0
v 634.7 -207.0 33.0
v 1093.9 -1203.0 23.0
v 1093.9 -1203.0 33.0
v 1093.9 -207.0 23.0
v 1093.9 -207.0 33.0
v 634.7 -1203.0 23.0
v 634.7 -207.0 23.0
v 1093.9 -1203.0 23.0
v 1093.9 -207.0 23.0
v 634.7 -1203.0 33.0
v 634.7 -207.0 33.0
v 1093.9 -1203.0 33.0
v 1093.9 -207.0 33.0
f 1 3 4
f 1 4 2
f 5 8 7
f 5 6 8
f 9 12 11
f 9 10 12
f 13 15 16
f 13 16 14
f 17 20 19
f 17 18 20
f 21 23 24
f 21 24 22
f 25 27 28
f 25 28 26
f 29 32 31
f 29 30 32
f 33 36 35
f 33 34 36
f 37 39 40
f 37 40 38
f 41 44 43
f 41 42 44
f 45 47 48
f 45 48 46
f 49 51 52
f 49 52 50
f 53 56 55
f 53 54 56
f 57 60 59
f 57 58 60
f 61 63 64
f 61 64 62
f 65 68 67
f 65 66 68
f 69 71 72
f 69 72 70
f 73 75 76
f 73 76 74
f 77 80 79
f 77 78 80
f 81 84 83
f 81 82 84
f 85 87 88
f 85 88 86
f 89 92 91
f 89 90 92
f 93 95 96
f 93 96 94
f 97 99 100
f 97 100 98
f 101 104 103
f 101 102 104
f 105 108 107
f 105 106 108
f 109 111 112
f 109 112 110
f 113 116 115
f 113 114 116
f 117 119 120
f 117 120 118
f 121 123 124
f 121 124 122
f 125 128 127
f 125 126 128
f 129 132 131
f 129 130 132
f 133 135 136
f 133 136 134
f 137 140 139
f 137 138 140
f 141 143 144
f 141 144 142
f 145 147 148
f 145 148 146
f 149 152 151
f 149 150 152
f 153 156 155
f 153 154 156
f 157 159 160
f 157 160 158
f 161 164 163
f 161 162 164
f 165 167 168
f 165 168 166
f 169 171 172
f 169 172 170
f 173 176 175
f 173 174 176
f 177 180 179
f 177 178 180
f 181 183 184
f 181 184 182
f 185 188 187
f 185 186 188
f 189 191 192
f 189 192 190
f 193 195 196
f 193 196 194
f 197 200 199
f 197 198 200
f 201 204 203
f 201 202 204
f 205 207 208
f 205 208 206
f 209 212 211
f 209 210 212
f 213 215 216
f 213 216 214
