# m31.obj - tools/build_raid_meshes.py. Game units, Y negative up.
v 1220.0 -1360.0 -23.0
v 1220.0 -1360.0 -31.0
v 1300.0 -1360.0 -23.0
v 1300.0 -1360.0 -31.0
v 1220.0 -1130.0 -23.0
v 1220.0 -1130.0 -31.0
v 1300.0 -1130.0 -23.0
v 1300.0 -1130.0 -31.0
v 1220.0 -1360.0 -23.0
v 1220.0 -1360.0 -31.0
v 1220.0 -1130.0 -23.0
v 1220.0 -1130.0 -31.0
v 1300.0 -1360.0 -23.0
v 1300.0 -1360.0 -31.0
v 1300.0 -1130.0 -23.0
v 1300.0 -1130.0 -31.0
v 1220.0 -1360.0 -23.0
v 1220.0 -1130.0 -23.0
v 1300.0 -1360.0 -23.0
v 1300.0 -1130.0 -23.0
v 1220.0 -1360.0 -31.0
v 1220.0 -1130.0 -31.0
v 1300.0 -1360.0 -31.0
v 1300.0 -1130.0 -31.0
v 1274.0 -1243.0 -31.0
v 1269.9 -1252.9 -31.0
v 1260.0 -1257.0 -31.0
v 1250.1 -1252.9 -31.0
v 1246.0 -1243.0 -31.0
v 1250.1 -1233.1 -31.0
v 1260.0 -1229.0 -31.0
v 1269.9 -1233.1 -31.0
v 1274.0 -1243.0 -85.0
v 1269.9 -1252.9 -85.0
v 1260.0 -1257.0 -85.0
v 1250.1 -1252.9 -85.0
v 1246.0 -1243.0 -85.0
v 1250.1 -1233.1 -85.0
v 1260.0 -1229.0 -85.0
v 1269.9 -1233.1 -85.0
v 1274.0 -1243.0 -31.0
v 1269.9 -1252.9 -31.0
v 1260.0 -1257.0 -31.0
v 1250.1 -1252.9 -31.0
v 1246.0 -1243.0 -31.0
v 1250.1 -1233.1 -31.0
v 1260.0 -1229.0 -31.0
v 1269.9 -1233.1 -31.0
v 1260.0 -1243.0 -31.0
v 1274.0 -1243.0 -85.0
v 1269.9 -1252.9 -85.0
v 1260.0 -1257.0 -85.0
v 1250.1 -1252.9 -85.0
v 1246.0 -1243.0 -85.0
v 1250.1 -1233.1 -85.0
v 1260.0 -1229.0 -85.0
v 1269.9 -1233.1 -85.0
v 1260.0 -1243.0 -85.0
v 1304.0 -1243.0 -85.0
v 1298.1 -1265.0 -85.0
v 1282.0 -1281.1 -85.0
v 1260.0 -1287.0 -85.0
v 1238.0 -1281.1 -85.0
v 1221.9 -1265.0 -85.0
v 1216.0 -1243.0 -85.0
v 1221.9 -1221.0 -85.0
v 1238.0 -1204.9 -85.0
v 1260.0 -1199.0 -85.0
v 1282.0 -1204.9 -85.0
v 1298.1 -1221.0 -85.0
v 1298.0 -1243.0 -125.0
v 1292.9 -1262.0 -125.0
v 1279.0 -1275.9 -125.0
v 1260.0 -1281.0 -125.0
v 1241.0 -1275.9 -125.0
v 1227.1 -1262.0 -125.0
v 1222.0 -1243.0 -125.0
v 1227.1 -1224.0 -125.0
v 1241.0 -1210.1 -125.0
v 1260.0 -1205.0 -125.0
v 1279.0 -1210.1 -125.0
v 1292.9 -1224.0 -125.0
v 1304.0 -1243.0 -85.0
v 1298.1 -1265.0 -85.0
v 1282.0 -1281.1 -85.0
v 1260.0 -1287.0 -85.0
v 1238.0 -1281.1 -85.0
v 1221.9 -1265.0 -85.0
v 1216.0 -1243.0 -85.0
v 1221.9 -1221.0 -85.0
v 1238.0 -1204.9 -85.0
v 1260.0 -1199.0 -85.0
v 1282.0 -1204.9 -85.0
v 1298.1 -1221.0 -85.0
v 1260.0 -1243.0 -85.0
v 1298.0 -1243.0 -125.0
v 1292.9 -1262.0 -125.0
v 1279.0 -1275.9 -125.0
v 1260.0 -1281.0 -125.0
v 1241.0 -1275.9 -125.0
v 1227.1 -1262.0 -125.0
v 1222.0 -1243.0 -125.0
v 1227.1 -1224.0 -125.0
v 1241.0 -1210.1 -125.0
v 1260.0 -1205.0 -125.0
v 1279.0 -1210.1 -125.0
v 1292.9 -1224.0 -125.0
v 1260.0 -1243.0 -125.0
v 1220.0 -1360.0 23.0
v 1220.0 -1360.0 31.0
v 1300.0 -1360.0 23.0
v 1300.0 -1360.0 31.0
v 1220.0 -1130.0 23.0
v 1220.0 -1130.0 31.0
v 1300.0 -1130.0 23.0
v 1300.0 -1130.0 31.0
v 1220.0 -1360.0 23.0
v 1220.0 -1360.0 31.0
v 1220.0 -1130.0 23.0
v 1220.0 -1130.0 31.0
v 1300.0 -1360.0 23.0
v 1300.0 -1360.0 31.0
v 1300.0 -1130.0 23.0
v 1300.0 -1130.0 31.0
v 1220.0 -1360.0 23.0
v 1220.0 -1130.0 23.0
v 1300.0 -1360.0 23.0
v 1300.0 -1130.0 23.0
v 1220.0 -1360.0 31.0
v 1220.0 -1130.0 31.0
v 1300.0 -1360.0 31.0
v 1300.0 -1130.0 31.0
v 1246.0 -1243.0 31.0
v 1250.1 -1252.9 31.0
v 1260.0 -1257.0 31.0
v 1269.9 -1252.9 31.0
v 1274.0 -1243.0 31.0
v 1269.9 -1233.1 31.0
v 1260.0 -1229.0 31.0
v 1250.1 -1233.1 31.0
v 1246.0 -1243.0 85.0
v 1250.1 -1252.9 85.0
v 1260.0 -1257.0 85.0
v 1269.9 -1252.9 85.0
v 1274.0 -1243.0 85.0
v 1269.9 -1233.1 85.0
v 1260.0 -1229.0 85.0
v 1250.1 -1233.1 85.0
v 1246.0 -1243.0 31.0
v 1250.1 -1252.9 31.0
v 1260.0 -1257.0 31.0
v 1269.9 -1252.9 31.0
v 1274.0 -1243.0 31.0
v 1269.9 -1233.1 31.0
v 1260.0 -1229.0 31.0
v 1250.1 -1233.1 31.0
v 1260.0 -1243.0 31.0
v 1246.0 -1243.0 85.0
v 1250.1 -1252.9 85.0
v 1260.0 -1257.0 85.0
v 1269.9 -1252.9 85.0
v 1274.0 -1243.0 85.0
v 1269.9 -1233.1 85.0
v 1260.0 -1229.0 85.0
v 1250.1 -1233.1 85.0
v 1260.0 -1243.0 85.0
v 1216.0 -1243.0 85.0
v 1221.9 -1265.0 85.0
v 1238.0 -1281.1 85.0
v 1260.0 -1287.0 85.0
v 1282.0 -1281.1 85.0
v 1298.1 -1265.0 85.0
v 1304.0 -1243.0 85.0
v 1298.1 -1221.0 85.0
v 1282.0 -1204.9 85.0
v 1260.0 -1199.0 85.0
v 1238.0 -1204.9 85.0
v 1221.9 -1221.0 85.0
v 1222.0 -1243.0 125.0
v 1227.1 -1262.0 125.0
v 1241.0 -1275.9 125.0
v 1260.0 -1281.0 125.0
v 1279.0 -1275.9 125.0
v 1292.9 -1262.0 125.0
v 1298.0 -1243.0 125.0
v 1292.9 -1224.0 125.0
v 1279.0 -1210.1 125.0
v 1260.0 -1205.0 125.0
v 1241.0 -1210.1 125.0
v 1227.1 -1224.0 125.0
v 1216.0 -1243.0 85.0
v 1221.9 -1265.0 85.0
v 1238.0 -1281.1 85.0
v 1260.0 -1287.0 85.0
v 1282.0 -1281.1 85.0
v 1298.1 -1265.0 85.0
v 1304.0 -1243.0 85.0
v 1298.1 -1221.0 85.0
v 1282.0 -1204.9 85.0
v 1260.0 -1199.0 85.0
v 1238.0 -1204.9 85.0
v 1221.9 -1221.0 85.0
v 1260.0 -1243.0 85.0
v 1222.0 -1243.0 125.0
v 1227.1 -1262.0 125.0
v 1241.0 -1275.9 125.0
v 1260.0 -1281.0 125.0
v 1279.0 -1275.9 125.0
v 1292.9 -1262.0 125.0
v 1298.0 -1243.0 125.0
v 1292.9 -1224.0 125.0
v 1279.0 -1210.1 125.0
v 1260.0 -1205.0 125.0
v 1241.0 -1210.1 125.0
v 1227.1 -1224.0 125.0
v 1260.0 -1243.0 125.0
v -6.0 -3010.0 -20.0
v -20.1 -3010.0 -14.1
v -26.0 -3010.0 -0.0
v -20.1 -3010.0 14.1
v -6.0 -3010.0 20.0
v 8.1 -3010.0 14.1
v 14.0 -3010.0 0.0
v 8.1 -3010.0 -14.1
v -6.0 -2790.0 -20.0
v -20.1 -2790.0 -14.1
v -26.0 -2790.0 -0.0
v -20.1 -2790.0 14.1
v -6.0 -2790.0 20.0
v 8.1 -2790.0 14.1
v 14.0 -2790.0 0.0
v 8.1 -2790.0 -14.1
v -6.0 -3010.0 -20.0
v -20.1 -3010.0 -14.1
v -26.0 -3010.0 -0.0
v -20.1 -3010.0 14.1
v -6.0 -3010.0 20.0
v 8.1 -3010.0 14.1
v 14.0 -3010.0 0.0
v 8.1 -3010.0 -14.1
v -6.0 -3010.0 0.0
v -6.0 -2790.0 -20.0
v -20.1 -2790.0 -14.1
v -26.0 -2790.0 -0.0
v -20.1 -2790.0 14.1
v -6.0 -2790.0 20.0
v 8.1 -2790.0 14.1
v 14.0 -2790.0 0.0
v 8.1 -2790.0 -14.1
v -6.0 -2790.0 0.0
v -6.0 -1710.0 -20.0
v -20.1 -1710.0 -14.1
v -26.0 -1710.0 -0.0
v -20.1 -1710.0 14.1
v -6.0 -1710.0 20.0
v 8.1 -1710.0 14.1
v 14.0 -1710.0 0.0
v 8.1 -1710.0 -14.1
v -6.0 -1490.0 -20.0
v -20.1 -1490.0 -14.1
v -26.0 -1490.0 -0.0
v -20.1 -1490.0 14.1
v -6.0 -1490.0 20.0
v 8.1 -1490.0 14.1
v 14.0 -1490.0 0.0
v 8.1 -1490.0 -14.1
v -6.0 -1710.0 -20.0
v -20.1 -1710.0 -14.1
v -26.0 -1710.0 -0.0
v -20.1 -1710.0 14.1
v -6.0 -1710.0 20.0
v 8.1 -1710.0 14.1
v 14.0 -1710.0 0.0
v 8.1 -1710.0 -14.1
v -6.0 -1710.0 0.0
v -6.0 -1490.0 -20.0
v -20.1 -1490.0 -14.1
v -26.0 -1490.0 -0.0
v -20.1 -1490.0 14.1
v -6.0 -1490.0 20.0
v 8.1 -1490.0 14.1
v 14.0 -1490.0 0.0
v 8.1 -1490.0 -14.1
v -6.0 -1490.0 0.0
v -6.0 -410.0 -20.0
v -20.1 -410.0 -14.1
v -26.0 -410.0 -0.0
v -20.1 -410.0 14.1
v -6.0 -410.0 20.0
v 8.1 -410.0 14.1
v 14.0 -410.0 0.0
v 8.1 -410.0 -14.1
v -6.0 -190.0 -20.0
v -20.1 -190.0 -14.1
v -26.0 -190.0 -0.0
v -20.1 -190.0 14.1
v -6.0 -190.0 20.0
v 8.1 -190.0 14.1
v 14.0 -190.0 0.0
v 8.1 -190.0 -14.1
v -6.0 -410.0 -20.0
v -20.1 -410.0 -14.1
v -26.0 -410.0 -0.0
v -20.1 -410.0 14.1
v -6.0 -410.0 20.0
v 8.1 -410.0 14.1
v 14.0 -410.0 0.0
v 8.1 -410.0 -14.1
v -6.0 -410.0 0.0
v -6.0 -190.0 -20.0
v -20.1 -190.0 -14.1
v -26.0 -190.0 -0.0
v -20.1 -190.0 14.1
v -6.0 -190.0 20.0
v 8.1 -190.0 14.1
v 14.0 -190.0 0.0
v 8.1 -190.0 -14.1
v -6.0 -190.0 0.0
f 1 4 3
f 1 2 4
f 5 7 8
f 5 8 6
f 9 11 12
f 9 12 10
f 13 16 15
f 13 14 16
f 17 19 20
f 17 20 18
f 21 24 23
f 21 22 24
f 25 26 34
f 25 34 33
f 26 27 35
f 26 35 34
f 27 28 36
f 27 36 35
f 28 29 37
f 28 37 36
f 29 30 38
f 29 38 37
f 30 31 39
f 30 39 38
f 31 32 40
f 31 40 39
f 32 25 33
f 32 33 40
f 49 42 41
f 49 43 42
f 49 44 43
f 49 45 44
f 49 46 45
f 49 47 46
f 49 48 47
f 49 41 48
f 58 50 51
f 58 51 52
f 58 52 53
f 58 53 54
f 58 54 55
f 58 55 56
f 58 56 57
f 58 57 50
f 59 60 72
f 59 72 71
f 60 61 73
f 60 73 72
f 61 62 74
f 61 74 73
f 62 63 75
f 62 75 74
f 63 64 76
f 63 76 75
f 64 65 77
f 64 77 76
f 65 66 78
f 65 78 77
f 66 67 79
f 66 79 78
f 67 68 80
f 67 80 79
f 68 69 81
f 68 81 80
f 69 70 82
f 69 82 81
f 70 59 71
f 70 71 82
f 95 84 83
f 95 85 84
f 95 86 85
f 95 87 86
f 95 88 87
f 95 89 88
f 95 90 89
f 95 91 90
f 95 92 91
f 95 93 92
f 95 94 93
f 95 83 94
f 108 96 97
f 108 97 98
f 108 98 99
f 108 99 100
f 108 100 101
f 108 101 102
f 108 102 103
f 108 103 104
f 108 104 105
f 108 105 106
f 108 106 107
f 108 107 96
f 109 111 112
f 109 112 110
f 113 116 115
f 113 114 116
f 117 120 119
f 117 118 120
f 121 123 124
f 121 124 122
f 125 128 127
f 125 126 128
f 129 131 132
f 129 132 130
f 133 134 142
f 133 142 141
f 134 135 143
f 134 143 142
f 135 136 144
f 135 144 143
f 136 137 145
f 136 145 144
f 137 138 146
f 137 146 145
f 138 139 147
f 138 147 146
f 139 140 148
f 139 148 147
f 140 133 141
f 140 141 148
f 157 150 149
f 157 151 150
f 157 152 151
f 157 153 152
f 157 154 153
f 157 155 154
f 157 156 155
f 157 149 156
f 166 158 159
f 166 159 160
f 166 160 161
f 166 161 162
f 166 162 163
f 166 163 164
f 166 164 165
f 166 165 158
f 167 168 180
f 167 180 179
f 168 169 181
f 168 181 180
f 169 170 182
f 169 182 181
f 170 171 183
f 170 183 182
f 171 172 184
f 171 184 183
f 172 173 185
f 172 185 184
f 173 174 186
f 173 186 185
f 174 175 187
f 174 187 186
f 175 176 188
f 175 188 187
f 176 177 189
f 176 189 188
f 177 178 190
f 177 190 189
f 178 167 179
f 178 179 190
f 203 192 191
f 203 193 192
f 203 194 193
f 203 195 194
f 203 196 195
f 203 197 196
f 203 198 197
f 203 199 198
f 203 200 199
f 203 201 200
f 203 202 201
f 203 191 202
f 216 204 205
f 216 205 206
f 216 206 207
f 216 207 208
f 216 208 209
f 216 209 210
f 216 210 211
f 216 211 212
f 216 212 213
f 216 213 214
f 216 214 215
f 216 215 204
f 217 218 226
f 217 226 225
f 218 219 227
f 218 227 226
f 219 220 228
f 219 228 227
f 220 221 229
f 220 229 228
f 221 222 230
f 221 230 229
f 222 223 231
f 222 231 230
f 223 224 232
f 223 232 231
f 224 217 225
f 224 225 232
f 241 234 233
f 241 235 234
f 241 236 235
f 241 237 236
f 241 238 237
f 241 239 238
f 241 240 239
f 241 233 240
f 250 242 243
f 250 243 244
f 250 244 245
f 250 245 246
f 250 246 247
f 250 247 248
f 250 248 249
f 250 249 242
f 251 252 260
f 251 260 259
f 252 253 261
f 252 261 260
f 253 254 262
f 253 262 261
f 254 255 263
f 254 263 262
f 255 256 264
f 255 264 263
f 256 257 265
f 256 265 264
f 257 258 266
f 257 266 265
f 258 251 259
f 258 259 266
f 275 268 267
f 275 269 268
f 275 270 269
f 275 271 270
f 275 272 271
f 275 273 272
f 275 274 273
f 275 267 274
f 284 276 277
f 284 277 278
f 284 278 279
f 284 279 280
f 284 280 281
f 284 281 282
f 284 282 283
f 284 283 276
f 285 286 294
f 285 294 293
f 286 287 295
f 286 295 294
f 287 288 296
f 287 296 295
f 288 289 297
f 288 297 296
f 289 290 298
f 289 298 297
f 290 291 299
f 290 299 298
f 291 292 300
f 291 300 299
f 292 285 293
f 292 293 300
f 309 302 301
f 309 303 302
f 309 304 303
f 309 305 304
f 309 306 305
f 309 307 306
f 309 308 307
f 309 301 308
f 318 310 311
f 318 311 312
f 318 312 313
f 318 313 314
f 318 314 315
f 318 315 316
f 318 316 317
f 318 317 310
