# m4.obj - tools/build_raid_meshes.py. Game units, Y negative up.
v -600.0 -1450.0 -150.0
v -600.0 -1471.2 -141.2
v -600.0 -1480.0 -120.0
v -600.0 -1471.2 -98.8
v -600.0 -1450.0 -90.0
v -600.0 -1428.8 -98.8
v -600.0 -1420.0 -120.0
v -600.0 -1428.8 -141.2
v -700.0 -1450.0 -150.0
v -700.0 -1471.2 -141.2
v -700.0 -1480.0 -120.0
v -700.0 -1471.2 -98.8
v -700.0 -1450.0 -90.0
v -700.0 -1428.8 -98.8
v -700.0 -1420.0 -120.0
v -700.0 -1428.8 -141.2
v -600.0 -1450.0 -150.0
v -600.0 -1471.2 -141.2
v -600.0 -1480.0 -120.0
v -600.0 -1471.2 -98.8
v -600.0 -1450.0 -90.0
v -600.0 -1428.8 -98.8
v -600.0 -1420.0 -120.0
v -600.0 -1428.8 -141.2
v -600.0 -1450.0 -120.0
v -700.0 -1450.0 -150.0
v -700.0 -1471.2 -141.2
v -700.0 -1480.0 -120.0
v -700.0 -1471.2 -98.8
v -700.0 -1450.0 -90.0
v -700.0 -1428.8 -98.8
v -700.0 -1420.0 -120.0
v -700.0 -1428.8 -141.2
v -700.0 -1450.0 -120.0
v -678.7 -1450.0 -125.3
v -688.2 -1457.5 -137.0
v -704.7 -1460.6 -138.7
v -718.4 -1457.5 -129.5
v -721.3 -1450.0 -114.7
v -711.8 -1442.5 -103.0
v -695.3 -1439.4 -101.3
v -681.6 -1442.5 -110.5
v -704.5 -1300.0 -203.9
v -711.4 -1305.5 -212.4
v -723.4 -1307.7 -213.6
v -733.4 -1305.5 -206.9
v -735.5 -1300.0 -196.1
v -728.6 -1294.5 -187.6
v -716.6 -1292.3 -186.4
v -706.6 -1294.5 -193.1
v -678.7 -1450.0 -125.3
v -688.2 -1457.5 -137.0
v -704.7 -1460.6 -138.7
v -718.4 -1457.5 -129.5
v -721.3 -1450.0 -114.7
v -711.8 -1442.5 -103.0
v -695.3 -1439.4 -101.3
v -681.6 -1442.5 -110.5
v -700.0 -1450.0 -120.0
v -704.5 -1300.0 -203.9
v -711.4 -1305.5 -212.4
v -723.4 -1307.7 -213.6
v -733.4 -1305.5 -206.9
v -735.5 -1300.0 -196.1
v -728.6 -1294.5 -187.6
v -716.6 -1292.3 -186.4
v -706.6 -1294.5 -193.1
v -720.0 -1300.0 -200.0
v 120.0 -900.0 -186.0
v 98.8 -900.0 -179.1
v 85.8 -900.0 -161.1
v 85.8 -900.0 -138.9
v 98.8 -900.0 -120.9
v 120.0 -900.0 -114.0
v 141.2 -900.0 -120.9
v 154.2 -900.0 -138.9
v 154.2 -900.0 -161.1
v 141.2 -900.0 -179.1
v 120.0 -700.0 -186.0
v 98.8 -700.0 -179.1
v 85.8 -700.0 -161.1
v 85.8 -700.0 -138.9
v 98.8 -700.0 -120.9
v 120.0 -700.0 -114.0
v 141.2 -700.0 -120.9
v 154.2 -700.0 -138.9
v 154.2 -700.0 -161.1
v 141.2 -700.0 -179.1
v 156.0 -700.0 -150.0
v 149.1 -717.0 -162.6
v 131.1 -727.6 -170.3
v 108.9 -727.6 -170.3
v 90.9 -717.0 -162.6
v 84.0 -700.0 -150.0
v 90.9 -683.0 -137.4
v 108.9 -672.4 -129.7
v 131.1 -672.4 -129.7
v 149.1 -683.0 -137.4
v 156.0 -560.0 -340.0
v 149.1 -577.0 -352.6
v 131.1 -587.6 -360.3
v 108.9 -587.6 -360.3
v 90.9 -577.0 -352.6
v 84.0 -560.0 -340.0
v 90.9 -543.0 -327.4
v 108.9 -532.4 -319.7
v 131.1 -532.4 -319.7
v 149.1 -543.0 -327.4
v 156.0 -560.0 -340.0
v 149.1 -577.0 -352.6
v 131.1 -587.6 -360.3
v 108.9 -587.6 -360.3
v 90.9 -577.0 -352.6
v 84.0 -560.0 -340.0
v 90.9 -543.0 -327.4
v 108.9 -532.4 -319.7
v 131.1 -532.4 -319.7
v 149.1 -543.0 -327.4
v 120.0 -560.0 -340.0
f 1 2 10
f 1 10 9
f 2 3 11
f 2 11 10
f 3 4 12
f 3 12 11
f 4 5 13
f 4 13 12
f 5 6 14
f 5 14 13
f 6 7 15
f 6 15 14
f 7 8 16
f 7 16 15
f 8 1 9
f 8 9 16
f 25 18 17
f 25 19 18
f 25 20 19
f 25 21 20
f 25 22 21
f 25 23 22
f 25 24 23
f 25 17 24
f 34 26 27
f 34 27 28
f 34 28 29
f 34 29 30
f 34 30 31
f 34 31 32
f 34 32 33
f 34 33 26
f 35 36 44
f 35 44 43
f 36 37 45
f 36 45 44
f 37 38 46
f 37 46 45
f 38 39 47
f 38 47 46
f 39 40 48
f 39 48 47
f 40 41 49
f 40 49 48
f 41 42 50
f 41 50 49
f 42 35 43
f 42 43 50
f 59 52 51
f 59 53 52
f 59 54 53
f 59 55 54
f 59 56 55
f 59 57 56
f 59 58 57
f 59 51 58
f 68 60 61
f 68 61 62
f 68 62 63
f 68 63 64
f 68 64 65
f 68 65 66
f 68 66 67
f 68 67 60
f 69 70 80
f 69 80 79
f 70 71 81
f 70 81 80
f 71 72 82
f 71 82 81
f 72 73 83
f 72 83 82
f 73 74 84
f 73 84 83
f 74 75 85
f 74 85 84
f 75 76 86
f 75 86 85
f 76 77 87
f 76 87 86
f 77 78 88
f 77 88 87
f 78 69 79
f 78 79 88
f 89 90 100
f 89 100 99
f 90 91 101
f 90 101 100
f 91 92 102
f 91 102 101
f 92 93 103
f 92 103 102
f 93 94 104
f 93 104 103
f 94 95 105
f 94 105 104
f 95 96 106
f 95 106 105
f 96 97 107
f 96 107 106
f 97 98 108
f 97 108 107
f 98 89 99
f 98 99 108
f 119 109 110
f 119 110 111
f 119 111 112
f 119 112 113
f 119 113 114
f 119 114 115
f 119 115 116
f 119 116 117
f 119 117 118
f 119 118 109
