# m5.obj - tools/build_raid_meshes.py. Game units, Y negative up.
v 368.0 -1000.0 0.0
v 365.2 -1000.0 216.4
v 356.5 -1000.0 283.3
v 341.8 -1000.0 328.8
v 320.4 -1000.0 362.1
v 290.9 -1000.0 386.4
v 250.6 -1000.0 403.0
v 191.4 -1000.0 412.8
v 0.0 -1000.0 416.0
v -191.4 -1000.0 412.8
v -250.6 -1000.0 403.0
v -290.9 -1000.0 386.4
v -320.4 -1000.0 362.1
v -341.8 -1000.0 328.8
v -356.5 -1000.0 283.3
v -365.2 -1000.0 216.4
v -368.0 -1000.0 0.0
v -365.2 -1000.0 -216.4
v -356.5 -1000.0 -283.3
v -341.8 -1000.0 -328.8
v -320.4 -1000.0 -362.1
v -290.9 -1000.0 -386.4
v -250.6 -1000.0 -403.0
v -191.4 -1000.0 -412.8
v -0.0 -1000.0 -416.0
v 191.4 -1000.0 -412.8
v 250.6 -1000.0 -403.0
v 290.9 -1000.0 -386.4
v 320.4 -1000.0 -362.1
v 341.8 -1000.0 -328.8
v 356.5 -1000.0 -283.3
v 365.2 -1000.0 -216.4
v 437.0 -1137.5 0.0
v 433.6 -1137.5 256.9
v 423.4 -1137.5 336.4
v 405.9 -1137.5 390.5
v 380.4 -1137.5 430.1
v 345.4 -1137.5 458.8
v 297.6 -1137.5 478.6
v 227.3 -1137.5 490.2
v 0.0 -1137.5 494.0
v -227.3 -1137.5 490.2
v -297.6 -1137.5 478.6
v -345.4 -1137.5 458.8
v -380.4 -1137.5 430.1
v -405.9 -1137.5 390.5
v -423.4 -1137.5 336.4
v -433.6 -1137.5 256.9
v -437.0 -1137.5 0.0
v -433.6 -1137.5 -256.9
v -423.4 -1137.5 -336.4
v -405.9 -1137.5 -390.5
v -380.4 -1137.5 -430.1
v -345.4 -1137.5 -458.8
v -297.6 -1137.5 -478.6
v -227.3 -1137.5 -490.2
v -0.0 -1137.5 -494.0
v 227.3 -1137.5 -490.2
v 297.6 -1137.5 -478.6
v 345.4 -1137.5 -458.8
v 380.4 -1137.5 -430.1
v 405.9 -1137.5 -390.5
v 423.4 -1137.5 -336.4
v 433.6 -1137.5 -256.9
v 460.0 -1180.0 0.0
v 456.4 -1180.0 270.5
v 445.7 -1180.0 354.1
v 427.3 -1180.0 411.1
v 400.5 -1180.0 452.7
v 363.6 -1180.0 483.0
v 313.3 -1180.0 503.8
v 239.3 -1180.0 516.0
v 0.0 -1180.0 520.0
v -239.3 -1180.0 516.0
v -313.3 -1180.0 503.8
v -363.6 -1180.0 483.0
v -400.5 -1180.0 452.7
v -427.3 -1180.0 411.1
v -445.7 -1180.0 354.1
v -456.4 -1180.0 270.5
v -460.0 -1180.0 0.0
v -456.4 -1180.0 -270.5
v -445.7 -1180.0 -354.1
v -427.3 -1180.0 -411.1
v -400.5 -1180.0 -452.7
v -363.6 -1180.0 -483.0
v -313.3 -1180.0 -503.8
v -239.3 -1180.0 -516.0
v -0.0 -1180.0 -520.0
v 239.3 -1180.0 -516.0
v 313.3 -1180.0 -503.8
v 363.6 -1180.0 -483.0
v 400.5 -1180.0 -452.7
v 427.3 -1180.0 -411.1
v 445.7 -1180.0 -354.1
v 456.4 -1180.0 -270.5
v 478.0 -1220.0 0.0
v 474.3 -1220.0 279.8
v 463.1 -1220.0 366.4
v 444.0 -1220.0 425.3
v 416.1 -1220.0 468.4
v 377.9 -1220.0 499.7
v 325.5 -1220.0 521.2
v 248.6 -1220.0 533.8
v 0.0 -1220.0 538.0
v -248.6 -1220.0 533.8
v -325.5 -1220.0 521.2
v -377.9 -1220.0 499.7
v -416.1 -1220.0 468.4
v -444.0 -1220.0 425.3
v -463.1 -1220.0 366.4
v -474.3 -1220.0 279.8
v -478.0 -1220.0 0.0
v -474.3 -1220.0 -279.8
v -463.1 -1220.0 -366.4
v -444.0 -1220.0 -425.3
v -416.1 -1220.0 -468.4
v -377.9 -1220.0 -499.7
v -325.5 -1220.0 -521.2
v -248.6 -1220.0 -533.8
v -0.0 -1220.0 -538.0
v 248.6 -1220.0 -533.8
v 325.5 -1220.0 -521.2
v 377.9 -1220.0 -499.7
v 416.1 -1220.0 -468.4
v 444.0 -1220.0 -425.3
v 463.1 -1220.0 -366.4
v 474.3 -1220.0 -279.8
v 470.8 -1250.0 0.0
v 467.2 -1250.0 276.1
v 456.1 -1250.0 361.5
v 437.3 -1250.0 419.6
v 409.9 -1250.0 462.1
v 372.2 -1250.0 493.0
v 320.6 -1250.0 514.3
v 244.9 -1250.0 526.7
v 0.0 -1250.0 530.8
v -244.9 -1250.0 526.7
v -320.6 -1250.0 514.3
v -372.2 -1250.0 493.0
v -409.9 -1250.0 462.1
v -437.3 -1250.0 419.6
v -456.1 -1250.0 361.5
v -467.2 -1250.0 276.1
v -470.8 -1250.0 0.0
v -467.2 -1250.0 -276.1
v -456.1 -1250.0 -361.5
v -437.3 -1250.0 -419.6
v -409.9 -1250.0 -462.1
v -372.2 -1250.0 -493.0
v -320.6 -1250.0 -514.3
v -244.9 -1250.0 -526.7
v -0.0 -1250.0 -530.8
v 244.9 -1250.0 -526.7
v 320.6 -1250.0 -514.3
v 372.2 -1250.0 -493.0
v 409.9 -1250.0 -462.1
v 437.3 -1250.0 -419.6
v 456.1 -1250.0 -361.5
v 467.2 -1250.0 -276.1
v 0.0 -1000.0 0.0
v 433.0 -1262.0 0.0
v 429.7 -1262.0 256.4
v 419.5 -1262.0 335.7
v 402.2 -1262.0 389.7
v 376.9 -1262.0 429.2
v 342.3 -1262.0 457.9
v 294.9 -1262.0 477.6
v 225.2 -1262.0 489.2
v 0.0 -1262.0 493.0
v -225.2 -1262.0 489.2
v -294.9 -1262.0 477.6
v -342.3 -1262.0 457.9
v -376.9 -1262.0 429.2
v -402.2 -1262.0 389.7
v -419.5 -1262.0 335.7
v -429.7 -1262.0 256.4
v -433.0 -1262.0 0.0
v -429.7 -1262.0 -256.4
v -419.5 -1262.0 -335.7
v -402.2 -1262.0 -389.7
v -376.9 -1262.0 -429.2
v -342.3 -1262.0 -457.9
v -294.9 -1262.0 -477.6
v -225.2 -1262.0 -489.2
v -0.0 -1262.0 -493.0
v 225.2 -1262.0 -489.2
v 294.9 -1262.0 -477.6
v 342.3 -1262.0 -457.9
v 376.9 -1262.0 -429.2
v 402.2 -1262.0 -389.7
v 419.5 -1262.0 -335.7
v 429.7 -1262.0 -256.4
v 400.0 -1250.0 0.0
v 396.9 -1250.0 239.3
v 387.5 -1250.0 313.3
v 371.5 -1250.0 363.6
v 348.2 -1250.0 400.5
v 316.2 -1250.0 427.3
v 272.4 -1250.0 445.7
v 208.0 -1250.0 456.4
v 0.0 -1250.0 460.0
v -208.0 -1250.0 456.4
v -272.4 -1250.0 445.7
v -316.2 -1250.0 427.3
v -348.2 -1250.0 400.5
v -371.5 -1250.0 363.6
v -387.5 -1250.0 313.3
v -396.9 -1250.0 239.3
v -400.0 -1250.0 0.0
v -396.9 -1250.0 -239.3
v -387.5 -1250.0 -313.3
v -371.5 -1250.0 -363.6
v -348.2 -1250.0 -400.5
v -316.2 -1250.0 -427.3
v -272.4 -1250.0 -445.7
v -208.0 -1250.0 -456.4
v -0.0 -1250.0 -460.0
v 208.0 -1250.0 -456.4
v 272.4 -1250.0 -445.7
v 316.2 -1250.0 -427.3
v 348.2 -1250.0 -400.5
v 371.5 -1250.0 -363.6
v 387.5 -1250.0 -313.3
v 396.9 -1250.0 -239.3
v 399.6 -1227.0 0.0
v 396.5 -1227.0 239.0
v 387.1 -1227.0 312.9
v 371.1 -1227.0 363.2
v 347.8 -1227.0 400.0
v 315.8 -1227.0 426.8
v 272.1 -1227.0 445.2
v 207.8 -1227.0 455.9
v 0.0 -1227.0 459.5
v -207.8 -1227.0 455.9
v -272.1 -1227.0 445.2
v -315.8 -1227.0 426.8
v -347.8 -1227.0 400.0
v -371.1 -1227.0 363.2
v -387.1 -1227.0 312.9
v -396.5 -1227.0 239.0
v -399.6 -1227.0 0.0
v -396.5 -1227.0 -239.0
v -387.1 -1227.0 -312.9
v -371.1 -1227.0 -363.2
v -347.8 -1227.0 -400.0
v -315.8 -1227.0 -426.8
v -272.1 -1227.0 -445.2
v -207.8 -1227.0 -455.9
v -0.0 -1227.0 -459.5
v 207.8 -1227.0 -455.9
v 272.1 -1227.0 -445.2
v 315.8 -1227.0 -426.8
v 347.8 -1227.0 -400.0
v 371.1 -1227.0 -363.2
v 387.1 -1227.0 -312.9
v 396.5 -1227.0 -239.0
v 394.7 -1185.6 0.0
v 391.7 -1185.6 236.1
v 382.4 -1185.6 309.1
v 366.6 -1185.6 358.8
v 343.6 -1185.6 395.2
v 312.0 -1185.6 421.6
v 268.8 -1185.6 439.8
v 205.3 -1185.6 450.4
v 0.0 -1185.6 453.9
v -205.3 -1185.6 450.4
v -268.8 -1185.6 439.8
v -312.0 -1185.6 421.6
v -343.6 -1185.6 395.2
v -366.6 -1185.6 358.8
v -382.4 -1185.6 309.1
v -391.7 -1185.6 236.1
v -394.7 -1185.6 0.0
v -391.7 -1185.6 -236.1
v -382.4 -1185.6 -309.1
v -366.6 -1185.6 -358.8
v -343.6 -1185.6 -395.2
v -312.0 -1185.6 -421.6
v -268.8 -1185.6 -439.8
v -205.3 -1185.6 -450.4
v -0.0 -1185.6 -453.9
v 205.3 -1185.6 -450.4
v 268.8 -1185.6 -439.8
v 312.0 -1185.6 -421.6
v 343.6 -1185.6 -395.2
v 366.6 -1185.6 -358.8
v 382.4 -1185.6 -309.1
v 391.7 -1185.6 -236.1
v 376.7 -1130.4 0.0
v 373.8 -1130.4 225.3
v 364.9 -1130.4 295.0
v 349.9 -1130.4 342.4
v 327.9 -1130.4 377.1
v 297.8 -1130.4 402.4
v 256.5 -1130.4 419.7
v 195.9 -1130.4 429.8
v 0.0 -1130.4 433.2
v -195.9 -1130.4 429.8
v -256.5 -1130.4 419.7
v -297.8 -1130.4 402.4
v -327.9 -1130.4 377.1
v -349.9 -1130.4 342.4
v -364.9 -1130.4 295.0
v -373.8 -1130.4 225.3
v -376.7 -1130.4 0.0
v -373.8 -1130.4 -225.3
v -364.9 -1130.4 -295.0
v -349.9 -1130.4 -342.4
v -327.9 -1130.4 -377.1
v -297.8 -1130.4 -402.4
v -256.5 -1130.4 -419.7
v -195.9 -1130.4 -429.8
v -0.0 -1130.4 -433.2
v 195.9 -1130.4 -429.8
v 256.5 -1130.4 -419.7
v 297.8 -1130.4 -402.4
v 327.9 -1130.4 -377.1
v 349.9 -1130.4 -342.4
v 364.9 -1130.4 -295.0
v 373.8 -1130.4 -225.3
v 342.0 -1075.2 0.0
v 339.4 -1075.2 204.6
v 331.4 -1075.2 267.9
v 317.7 -1075.2 310.9
v 297.8 -1075.2 342.4
v 270.4 -1075.2 365.3
v 232.9 -1075.2 381.1
v 177.9 -1075.2 390.3
v 0.0 -1075.2 393.3
v -177.9 -1075.2 390.3
v -232.9 -1075.2 381.1
v -270.4 -1075.2 365.3
v -297.8 -1075.2 342.4
v -317.7 -1075.2 310.9
v -331.4 -1075.2 267.9
v -339.4 -1075.2 204.6
v -342.0 -1075.2 0.0
v -339.4 -1075.2 -204.6
v -331.4 -1075.2 -267.9
v -317.7 -1075.2 -310.9
v -297.8 -1075.2 -342.4
v -270.4 -1075.2 -365.3
v -232.9 -1075.2 -381.1
v -177.9 -1075.2 -390.3
v -0.0 -1075.2 -393.3
v 177.9 -1075.2 -390.3
v 232.9 -1075.2 -381.1
v 270.4 -1075.2 -365.3
v 297.8 -1075.2 -342.4
v 317.7 -1075.2 -310.9
v 331.4 -1075.2 -267.9
v 339.4 -1075.2 -204.6
v 308.3 -1038.4 0.0
v 305.9 -1038.4 184.4
v 298.7 -1038.4 241.4
v 286.4 -1038.4 280.3
v 268.4 -1038.4 308.7
v 243.7 -1038.4 329.3
v 210.0 -1038.4 343.5
v 160.4 -1038.4 351.8
v 0.0 -1038.4 354.6
v -160.4 -1038.4 351.8
v -210.0 -1038.4 343.5
v -243.7 -1038.4 329.3
v -268.4 -1038.4 308.7
v -286.4 -1038.4 280.3
v -298.7 -1038.4 241.4
v -305.9 -1038.4 184.4
v -308.3 -1038.4 0.0
v -305.9 -1038.4 -184.4
v -298.7 -1038.4 -241.4
v -286.4 -1038.4 -280.3
v -268.4 -1038.4 -308.7
v -243.7 -1038.4 -329.3
v -210.0 -1038.4 -343.5
v -160.4 -1038.4 -351.8
v -0.0 -1038.4 -354.6
v 160.4 -1038.4 -351.8
v 210.0 -1038.4 -343.5
v 243.7 -1038.4 -329.3
v 268.4 -1038.4 -308.7
v 286.4 -1038.4 -280.3
v 298.7 -1038.4 -241.4
v 305.9 -1038.4 -184.4
v 288.0 -1020.0 0.0
v 285.8 -1020.0 172.3
v 279.0 -1020.0 225.5
v 267.5 -1020.0 261.8
v 250.7 -1020.0 288.3
v 227.7 -1020.0 307.6
v 196.1 -1020.0 320.9
v 149.8 -1020.0 328.6
v 0.0 -1020.0 331.2
v -149.8 -1020.0 328.6
v -196.1 -1020.0 320.9
v -227.7 -1020.0 307.6
v -250.7 -1020.0 288.3
v -267.5 -1020.0 261.8
v -279.0 -1020.0 225.5
v -285.8 -1020.0 172.3
v -288.0 -1020.0 0.0
v -285.8 -1020.0 -172.3
v -279.0 -1020.0 -225.5
v -267.5 -1020.0 -261.8
v -250.7 -1020.0 -288.3
v -227.7 -1020.0 -307.6
v -196.1 -1020.0 -320.9
v -149.8 -1020.0 -328.6
v -0.0 -1020.0 -331.2
v 149.8 -1020.0 -328.6
v 196.1 -1020.0 -320.9
v 227.7 -1020.0 -307.6
v 250.7 -1020.0 -288.3
v 267.5 -1020.0 -261.8
v 279.0 -1020.0 -225.5
v 285.8 -1020.0 -172.3
v 0.0 -1020.0 0.0
v 340.0 -1000.0 -80.0
v 340.0 -1000.0 0.0
v 340.0 -1000.0 80.0
v 400.0 -1000.0 -80.0
v 400.0 -1000.0 0.0
v 400.0 -1000.0 80.0
v 460.0 -1000.0 -80.0
v 460.0 -1000.0 0.0
v 460.0 -1000.0 80.0
v 340.0 -700.0 -80.0
v 340.0 -700.0 0.0
v 340.0 -700.0 80.0
v 400.0 -700.0 -80.0
v 400.0 -700.0 0.0
v 400.0 -700.0 80.0
v 460.0 -700.0 -80.0
v 460.0 -700.0 0.0
v 460.0 -700.0 80.0
v 340.0 -1000.0 -80.0
v 340.0 -1000.0 0.0
v 340.0 -1000.0 80.0
v 340.0 -850.0 -80.0
v 340.0 -850.0 0.0
v 340.0 -850.0 80.0
v 340.0 -700.0 -80.0
v 340.0 -700.0 0.0
v 340.0 -700.0 80.0
v 460.0 -1000.0 -80.0
v 460.0 -1000.0 0.0
v 460.0 -1000.0 80.0
v 460.0 -850.0 -80.0
v 460.0 -850.0 0.0
v 460.0 -850.0 80.0
v 460.0 -700.0 -80.0
v 460.0 -700.0 0.0
v 460.0 -700.0 80.0
v 340.0 -1000.0 -80.0
v 340.0 -850.0 -80.0
v 340.0 -700.0 -80.0
v 400.0 -1000.0 -80.0
v 400.0 -850.0 -80.0
v 400.0 -700.0 -80.0
v 460.0 -1000.0 -80.0
v 460.0 -850.0 -80.0
v 460.0 -700.0 -80.0
v 340.0 -1000.0 80.0
v 340.0 -850.0 80.0
v 340.0 -700.0 80.0
v 400.0 -1000.0 80.0
v 400.0 -850.0 80.0
v 400.0 -700.0 80.0
v 460.0 -1000.0 80.0
v 460.0 -850.0 80.0
v 460.0 -700.0 80.0
f 1 2 34
f 1 34 33
f 2 3 35
f 2 35 34
f 3 4 36
f 3 36 35
f 4 5 37
f 4 37 36
f 5 6 38
f 5 38 37
f 6 7 39
f 6 39 38
f 7 8 40
f 7 40 39
f 8 9 41
f 8 41 40
f 9 10 42
f 9 42 41
f 10 11 43
f 10 43 42
f 11 12 44
f 11 44 43
f 12 13 45
f 12 45 44
f 13 14 46
f 13 46 45
f 14 15 47
f 14 47 46
f 15 16 48
f 15 48 47
f 16 17 49
f 16 49 48
f 17 18 50
f 17 50 49
f 18 19 51
f 18 51 50
f 19 20 52
f 19 52 51
f 20 21 53
f 20 53 52
f 21 22 54
f 21 54 53
f 22 23 55
f 22 55 54
f 23 24 56
f 23 56 55
f 24 25 57
f 24 57 56
f 25 26 58
f 25 58 57
f 26 27 59
f 26 59 58
f 27 28 60
f 27 60 59
f 28 29 61
f 28 61 60
f 29 30 62
f 29 62 61
f 30 31 63
f 30 63 62
f 31 32 64
f 31 64 63
f 32 1 33
f 32 33 64
f 33 34 66
f 33 66 65
f 34 35 67
f 34 67 66
f 35 36 68
f 35 68 67
f 36 37 69
f 36 69 68
f 37 38 70
f 37 70 69
f 38 39 71
f 38 71 70
f 39 40 72
f 39 72 71
f 40 41 73
f 40 73 72
f 41 42 74
f 41 74 73
f 42 43 75
f 42 75 74
f 43 44 76
f 43 76 75
f 44 45 77
f 44 77 76
f 45 46 78
f 45 78 77
f 46 47 79
f 46 79 78
f 47 48 80
f 47 80 79
f 48 49 81
f 48 81 80
f 49 50 82
f 49 82 81
f 50 51 83
f 50 83 82
f 51 52 84
f 51 84 83
f 52 53 85
f 52 85 84
f 53 54 86
f 53 86 85
f 54 55 87
f 54 87 86
f 55 56 88
f 55 88 87
f 56 57 89
f 56 89 88
f 57 58 90
f 57 90 89
f 58 59 91
f 58 91 90
f 59 60 92
f 59 92 91
f 60 61 93
f 60 93 92
f 61 62 94
f 61 94 93
f 62 63 95
f 62 95 94
f 63 64 96
f 63 96 95
f 64 33 65
f 64 65 96
f 65 66 98
f 65 98 97
f 66 67 99
f 66 99 98
f 67 68 100
f 67 100 99
f 68 69 101
f 68 101 100
f 69 70 102
f 69 102 101
f 70 71 103
f 70 103 102
f 71 72 104
f 71 104 103
f 72 73 105
f 72 105 104
f 73 74 106
f 73 106 105
f 74 75 107
f 74 107 106
f 75 76 108
f 75 108 107
f 76 77 109
f 76 109 108
f 77 78 110
f 77 110 109
f 78 79 111
f 78 111 110
f 79 80 112
f 79 112 111
f 80 81 113
f 80 113 112
f 81 82 114
f 81 114 113
f 82 83 115
f 82 115 114
f 83 84 116
f 83 116 115
f 84 85 117
f 84 117 116
f 85 86 118
f 85 118 117
f 86 87 119
f 86 119 118
f 87 88 120
f 87 120 119
f 88 89 121
f 88 121 120
f 89 90 122
f 89 122 121
f 90 91 123
f 90 123 122
f 91 92 124
f 91 124 123
f 92 93 125
f 92 125 124
f 93 94 126
f 93 126 125
f 94 95 127
f 94 127 126
f 95 96 128
f 95 128 127
f 96 65 97
f 96 97 128
f 97 98 130
f 97 130 129
f 98 99 131
f 98 131 130
f 99 100 132
f 99 132 131
f 100 101 133
f 100 133 132
f 101 102 134
f 101 134 133
f 102 103 135
f 102 135 134
f 103 104 136
f 103 136 135
f 104 105 137
f 104 137 136
f 105 106 138
f 105 138 137
f 106 107 139
f 106 139 138
f 107 108 140
f 107 140 139
f 108 109 141
f 108 141 140
f 109 110 142
f 109 142 141
f 110 111 143
f 110 143 142
f 111 112 144
f 111 144 143
f 112 113 145
f 112 145 144
f 113 114 146
f 113 146 145
f 114 115 147
f 114 147 146
f 115 116 148
f 115 148 147
f 116 117 149
f 116 149 148
f 117 118 150
f 117 150 149
f 118 119 151
f 118 151 150
f 119 120 152
f 119 152 151
f 120 121 153
f 120 153 152
f 121 122 154
f 121 154 153
f 122 123 155
f 122 155 154
f 123 124 156
f 123 156 155
f 124 125 157
f 124 157 156
f 125 126 158
f 125 158 157
f 126 127 159
f 126 159 158
f 127 128 160
f 127 160 159
f 128 97 129
f 128 129 160
f 161 2 1
f 161 3 2
f 161 4 3
f 161 5 4
f 161 6 5
f 161 7 6
f 161 8 7
f 161 9 8
f 161 10 9
f 161 11 10
f 161 12 11
f 161 13 12
f 161 14 13
f 161 15 14
f 161 16 15
f 161 17 16
f 161 18 17
f 161 19 18
f 161 20 19
f 161 21 20
f 161 22 21
f 161 23 22
f 161 24 23
f 161 25 24
f 161 26 25
f 161 27 26
f 161 28 27
f 161 29 28
f 161 30 29
f 161 31 30
f 161 32 31
f 161 1 32
f 129 130 163
f 129 163 162
f 130 131 164
f 130 164 163
f 131 132 165
f 131 165 164
f 132 133 166
f 132 166 165
f 133 134 167
f 133 167 166
f 134 135 168
f 134 168 167
f 135 136 169
f 135 169 168
f 136 137 170
f 136 170 169
f 137 138 171
f 137 171 170
f 138 139 172
f 138 172 171
f 139 140 173
f 139 173 172
f 140 141 174
f 140 174 173
f 141 142 175
f 141 175 174
f 142 143 176
f 142 176 175
f 143 144 177
f 143 177 176
f 144 145 178
f 144 178 177
f 145 146 179
f 145 179 178
f 146 147 180
f 146 180 179
f 147 148 181
f 147 181 180
f 148 149 182
f 148 182 181
f 149 150 183
f 149 183 182
f 150 151 184
f 150 184 183
f 151 152 185
f 151 185 184
f 152 153 186
f 152 186 185
f 153 154 187
f 153 187 186
f 154 155 188
f 154 188 187
f 155 156 189
f 155 189 188
f 156 157 190
f 156 190 189
f 157 158 191
f 157 191 190
f 158 159 192
f 158 192 191
f 159 160 193
f 159 193 192
f 160 129 162
f 160 162 193
f 162 163 195
f 162 195 194
f 163 164 196
f 163 196 195
f 164 165 197
f 164 197 196
f 165 166 198
f 165 198 197
f 166 167 199
f 166 199 198
f 167 168 200
f 167 200 199
f 168 169 201
f 168 201 200
f 169 170 202
f 169 202 201
f 170 171 203
f 170 203 202
f 171 172 204
f 171 204 203
f 172 173 205
f 172 205 204
f 173 174 206
f 173 206 205
f 174 175 207
f 174 207 206
f 175 176 208
f 175 208 207
f 176 177 209
f 176 209 208
f 177 178 210
f 177 210 209
f 178 179 211
f 178 211 210
f 179 180 212
f 179 212 211
f 180 181 213
f 180 213 212
f 181 182 214
f 181 214 213
f 182 183 215
f 182 215 214
f 183 184 216
f 183 216 215
f 184 185 217
f 184 217 216
f 185 186 218
f 185 218 217
f 186 187 219
f 186 219 218
f 187 188 220
f 187 220 219
f 188 189 221
f 188 221 220
f 189 190 222
f 189 222 221
f 190 191 223
f 190 223 222
f 191 192 224
f 191 224 223
f 192 193 225
f 192 225 224
f 193 162 194
f 193 194 225
f 194 195 227
f 194 227 226
f 195 196 228
f 195 228 227
f 196 197 229
f 196 229 228
f 197 198 230
f 197 230 229
f 198 199 231
f 198 231 230
f 199 200 232
f 199 232 231
f 200 201 233
f 200 233 232
f 201 202 234
f 201 234 233
f 202 203 235
f 202 235 234
f 203 204 236
f 203 236 235
f 204 205 237
f 204 237 236
f 205 206 238
f 205 238 237
f 206 207 239
f 206 239 238
f 207 208 240
f 207 240 239
f 208 209 241
f 208 241 240
f 209 210 242
f 209 242 241
f 210 211 243
f 210 243 242
f 211 212 244
f 211 244 243
f 212 213 245
f 212 245 244
f 213 214 246
f 213 246 245
f 214 215 247
f 214 247 246
f 215 216 248
f 215 248 247
f 216 217 249
f 216 249 248
f 217 218 250
f 217 250 249
f 218 219 251
f 218 251 250
f 219 220 252
f 219 252 251
f 220 221 253
f 220 253 252
f 221 222 254
f 221 254 253
f 222 223 255
f 222 255 254
f 223 224 256
f 223 256 255
f 224 225 257
f 224 257 256
f 225 194 226
f 225 226 257
f 226 227 259
f 226 259 258
f 227 228 260
f 227 260 259
f 228 229 261
f 228 261 260
f 229 230 262
f 229 262 261
f 230 231 263
f 230 263 262
f 231 232 264
f 231 264 263
f 232 233 265
f 232 265 264
f 233 234 266
f 233 266 265
f 234 235 267
f 234 267 266
f 235 236 268
f 235 268 267
f 236 237 269
f 236 269 268
f 237 238 270
f 237 270 269
f 238 239 271
f 238 271 270
f 239 240 272
f 239 272 271
f 240 241 273
f 240 273 272
f 241 242 274
f 241 274 273
f 242 243 275
f 242 275 274
f 243 244 276
f 243 276 275
f 244 245 277
f 244 277 276
f 245 246 278
f 245 278 277
f 246 247 279
f 246 279 278
f 247 248 280
f 247 280 279
f 248 249 281
f 248 281 280
f 249 250 282
f 249 282 281
f 250 251 283
f 250 283 282
f 251 252 284
f 251 284 283
f 252 253 285
f 252 285 284
f 253 254 286
f 253 286 285
f 254 255 287
f 254 287 286
f 255 256 288
f 255 288 287
f 256 257 289
f 256 289 288
f 257 226 258
f 257 258 289
f 258 259 291
f 258 291 290
f 259 260 292
f 259 292 291
f 260 261 293
f 260 293 292
f 261 262 294
f 261 294 293
f 262 263 295
f 262 295 294
f 263 264 296
f 263 296 295
f 264 265 297
f 264 297 296
f 265 266 298
f 265 298 297
f 266 267 299
f 266 299 298
f 267 268 300
f 267 300 299
f 268 269 301
f 268 301 300
f 269 270 302
f 269 302 301
f 270 271 303
f 270 303 302
f 271 272 304
f 271 304 303
f 272 273 305
f 272 305 304
f 273 274 306
f 273 306 305
f 274 275 307
f 274 307 306
f 275 276 308
f 275 308 307
f 276 277 309
f 276 309 308
f 277 278 310
f 277 310 309
f 278 279 311
f 278 311 310
f 279 280 312
f 279 312 311
f 280 281 313
f 280 313 312
f 281 282 314
f 281 314 313
f 282 283 315
f 282 315 314
f 283 284 316
f 283 316 315
f 284 285 317
f 284 317 316
f 285 286 318
f 285 318 317
f 286 287 319
f 286 319 318
f 287 288 320
f 287 320 319
f 288 289 321
f 288 321 320
f 289 258 290
f 289 290 321
f 290 291 323
f 290 323 322
f 291 292 324
f 291 324 323
f 292 293 325
f 292 325 324
f 293 294 326
f 293 326 325
f 294 295 327
f 294 327 326
f 295 296 328
f 295 328 327
f 296 297 329
f 296 329 328
f 297 298 330
f 297 330 329
f 298 299 331
f 298 331 330
f 299 300 332
f 299 332 331
f 300 301 333
f 300 333 332
f 301 302 334
f 301 334 333
f 302 303 335
f 302 335 334
f 303 304 336
f 303 336 335
f 304 305 337
f 304 337 336
f 305 306 338
f 305 338 337
f 306 307 339
f 306 339 338
f 307 308 340
f 307 340 339
f 308 309 341
f 308 341 340
f 309 310 342
f 309 342 341
f 310 311 343
f 310 343 342
f 311 312 344
f 311 344 343
f 312 313 345
f 312 345 344
f 313 314 346
f 313 346 345
f 314 315 347
f 314 347 346
f 315 316 348
f 315 348 347
f 316 317 349
f 316 349 348
f 317 318 350
f 317 350 349
f 318 319 351
f 318 351 350
f 319 320 352
f 319 352 351
f 320 321 353
f 320 353 352
f 321 290 322
f 321 322 353
f 322 323 355
f 322 355 354
f 323 324 356
f 323 356 355
f 324 325 357
f 324 357 356
f 325 326 358
f 325 358 357
f 326 327 359
f 326 359 358
f 327 328 360
f 327 360 359
f 328 329 361
f 328 361 360
f 329 330 362
f 329 362 361
f 330 331 363
f 330 363 362
f 331 332 364
f 331 364 363
f 332 333 365
f 332 365 364
f 333 334 366
f 333 366 365
f 334 335 367
f 334 367 366
f 335 336 368
f 335 368 367
f 336 337 369
f 336 369 368
f 337 338 370
f 337 370 369
f 338 339 371
f 338 371 370
f 339 340 372
f 339 372 371
f 340 341 373
f 340 373 372
f 341 342 374
f 341 374 373
f 342 343 375
f 342 375 374
f 343 344 376
f 343 376 375
f 344 345 377
f 344 377 376
f 345 346 378
f 345 378 377
f 346 347 379
f 346 379 378
f 347 348 380
f 347 380 379
f 348 349 381
f 348 381 380
f 349 350 382
f 349 382 381
f 350 351 383
f 350 383 382
f 351 352 384
f 351 384 383
f 352 353 385
f 352 385 384
f 353 322 354
f 353 354 385
f 354 355 387
f 354 387 386
f 355 356 388
f 355 388 387
f 356 357 389
f 356 389 388
f 357 358 390
f 357 390 389
f 358 359 391
f 358 391 390
f 359 360 392
f 359 392 391
f 360 361 393
f 360 393 392
f 361 362 394
f 361 394 393
f 362 363 395
f 362 395 394
f 363 364 396
f 363 396 395
f 364 365 397
f 364 397 396
f 365 366 398
f 365 398 397
f 366 367 399
f 366 399 398
f 367 368 400
f 367 400 399
f 368 369 401
f 368 401 400
f 369 370 402
f 369 402 401
f 370 371 403
f 370 403 402
f 371 372 404
f 371 404 403
f 372 373 405
f 372 405 404
f 373 374 406
f 373 406 405
f 374 375 407
f 374 407 406
f 375 376 408
f 375 408 407
f 376 377 409
f 376 409 408
f 377 378 410
f 377 410 409
f 378 379 411
f 378 411 410
f 379 380 412
f 379 412 411
f 380 381 413
f 380 413 412
f 381 382 414
f 381 414 413
f 382 383 415
f 382 415 414
f 383 384 416
f 383 416 415
f 384 385 417
f 384 417 416
f 385 354 386
f 385 386 417
f 418 386 387
f 418 387 388
f 418 388 389
f 418 389 390
f 418 390 391
f 418 391 392
f 418 392 393
f 418 393 394
f 418 394 395
f 418 395 396
f 418 396 397
f 418 397 398
f 418 398 399
f 418 399 400
f 418 400 401
f 418 401 402
f 418 402 403
f 418 403 404
f 418 404 405
f 418 405 406
f 418 406 407
f 418 407 408
f 418 408 409
f 418 409 410
f 418 410 411
f 418 411 412
f 418 412 413
f 418 413 414
f 418 414 415
f 418 415 416
f 418 416 417
f 418 417 386
f 419 422 423
f 419 423 420
f 420 423 424
f 420 424 421
f 422 425 426
f 422 426 423
f 423 426 427
f 423 427 424
f 428 432 431
f 428 429 432
f 429 433 432
f 429 430 433
f 431 435 434
f 431 432 435
f 432 436 435
f 432 433 436
f 437 441 440
f 437 438 441
f 438 442 441
f 438 439 442
f 440 444 443
f 440 441 444
f 441 445 444
f 441 442 445
f 446 449 450
f 446 450 447
f 447 450 451
f 447 451 448
f 449 452 453
f 449 453 450
f 450 453 454
f 450 454 451
f 455 459 458
f 455 456 459
f 456 460 459
f 456 457 460
f 458 462 461
f 458 459 462
f 459 463 462
f 459 460 463
f 464 467 468
f 464 468 465
f 465 468 469
f 465 469 466
f 467 470 471
f 467 471 468
f 468 471 472
f 468 472 469
