# m6.obj - tools/build_raid_meshes.py. Game units, Y negative up.
v 150.0 -2010.0 0.0
v 149.3 -2010.0 383.5
v 147.1 -2010.0 453.8
v 143.2 -2010.0 498.2
v 137.6 -2010.0 529.1
v 129.5 -2010.0 551.0
v 118.0 -2010.0 565.7
v 99.7 -2010.0 574.2
v 0.0 -2010.0 577.0
v -99.7 -2010.0 574.2
v -118.0 -2010.0 565.7
v -129.5 -2010.0 551.0
v -137.6 -2010.0 529.1
v -143.2 -2010.0 498.2
v -147.1 -2010.0 453.8
v -149.3 -2010.0 383.5
v -150.0 -2010.0 0.1
v -149.3 -2010.0 -383.5
v -147.1 -2010.0 -453.8
v -143.2 -2010.0 -498.2
v -137.6 -2010.0 -529.1
v -129.5 -2010.0 -551.0
v -118.0 -2010.0 -565.7
v -99.7 -2010.0 -574.2
v -0.0 -2010.0 -577.0
v 99.7 -2010.0 -574.2
v 118.0 -2010.0 -565.7
v 129.5 -2010.0 -551.0
v 137.6 -2010.0 -529.1
v 143.2 -2010.0 -498.2
v 147.1 -2010.0 -453.8
v 149.3 -2010.0 -383.5
v 150.0 -1946.0 0.0
v 149.3 -1946.0 383.5
v 147.1 -1946.0 453.8
v 143.2 -1946.0 498.2
v 137.6 -1946.0 529.1
v 129.5 -1946.0 551.0
v 118.0 -1946.0 565.7
v 99.7 -1946.0 574.2
v 0.0 -1946.0 577.0
v -99.7 -1946.0 574.2
v -118.0 -1946.0 565.7
v -129.5 -1946.0 551.0
v -137.6 -1946.0 529.1
v -143.2 -1946.0 498.2
v -147.1 -1946.0 453.8
v -149.3 -1946.0 383.5
v -150.0 -1946.0 0.1
v -149.3 -1946.0 -383.5
v -147.1 -1946.0 -453.8
v -143.2 -1946.0 -498.2
v -137.6 -1946.0 -529.1
v -129.5 -1946.0 -551.0
v -118.0 -1946.0 -565.7
v -99.7 -1946.0 -574.2
v -0.0 -1946.0 -577.0
v 99.7 -1946.0 -574.2
v 118.0 -1946.0 -565.7
v 129.5 -1946.0 -551.0
v 137.6 -1946.0 -529.1
v 143.2 -1946.0 -498.2
v 147.1 -1946.0 -453.8
v 149.3 -1946.0 -383.5
v 124.0 -2010.0 0.0
v 123.4 -2010.0 366.2
v 121.6 -2010.0 433.4
v 118.4 -2010.0 475.7
v 113.7 -2010.0 505.3
v 107.1 -2010.0 526.2
v 97.5 -2010.0 540.2
v 82.4 -2010.0 548.3
v 0.0 -2010.0 551.0
v -82.4 -2010.0 548.3
v -97.5 -2010.0 540.2
v -107.1 -2010.0 526.2
v -113.7 -2010.0 505.3
v -118.4 -2010.0 475.7
v -121.6 -2010.0 433.4
v -123.4 -2010.0 366.2
v -124.0 -2010.0 0.1
v -123.4 -2010.0 -366.2
v -121.6 -2010.0 -433.4
v -118.4 -2010.0 -475.7
v -113.7 -2010.0 -505.3
v -107.1 -2010.0 -526.2
v -97.5 -2010.0 -540.2
v -82.4 -2010.0 -548.3
v -0.0 -2010.0 -551.0
v 82.4 -2010.0 -548.3
v 97.5 -2010.0 -540.2
v 107.1 -2010.0 -526.2
v 113.7 -2010.0 -505.3
v 118.4 -2010.0 -475.7
v 121.6 -2010.0 -433.4
v 123.4 -2010.0 -366.2
v 124.0 -1976.0 0.0
v 123.4 -1976.0 366.2
v 121.6 -1976.0 433.4
v 118.4 -1976.0 475.7
v 113.7 -1976.0 505.3
v 107.1 -1976.0 526.2
v 97.5 -1976.0 540.2
v 82.4 -1976.0 548.3
v 0.0 -1976.0 551.0
v -82.4 -1976.0 548.3
v -97.5 -1976.0 540.2
v -107.1 -1976.0 526.2
v -113.7 -1976.0 505.3
v -118.4 -1976.0 475.7
v -121.6 -1976.0 433.4
v -123.4 -1976.0 366.2
v -124.0 -1976.0 0.1
v -123.4 -1976.0 -366.2
v -121.6 -1976.0 -433.4
v -118.4 -1976.0 -475.7
v -113.7 -1976.0 -505.3
v -107.1 -1976.0 -526.2
v -97.5 -1976.0 -540.2
v -82.4 -1976.0 -548.3
v -0.0 -1976.0 -551.0
v 82.4 -1976.0 -548.3
v 97.5 -1976.0 -540.2
v 107.1 -1976.0 -526.2
v 113.7 -1976.0 -505.3
v 118.4 -1976.0 -475.7
v 121.6 -1976.0 -433.4
v 123.4 -1976.0 -366.2
v 0.0 -1976.0 0.0
v 0.0 -1946.0 0.0
f 33 34 2
f 33 2 1
f 34 35 3
f 34 3 2
f 35 36 4
f 35 4 3
f 36 37 5
f 36 5 4
f 37 38 6
f 37 6 5
f 38 39 7
f 38 7 6
f 39 40 8
f 39 8 7
f 40 41 9
f 40 9 8
f 41 42 10
f 41 10 9
f 42 43 11
f 42 11 10
f 43 44 12
f 43 12 11
f 44 45 13
f 44 13 12
f 45 46 14
f 45 14 13
f 46 47 15
f 46 15 14
f 47 48 16
f 47 16 15
f 48 49 17
f 48 17 16
f 49 50 18
f 49 18 17
f 50 51 19
f 50 19 18
f 51 52 20
f 51 20 19
f 52 53 21
f 52 21 20
f 53 54 22
f 53 22 21
f 54 55 23
f 54 23 22
f 55 56 24
f 55 24 23
f 56 57 25
f 56 25 24
f 57 58 26
f 57 26 25
f 58 59 27
f 58 27 26
f 59 60 28
f 59 28 27
f 60 61 29
f 60 29 28
f 61 62 30
f 61 30 29
f 62 63 31
f 62 31 30
f 63 64 32
f 63 32 31
f 64 33 1
f 64 1 32
f 1 2 66
f 1 66 65
f 2 3 67
f 2 67 66
f 3 4 68
f 3 68 67
f 4 5 69
f 4 69 68
f 5 6 70
f 5 70 69
f 6 7 71
f 6 71 70
f 7 8 72
f 7 72 71
f 8 9 73
f 8 73 72
f 9 10 74
f 9 74 73
f 10 11 75
f 10 75 74
f 11 12 76
f 11 76 75
f 12 13 77
f 12 77 76
f 13 14 78
f 13 78 77
f 14 15 79
f 14 79 78
f 15 16 80
f 15 80 79
f 16 17 81
f 16 81 80
f 17 18 82
f 17 82 81
f 18 19 83
f 18 83 82
f 19 20 84
f 19 84 83
f 20 21 85
f 20 85 84
f 21 22 86
f 21 86 85
f 22 23 87
f 22 87 86
f 23 24 88
f 23 88 87
f 24 25 89
f 24 89 88
f 25 26 90
f 25 90 89
f 26 27 91
f 26 91 90
f 27 28 92
f 27 92 91
f 28 29 93
f 28 93 92
f 29 30 94
f 29 94 93
f 30 31 95
f 30 95 94
f 31 32 96
f 31 96 95
f 32 1 65
f 32 65 96
f 65 66 98
f 65 98 97
f 66 67 99
f 66 99 98
f 67 68 100
f 67 100 99
f 68 69 101
f 68 101 100
f 69 70 102
f 69 102 101
f 70 71 103
f 70 103 102
f 71 72 104
f 71 104 103
f 72 73 105
f 72 105 104
f 73 74 106
f 73 106 105
f 74 75 107
f 74 107 106
f 75 76 108
f 75 108 107
f 76 77 109
f 76 109 108
f 77 78 110
f 77 110 109
f 78 79 111
f 78 111 110
f 79 80 112
f 79 112 111
f 80 81 113
f 80 113 112
f 81 82 114
f 81 114 113
f 82 83 115
f 82 115 114
f 83 84 116
f 83 116 115
f 84 85 117
f 84 117 116
f 85 86 118
f 85 118 117
f 86 87 119
f 86 119 118
f 87 88 120
f 87 120 119
f 88 89 121
f 88 121 120
f 89 90 122
f 89 122 121
f 90 91 123
f 90 123 122
f 91 92 124
f 91 124 123
f 92 93 125
f 92 125 124
f 93 94 126
f 93 126 125
f 94 95 127
f 94 127 126
f 95 96 128
f 95 128 127
f 96 65 97
f 96 97 128
f 129 97 98
f 129 98 99
f 129 99 100
f 129 100 101
f 129 101 102
f 129 102 103
f 129 103 104
f 129 104 105
f 129 105 106
f 129 106 107
f 129 107 108
f 129 108 109
f 129 109 110
f 129 110 111
f 129 111 112
f 129 112 113
f 129 113 114
f 129 114 115
f 129 115 116
f 129 116 117
f 129 117 118
f 129 118 119
f 129 119 120
f 129 120 121
f 129 121 122
f 129 122 123
f 129 123 124
f 129 124 125
f 129 125 126
f 129 126 127
f 129 127 128
f 129 128 97
f 130 34 33
f 130 35 34
f 130 36 35
f 130 37 36
f 130 38 37
f 130 39 38
f 130 40 39
f 130 41 40
f 130 42 41
f 130 43 42
f 130 44 43
f 130 45 44
f 130 46 45
f 130 47 46
f 130 48 47
f 130 49 48
f 130 50 49
f 130 51 50
f 130 52 51
f 130 53 52
f 130 54 53
f 130 55 54
f 130 56 55
f 130 57 56
f 130 58 57
f 130 59 58
f 130 60 59
f 130 61 60
f 130 62 61
f 130 63 62
f 130 64 63
f 130 33 64
