# m7.obj - tools/build_raid_meshes.py. Game units, Y negative up.
v -546.0 -1030.0 -50.0
v -532.0 -1041.6 -28.7
v -504.0 -1041.6 -28.7
v -490.0 -1030.0 -50.0
v -504.0 -1018.4 -71.3
v -532.0 -1018.4 -71.3
v -542.0 0.0 510.0
v -530.0 -9.9 528.3
v -506.0 -9.9 528.3
v -494.0 -0.0 510.0
v -506.0 9.9 491.7
v -530.0 9.9 491.7
v -546.0 -1030.0 -50.0
v -532.0 -1041.6 -28.7
v -504.0 -1041.6 -28.7
v -490.0 -1030.0 -50.0
v -504.0 -1018.4 -71.3
v -532.0 -1018.4 -71.3
v -518.0 -1030.0 -50.0
v -542.0 0.0 510.0
v -530.0 -9.9 528.3
v -506.0 -9.9 528.3
v -494.0 -0.0 510.0
v -506.0 9.9 491.7
v -530.0 9.9 491.7
v -518.0 0.0 510.0
v 490.0 -1030.0 -50.0
v 504.0 -1041.6 -28.7
v 532.0 -1041.6 -28.7
v 546.0 -1030.0 -50.0
v 532.0 -1018.4 -71.3
v 504.0 -1018.4 -71.3
v 494.0 0.0 510.0
v 506.0 -9.9 528.3
v 530.0 -9.9 528.3
v 542.0 -0.0 510.0
v 530.0 9.9 491.7
v 506.0 9.9 491.7
v 490.0 -1030.0 -50.0
v 504.0 -1041.6 -28.7
v 532.0 -1041.6 -28.7
v 546.0 -1030.0 -50.0
v 532.0 -1018.4 -71.3
v 504.0 -1018.4 -71.3
v 518.0 -1030.0 -50.0
v 494.0 0.0 510.0
v 506.0 -9.9 528.3
v 530.0 -9.9 528.3
v 542.0 -0.0 510.0
v 530.0 9.9 491.7
v 506.0 9.9 491.7
v 518.0 0.0 510.0
v -560.0 -1030.0 -85.0
v -560.0 -1030.0 -67.5
v -560.0 -1030.0 -50.0
v -560.0 -1030.0 -32.5
v -560.0 -1030.0 -15.0
v -280.0 -1030.0 -85.0
v -280.0 -1030.0 -67.5
v -280.0 -1030.0 -50.0
v -280.0 -1030.0 -32.5
v -280.0 -1030.0 -15.0
v 0.0 -1030.0 -85.0
v 0.0 -1030.0 -67.5
v 0.0 -1030.0 -50.0
v 0.0 -1030.0 -32.5
v 0.0 -1030.0 -15.0
v 280.0 -1030.0 -85.0
v 280.0 -1030.0 -67.5
v 280.0 -1030.0 -50.0
v 280.0 -1030.0 -32.5
v 280.0 -1030.0 -15.0
v 560.0 -1030.0 -85.0
v 560.0 -1030.0 -67.5
v 560.0 -1030.0 -50.0
v 560.0 -1030.0 -32.5
v 560.0 -1030.0 -15.0
v -560.0 -970.0 -85.0
v -560.0 -970.0 -67.5
v -560.0 -970.0 -50.0
v -560.0 -970.0 -32.5
v -560.0 -970.0 -15.0
v -280.0 -970.0 -85.0
v -280.0 -970.0 -67.5
v -280.0 -970.0 -50.0
v -280.0 -970.0 -32.5
v -280.0 -970.0 -15.0
v 0.0 -970.0 -85.0
v 0.0 -970.0 -67.5
v 0.0 -970.0 -50.0
v 0.0 -970.0 -32.5
v 0.0 -970.0 -15.0
v 280.0 -970.0 -85.0
v 280.0 -970.0 -67.5
v 280.0 -970.0 -50.0
v 280.0 -970.0 -32.5
v 280.0 -970.0 -15.0
v 560.0 -970.0 -85.0
v 560.0 -970.0 -67.5
v 560.0 -970.0 -50.0
v 560.0 -970.0 -32.5
v 560.0 -970.0 -15.0
v -560.0 -1030.0 -85.0
v -560.0 -1030.0 -67.5
v -560.0 -1030.0 -50.0
v -560.0 -1030.0 -32.5
v -560.0 -1030.0 -15.0
v -560.0 -1015.0 -85.0
v -560.0 -1015.0 -67.5
v -560.0 -1015.0 -50.0
v -560.0 -1015.0 -32.5
v -560.0 -1015.0 -15.0
v -560.0 -1000.0 -85.0
v -560.0 -1000.0 -67.5
v -560.0 -1000.0 -50.0
v -560.0 -1000.0 -32.5
v -560.0 -1000.0 -15.0
v -560.0 -985.0 -85.0
v -560.0 -985.0 -67.5
v -560.0 -985.0 -50.0
v -560.0 -985.0 -32.5
v -560.0 -985.0 -15.0
v -560.0 -970.0 -85.0
v -560.0 -970.0 -67.5
v -560.0 -970.0 -50.0
v -560.0 -970.0 -32.5
v -560.0 -970.0 -15.0
v 560.0 -1030.0 -85.0
v 560.0 -1030.0 -67.5
v 560.0 -1030.0 -50.0
v 560.0 -1030.0 -32.5
v 560.0 -1030.0 -15.0
v 560.0 -1015.0 -85.0
v 560.0 -1015.0 -67.5
v 560.0 -1015.0 -50.0
v 560.0 -1015.0 -32.5
v 560.0 -1015.0 -15.0
v 560.0 -1000.0 -85.0
v 560.0 -1000.0 -67.5
v 560.0 -1000.0 -50.0
v 560.0 -1000.0 -32.5
v 560.0 -1000.0 -15.0
v 560.0 -985.0 -85.0
v 560.0 -985.0 -67.5
v 560.0 -985.0 -50.0
v 560.0 -985.0 -32.5
v 560.0 -985.0 -15.0
v 560.0 -970.0 -85.0
v 560.0 -970.0 -67.5
v 560.0 -970.0 -50.0
v 560.0 -970.0 -32.5
v 560.0 -970.0 -15.0
v -560.0 -1030.0 -85.0
v -560.0 -1015.0 -85.0
v -560.0 -1000.0 -85.0
v -560.0 -985.0 -85.0
v -560.0 -970.0 -85.0
v -280.0 -1030.0 -85.0
v -280.0 -1015.0 -85.0
v -280.0 -1000.0 -85.0
v -280.0 -985.0 -85.0
v -280.0 -970.0 -85.0
v 0.0 -1030.0 -85.0
v 0.0 -1015.0 -85.0
v 0.0 -1000.0 -85.0
v 0.0 -985.0 -85.0
v 0.0 -970.0 -85.0
v 280.0 -1030.0 -85.0
v 280.0 -1015.0 -85.0
v 280.0 -1000.0 -85.0
v 280.0 -985.0 -85.0
v 280.0 -970.0 -85.0
v 560.0 -1030.0 -85.0
v 560.0 -1015.0 -85.0
v 560.0 -1000.0 -85.0
v 560.0 -985.0 -85.0
v 560.0 -970.0 -85.0
v -560.0 -1030.0 -15.0
v -560.0 -1015.0 -15.0
v -560.0 -1000.0 -15.0
v -560.0 -985.0 -15.0
v -560.0 -970.0 -15.0
v -280.0 -1030.0 -15.0
v -280.0 -1015.0 -15.0
v -280.0 -1000.0 -15.0
v -280.0 -985.0 -15.0
v -280.0 -970.0 -15.0
v 0.0 -1030.0 -15.0
v 0.0 -1015.0 -15.0
v 0.0 -1000.0 -15.0
v 0.0 -985.0 -15.0
v 0.0 -970.0 -15.0
v 280.0 -1030.0 -15.0
v 280.0 -1015.0 -15.0
v 280.0 -1000.0 -15.0
v 280.0 -985.0 -15.0
v 280.0 -970.0 -15.0
v 560.0 -1030.0 -15.0
v 560.0 -1015.0 -15.0
v 560.0 -1000.0 -15.0
v 560.0 -985.0 -15.0
v 560.0 -970.0 -15.0
f 1 2 8
f 1 8 7
f 2 3 9
f 2 9 8
f 3 4 10
f 3 10 9
f 4 5 11
f 4 11 10
f 5 6 12
f 5 12 11
f 6 1 7
f 6 7 12
f 19 14 13
f 19 15 14
f 19 16 15
f 19 17 16
f 19 18 17
f 19 13 18
f 26 20 21
f 26 21 22
f 26 22 23
f 26 23 24
f 26 24 25
f 26 25 20
f 27 28 34
f 27 34 33
f 28 29 35
f 28 35 34
f 29 30 36
f 29 36 35
f 30 31 37
f 30 37 36
f 31 32 38
f 31 38 37
f 32 27 33
f 32 33 38
f 45 40 39
f 45 41 40
f 45 42 41
f 45 43 42
f 45 44 43
f 45 39 44
f 52 46 47
f 52 47 48
f 52 48 49
f 52 49 50
f 52 50 51
f 52 51 46
f 53 58 59
f 53 59 54
f 54 59 60
f 54 60 55
f 55 60 61
f 55 61 56
f 56 61 62
f 56 62 57
f 58 63 64
f 58 64 59
f 59 64 65
f 59 65 60
f 60 65 66
f 60 66 61
f 61 66 67
f 61 67 62
f 63 68 69
f 63 69 64
f 64 69 70
f 64 70 65
f 65 70 71
f 65 71 66
f 66 71 72
f 66 72 67
f 68 73 74
f 68 74 69
f 69 74 75
f 69 75 70
f 70 75 76
f 70 76 71
f 71 76 77
f 71 77 72
f 78 84 83
f 78 79 84
f 79 85 84
f 79 80 85
f 80 86 85
f 80 81 86
f 81 87 86
f 81 82 87
f 83 89 88
f 83 84 89
f 84 90 89
f 84 85 90
f 85 91 90
f 85 86 91
f 86 92 91
f 86 87 92
f 88 94 93
f 88 89 94
f 89 95 94
f 89 90 95
f 90 96 95
f 90 91 96
f 91 97 96
f 91 92 97
f 93 99 98
f 93 94 99
f 94 100 99
f 94 95 100
f 95 101 100
f 95 96 101
f 96 102 101
f 96 97 102
f 103 109 108
f 103 104 109
f 104 110 109
f 104 105 110
f 105 111 110
f 105 106 111
f 106 112 111
f 106 107 112
f 108 114 113
f 108 109 114
f 109 115 114
f 109 110 115
f 110 116 115
f 110 111 116
f 111 117 116
f 111 112 117
f 113 119 118
f 113 114 119
f 114 120 119
f 114 115 120
f 115 121 120
f 115 116 121
f 116 122 121
f 116 117 122
f 118 124 123
f 118 119 124
f 119 125 124
f 119 120 125
f 120 126 125
f 120 121 126
f 121 127 126
f 121 122 127
f 128 133 134
f 128 134 129
f 129 134 135
f 129 135 130
f 130 135 136
f 130 136 131
f 131 136 137
f 131 137 132
f 133 138 139
f 133 139 134
f 134 139 140
f 134 140 135
f 135 140 141
f 135 141 136
f 136 141 142
f 136 142 137
f 138 143 144
f 138 144 139
f 139 144 145
f 139 145 140
f 140 145 146
f 140 146 141
f 141 146 147
f 141 147 142
f 143 148 149
f 143 149 144
f 144 149 150
f 144 150 145
f 145 150 151
f 145 151 146
f 146 151 152
f 146 152 147
f 153 159 158
f 153 154 159
f 154 160 159
f 154 155 160
f 155 161 160
f 155 156 161
f 156 162 161
f 156 157 162
f 158 164 163
f 158 159 164
f 159 165 164
f 159 160 165
f 160 166 165
f 160 161 166
f 161 167 166
f 161 162 167
f 163 169 168
f 163 164 169
f 164 170 169
f 164 165 170
f 165 171 170
f 165 166 171
f 166 172 171
f 166 167 172
f 168 174 173
f 168 169 174
f 169 175 174
f 169 170 175
f 170 176 175
f 170 171 176
f 171 177 176
f 171 172 177
f 178 183 184
f 178 184 179
f 179 184 185
f 179 185 180
f 180 185 186
f 180 186 181
f 181 186 187
f 181 187 182
f 183 188 189
f 183 189 184
f 184 189 190
f 184 190 185
f 185 190 191
f 185 191 186
f 186 191 192
f 186 192 187
f 188 193 194
f 188 194 189
f 189 194 195
f 189 195 190
f 190 195 196
f 190 196 191
f 191 196 197
f 191 197 192
f 193 198 199
f 193 199 194
f 194 199 200
f 194 200 195
f 195 200 201
f 195 201 196
f 196 201 202
f 196 202 197
