# m8.obj - tools/build_raid_meshes.py. Game units, Y negative up.
v -560.0 -470.0 -58.0
v -560.0 -760.0 -56.0
v -560.0 -960.0 -52.0
v -560.0 -1045.0 -34.0
v -560.0 -1062.0 0.0
v -560.0 -1045.0 34.0
v -560.0 -960.0 52.0
v -560.0 -760.0 56.0
v -560.0 -520.0 58.0
v -490.0 -470.1 -66.4
v -490.0 -760.1 -64.4
v -490.0 -960.2 -54.9
v -490.0 -1045.2 -34.4
v -490.0 -1062.0 0.0
v -490.0 -1045.2 34.4
v -490.0 -960.2 54.9
v -490.0 -760.1 64.4
v -490.0 -520.1 66.4
v -420.0 -470.1 -73.6
v -420.0 -760.2 -71.6
v -420.0 -960.4 -57.3
v -420.0 -1045.4 -34.8
v -420.0 -1062.0 0.0
v -420.0 -1045.4 34.8
v -420.0 -960.4 57.3
v -420.0 -760.2 71.6
v -420.0 -520.1 73.6
v -350.0 -470.1 -78.3
v -350.0 -760.2 -76.3
v -350.0 -960.5 -58.9
v -350.0 -1045.5 -35.0
v -350.0 -1062.0 0.0
v -350.0 -1045.5 35.0
v -350.0 -960.5 58.9
v -350.0 -760.3 76.3
v -350.0 -520.2 78.3
v -280.0 -470.2 -80.0
v -280.0 -760.3 -78.0
v -280.0 -960.6 -59.5
v -280.0 -1045.6 -35.1
v -280.0 -1062.0 0.0
v -280.0 -1045.6 35.1
v -280.0 -960.6 59.5
v -280.0 -760.3 78.0
v -280.0 -520.2 80.0
v -210.0 -470.1 -78.3
v -210.0 -760.2 -76.3
v -210.0 -960.5 -58.9
v -210.0 -1045.5 -35.0
v -210.0 -1062.0 0.0
v -210.0 -1045.5 35.0
v -210.0 -960.5 58.9
v -210.0 -760.3 76.3
v -210.0 -520.2 78.3
v -140.0 -470.1 -73.6
v -140.0 -760.2 -71.6
v -140.0 -960.4 -57.3
v -140.0 -1045.4 -34.8
v -140.0 -1062.0 0.0
v -140.0 -1045.4 34.8
v -140.0 -960.4 57.3
v -140.0 -760.2 71.6
v -140.0 -520.1 73.6
v -70.0 -470.1 -66.4
v -70.0 -760.1 -64.4
v -70.0 -960.2 -54.9
v -70.0 -1045.2 -34.4
v -70.0 -1062.0 0.0
v -70.0 -1045.2 34.4
v -70.0 -960.2 54.9
v -70.0 -760.1 64.4
v -70.0 -520.1 66.4
v 0.0 -470.0 -58.0
v 0.0 -760.0 -56.0
v 0.0 -960.0 -52.0
v 0.0 -1045.0 -34.0
v 0.0 -1062.0 0.0
v 0.0 -1045.0 34.0
v 0.0 -960.0 52.0
v 0.0 -760.0 56.0
v 0.0 -520.0 58.0
v 70.0 -470.1 -66.4
v 70.0 -760.1 -64.4
v 70.0 -960.2 -54.9
v 70.0 -1045.2 -34.4
v 70.0 -1062.0 0.0
v 70.0 -1045.2 34.4
v 70.0 -960.2 54.9
v 70.0 -760.1 64.4
v 70.0 -520.1 66.4
v 140.0 -470.1 -73.6
v 140.0 -760.2 -71.6
v 140.0 -960.4 -57.3
v 140.0 -1045.4 -34.8
v 140.0 -1062.0 0.0
v 140.0 -1045.4 34.8
v 140.0 -960.4 57.3
v 140.0 -760.2 71.6
v 140.0 -520.1 73.6
v 210.0 -470.1 -78.3
v 210.0 -760.2 -76.3
v 210.0 -960.5 -58.9
v 210.0 -1045.5 -35.0
v 210.0 -1062.0 0.0
v 210.0 -1045.5 35.0
v 210.0 -960.5 58.9
v 210.0 -760.3 76.3
v 210.0 -520.2 78.3
v 280.0 -470.2 -80.0
v 280.0 -760.3 -78.0
v 280.0 -960.6 -59.5
v 280.0 -1045.6 -35.1
v 280.0 -1062.0 0.0
v 280.0 -1045.6 35.1
v 280.0 -960.6 59.5
v 280.0 -760.3 78.0
v 280.0 -520.2 80.0
v 350.0 -470.1 -78.3
v 350.0 -760.2 -76.3
v 350.0 -960.5 -58.9
v 350.0 -1045.5 -35.0
v 350.0 -1062.0 0.0
v 350.0 -1045.5 35.0
v 350.0 -960.5 58.9
v 350.0 -760.3 76.3
v 350.0 -520.2 78.3
v 420.0 -470.1 -73.6
v 420.0 -760.2 -71.6
v 420.0 -960.4 -57.3
v 420.0 -1045.4 -34.8
v 420.0 -1062.0 0.0
v 420.0 -1045.4 34.8
v 420.0 -960.4 57.3
v 420.0 -760.2 71.6
v 420.0 -520.1 73.6
v 490.0 -470.1 -66.4
v 490.0 -760.1 -64.4
v 490.0 -960.2 -54.9
v 490.0 -1045.2 -34.4
v 490.0 -1062.0 0.0
v 490.0 -1045.2 34.4
v 490.0 -960.2 54.9
v 490.0 -760.1 64.4
v 490.0 -520.1 66.4
v 560.0 -470.0 -58.0
v 560.0 -760.0 -56.0
v 560.0 -960.0 -52.0
v 560.0 -1045.0 -34.0
v 560.0 -1062.0 0.0
v 560.0 -1045.0 34.0
v 560.0 -960.0 52.0
v 560.0 -760.0 56.0
v 560.0 -520.0 58.0
v -560.0 -470.2 -80.0
v -560.0 -760.3 -78.0
v -560.0 -961.7 -73.9
v -560.0 -1055.0 -53.6
v -560.0 -1084.0 0.0
v -560.0 -1055.0 53.6
v -560.0 -961.7 73.9
v -560.0 -760.3 78.0
v -560.0 -520.2 80.0
v -490.0 -470.2 -88.4
v -490.0 -760.4 -86.4
v -490.0 -961.9 -76.8
v -490.0 -1055.2 -54.0
v -490.0 -1084.0 0.0
v -490.0 -1055.2 54.0
v -490.0 -961.9 76.8
v -490.0 -760.4 86.4
v -490.0 -520.3 88.4
v -420.0 -470.3 -95.6
v -420.0 -760.5 -93.6
v -420.0 -962.1 -79.2
v -420.0 -1055.4 -54.4
v -420.0 -1084.0 0.0
v -420.0 -1055.4 54.4
v -420.0 -962.1 79.2
v -420.0 -760.5 93.6
v -420.0 -520.3 95.6
v -350.0 -470.3 -100.3
v -350.0 -760.5 -98.3
v -350.0 -962.2 -80.8
v -350.0 -1055.5 -54.6
v -350.0 -1084.0 0.0
v -350.0 -1055.5 54.6
v -350.0 -962.2 80.8
v -350.0 -760.6 98.3
v -350.0 -520.4 100.3
v -280.0 -470.3 -102.0
v -280.0 -760.5 -100.0
v -280.0 -962.3 -81.4
v -280.0 -1055.6 -54.7
v -280.0 -1084.0 0.0
v -280.0 -1055.6 54.7
v -280.0 -962.3 81.4
v -280.0 -760.6 100.0
v -280.0 -520.4 102.0
v -210.0 -470.3 -100.3
v -210.0 -760.5 -98.3
v -210.0 -962.2 -80.8
v -210.0 -1055.5 -54.6
v -210.0 -1084.0 0.0
v -210.0 -1055.5 54.6
v -210.0 -962.2 80.8
v -210.0 -760.6 98.3
v -210.0 -520.4 100.3
v -140.0 -470.3 -95.6
v -140.0 -760.5 -93.6
v -140.0 -962.1 -79.2
v -140.0 -1055.4 -54.4
v -140.0 -1084.0 0.0
v -140.0 -1055.4 54.4
v -140.0 -962.1 79.2
v -140.0 -760.5 93.6
v -140.0 -520.3 95.6
v -70.0 -470.2 -88.4
v -70.0 -760.4 -86.4
v -70.0 -961.9 -76.8
v -70.0 -1055.2 -54.0
v -70.0 -1084.0 0.0
v -70.0 -1055.2 54.0
v -70.0 -961.9 76.8
v -70.0 -760.4 86.4
v -70.0 -520.3 88.4
v 0.0 -470.2 -80.0
v 0.0 -760.3 -78.0
v 0.0 -961.7 -73.9
v 0.0 -1055.0 -53.6
v 0.0 -1084.0 0.0
v 0.0 -1055.0 53.6
v 0.0 -961.7 73.9
v 0.0 -760.3 78.0
v 0.0 -520.2 80.0
v 70.0 -470.2 -88.4
v 70.0 -760.4 -86.4
v 70.0 -961.9 -76.8
v 70.0 -1055.2 -54.0
v 70.0 -1084.0 0.0
v 70.0 -1055.2 54.0
v 70.0 -961.9 76.8
v 70.0 -760.4 86.4
v 70.0 -520.3 88.4
v 140.0 -470.3 -95.6
v 140.0 -760.5 -93.6
v 140.0 -962.1 -79.2
v 140.0 -1055.4 -54.4
v 140.0 -1084.0 0.0
v 140.0 -1055.4 54.4
v 140.0 -962.1 79.2
v 140.0 -760.5 93.6
v 140.0 -520.3 95.6
v 210.0 -470.3 -100.3
v 210.0 -760.5 -98.3
v 210.0 -962.2 -80.8
v 210.0 -1055.5 -54.6
v 210.0 -1084.0 0.0
v 210.0 -1055.5 54.6
v 210.0 -962.2 80.8
v 210.0 -760.6 98.3
v 210.0 -520.4 100.3
v 280.0 -470.3 -102.0
v 280.0 -760.5 -100.0
v 280.0 -962.3 -81.4
v 280.0 -1055.6 -54.7
v 280.0 -1084.0 0.0
v 280.0 -1055.6 54.7
v 280.0 -962.3 81.4
v 280.0 -760.6 100.0
v 280.0 -520.4 102.0
v 350.0 -470.3 -100.3
v 350.0 -760.5 -98.3
v 350.0 -962.2 -80.8
v 350.0 -1055.5 -54.6
v 350.0 -1084.0 0.0
v 350.0 -1055.5 54.6
v 350.0 -962.2 80.8
v 350.0 -760.6 98.3
v 350.0 -520.4 100.3
v 420.0 -470.3 -95.6
v 420.0 -760.5 -93.6
v 420.0 -962.1 -79.2
v 420.0 -1055.4 -54.4
v 420.0 -1084.0 0.0
v 420.0 -1055.4 54.4
v 420.0 -962.1 79.2
v 420.0 -760.5 93.6
v 420.0 -520.3 95.6
v 490.0 -470.2 -88.4
v 490.0 -760.4 -86.4
v 490.0 -961.9 -76.8
v 490.0 -1055.2 -54.0
v 490.0 -1084.0 0.0
v 490.0 -1055.2 54.0
v 490.0 -961.9 76.8
v 490.0 -760.4 86.4
v 490.0 -520.3 88.4
v 560.0 -470.2 -80.0
v 560.0 -760.3 -78.0
v 560.0 -961.7 -73.9
v 560.0 -1055.0 -53.6
v 560.0 -1084.0 0.0
v 560.0 -1055.0 53.6
v 560.0 -961.7 73.9
v 560.0 -760.3 78.0
v 560.0 -520.2 80.0
f 1 11 10
f 1 2 11
f 154 163 164
f 154 164 155
f 2 12 11
f 2 3 12
f 155 164 165
f 155 165 156
f 3 13 12
f 3 4 13
f 156 165 166
f 156 166 157
f 4 14 13
f 4 5 14
f 157 166 167
f 157 167 158
f 5 15 14
f 5 6 15
f 158 167 168
f 158 168 159
f 6 16 15
f 6 7 16
f 159 168 169
f 159 169 160
f 7 17 16
f 7 8 17
f 160 169 170
f 160 170 161
f 8 18 17
f 8 9 18
f 161 170 171
f 161 171 162
f 10 20 19
f 10 11 20
f 163 172 173
f 163 173 164
f 11 21 20
f 11 12 21
f 164 173 174
f 164 174 165
f 12 22 21
f 12 13 22
f 165 174 175
f 165 175 166
f 13 23 22
f 13 14 23
f 166 175 176
f 166 176 167
f 14 24 23
f 14 15 24
f 167 176 177
f 167 177 168
f 15 25 24
f 15 16 25
f 168 177 178
f 168 178 169
f 16 26 25
f 16 17 26
f 169 178 179
f 169 179 170
f 17 27 26
f 17 18 27
f 170 179 180
f 170 180 171
f 19 29 28
f 19 20 29
f 172 181 182
f 172 182 173
f 20 30 29
f 20 21 30
f 173 182 183
f 173 183 174
f 21 31 30
f 21 22 31
f 174 183 184
f 174 184 175
f 22 32 31
f 22 23 32
f 175 184 185
f 175 185 176
f 23 33 32
f 23 24 33
f 176 185 186
f 176 186 177
f 24 34 33
f 24 25 34
f 177 186 187
f 177 187 178
f 25 35 34
f 25 26 35
f 178 187 188
f 178 188 179
f 26 36 35
f 26 27 36
f 179 188 189
f 179 189 180
f 28 38 37
f 28 29 38
f 181 190 191
f 181 191 182
f 29 39 38
f 29 30 39
f 182 191 192
f 182 192 183
f 30 40 39
f 30 31 40
f 183 192 193
f 183 193 184
f 31 41 40
f 31 32 41
f 184 193 194
f 184 194 185
f 32 42 41
f 32 33 42
f 185 194 195
f 185 195 186
f 33 43 42
f 33 34 43
f 186 195 196
f 186 196 187
f 34 44 43
f 34 35 44
f 187 196 197
f 187 197 188
f 35 45 44
f 35 36 45
f 188 197 198
f 188 198 189
f 37 47 46
f 37 38 47
f 190 199 200
f 190 200 191
f 38 48 47
f 38 39 48
f 191 200 201
f 191 201 192
f 39 49 48
f 39 40 49
f 192 201 202
f 192 202 193
f 40 50 49
f 40 41 50
f 193 202 203
f 193 203 194
f 41 51 50
f 41 42 51
f 194 203 204
f 194 204 195
f 42 52 51
f 42 43 52
f 195 204 205
f 195 205 196
f 43 53 52
f 43 44 53
f 196 205 206
f 196 206 197
f 44 54 53
f 44 45 54
f 197 206 207
f 197 207 198
f 46 56 55
f 46 47 56
f 199 208 209
f 199 209 200
f 47 57 56
f 47 48 57
f 200 209 210
f 200 210 201
f 48 58 57
f 48 49 58
f 201 210 211
f 201 211 202
f 49 59 58
f 49 50 59
f 202 211 212
f 202 212 203
f 50 60 59
f 50 51 60
f 203 212 213
f 203 213 204
f 51 61 60
f 51 52 61
f 204 213 214
f 204 214 205
f 52 62 61
f 52 53 62
f 205 214 215
f 205 215 206
f 53 63 62
f 53 54 63
f 206 215 216
f 206 216 207
f 55 65 64
f 55 56 65
f 208 217 218
f 208 218 209
f 56 66 65
f 56 57 66
f 209 218 219
f 209 219 210
f 57 67 66
f 57 58 67
f 210 219 220
f 210 220 211
f 58 68 67
f 58 59 68
f 211 220 221
f 211 221 212
f 59 69 68
f 59 60 69
f 212 221 222
f 212 222 213
f 60 70 69
f 60 61 70
f 213 222 223
f 213 223 214
f 61 71 70
f 61 62 71
f 214 223 224
f 214 224 215
f 62 72 71
f 62 63 72
f 215 224 225
f 215 225 216
f 64 74 73
f 64 65 74
f 217 226 227
f 217 227 218
f 65 75 74
f 65 66 75
f 218 227 228
f 218 228 219
f 66 76 75
f 66 67 76
f 219 228 229
f 219 229 220
f 67 77 76
f 67 68 77
f 220 229 230
f 220 230 221
f 68 78 77
f 68 69 78
f 221 230 231
f 221 231 222
f 69 79 78
f 69 70 79
f 222 231 232
f 222 232 223
f 70 80 79
f 70 71 80
f 223 232 233
f 223 233 224
f 71 81 80
f 71 72 81
f 224 233 234
f 224 234 225
f 73 83 82
f 73 74 83
f 226 235 236
f 226 236 227
f 74 84 83
f 74 75 84
f 227 236 237
f 227 237 228
f 75 85 84
f 75 76 85
f 228 237 238
f 228 238 229
f 76 86 85
f 76 77 86
f 229 238 239
f 229 239 230
f 77 87 86
f 77 78 87
f 230 239 240
f 230 240 231
f 78 88 87
f 78 79 88
f 231 240 241
f 231 241 232
f 79 89 88
f 79 80 89
f 232 241 242
f 232 242 233
f 80 90 89
f 80 81 90
f 233 242 243
f 233 243 234
f 82 92 91
f 82 83 92
f 235 244 245
f 235 245 236
f 83 93 92
f 83 84 93
f 236 245 246
f 236 246 237
f 84 94 93
f 84 85 94
f 237 246 247
f 237 247 238
f 85 95 94
f 85 86 95
f 238 247 248
f 238 248 239
f 86 96 95
f 86 87 96
f 239 248 249
f 239 249 240
f 87 97 96
f 87 88 97
f 240 249 250
f 240 250 241
f 88 98 97
f 88 89 98
f 241 250 251
f 241 251 242
f 89 99 98
f 89 90 99
f 242 251 252
f 242 252 243
f 91 101 100
f 91 92 101
f 244 253 254
f 244 254 245
f 92 102 101
f 92 93 102
f 245 254 255
f 245 255 246
f 93 103 102
f 93 94 103
f 246 255 256
f 246 256 247
f 94 104 103
f 94 95 104
f 247 256 257
f 247 257 248
f 95 105 104
f 95 96 105
f 248 257 258
f 248 258 249
f 96 106 105
f 96 97 106
f 249 258 259
f 249 259 250
f 97 107 106
f 97 98 107
f 250 259 260
f 250 260 251
f 98 108 107
f 98 99 108
f 251 260 261
f 251 261 252
f 100 110 109
f 100 101 110
f 253 262 263
f 253 263 254
f 101 111 110
f 101 102 111
f 254 263 264
f 254 264 255
f 102 112 111
f 102 103 112
f 255 264 265
f 255 265 256
f 103 113 112
f 103 104 113
f 256 265 266
f 256 266 257
f 104 114 113
f 104 105 114
f 257 266 267
f 257 267 258
f 105 115 114
f 105 106 115
f 258 267 268
f 258 268 259
f 106 116 115
f 106 107 116
f 259 268 269
f 259 269 260
f 107 117 116
f 107 108 117
f 260 269 270
f 260 270 261
f 109 119 118
f 109 110 119
f 262 271 272
f 262 272 263
f 110 120 119
f 110 111 120
f 263 272 273
f 263 273 264
f 111 121 120
f 111 112 121
f 264 273 274
f 264 274 265
f 112 122 121
f 112 113 122
f 265 274 275
f 265 275 266
f 113 123 122
f 113 114 123
f 266 275 276
f 266 276 267
f 114 124 123
f 114 115 124
f 267 276 277
f 267 277 268
f 115 125 124
f 115 116 125
f 268 277 278
f 268 278 269
f 116 126 125
f 116 117 126
f 269 278 279
f 269 279 270
f 118 128 127
f 118 119 128
f 271 280 281
f 271 281 272
f 119 129 128
f 119 120 129
f 272 281 282
f 272 282 273
f 120 130 129
f 120 121 130
f 273 282 283
f 273 283 274
f 121 131 130
f 121 122 131
f 274 283 284
f 274 284 275
f 122 132 131
f 122 123 132
f 275 284 285
f 275 285 276
f 123 133 132
f 123 124 133
f 276 285 286
f 276 286 277
f 124 134 133
f 124 125 134
f 277 286 287
f 277 287 278
f 125 135 134
f 125 126 135
f 278 287 288
f 278 288 279
f 127 137 136
f 127 128 137
f 280 289 290
f 280 290 281
f 128 138 137
f 128 129 138
f 281 290 291
f 281 291 282
f 129 139 138
f 129 130 139
f 282 291 292
f 282 292 283
f 130 140 139
f 130 131 140
f 283 292 293
f 283 293 284
f 131 141 140
f 131 132 141
f 284 293 294
f 284 294 285
f 132 142 141
f 132 133 142
f 285 294 295
f 285 295 286
f 133 143 142
f 133 134 143
f 286 295 296
f 286 296 287
f 134 144 143
f 134 135 144
f 287 296 297
f 287 297 288
f 136 146 145
f 136 137 146
f 289 298 299
f 289 299 290
f 137 147 146
f 137 138 147
f 290 299 300
f 290 300 291
f 138 148 147
f 138 139 148
f 291 300 301
f 291 301 292
f 139 149 148
f 139 140 149
f 292 301 302
f 292 302 293
f 140 150 149
f 140 141 150
f 293 302 303
f 293 303 294
f 141 151 150
f 141 142 151
f 294 303 304
f 294 304 295
f 142 152 151
f 142 143 152
f 295 304 305
f 295 305 296
f 143 153 152
f 143 144 153
f 296 305 306
f 296 306 297
f 1 155 2
f 1 154 155
f 2 156 3
f 2 155 156
f 3 157 4
f 3 156 157
f 4 158 5
f 4 157 158
f 5 159 6
f 5 158 159
f 6 160 7
f 6 159 160
f 7 161 8
f 7 160 161
f 8 162 9
f 8 161 162
f 145 146 299
f 145 299 298
f 146 147 300
f 146 300 299
f 147 148 301
f 147 301 300
f 148 149 302
f 148 302 301
f 149 150 303
f 149 303 302
f 150 151 304
f 150 304 303
f 151 152 305
f 151 305 304
f 152 153 306
f 152 306 305
f 1 10 163
f 1 163 154
f 10 19 172
f 10 172 163
f 19 28 181
f 19 181 172
f 28 37 190
f 28 190 181
f 37 46 199
f 37 199 190
f 46 55 208
f 46 208 199
f 55 64 217
f 55 217 208
f 64 73 226
f 64 226 217
f 73 82 235
f 73 235 226
f 82 91 244
f 82 244 235
f 91 100 253
f 91 253 244
f 100 109 262
f 100 262 253
f 109 118 271
f 109 271 262
f 118 127 280
f 118 280 271
f 127 136 289
f 127 289 280
f 136 145 298
f 136 298 289
f 9 171 18
f 9 162 171
f 18 180 27
f 18 171 180
f 27 189 36
f 27 180 189
f 36 198 45
f 36 189 198
f 45 207 54
f 45 198 207
f 54 216 63
f 54 207 216
f 63 225 72
f 63 216 225
f 72 234 81
f 72 225 234
f 81 243 90
f 81 234 243
f 90 252 99
f 90 243 252
f 99 261 108
f 99 252 261
f 108 270 117
f 108 261 270
f 117 279 126
f 117 270 279
f 126 288 135
f 126 279 288
f 135 297 144
f 135 288 297
f 144 306 153
f 144 297 306
