# m9.obj - tools/build_raid_meshes.py. Game units, Y negative up.
v -30.0 -1300.0 -285.0
v -26.0 -1315.0 -285.0
v -15.0 -1326.0 -285.0
v -0.0 -1330.0 -285.0
v 15.0 -1326.0 -285.0
v 26.0 -1315.0 -285.0
v 30.0 -1300.0 -285.0
v 26.0 -1285.0 -285.0
v 15.0 -1274.0 -285.0
v 0.0 -1270.0 -285.0
v -15.0 -1274.0 -285.0
v -26.0 -1285.0 -285.0
v -30.0 -1300.0 285.0
v -26.0 -1315.0 285.0
v -15.0 -1326.0 285.0
v -0.0 -1330.0 285.0
v 15.0 -1326.0 285.0
v 26.0 -1315.0 285.0
v 30.0 -1300.0 285.0
v 26.0 -1285.0 285.0
v 15.0 -1274.0 285.0
v 0.0 -1270.0 285.0
v -15.0 -1274.0 285.0
v -26.0 -1285.0 285.0
v -30.0 -1300.0 -285.0
v -26.0 -1315.0 -285.0
v -15.0 -1326.0 -285.0
v -0.0 -1330.0 -285.0
v 15.0 -1326.0 -285.0
v 26.0 -1315.0 -285.0
v 30.0 -1300.0 -285.0
v 26.0 -1285.0 -285.0
v 15.0 -1274.0 -285.0
v 0.0 -1270.0 -285.0
v -15.0 -1274.0 -285.0
v -26.0 -1285.0 -285.0
v 0.0 -1300.0 -285.0
v -30.0 -1300.0 285.0
v -26.0 -1315.0 285.0
v -15.0 -1326.0 285.0
v -0.0 -1330.0 285.0
v 15.0 -1326.0 285.0
v 26.0 -1315.0 285.0
v 30.0 -1300.0 285.0
v 26.0 -1285.0 285.0
v 15.0 -1274.0 285.0
v 0.0 -1270.0 285.0
v -15.0 -1274.0 285.0
v -26.0 -1285.0 285.0
v 0.0 -1300.0 285.0
v 44.0 -1300.0 -285.0
v 38.1 -1322.0 -285.0
v 22.0 -1338.1 -285.0
v 0.0 -1344.0 -285.0
v -22.0 -1338.1 -285.0
v -38.1 -1322.0 -285.0
v -44.0 -1300.0 -285.0
v -38.1 -1278.0 -285.0
v -22.0 -1261.9 -285.0
v -0.0 -1256.0 -285.0
v 22.0 -1261.9 -285.0
v 38.1 -1278.0 -285.0
v 40.0 -1300.0 -325.0
v 34.6 -1320.0 -325.0
v 20.0 -1334.6 -325.0
v 0.0 -1340.0 -325.0
v -20.0 -1334.6 -325.0
v -34.6 -1320.0 -325.0
v -40.0 -1300.0 -325.0
v -34.6 -1280.0 -325.0
v -20.0 -1265.4 -325.0
v -0.0 -1260.0 -325.0
v 20.0 -1265.4 -325.0
v 34.6 -1280.0 -325.0
v 44.0 -1300.0 -285.0
v 38.1 -1322.0 -285.0
v 22.0 -1338.1 -285.0
v 0.0 -1344.0 -285.0
v -22.0 -1338.1 -285.0
v -38.1 -1322.0 -285.0
v -44.0 -1300.0 -285.0
v -38.1 -1278.0 -285.0
v -22.0 -1261.9 -285.0
v -0.0 -1256.0 -285.0
v 22.0 -1261.9 -285.0
v 38.1 -1278.0 -285.0
v 0.0 -1300.0 -285.0
v 40.0 -1300.0 -325.0
v 34.6 -1320.0 -325.0
v 20.0 -1334.6 -325.0
v 0.0 -1340.0 -325.0
v -20.0 -1334.6 -325.0
v -34.6 -1320.0 -325.0
v -40.0 -1300.0 -325.0
v -34.6 -1280.0 -325.0
v -20.0 -1265.4 -325.0
v -0.0 -1260.0 -325.0
v 20.0 -1265.4 -325.0
v 34.6 -1280.0 -325.0
v 0.0 -1300.0 -325.0
v 0.0 -1300.0 -269.0
v -11.3 -1300.0 -273.7
v -16.0 -1300.0 -285.0
v -11.3 -1300.0 -296.3
v -0.0 -1300.0 -301.0
v 11.3 -1300.0 -296.3
v 16.0 -1300.0 -285.0
v 11.3 -1300.0 -273.7
v 0.0 -1380.0 -269.0
v -11.3 -1380.0 -273.7
v -16.0 -1380.0 -285.0
v -11.3 -1380.0 -296.3
v -0.0 -1380.0 -301.0
v 11.3 -1380.0 -296.3
v 16.0 -1380.0 -285.0
v 11.3 -1380.0 -273.7
v 0.0 -1300.0 -269.0
v -11.3 -1300.0 -273.7
v -16.0 -1300.0 -285.0
v -11.3 -1300.0 -296.3
v -0.0 -1300.0 -301.0
v 11.3 -1300.0 -296.3
v 16.0 -1300.0 -285.0
v 11.3 -1300.0 -273.7
v 0.0 -1300.0 -285.0
v 0.0 -1380.0 -269.0
v -11.3 -1380.0 -273.7
v -16.0 -1380.0 -285.0
v -11.3 -1380.0 -296.3
v -0.0 -1380.0 -301.0
v 11.3 -1380.0 -296.3
v 16.0 -1380.0 -285.0
v 11.3 -1380.0 -273.7
v 0.0 -1380.0 -285.0
v -75.0 -1400.0 -298.0
v -75.0 -1400.0 -272.0
v 75.0 -1400.0 -298.0
v 75.0 -1400.0 -272.0
v -75.0 -1380.0 -298.0
v -75.0 -1380.0 -272.0
v 75.0 -1380.0 -298.0
v 75.0 -1380.0 -272.0
v -75.0 -1400.0 -298.0
v -75.0 -1400.0 -272.0
v -75.0 -1380.0 -298.0
v -75.0 -1380.0 -272.0
v 75.0 -1400.0 -298.0
v 75.0 -1400.0 -272.0
v 75.0 -1380.0 -298.0
v 75.0 -1380.0 -272.0
v -75.0 -1400.0 -298.0
v -75.0 -1380.0 -298.0
v 75.0 -1400.0 -298.0
v 75.0 -1380.0 -298.0
v -75.0 -1400.0 -272.0
v -75.0 -1380.0 -272.0
v 75.0 -1400.0 -272.0
v 75.0 -1380.0 -272.0
v -13.0 -1400.0 -360.0
v -13.0 -1400.0 -210.0
v 13.0 -1400.0 -360.0
v 13.0 -1400.0 -210.0
v -13.0 -1380.0 -360.0
v -13.0 -1380.0 -210.0
v 13.0 -1380.0 -360.0
v 13.0 -1380.0 -210.0
v -13.0 -1400.0 -360.0
v -13.0 -1400.0 -210.0
v -13.0 -1380.0 -360.0
v -13.0 -1380.0 -210.0
v 13.0 -1400.0 -360.0
v 13.0 -1400.0 -210.0
v 13.0 -1380.0 -360.0
v 13.0 -1380.0 -210.0
v -13.0 -1400.0 -360.0
v -13.0 -1380.0 -360.0
v 13.0 -1400.0 -360.0
v 13.0 -1380.0 -360.0
v -13.0 -1400.0 -210.0
v -13.0 -1380.0 -210.0
v 13.0 -1400.0 -210.0
v 13.0 -1380.0 -210.0
v -44.0 -1300.0 285.0
v -38.1 -1322.0 285.0
v -22.0 -1338.1 285.0
v -0.0 -1344.0 285.0
v 22.0 -1338.1 285.0
v 38.1 -1322.0 285.0
v 44.0 -1300.0 285.0
v 38.1 -1278.0 285.0
v 22.0 -1261.9 285.0
v 0.0 -1256.0 285.0
v -22.0 -1261.9 285.0
v -38.1 -1278.0 285.0
v -40.0 -1300.0 325.0
v -34.6 -1320.0 325.0
v -20.0 -1334.6 325.0
v -0.0 -1340.0 325.0
v 20.0 -1334.6 325.0
v 34.6 -1320.0 325.0
v 40.0 -1300.0 325.0
v 34.6 -1280.0 325.0
v 20.0 -1265.4 325.0
v 0.0 -1260.0 325.0
v -20.0 -1265.4 325.0
v -34.6 -1280.0 325.0
v -44.0 -1300.0 285.0
v -38.1 -1322.0 285.0
v -22.0 -1338.1 285.0
v -0.0 -1344.0 285.0
v 22.0 -1338.1 285.0
v 38.1 -1322.0 285.0
v 44.0 -1300.0 285.0
v 38.1 -1278.0 285.0
v 22.0 -1261.9 285.0
v 0.0 -1256.0 285.0
v -22.0 -1261.9 285.0
v -38.1 -1278.0 285.0
v 0.0 -1300.0 285.0
v -40.0 -1300.0 325.0
v -34.6 -1320.0 325.0
v -20.0 -1334.6 325.0
v -0.0 -1340.0 325.0
v 20.0 -1334.6 325.0
v 34.6 -1320.0 325.0
v 40.0 -1300.0 325.0
v 34.6 -1280.0 325.0
v 20.0 -1265.4 325.0
v 0.0 -1260.0 325.0
v -20.0 -1265.4 325.0
v -34.6 -1280.0 325.0
v 0.0 -1300.0 325.0
v 0.0 -1300.0 301.0
v -11.3 -1300.0 296.3
v -16.0 -1300.0 285.0
v -11.3 -1300.0 273.7
v -0.0 -1300.0 269.0
v 11.3 -1300.0 273.7
v 16.0 -1300.0 285.0
v 11.3 -1300.0 296.3
v 0.0 -1380.0 301.0
v -11.3 -1380.0 296.3
v -16.0 -1380.0 285.0
v -11.3 -1380.0 273.7
v -0.0 -1380.0 269.0
v 11.3 -1380.0 273.7
v 16.0 -1380.0 285.0
v 11.3 -1380.0 296.3
v 0.0 -1300.0 301.0
v -11.3 -1300.0 296.3
v -16.0 -1300.0 285.0
v -11.3 -1300.0 273.7
v -0.0 -1300.0 269.0
v 11.3 -1300.0 273.7
v 16.0 -1300.0 285.0
v 11.3 -1300.0 296.3
v 0.0 -1300.0 285.0
v 0.0 -1380.0 301.0
v -11.3 -1380.0 296.3
v -16.0 -1380.0 285.0
v -11.3 -1380.0 273.7
v -0.0 -1380.0 269.0
v 11.3 -1380.0 273.7
v 16.0 -1380.0 285.0
v 11.3 -1380.0 296.3
v 0.0 -1380.0 285.0
v -75.0 -1400.0 272.0
v -75.0 -1400.0 298.0
v 75.0 -1400.0 272.0
v 75.0 -1400.0 298.0
v -75.0 -1380.0 272.0
v -75.0 -1380.0 298.0
v 75.0 -1380.0 272.0
v 75.0 -1380.0 298.0
v -75.0 -1400.0 272.0
v -75.0 -1400.0 298.0
v -75.0 -1380.0 272.0
v -75.0 -1380.0 298.0
v 75.0 -1400.0 272.0
v 75.0 -1400.0 298.0
v 75.0 -1380.0 272.0
v 75.0 -1380.0 298.0
v -75.0 -1400.0 272.0
v -75.0 -1380.0 272.0
v 75.0 -1400.0 272.0
v 75.0 -1380.0 272.0
v -75.0 -1400.0 298.0
v -75.0 -1380.0 298.0
v 75.0 -1400.0 298.0
v 75.0 -1380.0 298.0
v -13.0 -1400.0 210.0
v -13.0 -1400.0 360.0
v 13.0 -1400.0 210.0
v 13.0 -1400.0 360.0
v -13.0 -1380.0 210.0
v -13.0 -1380.0 360.0
v 13.0 -1380.0 210.0
v 13.0 -1380.0 360.0
v -13.0 -1400.0 210.0
v -13.0 -1400.0 360.0
v -13.0 -1380.0 210.0
v -13.0 -1380.0 360.0
v 13.0 -1400.0 210.0
v 13.0 -1400.0 360.0
v 13.0 -1380.0 210.0
v 13.0 -1380.0 360.0
v -13.0 -1400.0 210.0
v -13.0 -1380.0 210.0
v 13.0 -1400.0 210.0
v 13.0 -1380.0 210.0
v -13.0 -1400.0 360.0
v -13.0 -1380.0 360.0
v 13.0 -1400.0 360.0
v 13.0 -1380.0 360.0
v -120.0 0.0 28.0
v -136.5 0.0 22.7
v -146.6 0.0 8.7
v -146.6 0.0 -8.7
v -136.5 0.0 -22.7
v -120.0 0.0 -28.0
v -103.5 0.0 -22.7
v -93.4 0.0 -8.7
v -93.4 0.0 8.7
v -103.5 0.0 22.7
v -120.0 -1300.0 28.0
v -136.5 -1300.0 22.7
v -146.6 -1300.0 8.7
v -146.6 -1300.0 -8.7
v -136.5 -1300.0 -22.7
v -120.0 -1300.0 -28.0
v -103.5 -1300.0 -22.7
v -93.4 -1300.0 -8.7
v -93.4 -1300.0 8.7
v -103.5 -1300.0 22.7
v -120.0 -1300.0 28.0
v -136.5 -1300.0 22.7
v -146.6 -1300.0 8.7
v -146.6 -1300.0 -8.7
v -136.5 -1300.0 -22.7
v -120.0 -1300.0 -28.0
v -103.5 -1300.0 -22.7
v -93.4 -1300.0 -8.7
v -93.4 -1300.0 8.7
v -103.5 -1300.0 22.7
v -120.0 -1300.0 0.0
v -120.0 -1300.0 28.0
v -120.0 -1316.5 22.7
v -120.0 -1326.6 8.7
v -120.0 -1326.6 -8.7
v -120.0 -1316.5 -22.7
v -120.0 -1300.0 -28.0
v -120.0 -1283.5 -22.7
v -120.0 -1273.4 -8.7
v -120.0 -1273.4 8.7
v -120.0 -1283.5 22.7
v 0.0 -1300.0 28.0
v 0.0 -1316.5 22.7
v 0.0 -1326.6 8.7
v 0.0 -1326.6 -8.7
v 0.0 -1316.5 -22.7
v 0.0 -1300.0 -28.0
v 0.0 -1283.5 -22.7
v 0.0 -1273.4 -8.7
v 0.0 -1273.4 8.7
v 0.0 -1283.5 22.7
v -120.0 -1300.0 28.0
v -120.0 -1316.5 22.7
v -120.0 -1326.6 8.7
v -120.0 -1326.6 -8.7
v -120.0 -1316.5 -22.7
v -120.0 -1300.0 -28.0
v -120.0 -1283.5 -22.7
v -120.0 -1273.4 -8.7
v -120.0 -1273.4 8.7
v -120.0 -1283.5 22.7
v -120.0 -1300.0 0.0
v 0.0 -1300.0 28.0
v 0.0 -1316.5 22.7
v 0.0 -1326.6 8.7
v 0.0 -1326.6 -8.7
v 0.0 -1316.5 -22.7
v 0.0 -1300.0 -28.0
v 0.0 -1283.5 -22.7
v 0.0 -1273.4 -8.7
v 0.0 -1273.4 8.7
v 0.0 -1283.5 22.7
v 0.0 -1300.0 0.0
v 0.0 -1300.0 24.0
v 0.6 -1314.1 19.4
v 1.0 -1322.8 7.4
v 1.0 -1322.8 -7.4
v 0.6 -1314.1 -19.4
v 0.0 -1300.0 -24.0
v -0.6 -1285.9 -19.4
v -1.0 -1277.2 -7.4
v -1.0 -1277.2 7.4
v -0.6 -1285.9 19.4
v 230.0 -1290.0 20.0
v 230.5 -1301.7 16.2
v 230.8 -1309.0 6.2
v 230.8 -1309.0 -6.2
v 230.5 -1301.7 -16.2
v 230.0 -1290.0 -20.0
v 229.5 -1278.3 -16.2
v 229.2 -1271.0 -6.2
v 229.2 -1271.0 6.2
v 229.5 -1278.3 16.2
v 0.0 -1300.0 24.0
v 0.6 -1314.1 19.4
v 1.0 -1322.8 7.4
v 1.0 -1322.8 -7.4
v 0.6 -1314.1 -19.4
v 0.0 -1300.0 -24.0
v -0.6 -1285.9 -19.4
v -1.0 -1277.2 -7.4
v -1.0 -1277.2 7.4
v -0.6 -1285.9 19.4
v 0.0 -1300.0 0.0
v 230.0 -1290.0 20.0
v 230.5 -1301.7 16.2
v 230.8 -1309.0 6.2
v 230.8 -1309.0 -6.2
v 230.5 -1301.7 -16.2
v 230.0 -1290.0 -20.0
v 229.5 -1278.3 -16.2
v 229.2 -1271.0 -6.2
v 229.2 -1271.0 6.2
v 229.5 -1278.3 16.2
v 230.0 -1290.0 0.0
v 230.0 -1290.0 20.0
v 241.0 -1298.8 14.1
v 245.6 -1302.5 0.0
v 241.0 -1298.8 -14.1
v 230.0 -1290.0 -20.0
v 219.0 -1281.2 -14.1
v 214.4 -1277.5 -0.0
v 219.0 -1281.2 14.1
v 270.0 -1240.0 18.0
v 279.9 -1248.0 12.7
v 284.1 -1251.2 0.0
v 279.9 -1248.0 -12.7
v 270.0 -1240.0 -18.0
v 260.1 -1232.0 -12.7
v 255.9 -1228.8 -0.0
v 260.1 -1232.0 12.7
v 230.0 -1290.0 20.0
v 241.0 -1298.8 14.1
v 245.6 -1302.5 0.0
v 241.0 -1298.8 -14.1
v 230.0 -1290.0 -20.0
v 219.0 -1281.2 -14.1
v 214.4 -1277.5 -0.0
v 219.0 -1281.2 14.1
v 230.0 -1290.0 0.0
v 270.0 -1240.0 18.0
v 279.9 -1248.0 12.7
v 284.1 -1251.2 0.0
v 279.9 -1248.0 -12.7
v 270.0 -1240.0 -18.0
v 260.1 -1232.0 -12.7
v 255.9 -1228.8 -0.0
v 260.1 -1232.0 12.7
v 270.0 -1240.0 0.0
f 1 2 14
f 1 14 13
f 2 3 15
f 2 15 14
f 3 4 16
f 3 16 15
f 4 5 17
f 4 17 16
f 5 6 18
f 5 18 17
f 6 7 19
f 6 19 18
f 7 8 20
f 7 20 19
f 8 9 21
f 8 21 20
f 9 10 22
f 9 22 21
f 10 11 23
f 10 23 22
f 11 12 24
f 11 24 23
f 12 1 13
f 12 13 24
f 37 26 25
f 37 27 26
f 37 28 27
f 37 29 28
f 37 30 29
f 37 31 30
f 37 32 31
f 37 33 32
f 37 34 33
f 37 35 34
f 37 36 35
f 37 25 36
f 50 38 39
f 50 39 40
f 50 40 41
f 50 41 42
f 50 42 43
f 50 43 44
f 50 44 45
f 50 45 46
f 50 46 47
f 50 47 48
f 50 48 49
f 50 49 38
f 51 52 64
f 51 64 63
f 52 53 65
f 52 65 64
f 53 54 66
f 53 66 65
f 54 55 67
f 54 67 66
f 55 56 68
f 55 68 67
f 56 57 69
f 56 69 68
f 57 58 70
f 57 70 69
f 58 59 71
f 58 71 70
f 59 60 72
f 59 72 71
f 60 61 73
f 60 73 72
f 61 62 74
f 61 74 73
f 62 51 63
f 62 63 74
f 87 76 75
f 87 77 76
f 87 78 77
f 87 79 78
f 87 80 79
f 87 81 80
f 87 82 81
f 87 83 82
f 87 84 83
f 87 85 84
f 87 86 85
f 87 75 86
f 100 88 89
f 100 89 90
f 100 90 91
f 100 91 92
f 100 92 93
f 100 93 94
f 100 94 95
f 100 95 96
f 100 96 97
f 100 97 98
f 100 98 99
f 100 99 88
f 101 102 110
f 101 110 109
f 102 103 111
f 102 111 110
f 103 104 112
f 103 112 111
f 104 105 113
f 104 113 112
f 105 106 114
f 105 114 113
f 106 107 115
f 106 115 114
f 107 108 116
f 107 116 115
f 108 101 109
f 108 109 116
f 125 118 117
f 125 119 118
f 125 120 119
f 125 121 120
f 125 122 121
f 125 123 122
f 125 124 123
f 125 117 124
f 134 126 127
f 134 127 128
f 134 128 129
f 134 129 130
f 134 130 131
f 134 131 132
f 134 132 133
f 134 133 126
f 135 137 138
f 135 138 136
f 139 142 141
f 139 140 142
f 143 146 145
f 143 144 146
f 147 149 150
f 147 150 148
f 151 154 153
f 151 152 154
f 155 157 158
f 155 158 156
f 159 161 162
f 159 162 160
f 163 166 165
f 163 164 166
f 167 170 169
f 167 168 170
f 171 173 174
f 171 174 172
f 175 178 177
f 175 176 178
f 179 181 182
f 179 182 180
f 183 184 196
f 183 196 195
f 184 185 197
f 184 197 196
f 185 186 198
f 185 198 197
f 186 187 199
f 186 199 198
f 187 188 200
f 187 200 199
f 188 189 201
f 188 201 200
f 189 190 202
f 189 202 201
f 190 191 203
f 190 203 202
f 191 192 204
f 191 204 203
f 192 193 205
f 192 205 204
f 193 194 206
f 193 206 205
f 194 183 195
f 194 195 206
f 219 208 207
f 219 209 208
f 219 210 209
f 219 211 210
f 219 212 211
f 219 213 212
f 219 214 213
f 219 215 214
f 219 216 215
f 219 217 216
f 219 218 217
f 219 207 218
f 232 220 221
f 232 221 222
f 232 222 223
f 232 223 224
f 232 224 225
f 232 225 226
f 232 226 227
f 232 227 228
f 232 228 229
f 232 229 230
f 232 230 231
f 232 231 220
f 233 234 242
f 233 242 241
f 234 235 243
f 234 243 242
f 235 236 244
f 235 244 243
f 236 237 245
f 236 245 244
f 237 238 246
f 237 246 245
f 238 239 247
f 238 247 246
f 239 240 248
f 239 248 247
f 240 233 241
f 240 241 248
f 257 250 249
f 257 251 250
f 257 252 251
f 257 253 252
f 257 254 253
f 257 255 254
f 257 256 255
f 257 249 256
f 266 258 259
f 266 259 260
f 266 260 261
f 266 261 262
f 266 262 263
f 266 263 264
f 266 264 265
f 266 265 258
f 267 269 270
f 267 270 268
f 271 274 273
f 271 272 274
f 275 278 277
f 275 276 278
f 279 281 282
f 279 282 280
f 283 286 285
f 283 284 286
f 287 289 290
f 287 290 288
f 291 293 294
f 291 294 292
f 295 298 297
f 295 296 298
f 299 302 301
f 299 300 302
f 303 305 306
f 303 306 304
f 307 310 309
f 307 308 310
f 311 313 314
f 311 314 312
f 315 316 326
f 315 326 325
f 316 317 327
f 316 327 326
f 317 318 328
f 317 328 327
f 318 319 329
f 318 329 328
f 319 320 330
f 319 330 329
f 320 321 331
f 320 331 330
f 321 322 332
f 321 332 331
f 322 323 333
f 322 333 332
f 323 324 334
f 323 334 333
f 324 315 325
f 324 325 334
f 345 335 336
f 345 336 337
f 345 337 338
f 345 338 339
f 345 339 340
f 345 340 341
f 345 341 342
f 345 342 343
f 345 343 344
f 345 344 335
f 346 347 357
f 346 357 356
f 347 348 358
f 347 358 357
f 348 349 359
f 348 359 358
f 349 350 360
f 349 360 359
f 350 351 361
f 350 361 360
f 351 352 362
f 351 362 361
f 352 353 363
f 352 363 362
f 353 354 364
f 353 364 363
f 354 355 365
f 354 365 364
f 355 346 356
f 355 356 365
f 376 367 366
f 376 368 367
f 376 369 368
f 376 370 369
f 376 371 370
f 376 372 371
f 376 373 372
f 376 374 373
f 376 375 374
f 376 366 375
f 387 377 378
f 387 378 379
f 387 379 380
f 387 380 381
f 387 381 382
f 387 382 383
f 387 383 384
f 387 384 385
f 387 385 386
f 387 386 377
f 388 389 399
f 388 399 398
f 389 390 400
f 389 400 399
f 390 391 401
f 390 401 400
f 391 392 402
f 391 402 401
f 392 393 403
f 392 403 402
f 393 394 404
f 393 404 403
f 394 395 405
f 394 405 404
f 395 396 406
f 395 406 405
f 396 397 407
f 396 407 406
f 397 388 398
f 397 398 407
f 418 409 408
f 418 410 409
f 418 411 410
f 418 412 411
f 418 413 412
f 418 414 413
f 418 415 414
f 418 416 415
f 418 417 416
f 418 408 417
f 429 419 420
f 429 420 421
f 429 421 422
f 429 422 423
f 429 423 424
f 429 424 425
f 429 425 426
f 429 426 427
f 429 427 428
f 429 428 419
f 430 431 439
f 430 439 438
f 431 432 440
f 431 440 439
f 432 433 441
f 432 441 440
f 433 434 442
f 433 442 441
f 434 435 443
f 434 443 442
f 435 436 444
f 435 444 443
f 436 437 445
f 436 445 444
f 437 430 438
f 437 438 445
f 454 447 446
f 454 448 447
f 454 449 448
f 454 450 449
f 454 451 450
f 454 452 451
f 454 453 452
f 454 446 453
f 463 455 456
f 463 456 457
f 463 457 458
f 463 458 459
f 463 459 460
f 463 460 461
f 463 461 462
f 463 462 455
